<svg width="352" height="318" viewBox="0 0 352 318" fill="none" xmlns="http://www.w3.org/2000/svg">
<path d="M85.5218 228.297C85.712 226.017 85.1413 223.832 83.9997 221.837C83.0484 220.412 81.5263 219.272 80.7653 217.752C79.4335 215.092 80.3848 212.052 80.0043 209.201C79.7189 206.731 78.4822 204.451 76.5796 202.836C74.8672 201.316 72.6793 200.271 71.062 198.751C68.3984 196.186 67.6374 192.48 66.1153 189.25C63.8322 184.595 60.1221 180.7 55.5559 178.23C58.4098 183.36 51.8458 189.915 54.7949 195.046C55.7462 196.661 57.5536 197.896 58.2195 199.606C59.9319 203.786 54.3192 208.251 56.1267 212.337C56.9828 214.427 59.4562 215.567 60.6929 217.562C62.215 220.222 60.9783 223.357 61.1686 226.302C61.3588 230.387 64.1176 233.998 67.4471 236.848C69.54 238.653 71.8231 240.173 74.1062 241.693C76.7698 243.593 77.9114 245.588 80.2896 242.548C83.524 238.368 85.3315 233.428 85.5218 228.297Z" fill="#D1D3D4"/>
<path d="M91.5149 230.197C90.6587 227.062 89.9928 223.642 91.5149 220.602C93.1321 217.277 97.2227 214.902 97.6983 211.196C97.9837 208.821 96.6519 206.351 97.1276 204.071C97.6032 201.791 99.8863 200.081 101.694 198.371C105.689 194.571 108.258 189.345 108.638 183.74C111.207 186.78 113.87 189.82 115.297 193.43C116.724 197.041 116.724 201.221 114.346 204.356C113.68 205.116 113.109 205.876 112.634 206.826C111.778 209.201 114.061 211.291 115.202 213.572C116.629 216.137 116.249 219.272 114.346 221.457C111.968 224.022 107.402 225.067 106.26 228.202C105.975 229.342 105.879 230.577 105.879 231.813C105.499 235.898 101.884 239.888 97.3178 240.838C94.5591 241.408 94.559 240.458 94.0834 238.368C93.5126 235.708 92.2759 232.953 91.5149 230.197Z" fill="#D1D3D4"/>
<path d="M82.6679 207.491C80.6701 201.411 79.9091 195.046 77.8162 189.06C76.0088 184.31 73.9159 179.75 71.3474 175.284L79.814 178.42C82.5727 179.465 85.5217 180.605 86.7584 182.98C89.0416 187.065 84.951 192.385 87.3292 196.376C88.1854 197.801 89.6123 198.846 90.6588 200.176C93.1321 203.311 92.7516 207.586 91.4198 211.196C90.849 212.717 88.2805 220.792 85.9023 218.607C84.951 217.657 84.8558 214.332 84.4753 213.097C83.9997 211.291 83.2386 209.391 82.6679 207.491Z" fill="#D1D3D4"/>
<path d="M81.4312 263.639C79.9091 252.714 78.6724 243.118 78.6724 243.023L77.3406 243.213C77.3406 243.403 78.6724 252.809 80.0993 263.639H81.4312Z" fill="#D1D3D4"/>
<path d="M92.9419 263.639C94.7494 249.483 96.652 238.938 97.6984 237.798L96.7471 236.943C95.225 238.558 93.2273 250.909 91.6101 263.734H92.9419V263.639Z" fill="#D1D3D4"/>
<path d="M91.3247 263.639C89.8978 237.988 87.3293 212.526 87.2342 212.241L85.9023 212.336C85.9023 212.621 88.4709 237.988 89.9929 263.639H91.3247Z" fill="#D1D3D4"/>
<path d="M68.2081 248.438H105.88L103.216 276.75C102.74 281.595 97.3179 285.395 90.6588 285.395H83.3338C76.7698 285.395 71.2523 281.595 70.7766 276.75L68.2081 248.438Z" fill="#D1D3D4"/>
<path d="M96.2713 146.783C149.073 146.783 191.877 114.073 191.877 73.724C191.877 33.3746 149.073 0.665039 96.2713 0.665039C43.4699 0.665039 0.665894 33.3746 0.665894 73.724C0.665894 114.073 43.4699 146.783 96.2713 146.783Z" fill="white"/>
<path d="M96.2713 147.448C43.1889 147.448 0 114.386 0 73.724C0 33.0618 43.1889 0 96.2713 0C149.354 0 192.543 33.0618 192.543 73.724C192.543 114.386 149.354 147.448 96.2713 147.448ZM96.2713 1.33007C43.95 1.33007 1.33182 33.8218 1.33182 73.724C1.33182 113.626 43.95 146.118 96.2713 146.118C148.593 146.118 191.211 113.626 191.211 73.724C191.211 33.8218 148.593 1.33007 96.2713 1.33007Z" fill="#D1D3D4"/>
<path d="M202.531 42.2773C202.056 42.2773 201.58 42.3723 201.2 42.4673C196.158 43.7024 194.826 50.6377 200.439 52.4428C203.483 53.2979 206.622 51.4928 207.383 48.4526C207.478 48.2626 207.478 48.0726 207.478 47.8826C207.859 45.2225 205.861 42.6573 203.197 42.3723C203.007 42.2773 202.722 42.2773 202.531 42.2773Z" fill="white"/>
<path d="M201.865 53.3929C198.726 53.3929 196.158 50.8277 196.062 47.6926C196.253 44.8424 198.25 42.4673 201.009 41.8023C201.485 41.7072 202.056 41.6122 202.531 41.6122C205.671 41.6122 208.144 44.0824 208.239 47.1225C208.239 47.4076 208.239 47.5976 208.239 47.8826C208.049 49.6877 207.002 51.3028 205.385 52.2528C204.244 53.0129 203.102 53.3929 201.865 53.3929ZM202.531 42.9423C202.151 42.9423 201.77 43.0373 201.39 43.1323C199.202 43.6074 197.585 45.5075 197.489 47.7876C197.394 49.6877 198.726 51.3978 200.629 51.8728C203.292 52.5378 206.051 51.0178 206.717 48.3576C206.717 48.1676 206.812 47.9776 206.812 47.8826C207.098 45.5075 205.48 43.4173 203.102 43.1323C202.912 42.9423 202.722 42.9423 202.531 42.9423Z" fill="#D1D3D4"/>
<path d="M215.945 58.6182C219.75 59.3782 220.13 52.8228 216.135 53.5829C213.376 54.1529 213.091 58.0481 215.945 58.6182Z" fill="white"/>
<path d="M216.611 59.3782C216.325 59.3782 216.135 59.3782 215.849 59.2832C214.327 59.0932 213.281 57.7631 213.281 56.2431C213.281 54.628 214.423 53.2029 216.04 53.0129C217.181 52.7279 218.418 53.2029 219.179 54.1529C219.94 55.388 219.845 56.9081 219.084 58.0481C218.513 58.9032 217.562 59.3782 216.611 59.3782ZM216.04 58.0481C216.801 58.2382 217.562 57.9531 217.942 57.3831C218.418 56.6231 218.418 55.673 218.037 54.913C217.657 54.3429 216.896 54.1529 216.23 54.343C215.279 54.533 214.518 55.293 214.518 56.3381C214.613 57.0981 215.279 57.8581 216.04 58.0481Z" fill="#D1D3D4"/>
<path d="M318.875 178.515L346.463 171.579C345.416 169.584 328.673 119.516 313.358 109.731C300.135 98.8053 273.784 97.7603 243.818 96.5252C234.21 95.9552 224.601 96.9052 215.279 99.2804C180.366 108.876 155.823 158.374 155.823 158.374L190.26 165.119C190.26 165.119 184.742 216.232 179.986 278.555C179.986 278.555 234.875 290.906 320.492 286.06C320.397 286.155 318.019 187.35 318.875 178.515Z" fill="#F89923"/>
<path d="M235.066 113.911L206.622 284.73L264.461 288.911L277.018 104.126L235.066 113.911Z" fill="#231F20"/>
<path d="M264.461 289.576L206.622 285.395C206.241 285.395 205.956 285.015 206.051 284.635L234.495 113.816C234.59 113.531 234.78 113.341 234.971 113.246L276.923 103.461C277.113 103.366 277.303 103.461 277.494 103.556C277.684 103.651 277.779 103.936 277.684 104.126L265.127 288.816C265.127 289.006 265.032 289.196 264.936 289.291C264.841 289.481 264.651 289.576 264.461 289.576ZM207.383 284.065L263.89 288.151L276.352 104.981L235.732 114.481L207.383 284.065Z" fill="#231F20"/>
<path d="M238.871 88.9248L233.544 111.251C233.544 111.251 238.11 126.262 253.236 125.122C262.273 124.362 270.549 119.517 275.686 112.011L282.25 70.8739C282.25 70.8739 272.357 63.3685 279.396 40.4722C266.649 43.7024 253.236 43.3224 240.678 39.6172C240.678 39.6172 229.929 63.9385 229.834 75.5291C229.738 87.1197 238.871 88.9248 238.871 88.9248Z" fill="white"/>
<path d="M251.714 125.882C237.539 125.882 233.068 111.631 232.973 111.441C232.973 111.346 232.973 111.251 232.973 111.061L238.11 89.3998C235.922 88.6398 229.073 85.5996 229.168 75.5291C229.263 63.9384 239.632 40.3772 240.108 39.3321C240.203 39.0471 240.583 38.8571 240.869 38.9521C253.331 42.6573 266.554 42.9423 279.206 39.8071C279.396 39.7121 279.682 39.8071 279.872 39.9971C280.062 40.1872 280.062 40.4722 280.062 40.6622C276.542 52.2528 277.399 59.7582 278.825 63.9384C280.348 68.4987 282.631 70.3038 282.726 70.3988C282.916 70.5888 283.011 70.7788 283.011 71.0638L276.447 112.201C276.447 112.296 276.447 112.391 276.352 112.486C276.257 112.581 268.742 124.742 253.426 125.882C252.76 125.882 252.284 125.882 251.714 125.882ZM234.305 111.251C234.876 112.961 239.537 125.502 253.331 124.457C267.125 123.412 274.45 112.961 275.211 111.821L281.679 71.2538C279.967 69.7337 272.737 61.7533 278.54 41.5172C266.173 44.2724 253.331 43.9874 241.154 40.4722C239.632 44.0824 230.69 65.2685 230.595 75.6241C230.5 86.4547 238.776 88.3547 239.156 88.3547C239.347 88.3547 239.442 88.4498 239.632 88.6398C239.727 88.8298 239.727 89.0198 239.727 89.1148L234.305 111.251Z" fill="#231F20"/>
<path d="M273.879 68.8787C274.735 66.9786 276.162 65.3636 277.969 64.3185C279.682 63.4635 281.584 62.7984 283.487 62.6084C284.533 62.3234 285.58 62.3234 286.626 62.5134C287.387 62.7034 287.958 63.0834 288.529 63.5585C289.956 64.6035 291.002 66.1236 291.478 67.8337C291.668 69.2588 291.478 70.6838 291.002 72.0139C290.622 73.534 289.956 74.9591 289.195 76.2892C285.77 81.7044 278.54 83.3195 273.023 79.8993L272.927 79.8043" fill="white"/>
<path d="M279.301 82.3695C276.923 82.3695 274.545 81.7044 272.547 80.3744C272.262 80.1844 272.166 79.8043 272.357 79.4243C272.547 79.0443 272.927 79.0443 273.308 79.2343C275.781 80.8494 278.826 81.4194 281.679 80.7544C284.533 80.0893 287.102 78.3793 288.624 75.9091C289.385 74.6741 289.956 73.249 290.431 71.8239C290.907 70.5888 291.097 69.2588 290.907 67.9287C290.526 66.4086 289.575 64.9835 288.243 64.0335C287.768 63.5585 287.197 63.2734 286.531 63.0834C285.58 62.8934 284.628 62.8934 283.677 63.1784C281.87 63.4634 280.062 63.9385 278.35 64.7935C276.638 65.7436 275.306 67.2637 274.545 69.0688C274.354 69.4488 273.974 69.5438 273.689 69.4488C273.308 69.2588 273.213 68.8788 273.308 68.5937C274.164 66.5036 275.686 64.7935 277.684 63.7485C279.491 62.7984 281.394 62.2284 283.392 61.9434C284.533 61.6584 285.675 61.6584 286.816 61.9434C287.577 62.2284 288.338 62.6084 289.004 63.1784C290.622 64.3185 291.668 65.9336 292.144 67.8337C292.334 69.3538 292.144 70.8739 291.668 72.2989C291.192 73.819 290.622 75.3391 289.765 76.6692C287.958 79.4243 285.199 81.4194 281.965 82.0845C281.013 82.3695 280.157 82.3695 279.301 82.3695Z" fill="#231F20"/>
<path d="M236.778 100.135C236.778 100.135 245.054 102.891 252.474 97.6653C259.895 92.44 259.895 88.8298 259.895 88.8298C259.895 88.8298 248.574 92.8201 239.347 89.3999L236.778 100.135Z" fill="#231F20"/>
<path d="M242.105 101.561C240.203 101.561 238.395 101.275 236.588 100.8C236.302 100.705 236.112 100.325 236.112 100.04L238.776 89.3048C238.776 89.1148 238.966 88.9248 239.156 88.9248C239.347 88.8298 239.537 88.8298 239.727 88.9248C248.669 92.25 259.704 88.4498 259.799 88.3548C260.18 88.2598 260.561 88.4498 260.656 88.7348C260.656 88.8298 260.656 88.9248 260.656 88.9248C260.656 89.1148 260.561 93.0101 252.95 98.2353C249.716 100.42 245.911 101.561 242.105 101.561ZM237.634 99.6604C239.632 100.135 246.196 101.275 252.189 97.1903C256.946 93.9601 258.563 91.3 259.038 89.8749C255.994 90.8249 247.528 92.82 239.917 90.2549L237.634 99.6604Z" fill="#231F20"/>
<path d="M254.948 56.623C254.948 56.623 245.054 66.4086 246.481 68.7837C247.908 71.1588 253.236 70.7788 253.236 70.7788" fill="white"/>
<path d="M252.57 71.4439C250.952 71.4439 247.242 71.2538 245.911 69.0687C244.388 66.5036 252.094 58.5232 254.472 56.148C254.758 55.863 255.138 55.863 255.423 56.148C255.709 56.433 255.709 56.8131 255.423 57.0981C250.286 62.2284 246.481 67.3586 247.052 68.4037C248.003 70.0188 251.809 70.2088 253.14 70.1138C253.521 70.0188 253.806 70.3038 253.901 70.6838C253.997 71.0638 253.711 71.3489 253.331 71.4439H253.236H252.57Z" fill="#231F20"/>
<path d="M266.156 57.8111C266.32 56.3511 265.606 55.0728 264.562 54.956C263.517 54.8392 262.538 55.9281 262.374 57.3882C262.211 58.8482 262.925 60.1265 263.969 60.2433C265.013 60.3601 265.992 59.2712 266.156 57.8111Z" fill="#231F20"/>
<path d="M248.251 54.9984C248.838 53.6513 248.533 52.2197 247.57 51.8008C246.607 51.3819 245.349 52.1343 244.762 53.4814C244.175 54.8284 244.48 56.2601 245.443 56.679C246.407 57.0979 247.664 56.3455 248.251 54.9984Z" fill="#231F20"/>
<path d="M262.368 82.9395C262.178 82.9395 261.988 82.8445 261.892 82.7495C255.994 77.0492 240.013 73.629 239.822 73.534C239.442 73.439 239.252 73.059 239.347 72.774C239.442 72.3939 239.822 72.2039 240.108 72.2989C240.774 72.3939 256.66 75.9091 262.844 81.7994C263.129 82.0845 263.129 82.4645 262.844 82.7495C262.749 82.8445 262.558 82.9395 262.368 82.9395Z" fill="#231F20"/>
<path d="M345.131 225.922C344.941 225.922 344.846 225.922 344.75 225.827L325.059 210.721C324.773 210.531 324.678 210.056 324.963 209.771C325.249 209.486 325.629 209.391 325.915 209.676L345.511 224.782C345.797 224.972 345.892 225.447 345.607 225.732C345.511 225.827 345.321 225.922 345.131 225.922Z" fill="#231F20"/>
<path d="M291.002 60.5183H290.812C290.431 60.4233 290.241 60.0433 290.336 59.7582C292.334 52.3478 294.237 44.8424 296.044 37.432L296.234 36.672C296.995 33.6318 297.851 30.1166 297.756 27.0765C297.661 24.7013 296.615 24.4163 293.285 24.4163C293.095 24.4163 292.905 24.3213 292.81 24.2263C292.714 24.1313 292.619 23.9413 292.619 23.7513C292.524 20.4261 291.002 17.2909 288.339 15.2958C283.867 12.0657 277.399 11.4006 270.454 13.4907L270.074 13.5857C263.224 15.6759 257.231 17.481 249.716 17.766C248.289 17.861 246.767 17.766 245.34 17.766C240.013 17.2909 234.59 18.241 229.643 20.3311C228.026 20.8061 226.409 21.5662 225.077 22.6112C223.745 23.9413 222.604 25.5564 221.938 27.3615C221.177 28.8816 220.606 30.5917 220.226 32.3018C219.465 37.527 222.889 42.2773 225.077 44.6524C226.409 46.1725 228.407 47.7876 230.404 47.2176C230.785 47.1226 231.166 47.3126 231.261 47.6926C231.356 48.0726 231.166 48.3576 230.785 48.5476C228.692 49.1177 226.409 48.0726 224.126 45.6025C221.843 43.1323 218.133 38.0021 218.989 32.2068C219.369 30.4017 219.94 28.5966 220.796 26.8865C221.557 24.8914 222.794 23.1813 224.221 21.6612C225.743 20.5211 227.455 19.6661 229.168 19.096C231.165 18.336 233.163 17.671 235.256 17.1959C238.586 16.6259 242.01 16.3409 245.34 16.5309C246.767 16.5309 248.289 16.5309 249.716 16.5309C257.041 16.2459 262.939 14.4408 269.788 12.4457L270.169 12.3507C277.494 10.1656 284.438 10.8306 289.195 14.3458C292.049 16.4359 293.761 19.6661 294.046 23.1813C296.425 23.1813 299.183 23.4663 299.278 27.1715C299.374 30.4967 298.517 34.0119 297.756 37.147L297.566 37.9071C295.759 45.4125 293.761 52.9179 291.858 60.2333C291.478 60.3283 291.288 60.5183 291.002 60.5183Z" fill="#231F20"/>
<path d="M269.027 115.906C269.027 115.906 261.512 108.686 259.514 99.8504C257.516 91.015 258.277 89.1149 256.946 88.8298C255.614 88.5448 253.236 89.4949 251.523 92.44C249.811 95.3852 250.287 106.026 253.045 110.301C255.804 114.576 269.027 115.906 269.027 115.906Z" fill="white"/>
<path d="M269.027 116.571C268.456 116.476 255.424 115.146 252.475 110.681C249.525 106.216 249.05 95.3852 250.952 92.155C252.855 88.9248 255.328 87.8798 257.041 88.2598C258.277 88.5448 258.468 89.5899 258.753 91.87C258.943 93.4851 259.324 96.0502 260.18 99.8504C262.083 108.401 269.408 115.431 269.503 115.526C269.693 115.716 269.788 116.001 269.598 116.286C269.503 116.381 269.312 116.571 269.027 116.571ZM256.375 89.4948C255.328 89.4948 253.521 90.3499 252.094 92.82C250.667 95.2902 250.857 105.836 253.616 109.921C255.519 112.771 262.939 114.386 267.315 114.956C265.032 112.391 260.465 106.691 258.943 99.9454C258.087 96.0502 257.707 93.5801 257.516 91.87C257.231 89.9699 257.136 89.4948 256.85 89.3998C256.66 89.4948 256.565 89.4948 256.375 89.4948Z" fill="#231F20"/>
<path d="M157.82 159.419C157.82 159.419 124.335 241.598 136.892 266.679C149.449 291.761 272.832 302.876 272.832 302.876C272.832 302.876 288.529 309.527 293.38 310.572C298.232 311.617 316.687 312.662 316.687 312.662C316.687 312.662 309.743 314.087 312.121 316.177C314.499 318.267 328.198 318.267 329.53 313.422C330.861 308.577 327.056 289.101 322.87 285.87C318.685 282.64 271.31 271.24 267.79 270.86C264.271 270.48 186.454 243.403 186.454 243.403L196.538 167.019" fill="white"/>
<path d="M318.875 317.982C315.736 317.982 312.882 317.507 311.74 316.462C311.17 316.082 310.884 315.417 311.074 314.657C311.455 313.802 312.216 313.137 313.072 312.852C307.46 312.472 296.805 311.712 293.285 310.952C288.529 309.907 274.164 303.921 272.737 303.256C266.363 302.686 148.878 291.666 136.321 266.679C130.994 256.134 132.991 234.758 142.029 203.216C148.783 179.75 157.154 159.134 157.25 158.944C157.345 158.564 157.725 158.374 158.106 158.469C158.486 158.564 158.677 158.944 158.581 159.324V159.419C158.201 160.274 125.381 241.598 137.653 266.109C149.925 290.621 271.786 301.831 273.023 301.926C273.118 301.926 273.118 301.926 273.213 301.926C273.403 302.021 288.909 308.577 293.666 309.527C298.422 310.477 316.687 311.617 316.877 311.617C317.258 311.617 317.448 311.902 317.543 312.187C317.543 312.567 317.353 312.852 316.972 312.852C314.975 313.232 312.597 314.182 312.501 314.752C312.501 314.847 312.596 315.037 312.787 315.132C314.119 316.272 320.492 316.937 325.249 315.512C326.771 315.037 328.673 314.182 329.149 312.662C330.576 307.722 326.485 288.721 322.775 285.87C318.875 282.925 272.261 271.43 268.076 271.05C264.556 270.67 189.594 244.733 186.359 243.593C186.074 243.498 185.884 243.213 185.884 242.833L195.967 166.449C195.967 166.069 196.348 165.784 196.728 165.879C197.109 165.974 197.394 166.259 197.299 166.639L187.215 242.833C214.327 252.239 265.412 269.72 268.076 270.005C270.739 270.29 318.97 281.785 323.441 285.205C327.912 288.626 331.718 308.482 330.291 313.422C329.815 315.037 328.198 316.367 325.534 317.127C323.346 317.792 321.158 318.077 318.875 317.982Z" fill="#231F20"/>
<path d="M299.373 183.36C299.373 183.36 276.923 125.977 270.644 116.476C264.366 106.976 236.588 83.9846 233.163 86.2647C229.738 88.5448 230.69 91.11 232.212 92.82C233.734 94.5301 241.725 100.135 241.725 100.135C241.725 100.135 232.687 95.9552 232.402 101.466C232.117 106.976 238.966 110.206 238.966 110.206C238.966 110.206 231.356 104.601 231.07 110.586C230.785 116.571 236.398 118.946 236.398 118.946C236.398 118.946 228.311 112.106 229.073 119.231C230.309 131.012 253.997 144.978 253.997 144.978L264.08 242.738C264.08 242.738 267.695 299.456 303.845 297.746C350.363 295.561 363.776 228.582 340.565 171.959" fill="white"/>
<path d="M302.132 298.411C267.124 298.411 263.319 243.308 263.224 242.833L253.236 145.453C250.382 143.743 229.453 130.727 228.216 119.326C228.026 117.426 228.407 116.096 229.358 115.621C229.929 115.336 230.595 115.336 231.261 115.431C230.404 114.006 230.024 112.296 230.119 110.586C230.214 108.971 230.785 107.926 231.831 107.451C232.402 107.166 233.068 107.071 233.734 107.166C232.212 105.646 231.451 103.556 231.451 101.37C231.451 100.23 232.022 99.1854 232.973 98.5203C234.4 97.8553 236.017 97.7603 237.539 98.1403C235.351 96.6202 233.353 95.0051 231.451 93.2C229.548 91.4899 229.453 88.5448 231.165 86.6447C231.546 86.1697 232.022 85.8846 232.592 85.5996C235.161 83.8895 245.245 91.5849 251.048 96.3352C258.468 102.416 267.6 110.871 271.025 116.001C277.303 125.407 298.993 180.7 299.849 183.075C299.944 183.36 299.849 183.74 299.469 183.93C299.088 184.025 298.708 183.93 298.612 183.55C298.422 182.98 276.067 126.072 269.883 116.761C267.029 112.391 259.038 104.601 250.191 97.3803C239.442 88.5448 234.114 86.1696 233.353 86.7397C232.307 87.3097 231.641 88.2598 231.356 89.3048C231.356 90.4449 231.736 91.4899 232.497 92.345C233.639 93.6751 239.632 98.0453 241.82 99.5654C242.105 99.7554 242.2 100.135 242.01 100.42C241.82 100.705 241.439 100.8 241.154 100.705C239.727 100.04 235.541 98.5203 233.639 99.6604C233.068 100.04 232.687 100.705 232.687 101.465C232.497 104.506 234.971 106.881 236.873 108.306C237.634 108.686 238.395 109.161 239.061 109.636C239.347 109.826 239.442 110.206 239.251 110.491C239.061 110.776 238.681 110.871 238.395 110.776C237.634 110.396 236.873 109.921 236.112 109.446C234.685 108.781 233.163 108.211 232.307 108.686C231.736 108.971 231.451 109.636 231.356 110.681C231.261 112.771 232.022 114.861 233.449 116.381C234.495 116.951 235.446 117.711 236.398 118.471C236.683 118.661 236.683 119.041 236.493 119.326C236.302 119.611 236.017 119.706 235.637 119.611C234.59 119.136 233.544 118.376 232.687 117.616C231.451 116.951 230.309 116.571 229.738 116.856C229.168 117.141 229.073 117.901 229.263 119.231C230.5 130.537 253.711 144.408 253.901 144.503C254.092 144.598 254.187 144.788 254.187 144.978L264.271 242.738C264.271 243.308 268.171 298.791 303.369 297.081C317.924 296.416 330.1 289.101 338.472 275.99C354.358 251.099 354.739 209.391 339.518 172.244C339.423 171.864 339.518 171.484 339.899 171.389C340.279 171.294 340.66 171.389 340.755 171.769C356.166 209.296 355.69 251.479 339.613 276.75C330.957 290.241 318.495 297.746 303.464 298.506C303.274 298.411 302.703 298.411 302.132 298.411Z" fill="#231F20"/>
<path d="M298.232 181.175C298.232 181.175 316.402 230.387 320.968 246.633L298.232 181.175Z" fill="white"/>
<path d="M320.968 247.298C320.683 247.298 320.397 247.108 320.302 246.823C315.736 230.768 297.756 181.935 297.566 181.46C297.471 181.08 297.661 180.7 297.947 180.605C298.327 180.51 298.708 180.7 298.803 180.985C298.993 181.46 316.972 230.387 321.634 246.443C321.729 246.823 321.539 247.108 321.158 247.298C321.063 247.298 321.063 247.298 320.968 247.298Z" fill="#231F20"/>
<path d="M199.392 133.862C199.392 135.287 196.633 161.224 196.633 161.224L199.392 133.862Z" fill="#231F20"/>
<path d="M196.633 161.889C196.158 161.889 195.967 161.509 195.967 161.129C195.967 161.129 195.967 161.129 195.967 161.034C196.728 153.813 198.726 134.812 198.726 133.672C198.726 133.292 199.012 133.007 199.392 133.007C199.773 133.007 200.058 133.292 200.058 133.672C200.058 135.097 197.394 160.084 197.299 161.129C197.299 161.604 197.014 161.889 196.633 161.889Z" fill="#231F20"/>
<path d="M79.6237 84.5546C78.8626 74.5791 82.763 68.1187 93.798 60.2333C103.787 53.2029 106.545 49.5927 106.165 44.0824C105.594 37.4321 99.6009 33.8219 90.6587 34.4869C79.5286 35.3419 73.25 43.0374 73.4402 55.7681L49.1822 55.8631C48.1357 31.5417 64.0224 14.4408 89.1367 12.4457C111.492 10.7356 128.806 22.9913 130.233 41.3273C131.089 52.5379 126.142 60.9933 113.775 69.9238C103.692 77.4292 101.504 80.3744 101.884 86.0747L102.36 91.775L80.3847 93.4851L79.6237 84.5546ZM79.5286 104.886L105.594 102.891L107.592 128.162L81.5263 130.157L79.5286 104.886Z" fill="#231F20"/>
</svg>
