<svg width="428" height="332" viewBox="0 0 428 332" fill="none" xmlns="http://www.w3.org/2000/svg">
<path d="M10.1485 330.957L127.713 306.053C131.367 305.216 134.395 300.612 134.395 295.485V36.5023C134.395 31.4797 131.472 26.7709 127.713 25.9338L10.1485 1.13426C4.92807 0.0878635 0.751709 4.06416 0.751709 10.1332V321.958C0.751709 328.027 5.03248 332.004 10.1485 330.957Z" fill="#F89923"/>
<path d="M8.47821 331.899C6.59885 331.899 4.82389 331.271 3.46657 330.12C1.16957 328.027 -0.187747 325.098 0.0210712 321.958V10.1332C-0.0833379 6.994 1.16957 4.0641 3.46657 1.97131C5.34594 0.401722 7.95616 -0.226114 10.3576 0.401722L127.922 25.3059C131.994 26.143 135.231 31.1657 135.231 36.6069V295.694C135.231 301.135 131.994 306.158 127.922 306.995L10.3576 331.69C9.73112 331.794 9.10466 331.899 8.47821 331.899ZM8.47821 1.76204C7.01648 1.76204 5.55475 2.28523 4.40625 3.22699C2.42248 5.00586 1.37839 7.5172 1.4828 10.1332V321.958C1.37839 324.574 2.42248 327.19 4.40625 328.969C5.97239 330.225 8.06057 330.643 9.93993 330.225L127.505 305.321C130.846 304.588 133.56 300.193 133.56 295.589V36.5023C133.56 31.7935 130.846 27.3987 127.505 26.7708L10.0443 1.86667C9.5223 1.76203 9.00025 1.76204 8.47821 1.76204Z" fill="#231F20"/>
<path d="M20.3809 328.237L135.126 304.065C138.676 303.332 141.6 298.624 141.6 293.706V37.444C141.6 32.4213 138.676 27.8172 135.126 27.0847L20.3809 2.70372C15.3692 1.65733 11.1929 5.63362 11.1929 11.5981V319.342C11.1929 325.307 15.2648 329.283 20.3809 328.237Z" fill="white"/>
<path d="M18.7101 329.178C16.9351 329.178 15.1602 328.551 13.8029 327.504C11.5059 325.411 10.253 322.481 10.3574 319.342V11.598C10.253 8.45884 11.5059 5.52893 13.8029 3.43615C15.6822 1.9712 18.0836 1.34336 20.485 1.86656L135.231 26.2475C139.198 27.0846 142.33 32.0027 142.33 37.4439V293.601C142.33 299.042 139.198 303.96 135.231 304.797L20.485 328.969C19.8586 329.178 19.3365 329.178 18.7101 329.178ZM18.7101 3.33151C17.2484 3.33151 15.891 3.85471 14.847 4.69182C12.8632 6.47069 11.8191 8.98203 11.9235 11.598V319.342C11.8191 321.958 12.8632 324.47 14.847 326.248C16.3087 327.504 18.2925 327.923 20.1718 327.504L134.917 303.332C138.154 302.6 140.764 298.31 140.764 293.706V37.4439C140.764 32.8398 138.154 28.4449 134.917 27.8171L20.1718 3.43615C19.6498 3.33151 19.2321 3.33151 18.7101 3.33151Z" fill="#231F20"/>
<path d="M28.7335 307.413C27.2718 307.413 25.9144 306.89 24.7659 305.948C22.8866 304.274 21.9469 301.867 22.0513 299.461V32.6304C21.9469 30.119 22.991 27.7123 24.7659 26.0381C26.2277 24.7824 28.107 24.3639 29.9864 24.6778L128.34 42.7804C131.576 43.4082 134.187 47.2799 134.187 51.7794V280.102C134.187 284.497 131.576 288.473 128.34 288.997L29.882 307.204C29.4643 307.413 29.0467 307.413 28.7335 307.413Z" fill="white"/>
<path d="M28.7335 308.251C27.0629 308.251 25.4968 307.727 24.2439 306.576C22.2601 304.798 21.1116 302.182 21.216 299.461V32.6308C21.1116 29.9102 22.2601 27.2942 24.2439 25.5153C25.81 24.155 28.0026 23.6318 30.0908 24.0504L128.549 42.2576C132.203 42.8854 135.022 47.1756 135.022 51.989V280.207C135.022 285.021 132.203 289.206 128.549 289.939L30.0908 308.146C29.5688 308.146 29.1511 308.251 28.7335 308.251ZM28.7335 25.4107C27.4806 25.4107 26.2277 25.8292 25.288 26.6663C23.6174 28.1313 22.6778 30.3287 22.7822 32.6308V299.461C22.6778 301.763 23.6174 303.856 25.288 305.425C26.2277 306.263 27.4806 306.681 28.7335 306.681C29.0467 306.681 29.4643 306.681 29.7776 306.576L128.235 288.369C131.159 287.846 133.456 284.184 133.456 280.207V51.8844C133.456 47.8035 131.159 44.2457 128.235 43.7225L29.7776 25.5153C29.3599 25.4107 29.0467 25.4107 28.7335 25.4107Z" fill="#231F20"/>
<path d="M99.7318 30.433H99.6274L68.6179 24.2593C68.2003 24.1547 67.887 23.8407 67.9914 23.3175C68.0958 22.899 68.4091 22.5851 68.9311 22.6897C68.9311 22.6897 68.9311 22.6897 69.0355 22.6897L100.045 28.8634C100.463 28.9681 100.776 29.3866 100.671 29.8052C100.463 30.1191 100.149 30.433 99.7318 30.433Z" fill="#231F20"/>
<path d="M63.9193 23.3176H63.7105L58.1768 22.2712C57.7592 22.1666 57.5504 21.7481 57.6548 21.3295C57.7592 20.9109 58.1768 20.7017 58.49 20.7017L64.0237 21.7481C64.4414 21.8527 64.7546 22.2713 64.6502 22.6898C64.6502 23.1084 64.337 23.3176 63.9193 23.3176Z" fill="#231F20"/>
<path d="M5.86799 74.1724C5.45035 74.1724 5.03271 73.8584 5.03271 73.3353V41.3156C5.03271 40.8971 5.34594 40.4785 5.86799 40.4785C6.39003 40.4785 6.70326 40.7924 6.70326 41.3156V73.3353C6.70326 73.8584 6.28562 74.1724 5.86799 74.1724Z" fill="#231F20"/>
<path d="M417.762 330.957L300.197 306.053C296.543 305.216 293.515 300.612 293.515 295.485V36.5022C293.515 31.4796 296.439 26.7708 300.197 25.9337L417.762 1.02952C422.982 -0.0168728 427.159 3.95942 427.159 10.0285V321.854C427.159 328.027 422.878 332.004 417.762 330.957Z" fill="#231F20"/>
<path d="M419.432 331.899C418.806 331.899 418.179 331.794 417.553 331.69L299.988 306.786C295.916 305.948 292.68 300.926 292.68 295.484V36.5022C292.68 31.061 295.812 26.0383 299.988 25.2012L417.553 0.297029C419.954 -0.226168 422.46 0.297029 424.444 1.86662C426.741 3.9594 428.098 6.88931 427.994 10.0285V321.854C428.098 324.993 426.845 328.027 424.444 330.015C422.982 331.271 421.207 331.899 419.432 331.899ZM419.432 1.76198C418.91 1.76198 418.388 1.86662 417.971 1.97126L300.406 26.8754C297.065 27.6079 294.35 31.8981 294.35 36.6069V295.589C294.35 300.298 297.065 304.693 300.406 305.321L417.971 330.225C419.954 330.643 421.938 330.225 423.504 328.969C425.488 327.19 426.532 324.679 426.428 321.958V10.1331C426.532 7.51714 425.488 4.90116 423.504 3.22693C422.356 2.18054 420.894 1.65734 419.432 1.76198Z" fill="#231F20"/>
<path d="M407.634 328.237L292.889 304.065C289.234 303.333 286.415 298.624 286.415 293.706V37.4442C286.415 32.4215 289.339 27.8174 292.889 27.0849L407.634 2.70397C412.646 1.65757 416.822 5.63387 416.822 11.5983V319.343C416.822 325.307 412.646 329.283 407.634 328.237Z" fill="white"/>
<path d="M409.2 329.178C408.574 329.178 408.052 329.074 407.425 328.969L292.68 304.797C288.712 303.96 285.58 299.042 285.58 293.601V37.444C285.58 32.0027 288.712 27.0847 292.68 26.2476L407.425 1.86661C409.722 1.34341 412.228 1.86661 414.108 3.4362C416.405 5.52898 417.658 8.45889 417.553 11.5981V319.342C417.658 322.481 416.405 325.411 414.108 327.504C412.75 328.655 410.975 329.178 409.2 329.178ZM409.2 3.33156C408.678 3.33156 408.261 3.4362 407.739 3.54084L292.993 27.8172C289.756 28.5496 287.146 32.8398 287.146 37.444V293.601C287.146 298.205 289.756 302.495 292.993 303.228L407.739 327.399C409.618 327.818 411.602 327.399 413.064 326.144C415.047 324.365 416.091 321.854 415.987 319.238V11.5981C416.091 8.98208 415.047 6.47074 413.064 4.69187C412.019 3.75012 410.662 3.33156 409.2 3.33156Z" fill="#231F20"/>
<path d="M399.281 307.413C400.743 307.413 402.1 306.89 403.249 305.949C405.128 304.274 406.068 301.868 405.964 299.356V32.6306C406.068 30.1193 405.024 27.7126 403.249 26.0383C401.787 24.7827 399.908 24.3641 398.029 24.678L299.571 42.8853C296.334 43.5131 293.724 47.3847 293.724 51.8842V280.207C293.724 284.602 296.334 288.578 299.571 289.102L398.029 307.309C398.446 307.413 398.864 307.413 399.281 307.413Z" fill="white"/>
<path d="M399.281 308.251C398.864 308.251 398.342 308.251 397.924 308.146L299.466 289.939C295.812 289.311 292.993 285.021 292.993 280.207V51.8843C292.993 47.0709 295.812 42.8853 299.466 42.1529L397.924 23.9456C400.012 23.5271 402.1 24.0503 403.771 25.4106C405.755 27.1894 406.903 29.8054 406.799 32.526V299.461C406.903 302.181 405.755 304.797 403.771 306.576C402.518 307.623 400.847 308.251 399.281 308.251ZM399.281 25.4106C398.968 25.4106 398.55 25.4106 398.237 25.5152L299.78 43.7225C296.856 44.2457 294.559 47.8034 294.559 51.8843V280.207C294.559 284.288 296.856 287.846 299.78 288.369L398.237 306.576C398.55 306.681 398.968 306.681 399.281 306.681C400.534 306.681 401.787 306.262 402.727 305.425C404.397 303.856 405.337 301.763 405.233 299.461V32.6307C405.337 30.3286 404.397 28.2358 402.727 26.6662C401.787 25.8291 400.534 25.4106 399.281 25.4106Z" fill="#231F20"/>
<path d="M328.179 30.433C327.761 30.433 327.448 30.1191 327.448 29.8052C327.344 29.3866 327.657 28.9681 328.074 28.8634L359.084 22.6897C359.502 22.5851 359.919 22.899 360.024 23.3175C360.128 23.7361 359.815 24.05 359.397 24.1547L328.388 30.3284L328.179 30.433Z" fill="#231F20"/>
<path d="M363.991 23.3179C363.573 23.3179 363.156 23.004 363.156 22.5854C363.156 22.1669 363.469 21.853 363.782 21.7483L369.316 20.7019C369.734 20.5973 370.151 20.9112 370.256 21.3298C370.36 21.7483 370.047 22.0622 369.629 22.1669L364.095 23.2133L363.991 23.3179Z" fill="#231F20"/>
<path d="M422.043 74.1725C421.625 74.1725 421.312 73.8585 421.207 73.44V41.4204C421.207 41.0018 421.52 40.5833 422.043 40.5833C422.565 40.5833 422.878 40.8972 422.878 41.4204V73.44C422.878 73.8585 422.46 74.1725 422.043 74.1725Z" fill="white"/>
<path d="M200.382 269.953C200.382 269.953 205.394 272.987 209.466 270.58C213.538 268.174 216.357 266.395 216.357 266.395L207.378 261.163L200.382 269.953Z" fill="white"/>
<path d="M205.916 272.255C203.828 272.15 201.74 271.627 199.965 270.58C199.547 270.371 199.443 269.953 199.652 269.534L199.756 269.429L206.856 260.64C207.065 260.326 207.587 260.221 207.9 260.43L216.879 265.662C217.088 265.767 217.297 266.081 217.297 266.29C217.297 266.604 217.192 266.813 216.879 266.918C216.879 266.918 213.956 268.802 209.884 271.104C208.735 271.941 207.378 272.255 205.916 272.255ZM201.635 269.639C203.097 270.266 206.438 271.418 209.153 269.848C211.659 268.383 213.747 267.127 215 266.395L207.795 262.105L201.635 269.639Z" fill="#231F20"/>
<path d="M269.501 236.782C268.144 239.816 262.714 243.27 254.779 238.875C254.884 238.979 264.072 246.199 258.225 250.699C254.571 253.524 245.174 254.571 244.13 254.257C244.13 254.257 250.081 258.128 246.113 261.163C238.805 266.918 230.243 262.523 230.243 262.523C230.243 262.523 232.645 265.348 231.601 267.546C229.512 271.208 216.879 268.174 213.329 266.29C212.494 265.872 211.763 265.348 210.928 264.93C209.883 264.302 208.735 263.57 207.482 262.837C201.009 258.861 175.637 246.304 175.637 246.304C175.637 246.304 170.939 242.432 165.614 238.142C161.02 234.375 155.904 230.294 152.876 228.097L147.864 225.69L133.143 218.575L126.252 215.226L106.414 205.704L133.665 166.674L147.134 172.533L163.943 179.858L173.967 184.253L196.832 178.916L202.262 177.661L220.533 189.276L265.847 218.051L267.622 225.376C267.83 225.376 271.694 231.864 269.501 236.782Z" fill="white"/>
<path d="M226.589 269.953C221.89 269.743 217.296 268.697 213.016 266.918C212.18 266.5 211.449 265.976 210.51 265.558L207.273 263.57L207.064 263.465C200.695 259.489 175.533 247.141 175.324 246.932C175.22 246.932 175.219 246.827 175.219 246.827C175.219 246.827 170.521 242.851 165.196 238.666C159.349 233.852 155.069 230.504 152.563 228.725L105.996 206.332C105.787 206.227 105.683 206.018 105.579 205.809C105.474 205.6 105.579 205.39 105.683 205.181L132.934 166.151C133.143 165.837 133.56 165.732 133.874 165.837L173.967 183.416L202.053 176.928C202.261 176.928 202.47 176.928 202.679 177.033L266.369 217.528C266.577 217.633 266.682 217.842 266.682 218.052L268.457 225.272C268.979 226.213 272.32 232.387 270.127 237.305C269.083 239.293 267.308 240.758 265.22 241.386C262.923 242.119 260.522 242.119 258.225 241.386C259.791 243.27 261.044 245.362 260.939 247.455C260.835 249.129 260 250.594 258.642 251.536C255.719 253.734 249.768 254.885 246.322 255.199C247.366 256.14 248.097 257.396 248.306 258.861C248.306 260.117 247.679 261.268 246.635 262C242.459 265.139 237.03 265.976 232.122 264.302C232.749 265.453 232.749 266.814 232.331 268.069C231.496 269.43 229.199 269.953 226.589 269.953ZM176.055 245.572C177.934 246.514 201.531 258.233 207.9 262.105L208.108 262.209L211.345 264.198C212.18 264.721 213.016 265.139 213.746 265.558C217.296 267.546 229.303 270.057 230.974 267.127C231.6 265.767 230.243 263.674 229.721 263.047C229.512 262.733 229.512 262.314 229.721 262C229.93 261.686 230.347 261.582 230.661 261.791C230.974 262 238.805 265.872 245.696 260.535C246.322 260.117 246.74 259.489 246.74 258.756C246.74 257.71 245.591 256.245 243.816 254.989C243.712 254.885 243.607 254.78 243.503 254.675C243.399 254.571 243.399 254.466 243.399 254.361C243.399 254.152 243.503 253.838 243.712 253.734C243.921 253.629 244.13 253.524 244.443 253.629C245.382 253.838 254.257 252.897 257.807 250.281C258.747 249.653 259.373 248.606 259.478 247.351C259.582 245.258 257.807 242.537 254.57 239.712C254.466 239.607 254.362 239.503 254.257 239.398C254.048 239.084 254.048 238.77 254.257 238.456C254.466 238.142 254.988 238.038 255.301 238.247C259.686 240.758 262.923 240.444 264.907 239.817C266.577 239.293 268.039 238.142 268.874 236.573C270.858 232.073 267.204 225.9 267.204 225.9C267.204 225.795 267.099 225.795 267.099 225.69L265.325 218.679L202.157 178.603L197.041 179.858L174.175 185.195C173.967 185.195 173.862 185.195 173.653 185.195L133.978 167.615L107.562 205.286L153.189 227.26L153.294 227.365C155.799 229.248 160.08 232.596 166.032 237.41C171.043 241.386 175.428 245.049 176.055 245.572Z" fill="#231F20"/>
<path d="M334.13 195.345L296.021 209.366L280.568 215.017L280.255 215.436C277.54 218.365 274.513 220.981 271.276 223.284C269.292 224.644 267.935 225.376 267.935 225.376L266.891 224.016C265.847 222.656 264.489 221.4 262.923 220.563L256.45 216.691L244.234 209.366L241.937 208.006L240.475 207.169L214.477 191.578C213.538 191.055 212.389 190.845 211.345 191.055C211.136 191.055 211.032 191.159 210.823 191.159L203.306 193.775L202.888 193.88C202.784 193.88 202.575 193.984 202.47 194.089C201.739 194.403 201.113 195.031 200.591 195.763C194.848 204.762 188.897 207.692 184.408 208.215C183.886 208.32 183.259 208.32 182.737 208.32C181.693 208.32 180.649 208.215 179.709 208.006C178.039 207.588 176.995 205.913 177.412 204.239C177.412 204.135 177.517 204.03 177.517 203.821L185.66 186.032C186.391 184.253 187.644 182.788 189.315 181.846L211.241 170.022C212.702 169.29 214.269 168.871 215.939 169.08L254.048 172.952L265.847 168.557L281.299 162.802L316.798 149.617L331.311 188.334L334.13 195.345Z" fill="white"/>
<path d="M267.726 226.109C267.517 226.109 267.308 226.004 267.1 225.795L266.056 224.435C265.011 223.074 263.759 222.028 262.401 221.191L213.955 192.101C213.12 191.578 212.285 191.473 211.345 191.682L210.928 191.787L202.992 194.508L202.679 194.612C202.262 194.822 201.948 195.031 201.635 195.345C201.426 195.554 201.322 195.763 201.113 195.973C195.057 205.599 188.688 208.215 184.408 208.739C183.886 208.843 183.259 208.843 182.737 208.843C181.693 208.843 180.545 208.739 179.5 208.529C178.456 208.32 177.517 207.588 176.995 206.541C176.473 205.495 176.368 204.344 176.786 203.297L184.93 185.509C185.661 183.521 187.122 181.951 189.002 181.009L211.032 169.08C212.598 168.243 214.477 167.825 216.252 168.034L254.048 171.906L316.59 148.78C317.007 148.571 317.425 148.78 317.634 149.199L334.861 195.24C334.966 195.449 334.966 195.659 334.861 195.868C334.757 196.077 334.652 196.182 334.443 196.287L280.882 215.749L280.673 215.959C277.958 218.993 274.826 221.609 271.485 223.911C269.501 225.272 268.144 226.004 268.039 226.109C268.039 226.109 267.935 226.109 267.726 226.109ZM212.076 190.008C213.016 190.008 213.955 190.218 214.791 190.741L263.237 219.83C264.803 220.772 266.264 222.028 267.413 223.493L268.039 224.33C268.561 224.016 269.605 223.388 270.754 222.551C273.991 220.354 277.018 217.842 279.629 214.912L279.942 214.494C280.046 214.389 280.151 214.285 280.255 214.285L333.086 194.926L316.381 150.35L254.362 173.371C254.257 173.371 254.153 173.371 254.048 173.371L216.044 169.604C214.582 169.499 213.12 169.708 211.763 170.441L189.733 182.265C188.166 183.102 187.018 184.462 186.391 186.032L178.248 203.821C177.83 204.972 178.352 206.332 179.605 206.751C179.709 206.751 179.814 206.855 179.918 206.855C180.858 207.064 181.797 207.169 182.842 207.169C183.364 207.169 183.886 207.169 184.408 207.064C188.375 206.541 194.222 204.135 199.965 195.031C200.487 194.194 201.217 193.566 202.157 193.147C202.366 193.043 202.47 193.043 202.679 192.938L210.614 190.218C210.823 190.113 211.032 190.113 211.241 190.008C211.345 190.008 211.763 190.008 212.076 190.008Z" fill="#231F20"/>
<path d="M161.438 175.882L138.154 226.841L121.971 219.412L105.683 211.982L133.038 162.279L144.419 167.72L161.438 175.882Z" fill="#231F20"/>
<path d="M170.73 249.653C169.581 249.757 168.329 249.548 167.284 249.025C163.212 247.141 159.454 239.712 162.482 237.619C162.482 237.619 164.152 235.945 168.329 238.561C170.312 239.607 171.983 241.072 173.34 242.956C173.967 243.897 174.384 244.839 174.489 245.99C174.593 247.56 173.027 249.339 170.73 249.653Z" fill="white"/>
<path d="M169.999 250.49C168.955 250.49 167.807 250.28 166.867 249.757C163.421 247.874 161.124 244.525 160.498 240.653C160.289 239.293 160.811 237.933 161.855 236.991C162.273 236.677 164.257 235.212 168.642 237.828C170.73 238.979 172.505 240.549 173.967 242.432C174.698 243.479 175.115 244.63 175.22 245.781C175.428 247.978 173.445 250.071 170.835 250.385C170.521 250.49 170.312 250.49 169.999 250.49ZM164.152 237.933C163.735 237.933 163.317 238.038 163.004 238.247L162.899 238.351C162.273 238.875 161.96 239.712 162.169 240.549C162.691 243.793 164.779 246.723 167.598 248.397C168.538 248.815 169.582 249.025 170.626 248.92C172.609 248.711 173.758 247.246 173.654 245.99C173.549 245.048 173.236 244.107 172.714 243.374C171.461 241.7 169.79 240.235 167.911 239.293C166.763 238.456 165.51 238.038 164.152 237.933Z" fill="#231F20"/>
<path d="M177.517 259.384C173.967 258.547 171.67 254.989 172.505 251.431V251.327C173.132 248.397 174.28 245.572 175.846 242.956C179.396 237.305 189.941 239.712 188.897 249.129L184.825 258.233C182.633 259.384 180.023 259.802 177.517 259.384Z" fill="white"/>
<path d="M179.5 260.326C178.769 260.326 178.143 260.221 177.412 260.117C175.533 259.698 173.758 258.547 172.714 256.873C171.67 255.199 171.252 253.106 171.774 251.118C172.505 248.083 173.653 245.153 175.22 242.537C177.203 239.503 181.066 238.352 184.408 239.607C187.435 240.654 190.359 243.688 189.732 249.129C189.732 249.234 189.732 249.234 189.628 249.339L185.556 258.547C185.452 258.756 185.347 258.861 185.138 258.966C183.468 259.907 181.484 260.326 179.5 260.326ZM181.589 240.758C179.605 240.758 177.725 241.7 176.577 243.374C175.011 245.886 173.967 248.606 173.34 251.432C172.923 253.001 173.236 254.675 174.071 256.036C174.906 257.396 176.264 258.338 177.725 258.652C179.918 258.966 182.319 258.652 184.303 257.71L188.166 248.92C188.584 245.153 186.913 242.223 183.886 241.072C183.155 240.968 182.424 240.758 181.589 240.758Z" fill="#231F20"/>
<path d="M202.157 255.303L197.25 265.453C194.222 266.5 190.881 266.081 188.166 264.302L187.436 263.779C184.303 261.058 184.93 258.338 184.93 258.338L189.002 249.234C189.002 249.234 191.925 243.688 196.937 244.944L197.25 245.048C202.471 246.618 203.515 251.431 202.157 255.303Z" fill="white"/>
<path d="M193.7 266.814C191.612 266.814 189.524 266.186 187.749 264.93C187.435 264.721 187.227 264.511 186.913 264.302C183.468 261.372 184.094 258.129 184.199 258.024C184.199 258.024 184.199 257.919 184.303 257.919L188.375 248.816C189.524 246.618 192.76 242.956 197.25 244.107L197.563 244.211C199.756 244.839 201.635 246.304 202.679 248.292C203.723 250.594 203.932 253.21 202.992 255.513V255.617L198.085 265.767C197.981 265.976 197.876 266.081 197.668 266.186C196.415 266.604 195.057 266.814 193.7 266.814ZM185.661 258.547C185.661 258.966 185.452 261.058 187.958 263.151C188.166 263.36 188.375 263.465 188.688 263.674C191.09 265.244 194.013 265.663 196.832 264.825L201.531 254.989C202.262 253.001 202.157 250.908 201.217 249.025C200.382 247.351 198.816 246.2 197.041 245.781L196.832 245.676C192.447 244.525 189.837 249.339 189.732 249.548L185.661 258.547Z" fill="#231F20"/>
<path d="M211.241 260.744C210.719 263.36 208.526 270.162 208.526 270.162C207.586 270.999 206.02 272.045 201.948 270.476C201.217 270.266 200.487 269.848 199.86 269.429C198.503 268.488 197.667 267.023 197.354 265.348L201.322 256.977C202.575 255.722 204.454 255.094 206.333 255.408C209.361 256.14 211.449 259.593 211.241 260.744Z" fill="white"/>
<path d="M205.603 272.15C204.245 272.15 202.888 271.836 201.635 271.313C200.8 270.999 200.069 270.685 199.338 270.162C197.876 269.011 196.832 267.441 196.519 265.558C196.519 265.453 196.519 265.244 196.623 265.139L200.591 256.768C200.591 256.663 200.695 256.559 200.8 256.559C202.262 255.094 204.35 254.466 206.438 254.78C209.988 255.512 212.285 259.384 211.972 260.954C211.45 263.674 209.257 270.267 209.153 270.476C209.153 270.58 209.048 270.685 208.944 270.79C208.108 271.731 206.856 272.255 205.603 272.15ZM198.19 265.558C198.503 266.918 199.234 268.069 200.278 268.802C200.8 269.22 201.426 269.534 202.157 269.848C205.916 271.208 207.273 270.371 207.795 269.848C208.213 268.697 209.988 263.046 210.51 260.64C210.614 260.012 208.944 256.873 206.125 256.245C204.559 256.036 203.097 256.454 201.948 257.501L198.19 265.558Z" fill="#231F20"/>
<path d="M321.601 206.332L305.731 211.669L287.773 217.842L269.605 164.895L287.459 158.407L299.153 154.117L321.601 206.332Z" fill="#231F20"/>
<path d="M363.574 123.353V206.018L319.513 226.318L312.622 209.366L310.429 204.03L307.193 196.286L302.077 183.834L300.824 180.59L291.74 158.616L291.114 157.047L290.174 154.745L324.525 142.083L363.574 123.353Z" fill="#F89923"/>
<path d="M141.913 163.744L140.764 165.941L139.198 168.976L128.862 188.543L127.191 191.473L117.064 210.727L114.349 215.959L105.683 232.178L76.6572 215.121L69.7662 211.145L65.9031 208.843V121.783L108.92 147.838L141.913 163.744Z" fill="#F89923"/>
<path d="M65.3812 233.12C64.9635 233.12 64.6503 232.806 64.5459 232.282V105.355C64.5459 104.936 64.8591 104.518 65.3812 104.518C65.9032 104.518 66.2164 104.832 66.2164 105.355V232.282C66.112 232.701 65.7988 233.12 65.3812 233.12Z" fill="#231F20"/>
<path d="M363.156 233.12C362.738 233.12 362.425 232.806 362.321 232.282V105.355C362.321 104.936 362.634 104.518 363.156 104.518C363.678 104.518 363.991 104.832 363.991 105.355V232.282C363.991 232.701 363.678 233.12 363.156 233.12Z" fill="#231F20"/>
</svg>
