<svg width="87" height="88" viewBox="0 0 87 88" fill="none" xmlns="http://www.w3.org/2000/svg">
<g id="Isolation_Mode" clip-path="url(#clip0_18_1706)">
<path id="Vector" d="M0.00014481 43.8406C-0.585663 20.3871 18.9713 1.74574 38.5884 0.182171C69.8915 -2.30739 85.0475 21.7533 86.7148 38.3605C88.1267 52.4934 84.2514 64.8349 74.2926 74.9602C65.6707 83.7344 54.9309 88.1974 42.8543 88C19.8275 87.6205 -0.270228 68.4782 0.00014481 43.8406ZM69.2006 43.8103C70.1018 29.8748 58.1453 18.5655 45.4228 17.7306C28.0588 16.5769 18.04 30.7704 17.3791 42.2315C16.4629 58.1556 30.0866 70.2998 43.425 70.2087C56.0725 70.1177 69.9216 59.6129 69.2006 43.8103Z" fill="white"/>
</g>
<defs>
<clipPath id="clip0_18_1706">
<rect width="87" height="88" fill="white"/>
</clipPath>
</defs>
</svg>
