<svg width="69" height="88" viewBox="0 0 69 88" fill="none" xmlns="http://www.w3.org/2000/svg">
<g id="OBJECTS" clip-path="url(#clip0_767_18)">
<path id="Vector" d="M42.5471 19.2269C50.0462 19.2269 57.5557 19.2165 65.0548 19.2269C66.6692 19.2269 67.8566 20.1539 68.117 21.6016C68.5023 23.7368 67.4608 25.3095 65.1486 25.5386C64.9923 25.5595 64.8257 25.5386 64.6694 25.5386C47.8381 25.5386 31.0172 25.5386 14.1858 25.5386C14.0088 25.5386 13.8317 25.5386 13.6338 25.5386C13.7901 25.9865 14.1129 26.0073 14.4879 26.0073C28.1842 26.0073 41.8909 26.0073 55.5872 26.0073C57.6494 26.0073 58.8056 27.2884 58.9097 29.0486C59.0139 30.8088 57.6494 32.3295 55.6913 32.3295C50.4732 32.3295 45.2551 32.3295 40.0474 32.3295C39.1725 32.3295 38.308 32.3295 37.4018 32.3295V35.9645H37.9851C42.4533 35.9645 46.9216 35.9645 51.3794 35.9645C53.1916 35.9645 54.7435 36.5373 55.9517 37.933C56.6912 38.7871 57.0037 39.8182 57.212 40.891C57.4203 41.9846 57.587 43.0886 57.7744 44.1823C58.0452 45.7237 58.3264 47.2652 58.5972 48.8171C58.7951 49.8899 58.993 50.9731 59.1805 52.0459C59.4513 53.5874 59.7117 55.1289 59.9929 56.6704C60.2533 58.1077 60.5449 59.5346 60.7949 60.9719C61.0761 62.5343 61.3157 64.0966 61.5969 65.6485C61.8573 67.0962 62.1489 68.544 62.4197 69.9917C62.5864 70.877 62.7322 71.7623 62.8884 72.6476C63.0863 73.7204 63.305 74.7932 63.4613 75.8764C63.6487 77.1784 63.8883 78.4803 63.9195 79.7822C63.9404 80.98 63.4196 82.0424 62.576 82.9485C61.8677 83.7088 61.0553 84.2504 60.0658 84.5317C59.9825 84.5733 59.8992 84.6046 59.8263 84.6462C59.4826 84.6462 59.1493 84.6462 58.8056 84.6462C41.5264 84.6462 24.2471 84.6462 6.96794 84.6462C6.89503 84.615 6.81171 84.5733 6.7388 84.5421C4.83278 84.063 3.21838 82.2507 2.84343 80.3342C2.61429 79.1677 2.89551 78.0741 3.08298 76.9596C3.31212 75.6369 3.56209 74.3245 3.82248 73.0122C4.06203 71.7519 4.33284 70.5021 4.58281 69.2418C4.90568 67.5753 5.22856 65.9089 5.54103 64.2528C5.93681 62.1593 6.31177 60.0554 6.72839 57.9619C7.13459 55.8684 7.59287 53.7853 7.99907 51.6918C8.47818 49.265 8.93646 46.8278 9.40515 44.401C9.68637 42.9324 9.89468 41.4534 10.2696 40.0161C10.7592 38.1413 12.0507 36.9227 13.8317 36.2353C14.2587 36.0686 14.7587 36.0061 15.217 36.0061C20.258 35.9853 25.2887 35.9957 30.3298 35.9853C30.5172 35.9853 30.7151 35.9853 30.9234 35.9853V32.3503C30.736 32.3503 30.5485 32.3503 30.361 32.3503C24.5179 32.3503 18.6853 32.3295 12.8422 32.3607C11.5924 32.3607 10.6654 31.9129 9.86343 30.9755C8.36361 29.2257 6.81171 27.528 5.27022 25.8198C5.15565 25.6949 4.92652 25.6115 4.74945 25.5907C4.00996 25.5282 3.24963 25.5907 2.53097 25.4553C1.36444 25.247 0.624941 24.4554 0.187492 23.3826C-0.552003 21.612 0.822834 19.8101 2.37473 19.279C2.64553 19.1852 2.97883 19.2269 3.28088 19.2269C11.3945 19.2269 19.4977 19.2269 27.6113 19.2269L27.7467 19.2477C27.8196 19.2477 27.8821 19.2269 27.955 19.2269C32.7774 19.2269 37.5893 19.2269 42.4117 19.2269C42.4533 19.2269 42.495 19.2269 42.5471 19.2269ZM35.8291 35.8499C35.8291 34.7875 35.8291 33.7252 35.8291 32.6732C35.8291 32.6211 35.8291 32.5795 35.8291 32.5274C35.8187 32.4961 35.8083 32.4649 35.7979 32.4232C34.9438 32.392 34.1001 32.3503 33.2461 32.3399C33.0169 32.3399 32.7774 32.4024 32.5482 32.4336C32.5482 33.5377 32.5274 34.6313 32.5274 35.7353C32.5274 35.8083 32.6212 35.8916 32.6628 35.9645C33.6627 35.9645 34.6626 35.9645 35.6625 35.9645H35.7145H35.7666C35.7874 35.9228 35.8083 35.8916 35.8291 35.8499ZM52.098 38.183C51.9105 38.1621 51.7127 38.1205 51.5252 38.1205C39.6307 38.1205 27.7363 38.1205 15.8419 38.1205C15.6544 38.1205 15.4565 38.1621 15.269 38.1726C15.1753 38.1934 15.0816 38.2038 14.9878 38.2246C13.6026 38.4017 12.4673 39.6203 12.1965 41.141C11.884 42.9116 11.5611 44.6822 11.2279 46.4528C10.8217 48.5776 10.3634 50.6919 9.95717 52.8271C9.48848 55.233 9.06144 57.6494 8.60316 60.0554C8.32195 61.4927 7.98865 62.93 7.71785 64.3674C7.44705 65.763 7.23874 67.1691 6.96794 68.5648C6.69714 69.9709 6.37426 71.377 6.11387 72.783C5.73892 74.7203 5.43687 76.6784 5.02025 78.6053C4.85361 79.376 4.96818 80.053 5.29106 80.7092C5.85349 81.8236 6.72839 82.5423 8.03031 82.5944C8.20738 82.5944 8.38444 82.6152 8.5615 82.6152C25.1429 82.6152 41.7138 82.6152 58.2952 82.6152C58.4723 82.6152 58.6493 82.5944 58.8264 82.5944C60.2325 82.5736 61.8573 81.3237 61.8052 79.501C61.7635 78.1887 61.4823 76.8867 61.2636 75.5848C60.8366 73.1059 60.3783 70.627 59.92 68.1482C59.6075 66.4192 59.2534 64.7007 58.9514 62.9717C58.5868 60.9407 58.264 58.8993 57.8994 56.8683C57.6182 55.3164 57.2953 53.7645 57.0141 52.2126C56.66 50.2024 56.3371 48.1922 55.983 46.182C55.6601 44.401 55.2956 42.6199 54.9831 40.8389C54.754 39.5057 53.7541 38.4746 52.4001 38.235C52.3063 38.2142 52.2126 38.2038 52.1084 38.183H52.098ZM12.2486 30.7568C12.436 30.7776 12.6339 30.8297 12.8214 30.8297C27.0489 30.8297 41.2764 30.8297 55.4935 30.8297C55.6809 30.8297 55.8788 30.788 56.0663 30.7568C56.1184 30.7463 56.1809 30.7255 56.2329 30.7151C57.1078 30.4235 57.4099 29.8923 57.3266 28.8195C57.2849 28.2571 56.7329 27.7467 56.0246 27.6217C55.8476 27.6113 55.6705 27.5801 55.4935 27.5801C41.4222 27.5801 27.3405 27.5801 13.2693 27.5801C11.457 25.5178 9.63429 23.466 7.83242 21.3933C7.21791 20.685 6.11387 20.5809 5.4577 21.1746C4.72862 21.8412 4.68696 22.7265 5.38479 23.5285C7.33248 25.7574 9.29058 27.9758 11.2591 30.1839C11.4674 30.4235 11.8007 30.5485 12.0819 30.7255C12.134 30.7359 12.1965 30.7568 12.2486 30.7672V30.7568ZM65.1381 20.7684C64.9819 20.7684 64.8153 20.7475 64.659 20.7475C46.5466 20.7475 28.4237 20.7475 10.3113 20.7475C10.1551 20.7475 9.98842 20.7579 9.83218 20.7684C9.75928 20.7684 9.68637 20.7684 9.62388 20.7684C9.56138 20.7684 9.48848 20.7684 9.301 20.7475C10.3113 21.862 11.2591 22.9035 12.1965 23.9451C12.3944 23.9555 12.5819 23.9867 12.7798 23.9867C30.059 23.9867 47.3382 23.9867 64.607 23.9867C64.8153 23.9867 65.034 23.9659 65.2423 23.9555C66.0339 23.8409 66.5963 23.3306 66.638 22.664C66.7109 21.6328 66.3672 21.0808 65.4923 20.8309C65.3777 20.81 65.2527 20.7788 65.1381 20.7579V20.7684ZM3.78082 20.7475C3.54126 20.7475 3.34337 20.7475 3.14548 20.7475C2.18726 20.7892 1.48942 21.7787 1.56233 22.4869C1.64565 23.2472 2.53097 24.1013 3.31212 24.0492C3.44752 24.0492 3.68708 23.7784 3.66625 23.7368C3.16631 22.7473 3.34337 21.7787 3.78082 20.7475Z" fill="#010100"/>
<path id="Vector_2" d="M42.4116 19.2269C37.5893 19.2269 32.7774 19.2269 27.955 19.2269C27.8925 19.2061 27.83 19.1852 27.778 19.1644C27.7571 19.1644 27.7363 19.154 27.7155 19.154C26.6427 17.925 25.9032 16.498 25.5282 14.9253C25.2678 13.8109 25.1845 12.6652 25.3512 11.4986C25.7678 8.60314 27.153 6.32216 29.5278 4.66611C30.2881 4.13492 31.1942 3.80163 32.0379 3.38501C32.2774 3.54124 32.5066 3.69747 32.7565 3.84329C33.3502 4.19741 34.0064 4.35365 34.6938 4.25991C35.2354 4.17658 35.7666 4.02035 36.3082 3.93703C36.4644 3.9162 36.704 3.95786 36.7977 4.07243C38.0788 5.44727 39.5995 5.77014 41.3493 5.14522C43.0678 6.64504 44.2552 8.47816 44.6718 10.7383C45.2551 13.8734 44.526 16.6959 42.4741 19.154C42.4533 19.1852 42.4325 19.2165 42.4116 19.2477V19.2269Z" fill="#FF572E"/>
<path id="Vector_3" d="M60.6595 84.6671H65.6172V88.0001H0.885315V84.6671C2.6976 84.6671 4.49947 84.6671 6.29093 84.6671C6.50965 84.6879 6.72837 84.7192 6.9471 84.74C7.14499 84.7817 7.3533 84.8442 7.55119 84.8442C24.82 84.8442 42.0992 84.8442 59.368 84.8442C59.5763 84.8442 59.7846 84.7921 59.9825 84.7608C60.2012 84.7296 60.4199 84.6984 60.6491 84.6671H60.6595Z" fill="#C46F00"/>
<path id="Vector_4" d="M41.3493 5.13483C39.5995 5.74934 38.0788 5.43688 36.7977 4.06204C36.6936 3.95788 36.4644 3.90581 36.3082 3.92664C35.7666 4.00996 35.2354 4.16619 34.6938 4.24952C34.0064 4.35367 33.3606 4.18702 32.7565 3.8329C32.517 3.68708 32.2774 3.53085 32.0379 3.37462C31.7775 3.16631 31.5171 2.958 31.2567 2.74969C32.7565 1.99978 34.121 1.77064 35.4645 2.74969C35.6833 2.91634 35.9437 3.0205 36.1832 3.1559C36.3811 3.35379 36.3603 3.86415 36.8602 3.61417C37.2143 3.52044 37.5685 3.41628 37.9226 3.32254C39.5786 3.03091 40.8077 3.73916 41.8805 4.99943C41.6826 5.0515 41.5159 5.08275 41.3493 5.12441V5.13483Z" fill="#288F22"/>
<path id="Vector_5" d="M36.8706 3.62457C36.3707 3.87454 36.3915 3.36419 36.1936 3.16629C36.3082 2.77051 36.454 2.38513 36.5165 1.98935C36.6207 1.34359 36.6727 0.687419 36.7457 0H37.2873C37.1831 1.04154 37.0685 2.06226 36.9644 3.07255C36.9331 3.24962 36.8915 3.43709 36.8602 3.61416L36.8706 3.62457Z" fill="#6B4742"/>
<path id="Vector_6" d="M36.8706 3.62461C36.9019 3.44755 36.9436 3.26007 36.9748 3.08301C37.2873 3.16633 37.6101 3.24965 37.9226 3.33298C37.5685 3.42672 37.2144 3.53087 36.8602 3.62461H36.8706Z" fill="#FF572E"/>
<path id="Vector_7" d="M60.6595 84.6671C60.4408 84.6983 60.222 84.7296 59.9929 84.7608C59.9408 84.7296 59.8887 84.6983 59.8367 84.6567C59.92 84.615 60.0033 84.5838 60.0762 84.5421C60.2637 84.5838 60.4616 84.615 60.6491 84.6567L60.6595 84.6671Z" fill="#E3866E"/>
<path id="Vector_8" d="M6.9471 84.74C6.72837 84.7191 6.50965 84.6879 6.29092 84.6671C6.44716 84.6254 6.59297 84.5942 6.7492 84.5525C6.82211 84.5837 6.90543 84.6254 6.97834 84.6566C6.95751 84.6775 6.9471 84.6983 6.9471 84.7296V84.74Z" fill="#E3866E"/>
<path id="Vector_9" d="M42.4117 19.2269C42.4117 19.2269 42.4533 19.1644 42.4741 19.1332C42.495 19.1644 42.5158 19.1957 42.547 19.2269C42.5054 19.2269 42.4637 19.2269 42.4117 19.2269Z" fill="#A4A3A3"/>
<path id="Vector_10" d="M27.7571 19.2477L27.6217 19.2269C27.6217 19.2269 27.6842 19.1748 27.7155 19.1436C27.7363 19.1436 27.7571 19.1436 27.778 19.154C27.778 19.1852 27.7571 19.206 27.7571 19.2373V19.2477Z" fill="#A4A3A3"/>
<path id="Vector_11" d="M8.01989 82.5944C6.70754 82.5423 5.83265 81.834 5.28063 80.7092C4.95775 80.0634 4.84318 79.376 5.00983 78.6052C5.42644 76.6784 5.72849 74.7203 6.10345 72.783C6.37425 71.3769 6.69713 69.9709 6.95751 68.5648C7.22831 67.1691 7.43662 65.763 7.70742 64.3673C7.98864 62.93 8.32193 61.4927 8.59274 60.0554C9.06143 57.6494 9.48846 55.233 9.94674 52.827C10.3529 50.7023 10.8112 48.588 11.2174 46.4528C11.5611 44.6822 11.884 42.9116 12.1861 41.1409C12.4569 39.6203 13.5921 38.4121 14.9774 38.2246C15.1649 38.2559 15.3524 38.3288 15.5294 38.3288C27.6217 38.3288 39.7245 38.3288 51.8168 38.3288C52.0043 38.3288 52.1917 38.2663 52.3792 38.235C53.7436 38.4746 54.7331 39.5057 54.9623 40.8389C55.2747 42.6199 55.6497 44.401 55.9621 46.182C56.3163 48.1922 56.6391 50.2024 56.9933 52.2125C57.2745 53.7644 57.5974 55.3163 57.8786 56.8682C58.2431 58.8992 58.566 60.9407 58.9305 62.9717C59.243 64.7006 59.5867 66.4192 59.8992 68.1481C60.3574 70.627 60.8157 73.1059 61.2428 75.5848C61.4615 76.8867 61.7427 78.1886 61.7844 79.501C61.8364 81.3237 60.2116 82.5631 58.8055 82.5944C58.6181 82.5631 58.4306 82.5006 58.2431 82.5006C41.6826 82.5006 25.122 82.5006 8.56149 82.5006C8.37401 82.5006 8.18653 82.5631 7.99906 82.5944H8.01989ZM33.9439 43.6719C27.83 43.6302 23.5701 45.5675 20.1955 49.3379C16.8209 53.1083 15.3524 57.5765 15.8523 62.628C16.5918 70.0333 22.9869 77.9803 33.0482 77.9803C37.7768 77.9803 41.8492 76.2409 45.1717 72.8872C49.0359 68.9918 50.5565 64.2319 50.0462 58.8055C49.3587 51.4939 42.8283 43.4948 33.9439 43.6719Z" fill="#FF9A00"/>
<path id="Vector_12" d="M9.84259 20.7788C9.99882 20.7788 10.1655 20.7579 10.3217 20.7579C28.4341 20.7579 46.557 20.7579 64.6694 20.7579C64.8257 20.7579 64.9923 20.7684 65.1485 20.7788C65.2631 20.7996 65.3881 20.8308 65.5027 20.8517C66.3671 21.1016 66.7109 21.6537 66.6484 22.6848C66.6067 23.341 66.0443 23.8617 65.2527 23.9763C65.0444 23.9451 64.8465 23.8826 64.6382 23.8826C47.3694 23.8826 30.0902 23.8826 12.8214 23.8826C12.6131 23.8826 12.4048 23.9346 12.2069 23.9659C11.2695 22.9243 10.3217 21.8932 9.3114 20.7684C9.49888 20.7788 9.57179 20.7788 9.63428 20.7892C9.70719 20.7892 9.7801 20.7892 9.84259 20.7892V20.7788Z" fill="#FF9900"/>
<path id="Vector_13" d="M12.0923 30.7151C11.8111 30.5381 11.4778 30.4131 11.2695 30.1735C9.30097 27.9655 7.34287 25.747 5.39518 23.5181C4.69735 22.7161 4.74942 21.8308 5.46809 21.1642C6.12426 20.5705 7.2283 20.6747 7.84281 21.3829C9.63426 23.4556 11.4674 25.5074 13.2797 27.5697C13.4671 27.6217 13.665 27.7155 13.8525 27.7155C27.7259 27.7155 41.5992 27.7155 55.4726 27.7155C55.6601 27.7155 55.8475 27.653 56.0246 27.6113C56.7329 27.7363 57.2849 28.2467 57.3265 28.8091C57.4099 29.8819 57.1078 30.4131 56.2329 30.7047C56.0454 30.6735 55.858 30.611 55.6705 30.611C41.3284 30.611 26.976 30.611 12.6339 30.611C12.4464 30.611 12.259 30.6735 12.0715 30.7047L12.0923 30.7151Z" fill="#FF9A00"/>
<path id="Vector_14" d="M6.94708 84.74C6.94708 84.74 6.96791 84.6879 6.97833 84.6671C24.2575 84.6671 41.5367 84.6671 58.8159 84.6671C59.1597 84.6671 59.4929 84.6671 59.8367 84.6671C59.8887 84.6984 59.9408 84.7296 59.9929 84.7713C59.7846 84.8025 59.5763 84.8546 59.3784 84.8546C42.1096 84.8546 24.8304 84.8546 7.56159 84.8546C7.3637 84.8546 7.15539 84.7817 6.9575 84.7504L6.94708 84.74Z" fill="#EF3100"/>
<path id="Vector_15" d="M35.6729 35.9644C34.673 35.9644 33.6731 35.9644 32.6732 35.9644C32.6732 34.9854 32.694 34.0063 32.6732 33.0273C32.6732 32.6419 32.7982 32.5378 33.1627 32.5482C33.8397 32.569 34.5167 32.569 35.1938 32.5482C35.5583 32.5378 35.6937 32.6523 35.6833 33.0273C35.6624 34.0063 35.6833 34.9854 35.6833 35.9644H35.6729Z" fill="#FDB41B"/>
<path id="Vector_16" d="M12.2069 23.9555C12.4152 23.9243 12.6235 23.8722 12.8214 23.8722C30.0902 23.8722 47.3694 23.8722 64.6382 23.8722C64.8465 23.8722 65.0444 23.9347 65.2527 23.9659C65.0444 23.9659 64.8256 23.9972 64.6173 23.9972C47.3381 23.9972 30.0589 23.9972 12.7901 23.9972C12.5922 23.9972 12.4048 23.9659 12.2069 23.9555Z" fill="#FFCA1F"/>
<path id="Vector_17" d="M8.0199 82.5944C8.20738 82.5631 8.39485 82.5006 8.58233 82.5006C25.1429 82.5006 41.7034 82.5006 58.264 82.5006C58.4514 82.5006 58.6389 82.5631 58.8264 82.5944C58.6493 82.5944 58.4723 82.6152 58.2952 82.6152C41.7138 82.6152 25.1429 82.6152 8.5615 82.6152C8.38444 82.6152 8.20738 82.5944 8.03031 82.5944H8.0199Z" fill="#FFCA1F"/>
<path id="Vector_18" d="M3.79122 20.7579C3.35377 21.7891 3.18713 22.7577 3.67665 23.7472C3.69748 23.7888 3.45793 24.0492 3.32253 24.0596C2.54137 24.1117 1.65606 23.2576 1.57273 22.4973C1.49982 21.7786 2.19766 20.7892 3.15588 20.7579C3.35377 20.7579 3.54125 20.7579 3.79122 20.7579Z" fill="#FDB41B"/>
<path id="Vector_19" d="M12.0923 30.7151C12.2798 30.6838 12.4673 30.6213 12.6547 30.6213C26.9968 30.6213 41.3493 30.6213 55.6913 30.6213C55.8788 30.6213 56.0663 30.6838 56.2538 30.7151C56.2017 30.7255 56.1392 30.7463 56.0871 30.7567C55.858 30.7463 55.6288 30.7255 55.3893 30.7255C41.2451 30.7255 27.101 30.7255 12.9568 30.7255C12.7277 30.7255 12.4985 30.7463 12.259 30.7567C12.2069 30.7463 12.1444 30.7255 12.0923 30.7151Z" fill="#FFCA1F"/>
<path id="Vector_20" d="M12.259 30.7568C12.4881 30.7464 12.7173 30.7256 12.9568 30.7256C27.101 30.7256 41.2451 30.7256 55.3893 30.7256C55.6184 30.7256 55.8476 30.7464 56.0871 30.7568C55.8996 30.7777 55.7017 30.8297 55.5143 30.8297C41.2868 30.8297 27.0593 30.8297 12.8422 30.8297C12.6548 30.8297 12.4569 30.7881 12.2694 30.7568H12.259Z" fill="#CA8F16"/>
<path id="Vector_21" d="M56.035 27.6217C55.8476 27.653 55.6601 27.7259 55.483 27.7259C41.6097 27.7259 27.7363 27.7259 13.8629 27.7259C13.6755 27.7259 13.4776 27.6322 13.2901 27.5801C27.3614 27.5801 41.443 27.5801 55.5143 27.5801C55.6913 27.5801 55.8684 27.6113 56.0455 27.6217H56.035Z" fill="#FFD01F"/>
<path id="Vector_22" d="M52.3896 38.2351C52.2022 38.2663 52.0147 38.3288 51.8272 38.3288C39.7349 38.3288 27.6322 38.3288 15.5398 38.3288C15.3524 38.3288 15.1649 38.2663 14.9878 38.2247C15.0816 38.2039 15.1753 38.1934 15.269 38.1726C15.4982 38.1934 15.7273 38.2143 15.9565 38.2143C27.7884 38.2143 39.6307 38.2143 51.4627 38.2143C51.671 38.2143 51.8897 38.183 52.098 38.1726C52.1918 38.1934 52.2855 38.2039 52.3896 38.2247V38.2351Z" fill="#FFD01F"/>
<path id="Vector_23" d="M52.1084 38.1829C51.9001 38.1934 51.6814 38.2246 51.4731 38.2246C39.6411 38.2246 27.7988 38.2246 15.9669 38.2246C15.7377 38.2246 15.5086 38.1934 15.2794 38.1829C15.4669 38.1621 15.6648 38.1309 15.8523 38.1309C27.7467 38.1309 39.6411 38.1309 51.5356 38.1309C51.723 38.1309 51.9209 38.1725 52.1084 38.1933V38.1829Z" fill="#AB7912"/>
<path id="Vector_24" d="M35.6729 35.9645C35.6729 34.9855 35.652 34.0064 35.6729 33.0274C35.6729 32.642 35.5479 32.5379 35.1833 32.5483C34.5063 32.5691 33.8293 32.5691 33.1523 32.5483C32.7878 32.5379 32.6524 32.6524 32.6628 33.0274C32.6836 34.0064 32.6628 34.9855 32.6628 35.9645C32.6107 35.8916 32.5274 35.8083 32.5274 35.7354C32.5274 34.6314 32.5274 33.5378 32.5482 32.4337C33.6314 32.4337 34.7146 32.4337 35.7979 32.4337C35.8083 32.465 35.8187 32.4962 35.8291 32.5379C35.8291 32.5899 35.8291 32.6316 35.8291 32.6837C35.8291 33.7461 35.8291 34.8084 35.8291 35.8604C35.8083 35.9021 35.7874 35.9333 35.7666 35.975H35.7145H35.6625L35.6729 35.9645Z" fill="#FFD01F"/>
<path id="Vector_25" d="M35.7978 32.4232C34.7146 32.4232 33.6314 32.4232 32.5482 32.4232C32.7774 32.392 33.0169 32.3295 33.2461 32.3295C34.1001 32.3503 34.9438 32.3815 35.7978 32.4128V32.4232Z" fill="#CA8F16"/>
<path id="Vector_26" d="M27.7571 19.2478C27.7571 19.2478 27.7675 19.1957 27.778 19.1644C27.8404 19.1853 27.9029 19.2061 27.955 19.2269C27.8821 19.2269 27.8196 19.2478 27.7467 19.2478H27.7571Z" fill="#A4381D"/>
<path id="Vector_27" d="M35.7666 35.9645C35.7666 35.9645 35.8083 35.8916 35.8291 35.85C35.8083 35.8916 35.7874 35.9229 35.7666 35.9645Z" fill="#7E590D"/>
<path id="Vector_28" d="M33.9439 43.672C42.8283 43.4949 49.3588 51.4939 50.0462 58.8056C50.5565 64.232 49.0359 68.9919 45.1717 72.8872C41.8492 76.241 37.7768 77.9804 33.0482 77.9804C22.9869 77.9804 16.5918 70.0334 15.8523 62.628C15.3419 57.5766 16.8209 53.1083 20.1955 49.3379C23.5701 45.5676 27.8301 43.6303 33.9439 43.672ZM46.2862 60.8053C46.4737 53.7333 40.5577 47.109 32.267 47.4528C25.3928 47.734 19.956 53.4104 19.6019 60.0242C19.1644 68.3357 26.1011 74.0538 32.5274 74.1683C40.3077 74.3142 46.4528 68.0441 46.2862 60.8053Z" fill="#010101"/>
<path id="Vector_29" d="M46.2862 60.8053C46.4528 68.0441 40.3077 74.3037 32.5274 74.1683C26.1011 74.0538 19.1644 68.3253 19.6019 60.0242C19.956 53.4208 25.3824 47.7444 32.267 47.4527C40.5577 47.109 46.4737 53.7437 46.2862 60.8053ZM43.1824 53.2541C42.2763 52.348 41.3909 51.4627 40.4952 50.5565C38.9329 52.1189 37.3498 53.7124 35.7666 55.306C35.5687 55.5039 35.4333 55.5872 35.1 55.4726C33.8189 55.0352 32.5378 54.9206 31.1734 55.3372C28.1842 56.2434 26.0178 60.2325 27.9759 63.5758C29.1945 65.6485 31.7463 67.0442 34.3397 66.3151C36.4228 65.7318 37.808 64.4611 38.4538 62.4093C38.8912 61.024 38.7454 59.6596 38.1309 58.264C39.7974 56.6079 41.4847 54.9206 43.1824 53.2333V53.2541Z" fill="#FBFDFE"/>
<path id="Vector_30" d="M43.1824 53.2542C41.4847 54.9415 39.7974 56.6288 38.1309 58.2848C38.7454 59.6701 38.8912 61.0449 38.4538 62.4302C37.808 64.4716 36.4332 65.7423 34.3397 66.3359C31.7462 67.065 29.1945 65.6694 27.9759 63.5967C26.0073 60.2533 28.1842 56.2538 31.1734 55.3581C32.5378 54.9415 33.8189 55.056 35.1 55.4935C35.4333 55.608 35.5687 55.5247 35.7666 55.3268C37.3497 53.7333 38.9433 52.1397 40.4952 50.5774C41.4013 51.4835 42.2762 52.3584 43.1824 53.275V53.2542ZM34.8188 60.7741C34.8188 59.618 34.1105 58.8993 32.9753 58.9097C31.9129 58.9097 31.0692 59.743 31.0692 60.7949C31.0692 61.8261 31.9441 62.6593 32.9857 62.6905C33.8397 62.7218 35.0063 61.9094 34.8188 60.7741Z" fill="#010000"/>
<path id="Vector_31" d="M34.8188 60.7845C35.0063 61.9198 33.8398 62.7218 32.9857 62.701C31.9441 62.6697 31.0692 61.8261 31.0692 60.8054C31.0692 59.7638 31.9129 58.9306 32.9753 58.9202C34.121 58.9202 34.8292 59.6284 34.8188 60.7845Z" fill="#FD5123"/>
</g>
<defs>
<clipPath id="clip0_767_18">
<rect width="68.1898" height="88" fill="white"/>
</clipPath>
</defs>
</svg>
