<svg width="340" height="387" viewBox="0 0 340 387" fill="none" xmlns="http://www.w3.org/2000/svg">
<path d="M340 170C340 263.888 263.888 340 170 340C76.1116 340 0 263.888 0 170C0 76.1116 76.1116 0 170 0C263.888 0 340 76.1116 340 170ZM40.4083 170C40.4083 241.572 98.4285 299.592 170 299.592C241.572 299.592 299.592 241.572 299.592 170C299.592 98.4285 241.572 40.4083 170 40.4083C98.4285 40.4083 40.4083 98.4285 40.4083 170Z" fill="#714B67"/>
<g filter="url(#filter0_f_794_1625)">
<ellipse cx="175" cy="368" rx="89" ry="8" fill="#D9D9D9" fill-opacity="0.98"/>
</g>
<defs>
<filter id="filter0_f_794_1625" x="75" y="349" width="200" height="38" filterUnits="userSpaceOnUse" color-interpolation-filters="sRGB">
<feFlood flood-opacity="0" result="BackgroundImageFix"/>
<feBlend mode="normal" in="SourceGraphic" in2="BackgroundImageFix" result="shape"/>
<feGaussianBlur stdDeviation="5.5" result="effect1_foregroundBlur_794_1625"/>
</filter>
</defs>
</svg>
