<svg width="88" height="88" viewBox="0 0 88 88" fill="none" xmlns="http://www.w3.org/2000/svg">
<g id="OBJECTS" clip-path="url(#clip0_18_1799)">
<path id="Vector" d="M70.7199 18.0075C72.1063 19.3863 73.3563 20.8863 74.5078 22.4696C77.8033 26.9848 80.1139 31.962 81.3639 37.4166C81.6896 38.8484 81.9093 40.3181 82.1366 41.7726C82.2199 42.3105 82.1821 42.8711 82.2578 43.4166C82.4699 44.8863 82.4548 46.356 82.4169 47.8332C82.3942 48.7878 82.3336 49.7348 82.2427 50.6893C81.9321 54.1135 81.1972 57.4544 80.0305 60.6893C78.3184 65.4469 75.826 69.7423 72.5381 73.5832C68.6139 78.159 63.9169 81.7196 58.4472 84.2499C55.4245 85.6514 52.2654 86.6438 48.9927 87.2802C45.8866 87.8787 42.7502 88.0908 39.5987 87.9847C38.5987 87.9544 37.6063 87.8332 36.6139 87.7499C35.9624 87.6893 35.3033 87.6514 34.6669 87.5378C33.5987 87.3408 32.5381 87.1135 31.4775 86.856C25.4624 85.3938 20.0533 82.7044 15.2502 78.8105C11.076 75.4241 7.69721 71.3711 5.09872 66.6741C2.93963 62.7651 1.46994 58.606 0.659329 54.2196C0.333572 52.4544 0.121451 50.6666 0.0608445 48.8711C0.0381172 48.2726 -0.0149131 47.6741 0.000238432 47.0757C0.0305415 45.8181 0.0608445 44.5529 0.159329 43.2954C0.560844 38.0984 1.96236 33.1741 4.26539 28.5151C6.1063 24.7954 8.46236 21.4241 11.3336 18.4241C16.3108 13.212 22.2427 9.52263 29.129 7.39384C30.9093 6.84081 32.7124 6.41657 34.5533 6.12869C35.379 5.9999 36.2199 5.95445 37.0457 5.84081C38.8184 5.58324 40.5987 5.56051 42.379 5.59839C43.2048 5.61354 44.0381 5.68172 44.8639 5.75748C47.3336 5.99233 49.7805 6.38627 52.1745 7.06051C57.6063 8.57566 62.5381 11.0757 66.9321 14.606C68.0002 15.462 68.9851 16.4166 70.0078 17.3181C69.9396 17.4014 69.8866 17.4923 69.8108 17.5681C67.4699 19.909 65.129 22.2499 62.7881 24.5908C62.6972 24.6817 62.5684 24.7272 62.4548 24.7878C62.3714 24.7196 62.2881 24.6438 62.2124 24.5757C60.1593 22.6438 57.9017 21.0075 55.4017 19.712C52.7578 18.3408 49.9851 17.3408 47.0381 16.8029C45.7957 16.5757 44.5533 16.3938 43.3108 16.3105C40.9017 16.1514 38.4927 16.2423 36.0987 16.6514C33.2805 17.1363 30.576 17.9847 28.0002 19.2272C23.8714 21.212 20.3563 23.9848 17.4775 27.5454C12.9927 33.0908 10.7351 39.4544 10.6442 46.5757C10.629 47.8635 10.7427 49.159 10.8714 50.4393C11.1139 52.9317 11.7199 55.3408 12.629 57.6741C15.3563 64.6893 20.023 70.0226 26.5987 73.6666C29.9775 75.5378 33.5911 76.7196 37.4321 77.1438C38.5002 77.2651 39.576 77.356 40.6517 77.3863C42.5987 77.4317 44.5457 77.2954 46.4624 76.9469C47.826 76.7044 49.1669 76.3863 50.4851 75.962C56.1366 74.1438 60.879 70.962 64.6821 66.409C69.1972 60.9999 71.523 54.7348 71.7881 47.7044C71.8639 45.7044 71.6972 43.712 71.3714 41.7348C70.6745 37.5302 69.1366 33.659 66.826 30.0908C65.7654 28.462 64.5305 26.9696 63.2124 25.5454C63.3033 25.4393 63.3866 25.3332 63.4851 25.2348C65.8033 22.9166 68.1214 20.5908 70.4472 18.2726C70.5305 18.1893 70.629 18.1135 70.7275 18.0378L70.7199 18.0075Z" fill="#ECECEC"/>
<path id="Vector_2" d="M78.9188 9.41146L78.6014 9.0941L78.9188 9.41146ZM78.9188 9.41146L78.9771 9.46973M78.9188 9.41146L78.9771 9.46973M78.9771 9.46973L78.9922 9.48489M78.9771 9.46973L78.9922 9.48489M78.9922 9.48489L78.9963 9.48896L78.9922 9.48489Z" fill="#504F4F" stroke="#241E20" stroke-width="4"/>
<path id="Vector_3" d="M76.3408 16.6211C76.8939 16.6211 77.4545 16.6211 78.0075 16.6211C77.4545 16.7802 76.9014 16.7726 76.3408 16.6211Z" fill="#82ABAB"/>
<path id="Vector_4" d="M62.4623 24.7653C62.4093 24.8562 62.379 24.9622 62.3108 25.0304C59.9093 27.4319 57.5078 29.8334 55.1063 32.235C55.0608 32.2804 55.0078 32.3107 54.9624 32.3486C51.6745 29.235 47.773 27.4471 43.273 26.9622C41.3639 26.7577 39.4699 26.8259 37.5836 27.1819C33.326 27.985 29.6972 29.9622 26.7275 33.1137C23.4851 36.5531 21.6972 40.6516 21.3411 45.3562C21.1593 47.7653 21.3866 50.1516 22.1139 52.4698C23.9624 58.3562 27.7124 62.5683 33.3336 65.0834C35.5608 66.0834 37.9093 66.6289 40.3714 66.6819C41.4472 66.7047 42.5154 66.6971 43.5836 66.5683C44.7427 66.4319 45.8866 66.2122 47.0002 65.8562C52.8714 63.9774 57.0608 60.2122 59.5684 54.5835C60.4472 52.6138 60.9396 50.538 61.0911 48.3941C61.1896 46.9925 61.1593 45.5834 60.9548 44.1819C60.8411 43.4092 60.7427 42.6289 60.5457 41.8713C59.682 38.5077 58.0684 35.5607 55.6669 33.0607C55.7654 32.9471 55.8563 32.8259 55.9624 32.7122C58.2654 30.4092 60.5684 28.1062 62.8714 25.8031C62.9775 25.6971 63.0987 25.6062 63.2199 25.5077C64.5457 26.9319 65.7805 28.4168 66.8336 30.0531C69.1442 33.6213 70.6821 37.4925 71.379 41.6971C71.7048 43.6744 71.8714 45.6668 71.7957 47.6668C71.5305 54.6971 69.2048 60.9547 64.6896 66.3713C60.8866 70.9244 56.1442 74.1062 50.4927 75.9244C49.1745 76.3486 47.8336 76.6668 46.4699 76.9092C44.5457 77.2577 42.6063 77.3941 40.6593 77.3486C39.5836 77.3259 38.5078 77.2274 37.4396 77.1062C33.5911 76.6819 29.9775 75.5001 26.6063 73.6289C20.0305 69.985 15.3639 64.6516 12.6366 57.6365C11.7275 55.3031 11.1214 52.8941 10.879 50.4016C10.7502 49.1213 10.6366 47.8259 10.6518 46.538C10.7427 39.4168 13.0002 33.0531 17.4851 27.5077C20.3639 23.9471 23.879 21.1744 28.0078 19.1895C30.5836 17.9471 33.2881 17.0986 36.1063 16.6137C38.4927 16.2047 40.9017 16.1137 43.3184 16.2728C44.5684 16.3562 45.8108 16.538 47.0457 16.7653C49.9927 17.3107 52.7654 18.3031 55.4093 19.6744C57.9093 20.9698 60.1745 22.6062 62.2199 24.538C62.2957 24.6137 62.379 24.6819 62.4623 24.7501V24.7653Z" fill="white"/>
<path id="Vector_5" d="M55.6667 33.0607C58.0757 35.5682 59.6894 38.5152 60.5454 41.8713C60.7424 42.6288 60.8409 43.4016 60.9545 44.1819C61.1591 45.591 61.1894 46.9925 61.0909 48.394C60.9394 50.5379 60.447 52.6213 59.5682 54.5834C57.0606 60.2122 52.8712 63.9773 47 65.8561C45.8864 66.2122 44.7424 66.4319 43.5833 66.5682C42.5151 66.697 41.447 66.7046 40.3712 66.6819C37.9167 66.6288 35.5606 66.0758 33.3333 65.0834C27.7121 62.5682 23.9621 58.3485 22.1136 52.4697C21.3863 50.1516 21.1591 47.7652 21.3409 45.3561C21.6894 40.6516 23.4848 36.5531 26.7273 33.1137C29.697 29.9622 33.3333 27.9849 37.5833 27.1819C39.4621 26.8258 41.3636 26.7576 43.2727 26.9622C47.7727 27.447 51.6742 29.2349 54.9621 32.3485C54.8636 32.4622 54.7727 32.591 54.6667 32.697C52.3864 34.9773 50.106 37.2652 47.8257 39.5379C47.7045 39.6591 47.5682 39.7576 47.4394 39.8637C46.0606 38.7122 44.5379 37.9016 42.7197 37.6364C41.6212 37.4773 40.553 37.4697 39.4773 37.6591C34.7045 38.5152 30.9394 43.3182 32.1667 48.8561C33.1439 53.2879 37.6363 56.9773 43.1363 55.8637C48.5151 54.7728 52.0379 49.0228 49.8712 43.3485C49.4773 42.3182 48.8636 41.4167 48.1667 40.5682C48.2424 40.4773 48.3106 40.3713 48.4015 40.2879C50.7424 37.947 53.0833 35.5985 55.4318 33.2576C55.5076 33.1819 55.5909 33.1213 55.6742 33.0531L55.6667 33.0607Z" fill="#FF9A00"/>
<path id="Vector_6" d="M48.1591 40.5759C48.856 41.4243 49.4697 42.3183 49.8636 43.3562C52.0303 49.0304 48.5076 54.7804 43.1288 55.8713C37.6288 56.9849 33.1364 53.2956 32.1591 48.8637C30.9318 43.3259 34.697 38.5153 39.4697 37.6668C40.5454 37.4774 41.6136 37.4849 42.7121 37.644C44.5379 37.9092 46.053 38.7198 47.4318 39.8713C47.3182 40.0001 47.2121 40.1289 47.0985 40.2501C45.1288 42.2198 43.1591 44.1895 41.1894 46.1592C41.1364 46.2122 41.0833 46.2653 41.0227 46.3259C40.5682 46.788 40.5682 46.8107 41.0076 47.2653C41.4242 47.2577 41.6818 46.9925 41.9545 46.7198C43.8864 44.7804 45.8257 42.841 47.7651 40.9092C47.8864 40.788 48.0227 40.6895 48.1515 40.5834L48.1591 40.5759Z" fill="#FFFEFE"/>
<path id="Vector_7" d="M76.5227 15.697C75.6363 15.5455 74.8636 15.1667 74.1969 14.5C74.3181 14.3712 74.4242 14.2424 74.5454 14.1288C76.0757 12.5909 77.6136 11.0606 79.1439 9.53032C79.2878 9.38639 79.4166 9.2576 79.4015 9.02275C79.3863 8.85608 79.3863 8.68942 79.2196 8.63638C79.0681 8.59093 78.8863 8.59093 78.7424 8.63638C78.6212 8.67426 78.5302 8.81063 78.4318 8.90911C76.909 10.4318 75.3863 11.9546 73.8636 13.4773C73.7575 13.5834 73.6439 13.6818 73.5151 13.8106C72.8257 13.1212 72.409 12.3258 72.2954 11.3788C72.1363 10.0379 72.5151 8.86366 73.4772 7.90154C75.5378 5.83336 77.606 3.76517 79.6742 1.70457C79.7348 1.64396 79.8106 1.59093 79.9318 1.47729C80.0378 2.2576 80.1212 2.96972 80.2348 3.68184C80.356 4.43184 80.5151 5.17426 80.6515 5.91669C80.7045 6.21214 80.7348 6.51517 80.7954 6.81063C80.8409 7.04548 80.9924 7.18184 81.2348 7.21972C81.9242 7.33335 82.606 7.44699 83.2954 7.5682C83.7727 7.65154 84.2424 7.7576 84.7196 7.83336C85.2121 7.90911 85.7121 7.96972 86.2045 8.03032C86.2878 8.04548 86.3787 8.05305 86.5227 8.07578C86.4242 8.19699 86.3712 8.28032 86.303 8.34851C84.2499 10.4091 82.1893 12.4621 80.1363 14.5152C79.4999 15.1515 78.7272 15.5455 77.8409 15.697C77.409 15.697 76.9696 15.697 76.5378 15.697H76.5227Z" fill="#FDFDFD"/>
<path id="Vector_8" d="M76.5229 15.697C76.9548 15.697 77.3942 15.697 77.826 15.697C77.3942 15.841 76.9548 15.841 76.5229 15.697Z" fill="#B98D8D"/>
</g>
<defs>
<clipPath id="clip0_18_1799">
<rect width="88" height="88" fill="white"/>
</clipPath>
</defs>
</svg>
