<svg width="137" height="45" viewBox="0 0 137 45" fill="none" xmlns="http://www.w3.org/2000/svg">
<g id="Logo" clip-path="url(#clip0_767_311)">
<path id="Vector" d="M129.203 2.97692C129.203 1.68687 130.248 0.639999 131.538 0.639999H133.097C133.717 0.639999 134.311 0.88621 134.749 1.32447C135.187 1.76273 135.434 2.35713 135.434 2.97692C135.434 3.59672 135.187 4.19112 134.749 4.62938C134.311 5.06764 133.717 5.31385 133.097 5.31385H131.538C131.232 5.31385 130.928 5.2534 130.644 5.13594C130.361 5.01849 130.103 4.84633 129.886 4.62931C129.669 4.4123 129.497 4.15467 129.38 3.87114C129.263 3.58762 129.202 3.28376 129.203 2.97692ZM63.7829 16.2166C63.7829 24.8184 56.8103 31.7921 48.2074 31.7921C39.6056 31.7921 32.6319 24.8184 32.6319 16.2166C32.6319 7.61261 39.6056 0.641089 48.2074 0.641089C56.8103 0.641089 63.7829 7.61261 63.7829 16.2166ZM29.5938 16.1392C30.4552 16.1392 31.1597 16.8371 31.0736 17.6942C30.7791 20.6274 29.6584 23.4169 27.8414 25.7384C26.0245 28.0599 23.5861 29.8181 20.8095 30.8086C18.0329 31.7992 15.0323 31.9814 12.1562 31.3342C9.2802 30.687 6.6469 29.2368 4.56237 27.1523C2.47784 25.0677 1.02769 22.4344 0.380446 19.5584C-0.266794 16.6824 -0.0845437 13.6817 0.906016 10.9051C1.89658 8.12857 3.65477 5.69013 5.97626 3.87321C8.29775 2.05629 11.0872 0.935495 14.0204 0.641089C14.8765 0.55385 15.5755 1.26049 15.5755 2.1198V14.5809C15.5755 15.4423 16.2734 16.1392 17.1338 16.1392H29.5938ZM85.5895 34.9076C86.8288 34.9076 88.0173 35.3999 88.8936 36.2763C89.7699 37.1526 90.2622 38.3411 90.2622 39.5804C90.2622 40.8197 89.7699 42.0082 88.8936 42.8845C88.0173 43.7609 86.8288 44.2532 85.5895 44.2532H77.8022C76.563 44.2532 75.3744 43.7609 74.4981 42.8845C73.6218 42.0082 73.1295 40.8197 73.1295 39.5804C73.1295 38.3411 73.6218 37.1526 74.4981 36.2763C75.3744 35.3999 76.563 34.9076 77.8022 34.9076H85.5895ZM80.9167 31.7921C89.5196 31.7921 96.4933 24.8184 96.4933 16.2166C96.497 13.5743 95.8255 10.9748 94.5424 8.66493L97.116 6.09137C97.4124 5.79479 97.6475 5.44273 97.8079 5.05529C97.9683 4.66784 98.0508 4.2526 98.0507 3.83328C98.0506 3.41396 97.9679 2.99876 97.8073 2.61139C97.6467 2.22402 97.4115 1.87208 97.1149 1.57564C96.8183 1.27921 96.4662 1.04409 96.0788 0.883714C95.6913 0.723339 95.2761 0.640847 94.8568 0.640948C94.4375 0.64105 94.0223 0.723742 93.6349 0.884304C93.2475 1.04487 92.8956 1.28015 92.5991 1.57673L90.3527 3.82315C87.6426 1.75329 84.3257 0.634512 80.9156 0.639999C72.3149 0.641089 65.3423 7.61261 65.3423 16.2166C65.3423 24.8184 72.3149 31.7921 80.9167 31.7921ZM129.203 16.2166C129.203 24.8184 122.229 31.7921 113.626 31.7921C105.024 31.7921 98.0505 24.8184 98.0505 16.2166C98.0505 7.61261 105.024 0.641089 113.626 0.641089C122.229 0.641089 129.203 7.6137 129.203 16.2166Z" fill="#686868"/>
</g>
<defs>
<clipPath id="clip0_767_311">
<rect width="136.312" height="43.6197" fill="white" transform="translate(0 0.633484)"/>
</clipPath>
</defs>
</svg>
