<svg width="203" height="45" viewBox="0 0 203 45" fill="none" xmlns="http://www.w3.org/2000/svg">
<g id="Logo" clip-path="url(#clip0_767_211)">
<path id="Vector" fill-rule="evenodd" clip-rule="evenodd" d="M64.3797 2.97561C64.3797 1.46049 65.6213 0.232239 67.1531 0.232239H71.9847C73.0748 0.232239 74.1314 0.605949 74.9743 1.28976L76.4441 2.48197L76.4809 2.51513C76.5148 2.50381 76.5487 2.49275 76.5827 2.48197C79.2344 1.64187 82.4515 1.4821 85.7351 1.4821C89.0187 1.4821 92.2359 1.64187 94.8875 2.48197C94.9215 2.49275 94.9554 2.50381 94.9894 2.51513L95.0261 2.48197L96.4959 1.28976C97.3388 0.605949 98.3954 0.232239 99.4856 0.232239H104.317C105.849 0.232239 107.091 1.46049 107.091 2.97561V4.67153C107.091 5.98366 106.532 7.2351 105.551 8.11883L104.366 9.18751C103.787 9.70922 103.092 10.0889 102.337 10.2959L102.057 10.3728C103.156 12.966 103.762 15.7378 103.762 17.9801C103.762 27 98.1204 30.8955 93.149 34.328C89.2341 37.0311 85.7351 39.4468 85.7351 43.852C85.7351 39.4468 82.2362 37.0311 78.3212 34.328C73.3498 30.8955 67.7077 27 67.7077 17.9801C67.7077 15.7378 68.3147 12.966 69.4134 10.3728L69.1329 10.2959C68.3783 10.0889 67.6835 9.70922 67.1047 9.18751L65.919 8.11883C64.9384 7.2351 64.3797 5.98366 64.3797 4.67153V2.97561ZM89.3406 25.3542C89.3406 25.7851 89.1506 26.1983 88.8126 26.5031C88.4745 26.8078 88.016 26.979 87.5378 26.979C87.1251 26.979 86.7268 26.8513 86.4082 26.6204C86.9506 28.0565 88.3387 29.4174 90.45 27.229C92.3138 25.1955 90.3671 20.9067 88.4705 18.3617C87.8383 17.5134 86.8005 17.1051 85.7351 17.1051C84.6697 17.1051 83.6319 17.5134 82.9997 18.3617C81.1031 20.9067 79.1564 25.1955 81.0203 27.229C83.1316 29.4174 84.5197 28.0565 85.0621 26.6204C84.7434 26.8513 84.3452 26.979 83.9324 26.979C83.4542 26.979 82.9957 26.8078 82.6576 26.5031C82.3196 26.1983 82.1296 25.7851 82.1296 25.3542H89.3406ZM78.8315 12.6586H73.8094L77.7673 15.7934C78.6383 16.4831 79.9113 16.2626 80.4503 15.3286C81.1307 14.1494 80.2269 12.6586 78.8315 12.6586ZM92.6387 12.6586H97.6609L93.7029 15.7934C92.8319 16.4831 91.5589 16.2626 91.02 15.3286C90.3395 14.1494 91.2433 12.6586 92.6387 12.6586Z" fill="#686868"/>
<path id="Vector_2" d="M113.073 31.1295H117.522V14.3469H113.073V31.1295ZM113.073 11.7297H117.522V7.73846H113.073V11.7297Z" fill="#686868"/>
<path id="Vector_3" d="M120.389 36.6256H124.839V29.2321H124.904C125.853 30.6715 127.39 31.6203 129.746 31.6203C134.064 31.6203 137.008 28.1852 137.008 22.7546C137.008 17.5202 134.162 13.8889 129.713 13.8889C127.423 13.8889 125.853 14.9684 124.773 16.4406H124.675V14.3469H120.389V36.6256ZM128.797 27.9235C126.147 27.9235 124.74 25.9279 124.74 22.8854C124.74 19.8757 125.853 17.4875 128.633 17.4875C131.382 17.4875 132.494 19.7121 132.494 22.8854C132.494 26.0588 131.054 27.9235 128.797 27.9235Z" fill="#686868"/>
<path id="Vector_4" d="M145.884 31.6203C150.071 31.6203 152.95 29.5919 152.95 26.2223C152.95 22.2966 149.842 21.5114 147.029 20.9225C144.641 20.4318 142.416 20.301 142.416 18.8615C142.416 17.6511 143.561 16.9968 145.295 16.9968C147.193 16.9968 148.338 17.6511 148.534 19.4504H152.558C152.231 16.0807 149.777 13.8889 145.36 13.8889C141.533 13.8889 138.523 15.6227 138.523 19.2541C138.523 22.9181 141.467 23.736 144.477 24.3249C146.767 24.7829 148.894 24.9464 148.894 26.5495C148.894 27.7272 147.781 28.4796 145.818 28.4796C143.823 28.4796 142.449 27.6291 142.154 25.6989H138.032C138.294 29.2648 141.009 31.6203 145.884 31.6203Z" fill="#686868"/>
<path id="Vector_5" d="M169.843 31.1295V14.3469H165.394V24.0304C165.394 26.255 164.118 27.8254 162.024 27.8254C160.127 27.8254 159.244 26.7458 159.244 24.7829V14.3469H154.827V25.5353C154.827 29.1994 156.921 31.5876 160.65 31.5876C163.006 31.5876 164.314 30.7043 165.459 29.1667H165.557V31.1295H169.843Z" fill="#686868"/>
<path id="Vector_6" d="M172.721 31.1295H177.17V21.3805C177.17 19.1559 178.381 17.7165 180.18 17.7165C181.816 17.7165 182.764 18.6979 182.764 20.5954V31.1295H187.214V21.3805C187.214 19.1559 188.359 17.7165 190.223 17.7165C191.859 17.7165 192.808 18.6979 192.808 20.5954V31.1295H197.257V19.8429C197.257 16.1789 195.261 13.8889 191.728 13.8889C189.602 13.8889 187.835 15.0012 186.69 16.8332H186.625C185.807 15.0666 184.106 13.8889 181.979 13.8889C179.656 13.8889 178.021 15.0666 177.105 16.6042H177.007V14.3469H172.721V31.1295Z" fill="#686868"/>
<path id="Vector_7" d="M0.745972 31.1295H5.19518V7.73846H0.745972V31.1295Z" fill="#686868"/>
<path id="Vector_8" d="M16.0742 31.6203C21.2758 31.6203 24.8418 27.7599 24.8418 22.7546C24.8418 17.7492 21.2758 13.8889 16.0742 13.8889C10.8725 13.8889 7.30658 17.7492 7.30658 22.7546C7.30658 27.7599 10.8725 31.6203 16.0742 31.6203ZM16.0742 28.2179C13.3262 28.2179 11.8213 26.026 11.8213 22.7546C11.8213 19.4831 13.3262 17.2585 16.0742 17.2585C18.7895 17.2585 20.3271 19.4831 20.3271 22.7546C20.3271 26.026 18.7895 28.2179 16.0742 28.2179Z" fill="#686868"/>
<path id="Vector_9" d="M34.3034 36.8546C36.7897 36.8546 38.9489 36.2658 40.3557 34.9572C41.5988 33.8122 42.3513 32.2091 42.3513 29.8537V14.3469H38.0656V16.1135H38.0002C36.986 14.7067 35.4484 13.8889 33.3547 13.8889C29.1018 13.8889 26.092 17.0949 26.092 22.1003C26.092 27.1711 29.7561 30.1154 33.4856 30.1154C35.612 30.1154 36.8879 29.2648 37.8693 28.1525H37.9675V29.9845C37.9675 32.2746 36.757 33.485 34.238 33.485C32.177 33.485 31.2282 32.6671 30.8684 31.6203H26.4519C26.9099 34.8917 29.7234 36.8546 34.3034 36.8546ZM34.238 26.5495C31.948 26.5495 30.4431 24.881 30.4431 22.0348C30.4431 19.2214 31.948 17.4548 34.2053 17.4548C36.8879 17.4548 38.1965 19.5485 38.1965 22.0021C38.1965 24.4884 37.0515 26.5495 34.238 26.5495Z" fill="#686868"/>
<path id="Vector_10" d="M53.1657 31.6203C58.3674 31.6203 61.9333 27.7599 61.9333 22.7546C61.9333 17.7492 58.3674 13.8889 53.1657 13.8889C47.9641 13.8889 44.3982 17.7492 44.3982 22.7546C44.3982 27.7599 47.9641 31.6203 53.1657 31.6203ZM53.1657 28.2179C50.4177 28.2179 48.9128 26.026 48.9128 22.7546C48.9128 19.4831 50.4177 17.2585 53.1657 17.2585C55.881 17.2585 57.4186 19.4831 57.4186 22.7546C57.4186 26.026 55.881 28.2179 53.1657 28.2179Z" fill="#686868"/>
<path id="Vector_11" d="M197.056 10.6828C197.056 9.92992 197.666 9.31964 198.419 9.31964H201.146C201.898 9.31964 202.509 9.92992 202.509 10.6828C202.509 11.4355 201.898 12.0459 201.146 12.0459H198.419C197.666 12.0459 197.056 11.4355 197.056 10.6828Z" fill="#686868"/>
</g>
<defs>
<clipPath id="clip0_767_211">
<rect width="202.832" height="44.7102" fill="white"/>
</clipPath>
</defs>
</svg>
