<?xml version="1.0" encoding="UTF-8"?>
<svg version="1.1" xmlns="http://www.w3.org/2000/svg" width="268" height="188">
<path d="M0 0 C88.44 0 176.88 0 268 0 C268 62.04 268 124.08 268 188 C179.56 188 91.12 188 0 188 C0 125.96 0 63.92 0 0 Z " fill="#00943F" transform="translate(0,0)"/>
<path d="M0 0 C2.1050386 1.14263808 4.16600899 2.28044235 6.18359375 3.5703125 C6.89555908 4.0226123 7.60752441 4.47491211 8.34106445 4.94091797 C9.10894287 5.43479004 9.87682129 5.92866211 10.66796875 6.4375 C11.48934326 6.96102051 12.31071777 7.48454102 13.15698242 8.02392578 C15.91342842 9.78246725 18.6657908 11.54728741 21.41796875 13.3125 C23.42952621 14.59921053 25.44124924 15.88566223 27.453125 17.171875 C31.6784792 19.87412871 35.9021522 22.57898776 40.125 25.28515625 C46.04750356 29.07850658 51.98141528 32.85368979 57.91796875 36.625 C64.2689221 40.6607304 70.60625792 44.71566294 76.91796875 48.8125 C83.70958906 53.22036706 90.52702131 57.58690444 97.35546875 61.9375 C98.32226562 62.55431641 99.2890625 63.17113281 100.28515625 63.80664062 C101.18363281 64.37833984 102.08210937 64.95003906 103.0078125 65.5390625 C104.21232056 66.30597412 104.21232056 66.30597412 105.44116211 67.08837891 C107.38820618 68.33540016 107.38820618 68.33540016 109.41796875 69.3125 C109.41796875 69.9725 109.41796875 70.6325 109.41796875 71.3125 C106.86501499 73.00521934 104.30812617 74.57812842 101.66796875 76.125 C94.97806276 80.12673065 88.37581721 84.22741075 81.85546875 88.5 C68.24529242 97.40132822 54.53609173 106.1475327 40.81640625 114.87890625 C39.92026611 115.44939697 39.02412598 116.0198877 38.10083008 116.60766602 C36.32363118 117.73699352 34.54483963 118.8638189 32.7644043 119.98803711 C28.27462512 122.82847634 23.8130798 125.70201939 19.39657593 128.65551758 C17.11349497 130.18017216 14.82160476 131.69129619 12.52905273 133.20166016 C10.88632187 134.29202127 9.25647393 135.40171244 7.62695312 136.51171875 C6.62857422 137.16785156 5.63019531 137.82398438 4.6015625 138.5 C3.27983032 139.38751953 3.27983032 139.38751953 1.93139648 140.29296875 C-0.58203125 141.3125 -0.58203125 141.3125 -3.1706543 140.62939453 C-5.27078475 139.48247708 -7.33192619 138.34337192 -9.34765625 137.0546875 C-10.05937988 136.60254883 -10.77110352 136.15041016 -11.50439453 135.68457031 C-12.27251465 135.19053711 -13.04063477 134.69650391 -13.83203125 134.1875 C-15.06735596 133.40004395 -15.06735596 133.40004395 -16.32763672 132.59667969 C-19.08178563 130.83945007 -21.8319316 129.07605895 -24.58203125 127.3125 C-26.55840148 126.04917832 -28.53496861 124.78616464 -30.51171875 123.5234375 C-35.79720353 120.14533795 -41.07921622 116.76184722 -46.36035156 113.37695312 C-52.6312996 109.3585281 -58.90528943 105.34485351 -65.17919922 101.33105469 C-70.53965701 97.90123811 -75.89826894 94.46858973 -81.25390625 91.03125 C-83.44658533 89.62495439 -85.63929313 88.21870356 -87.83203125 86.8125 C-89.39812134 85.80678955 -89.39812134 85.80678955 -90.99584961 84.78076172 C-97.46872587 80.6334978 -103.98476571 76.5823823 -110.6171875 72.6953125 C-111.26558594 72.23898438 -111.91398437 71.78265625 -112.58203125 71.3125 C-112.58203125 70.6525 -112.58203125 69.9925 -112.58203125 69.3125 C-110.02908554 67.619786 -107.47221031 66.04681831 -104.83203125 64.5 C-98.07692108 60.46050863 -91.4148842 56.31464577 -84.83203125 52 C-77.8818118 47.45336717 -70.90625449 42.95125898 -63.89453125 38.5 C-57.05676853 34.1581691 -50.22303024 29.81038324 -43.40209961 25.44213867 C-41.32112768 24.11045287 -39.23861636 22.78116943 -37.15454102 21.4543457 C-32.19608529 18.29307468 -27.25644062 15.10994333 -22.36824036 11.84121704 C-20.08089035 10.31373915 -17.78483223 8.79964761 -15.48794556 7.28656006 C-13.86306789 6.20809957 -12.25106995 5.11031371 -10.6394043 4.01220703 C-9.65625244 3.36622559 -8.67310059 2.72024414 -7.66015625 2.0546875 C-6.7980957 1.4757373 -5.93603516 0.89678711 -5.04785156 0.30029297 C-2.58203125 -0.6875 -2.58203125 -0.6875 0 0 Z " fill="#FDCA01" transform="translate(135.58203125,23.6875)"/>
<path d="M0 0 C2.22809535 1.67575239 4.31371346 3.3517994 6.28710938 5.32519531 C6.45757279 13.336976 1.41177756 19.8480311 -3.75585938 25.59863281 C-14.33990603 35.66215259 -26.93045222 39.91878675 -41.31445312 39.63378906 C-53.67006694 38.51184252 -64.59288629 32.99993354 -73.08789062 24.01269531 C-76.84795547 19.48370105 -79.43277444 14.73183445 -81.71289062 9.32519531 C-82.03257813 8.64199219 -82.35226563 7.95878906 -82.68164062 7.25488281 C-85.82279211 -0.39440275 -86.24682497 -11.72560742 -83.71289062 -19.67480469 C-53.86370785 -25.16145899 -24.27065979 -17.76911341 0 0 Z " fill="#342A83" transform="translate(171.712890625,101.6748046875)"/>
<path d="M0 0 C9.68137414 7.07932313 16.45633263 16.61600957 19.578125 28.265625 C20.43420863 33.81431519 20.21765516 39.40545636 20 45 C16.30416057 43.29630817 13.00364571 41.0586624 9.625 38.8125 C3.53351527 34.80133163 -2.70927774 31.55089791 -9.33203125 28.5078125 C-12 27 -12 27 -13 24 C-13.66 24.66 -14.32 25.32 -15 26 C-16.84464844 25.47599609 -16.84464844 25.47599609 -18.7265625 24.94140625 C-20.35932815 24.48160443 -21.99214328 24.02197829 -23.625 23.5625 C-24.43324219 23.33240234 -25.24148437 23.10230469 -26.07421875 22.86523438 C-27.26337891 22.53168945 -27.26337891 22.53168945 -28.4765625 22.19140625 C-29.5605835 21.88505249 -29.5605835 21.88505249 -30.66650391 21.57250977 C-35.95423555 20.2751954 -40.92476341 19.87985439 -46.3671875 19.90234375 C-47.04677521 19.9037587 -47.72636292 19.90517365 -48.42654419 19.90663147 C-50.57607612 19.91218482 -52.72550008 19.92472831 -54.875 19.9375 C-56.34114432 19.94252104 -57.80729029 19.94708289 -59.2734375 19.95117188 C-62.84899283 19.96213889 -66.42448586 19.97937081 -70 20 C-64.31123613 7.93893143 -56.29663963 -0.08684409 -43.86328125 -5.3203125 C-28.73500849 -10.53947536 -13.51651975 -8.50645328 0 0 Z " fill="#312680" transform="translate(161,55)"/>
<path d="M0 0 C1.86881836 -0.00580078 1.86881836 -0.00580078 3.77539062 -0.01171875 C14.37485695 0.11853583 24.02048872 1.86869918 34.125 4.97851562 C36.37935855 5.59117685 36.37935855 5.59117685 40.0625 5.4375 C41.0525 5.4375 42.0425 5.4375 43.0625 5.4375 C43.5575 6.9225 43.5575 6.9225 44.0625 8.4375 C45.79493171 9.64694632 45.79493171 9.64694632 47.96484375 10.63671875 C49.170802 11.23758301 49.170802 11.23758301 50.40112305 11.85058594 C51.25875244 12.27114258 52.11638184 12.69169922 53 13.125 C69.19667826 21.38907469 69.19667826 21.38907469 73.0625 26.4375 C73.42578125 29.546875 73.42578125 29.546875 73.0625 32.4375 C72.0725 33.4275 72.0725 33.4275 71.0625 34.4375 C70.50304687 33.9528125 69.94359375 33.468125 69.3671875 32.96875 C59.13162711 24.41168987 47.65603479 17.8682832 35.0625 13.4375 C34.46066895 13.20901367 33.85883789 12.98052734 33.23876953 12.74511719 C16.75653602 6.65645407 -0.65805189 7.95123966 -17.9375 8.4375 C-17.6875 5.5625 -17.6875 5.5625 -16.9375 2.4375 C-12.44472519 -1.13209307 -5.4252036 0.01147584 0 0 Z " fill="#CFE4D8" transform="translate(106.9375,73.5625)"/>
<path d="M0 0 C1.20849609 -0.01611328 2.41699219 -0.03222656 3.66210938 -0.04882812 C12.00773233 -0.0532982 19.5232368 1.08783529 27.5625 3.3125 C26.9025 3.6425 26.2425 3.9725 25.5625 4.3125 C24.90694881 6.83983235 24.90694881 6.83983235 24.5625 9.3125 C23.43972656 9.14878906 22.31695312 8.98507813 21.16015625 8.81640625 C13.47498857 7.96249873 5.72124965 8.2076151 -2 8.25 C-3.59700381 8.25502457 -5.19400914 8.25958579 -6.79101562 8.26367188 C-10.67321533 8.27460272 -14.55534051 8.29181467 -18.4375 8.3125 C-18.1875 5.4375 -18.1875 5.4375 -17.4375 2.3125 C-12.87869137 -1.35926771 -5.51394211 -0.01429223 0 0 Z " fill="#A6CFB9" transform="translate(107.4375,73.6875)"/>
<path d="M0 0 C2.84841134 0.85485803 2.84841134 0.85485803 5.62890625 -1.50390625 C5.62890625 1.60866944 5.45529001 3.6037506 4.62890625 6.49609375 C3.96890625 6.49609375 3.30890625 6.49609375 2.62890625 6.49609375 C2.29890625 7.15609375 1.96890625 7.81609375 1.62890625 8.49609375 C-2.99109375 7.17609375 -7.61109375 5.85609375 -12.37109375 4.49609375 C-11.71109375 2.51609375 -11.05109375 0.53609375 -10.37109375 -1.50390625 C-6.94532782 -3.21678922 -3.50312437 -1.12417173 0 0 Z " fill="#CDE1D9" transform="translate(143.37109375,79.50390625)"/>
<path d="M0 0 C4.83035295 1.46374332 8.76222645 4.14377533 12 8 C12.5625 11.25 12.5625 11.25 12 14 C11.34 14.66 10.68 15.32 10 16 C8.39400651 14.73147606 6.79027425 13.460089 5.1875 12.1875 C4.29417969 11.47980469 3.40085938 10.77210937 2.48046875 10.04296875 C0.52923089 8.43588623 -1.26274976 6.82959577 -3 5 C-2.01 5 -1.02 5 0 5 C0 3.35 0 1.7 0 0 Z " fill="#9DCFB1" transform="translate(168,92)"/>
<path d="M0 0 C5.77807024 -0.2358396 10.51324804 0.13216954 16 2 C15.01 2.495 15.01 2.495 14 3 C13.67 4.65 13.34 6.3 13 8 C7.39 7.34 1.78 6.68 -4 6 C-3.01 5.34 -2.02 4.68 -1 4 C-0.27617533 1.94074861 -0.27617533 1.94074861 0 0 Z " fill="#DAEAE2" transform="translate(119,75)"/>
<path d="M0 0 C1.2065625 0.0309375 1.2065625 0.0309375 2.4375 0.0625 C1.4475 0.3925 0.4575 0.7225 -0.5625 1.0625 C-0.5625 2.7125 -0.5625 4.3625 -0.5625 6.0625 C-4.42973631 7.32832219 -8.29401262 7.1743765 -12.3125 7.125 C-13.00988281 7.12048828 -13.70726563 7.11597656 -14.42578125 7.11132812 C-16.13805803 7.0996002 -17.85029033 7.08166653 -19.5625 7.0625 C-18.5625 4.0625 -18.5625 4.0625 -16.5625 1.0625 C-15.2425 1.0625 -13.9225 1.0625 -12.5625 1.0625 C-12.5625 2.3825 -12.5625 3.7025 -12.5625 5.0625 C-11.9025 5.3925 -11.2425 5.7225 -10.5625 6.0625 C-10.5625 4.4125 -10.5625 2.7625 -10.5625 1.0625 C-9.2425 1.3925 -7.9225 1.7225 -6.5625 2.0625 C-6.5625 3.0525 -6.5625 4.0425 -6.5625 5.0625 C-6.088125 4.423125 -5.61375 3.78375 -5.125 3.125 C-2.80948795 0.0685241 -2.80948795 0.0685241 0 0 Z " fill="#9BC8B0" transform="translate(119.5625,73.9375)"/>
<path d="M0 0 C2.875 0.1875 2.875 0.1875 6 1 C7.4375 3.4375 7.4375 3.4375 8 6 C7.67 6.66 7.34 7.32 7 8 C4.75 8.25 4.75 8.25 2 8 C-0.3125 6 -0.3125 6 -2 4 C-1.34 2.68 -0.68 1.36 0 0 Z " fill="#BCDCCA" transform="translate(161,89)"/>
<path d="M0 0 C5.28 0 10.56 0 16 0 C16.33 0.66 16.66 1.32 17 2 C16.01 2.33 15.02 2.66 14 3 C13.01 4.485 13.01 4.485 12 6 C11.67 5.01 11.34 4.02 11 3 C10.34 2.67 9.68 2.34 9 2 C8.67 1.67 8.34 1.34 8 1 C8 2.65 8 4.3 8 6 C7.01 5.67 6.02 5.34 5 5 C5.33 3.68 5.66 2.36 6 1 C4.68 1 3.36 1 2 1 C2 2.65 2 4.3 2 6 C0 2.25 0 2.25 0 0 Z " fill="#F9FCFA" transform="translate(101,74)"/>
<path d="M0 0 C2.31 0.33 4.62 0.66 7 1 C6.01 1.495 6.01 1.495 5 2 C4.34444881 4.52733235 4.34444881 4.52733235 4 7 C1.03 6.505 1.03 6.505 -2 6 C-2.33 5.01 -2.66 4.02 -3 3 C-2.01 2.67 -1.02 2.34 0 2 C0 1.34 0 0.68 0 0 Z " fill="#F5F9F8" transform="translate(128,76)"/>
<path d="M0 0 C1.32 0.66 2.64 1.32 4 2 C3.34 3.65 2.68 5.3 2 7 C3.32 7 4.64 7 6 7 C6.33 8.65 6.66 10.3 7 12 C3.4213696 10.34832443 0.25179812 8.21713508 -3 6 C-2.01 5.67 -1.02 5.34 0 5 C0 3.35 0 1.7 0 0 Z " fill="#F0F1F4" transform="translate(168,92)"/>
<path d="M0 0 C0.66 0.33 1.32 0.66 2 1 C1.34 3.31 0.68 5.62 0 8 C-0.66 8 -1.32 8 -2 8 C-2.33 8.66 -2.66 9.32 -3 10 C-3.33 8.35 -3.66 6.7 -4 5 C-3.01 4.67 -2.02 4.34 -1 4 C-0.26676204 1.98491642 -0.26676204 1.98491642 0 0 Z " fill="#90BCAC" transform="translate(148,78)"/>
<path d="M0 0 C1.4540625 0.0309375 1.4540625 0.0309375 2.9375 0.0625 C2.6075 1.3825 2.2775 2.7025 1.9375 4.0625 C1.6075 3.4025 1.2775 2.7425 0.9375 2.0625 C-0.0525 1.7325 -1.0425 1.4025 -2.0625 1.0625 C-1.7325 2.7125 -1.4025 4.3625 -1.0625 6.0625 C-2.3825 6.3925 -3.7025 6.7225 -5.0625 7.0625 C-4.02286585 0.0820993 -4.02286585 0.0820993 0 0 Z " fill="#F7F7EF" transform="translate(94.0625,74.9375)"/>
<path d="M0 0 C0.66 0.33 1.32 0.66 2 1 C2.125 3.875 2.125 3.875 2 7 C1.34 7.66 0.68 8.32 0 9 C-0.99 7.68 -1.98 6.36 -3 5 C-2.34 4.67 -1.68 4.34 -1 4 C-0.34786708 1.97536745 -0.34786708 1.97536745 0 0 Z " fill="#F9F9F6" transform="translate(178,99)"/>
<path d="M0 0 C1.65 0.33 3.3 0.66 5 1 C4.01 1.66 3.02 2.32 2 3 C2 4.32 2 5.64 2 7 C0.68 6.67 -0.64 6.34 -2 6 C-2 5.34 -2 4.68 -2 4 C-1.34 4 -0.68 4 0 4 C0 2.68 0 1.36 0 0 Z " fill="#F1F1F5" transform="translate(148,82)"/>
<path d="M0 0 C-0.99 0.33 -1.98 0.66 -3 1 C-3 2.65 -3 4.3 -3 6 C-3.99 6 -4.98 6 -6 6 C-6.33 4.35 -6.66 2.7 -7 1 C-4.53721199 -0.231394 -2.7204945 -0.07159196 0 0 Z " fill="#6BAC89" transform="translate(122,74)"/>
<path d="M0 0 C0.99 0.33 1.98 0.66 3 1 C2.67 2.32 2.34 3.64 2 5 C0.68 4.67 -0.64 4.34 -2 4 C-1.34 2.68 -0.68 1.36 0 0 Z " fill="#7CC195" transform="translate(166,92)"/>
<path d="M0 0 C0.66 1.32 1.32 2.64 2 4 C1.01 4.33 0.02 4.66 -1 5 C-1.33 5.66 -1.66 6.32 -2 7 C-2.66 6.67 -3.32 6.34 -4 6 C-2.25 1.125 -2.25 1.125 0 0 Z " fill="#80BC9B" transform="translate(135,77)"/>
<path d="M0 0 C1.65 0.33 3.3 0.66 5 1 C4.01 1.66 3.02 2.32 2 3 C1.01 4.485 1.01 4.485 0 6 C-0.33 5.01 -0.66 4.02 -1 3 C-1.66 2.67 -2.32 2.34 -3 2 C-2.01 2 -1.02 2 0 2 C0 1.34 0 0.68 0 0 Z " fill="#EEF4F2" transform="translate(113,74)"/>
<path d="M0 0 C1.32 0 2.64 0 4 0 C3.67 1.65 3.34 3.3 3 5 C1.68 4.67 0.36 4.34 -1 4 C-0.67 2.68 -0.34 1.36 0 0 Z " fill="#79C195" transform="translate(155,86)"/>
</svg>
