<?xml version="1.0" encoding="UTF-8"?>
<svg version="1.1" xmlns="http://www.w3.org/2000/svg" width="275" height="183">
<path d="M0 0 C90.75 0 181.5 0 275 0 C275 60.39 275 120.78 275 183 C184.25 183 93.5 183 0 183 C0 122.61 0 62.22 0 0 Z " fill="#FEFEFE" transform="translate(0,0)"/>
<path d="M0 0 C11.9338819 9.49616822 20.219309 20.72193926 23 36 C23.28044085 38.92354563 23.33473795 41.81427309 23.3125 44.75 C23.30686035 45.53640869 23.3012207 46.32281738 23.29541016 47.13305664 C22.98798004 62.00993476 17.65252943 73.93917322 7.40625 84.71484375 C-5.2228399 96.7083788 -19.87146958 100.62106155 -36.80078125 100.33984375 C-50.65659212 99.73281768 -63.73603814 92.27390518 -73.15234375 82.296875 C-78.69096636 75.41165281 -82.85791666 67.58481093 -85 59 C-85.18433594 58.27296875 -85.36867188 57.5459375 -85.55859375 56.796875 C-86.17075562 52.91804405 -86.1842622 49.10847058 -86.1875 45.1875 C-86.19974609 44.41857422 -86.21199219 43.64964844 -86.22460938 42.85742188 C-86.25994336 28.90049813 -80.01282246 16.11055186 -70.375 6.1796875 C-51.22364002 -11.39672511 -21.89484944 -15.4045905 0 0 Z " fill="#BC002C" transform="translate(169,46)"/>
</svg>
