<svg width="299" height="66" viewBox="0 0 299 66" fill="none" xmlns="http://www.w3.org/2000/svg">
<path d="M4 20.5077C14.2733 20.5077 23.4149 19.2345 33.4749 17.81C55.4684 14.6958 78.0655 14.739 100.192 12.0774C123.049 9.32814 145.788 6.54719 169.144 6.54719C182.055 6.54719 194.966 6.54719 207.877 6.54719C219.757 6.54719 231.643 6.60136 243.523 6.54719C254.755 6.49598 265.506 4.11927 276.882 4.11927C281.529 4.11927 286.175 4.11927 290.822 4.11927C293.576 4.11927 294.482 3.77601 291.088 4.25416C279.37 5.90456 268.109 7.82098 256.079 8.97511C216.474 12.775 176.736 15.898 137.009 19.0914C120.536 20.4157 104.355 23.5426 87.6895 23.5426C76.3239 23.5426 65.1597 23.6943 53.8519 24.1159C46.8683 24.3763 39.7292 24.1496 32.73 24.1496C27.4929 24.1496 19.1941 23.2038 14.5343 24.8915C13.38 25.3095 17.1463 25.3647 18.4714 25.2961C27.4888 24.8296 36.2921 23.465 45.2329 22.6659C56.4321 21.6648 67.833 21.1355 78.9109 19.631C100.273 16.7297 122.546 16.375 144.245 14.4379C153.071 13.6501 161.997 13.6673 170.847 13.0891C178.941 12.5602 186.251 11.403 194.469 11.403C211.21 11.403 227.954 11.4598 244.694 11.403C253.118 11.3745 262.257 9.8081 270.444 11.5379C272.241 11.9174 275.206 12.6189 276.403 13.5949C278.546 15.3411 270.443 16.7405 268.636 16.8321C261.814 17.178 255.793 18.5832 249.163 19.1589C241.953 19.7849 234.74 20.132 227.509 20.8449C218.873 21.6964 210.245 23.4766 201.492 23.5426C191.989 23.6143 182.508 24.1496 173.028 24.1496C164.9 24.1496 157.038 25.3636 148.821 25.3636C142.862 25.3636 136.903 25.3636 130.944 25.3636C122.715 25.3636 114.486 25.3636 106.258 25.3636C96.0944 25.3636 85.7836 25.0351 75.8251 25.9368C68.9567 26.5587 62.5077 26.8989 55.7141 28.095C46.5122 29.715 36.6408 29.3633 27.4097 31.1636C23.8603 31.8558 20.0385 31.105 16.4497 31.7368C15.0554 31.9823 9.81978 32.0403 14.0023 32.0403C25.0593 32.0403 35.9268 31.4474 46.8822 30.4554C70.717 28.2973 94.4335 25.9191 118.228 23.5763C143.441 21.094 167.691 17.523 193.352 16.8658C205.126 16.5643 217.177 15.0449 228.839 15.0449C231.723 15.0449 234.804 14.8311 237.671 15.0449C239.398 15.1737 237.983 16.5407 237.299 16.8658C233.572 18.6374 227.611 19.1178 223.2 19.9007C210.919 22.0801 197.759 22.5874 185.212 24.0147C170.128 25.7307 154.733 26.0555 139.829 28.095C119.8 30.8358 98.7495 31.5047 78.3789 32.6473C65.3028 33.3807 52.4029 35.3507 39.3273 35.6822C36.3209 35.7584 30.0618 36.3101 27.3565 37.2334C21.9569 39.0761 15.5298 39.3246 9.85241 40.7404C8.66713 41.0359 2.06798 41.145 6.12815 41.145C28.9569 41.145 51.6322 36.3327 74.3354 35.2101C87.2664 34.5707 100.552 33.3057 113.387 32.0403C134.275 29.9809 155.521 30.4245 176.487 28.3985C197.426 26.375 218.362 26.5775 239.48 26.5775C249.496 26.5775 259.178 25.5145 269.061 25.3636C274.665 25.278 281.644 25.978 286.938 24.4531C296.305 21.7543 266.424 25.5805 256.239 26.5101C223.423 29.5051 190.643 32.0076 157.972 35.6485C150.727 36.4558 143.608 37.058 136.265 37.3683C127.959 37.7192 120.213 39.2419 112.004 39.9311C98.5055 41.0642 84.994 42.5058 71.4624 43.4381C63.2261 44.0055 54.7068 44.5732 46.6162 45.7311C41.8199 46.4175 36.8713 46.0657 32.198 46.7427C29.9051 47.0749 27.0635 47.8218 24.7495 47.8218C10.9352 47.8218 52.4698 47.434 66.0888 45.9671C84.3076 44.0049 102.669 42.6827 120.942 40.9427C143.135 38.8295 165.206 36.2614 187.659 35.5473C200.284 35.1458 213.057 35.5918 225.647 35.0415C232.316 34.75 238.824 34.4683 245.545 34.4683C248.38 34.4683 253.276 35.0721 255.867 34.3334C263.291 32.216 272.758 33.2543 280.819 33.2543C282.257 33.2543 288.432 32.7537 284.171 33.3892C278.579 34.2231 273.229 35.8121 267.731 36.8962C254.776 39.4508 241.231 40.0395 227.988 41.7183C207.347 44.3347 186.162 45.2401 165.42 47.552C141.232 50.2482 117.084 50.2497 92.6375 50.2497C79.8174 50.2497 67.7744 51.2325 55.0756 51.9358C51.4928 52.1342 48.0764 53.2846 44.9669 53.2846C43.3531 53.2846 38.5115 53.2846 40.1254 53.2846C54.2531 53.2846 67.4025 49.2734 81.1455 47.6195C101.626 45.1547 123.176 46.0009 143.926 46.0009C153.1 46.0009 162.399 46.278 171.539 45.6637C176.339 45.341 181.053 44.4309 185.85 44.2136C188.489 44.0942 191.187 44.1799 193.831 44.1799C197.841 44.1799 200.7 43.1073 204.685 42.6962C207.343 42.4219 214.687 43.4431 214.687 41.145C214.687 39.1729 210.506 39.9687 208.409 40.2346C191.722 42.3498 174.34 44.1799 157.333 44.1799C152.797 44.1799 148.139 43.9884 143.607 44.1799C136.945 44.4614 128.634 48.0995 122.538 49.7776C112.369 52.577 99.3689 55.3219 88.2748 55.7125C80.6999 55.9793 72.9094 58.2938 65.6632 59.6916C61.9319 60.4114 50.5469 61.6062 54.4372 61.7823C78.1549 62.8561 102.359 59.7195 125.677 57.5672C170.077 53.4689 214.96 52.535 259.378 48.5637C270.405 47.5777 281.136 46.6078 292.258 46.6078C297.799 46.6078 288.481 47.7271 286.991 47.7881C277.674 48.1691 268.535 48.4288 259.165 48.4288C224.286 48.4288 189.441 49.0358 154.567 49.0358C153.677 49.0358 150.057 49.364 149.459 48.9009C149.161 48.6703 178.511 44.2934 179.572 44.1799C198.525 42.1538 217.571 40.4561 236.767 39.7287C244.795 39.4246 253.63 38.8182 261.719 39.3578C263.965 39.5076 262.015 41.756 261.4 42.359C258.542 45.1582 250.396 46.4261 245.864 47.0799C216.682 51.2904 187.328 52.598 157.759 55.1056C147.913 55.9406 138.08 56.728 128.231 57.5335C123.671 57.9064 118.521 59.3544 114.132 59.3544C104.446 59.3544 133.501 59.0986 143.181 58.8823C168.108 58.3253 192.671 56.3195 217.666 56.3195C236.465 56.3195 255.264 56.3195 274.062 56.3195" stroke="#FFD39C" stroke-width="8" stroke-linecap="round"/>
</svg>
