<svg width="30" height="29" viewBox="0 0 30 29" fill="none" xmlns="http://www.w3.org/2000/svg">
<g id="Social Icons" clip-path="url(#clip0_217_1903)">
<path id="Vector" d="M14.9601 2.53536C18.7219 2.53536 19.1673 2.55186 20.6467 2.61785C22.0217 2.67835 22.7641 2.90934 23.2591 3.10183C23.9136 3.35481 24.3865 3.66279 24.876 4.15227C25.371 4.64724 25.6735 5.11471 25.9265 5.76918C26.1189 6.26415 26.3499 7.0121 26.4104 8.38153C26.4764 9.86644 26.4929 10.3119 26.4929 14.0682C26.4929 17.83 26.4764 18.2755 26.4104 19.7549C26.3499 21.1298 26.1189 21.8723 25.9265 22.3672C25.6735 23.0217 25.3655 23.4947 24.876 23.9841C24.381 24.4791 23.9136 24.7816 23.2591 25.0346C22.7641 25.2271 22.0162 25.4581 20.6467 25.5186C19.1618 25.5846 18.7164 25.6011 14.9601 25.6011C11.1983 25.6011 10.7528 25.5846 9.27339 25.5186C7.89847 25.4581 7.15601 25.2271 6.66103 25.0346C6.00657 24.7816 5.5336 24.4736 5.04413 23.9841C4.54915 23.4892 4.24667 23.0217 3.99368 22.3672C3.8012 21.8723 3.57021 21.1243 3.50971 19.7549C3.44372 18.27 3.42722 17.8245 3.42722 14.0682C3.42722 10.3064 3.44372 9.86094 3.50971 8.38153C3.57021 7.00661 3.8012 6.26415 3.99368 5.76918C4.24667 5.11471 4.55465 4.64174 5.04413 4.15227C5.5391 3.65729 6.00657 3.35481 6.66103 3.10183C7.15601 2.90934 7.90397 2.67835 9.27339 2.61785C10.7528 2.55186 11.1983 2.53536 14.9601 2.53536ZM14.9601 0C11.1378 0 10.6593 0.0164991 9.15789 0.0824954C7.66198 0.148492 6.63354 0.390478 5.74259 0.736958C4.81314 1.09994 4.02668 1.57841 3.24573 2.36487C2.45927 3.14582 1.9808 3.93228 1.61782 4.85623C1.27134 5.75268 1.02935 6.77562 0.963355 8.27153C0.897358 9.77845 0.880859 10.2569 0.880859 14.0792C0.880859 17.9015 0.897358 18.38 0.963355 19.8814C1.02935 21.3773 1.27134 22.4057 1.61782 23.2967C1.9808 24.2261 2.45927 25.0126 3.24573 25.7935C4.02668 26.5745 4.81314 27.0585 5.73709 27.416C6.63354 27.7624 7.65648 28.0044 9.15239 28.0704C10.6538 28.1364 11.1323 28.1529 14.9546 28.1529C18.7769 28.1529 19.2553 28.1364 20.7567 28.0704C22.2527 28.0044 23.2811 27.7624 24.1721 27.416C25.096 27.0585 25.8825 26.5745 26.6634 25.7935C27.4444 25.0126 27.9283 24.2261 28.2858 23.3022C28.6323 22.4057 28.8743 21.3828 28.9403 19.8869C29.0063 18.3855 29.0228 17.907 29.0228 14.0847C29.0228 10.2624 29.0063 9.78395 28.9403 8.28253C28.8743 6.78662 28.6323 5.75818 28.2858 4.86723C27.9393 3.93228 27.4609 3.14582 26.6744 2.36487C25.8935 1.58391 25.107 1.09994 24.1831 0.742458C23.2866 0.395978 22.2637 0.153991 20.7677 0.087995C19.2608 0.0164991 18.7824 0 14.9601 0Z" fill="white"/>
<path id="Vector_2" d="M14.9601 6.84717C10.9673 6.84717 7.72797 10.0865 7.72797 14.0793C7.72797 18.072 10.9673 21.3114 14.9601 21.3114C18.9528 21.3114 22.1922 18.072 22.1922 14.0793C22.1922 10.0865 18.9528 6.84717 14.9601 6.84717ZM14.9601 18.7705C12.3697 18.7705 10.2688 16.6696 10.2688 14.0793C10.2688 11.4889 12.3697 9.38803 14.9601 9.38803C17.5504 9.38803 19.6513 11.4889 19.6513 14.0793C19.6513 16.6696 17.5504 18.7705 14.9601 18.7705Z" fill="white"/>
<path id="Vector_3" d="M24.1666 6.56097C24.1666 7.49591 23.4076 8.24937 22.4782 8.24937C21.5433 8.24937 20.7898 7.49041 20.7898 6.56097C20.7898 5.62602 21.5488 4.87256 22.4782 4.87256C23.4076 4.87256 24.1666 5.63152 24.1666 6.56097Z" fill="white"/>
</g>
<defs>
<clipPath id="clip0_217_1903">
<rect width="28.1584" height="28.1584" fill="white" transform="translate(0.880859)"/>
</clipPath>
</defs>
</svg>
