<svg width="29" height="29" viewBox="0 0 29 29" fill="none" xmlns="http://www.w3.org/2000/svg">
<g id="Social Icons" clip-path="url(#clip0_217_1904)">
<path id="Vector" d="M26.9158 0H2.92068C1.77124 0 0.841797 0.907449 0.841797 2.02939V26.1235C0.841797 27.2455 1.77124 28.1584 2.92068 28.1584H26.9158C28.0653 28.1584 29.0002 27.2455 29.0002 26.129V2.02939C29.0002 0.907449 28.0653 0 26.9158 0ZM9.19583 23.9951H5.01606V10.5539H9.19583V23.9951ZM7.10595 8.72251C5.76402 8.72251 4.68058 7.63907 4.68058 6.30265C4.68058 4.96622 5.76402 3.88278 7.10595 3.88278C8.44237 3.88278 9.52581 4.96622 9.52581 6.30265C9.52581 7.63357 8.44237 8.72251 7.10595 8.72251ZM24.8369 23.9951H20.6627V17.4615C20.6627 15.9051 20.6352 13.8977 18.4903 13.8977C16.3179 13.8977 15.9879 15.5971 15.9879 17.3515V23.9951H11.8192V10.5539H15.823V12.3908H15.878C16.4334 11.3349 17.7973 10.2184 19.8267 10.2184C24.056 10.2184 24.8369 13.0013 24.8369 16.6201V23.9951Z" fill="white"/>
</g>
<defs>
<clipPath id="clip0_217_1904">
<rect width="28.1584" height="28.1584" fill="white" transform="translate(0.841797)"/>
</clipPath>
</defs>
</svg>
