<svg width="73" height="28" viewBox="0 0 73 28" fill="none" xmlns="http://www.w3.org/2000/svg">
<g id="Logo" clip-path="url(#clip0_95_879)">
<path id="Vector" d="M33.1973 24.302H35.0831V17.1887H33.1973V24.302ZM33.1973 16.0793H35.0831V14.3877H33.1973V16.0793Z" fill="#858585"/>
<path id="Vector_2" d="M36.2983 26.6321H38.1841V23.4984H38.2119C38.614 24.1084 39.2657 24.5106 40.2641 24.5106C42.0944 24.5106 43.3423 23.0546 43.3423 20.7528C43.3423 18.5342 42.136 16.9951 40.2502 16.9951C39.2796 16.9951 38.614 17.4527 38.1564 18.0766H38.1148V17.1893H36.2983V26.6321ZM39.862 22.9437C38.7388 22.9437 38.1425 22.0979 38.1425 20.8083C38.1425 19.5326 38.614 18.5204 39.7926 18.5204C40.9574 18.5204 41.4288 19.4633 41.4288 20.8083C41.4288 22.1533 40.8188 22.9437 39.862 22.9437Z" fill="#858585"/>
<path id="Vector_3" d="M47.1038 24.5106C48.8786 24.5106 50.0988 23.6508 50.0988 22.2226C50.0988 20.5587 48.7816 20.2259 47.5891 19.9764C46.5768 19.7684 45.6339 19.7128 45.6339 19.1028C45.6339 18.5897 46.1193 18.3124 46.8542 18.3124C47.6584 18.3124 48.1437 18.5897 48.2269 19.3524H49.9325C49.7938 17.9242 48.7539 16.9951 46.8819 16.9951C45.2596 16.9951 43.9839 17.73 43.9839 19.2691C43.9839 20.8222 45.2319 21.1688 46.5075 21.4184C47.4782 21.6125 48.3795 21.6819 48.3795 22.3613C48.3795 22.8605 47.908 23.1794 47.076 23.1794C46.2302 23.1794 45.6478 22.8189 45.523 22.0008H43.7759C43.8868 23.5122 45.0377 24.5106 47.1038 24.5106Z" fill="#858585"/>
<path id="Vector_4" d="M57.2591 24.3018V17.1885H55.3733V21.2928C55.3733 22.2357 54.8325 22.9013 53.9451 22.9013C53.1409 22.9013 52.7665 22.4437 52.7665 21.6117V17.1885H50.8945V21.9307C50.8945 23.4836 51.782 24.4959 53.3627 24.4959C54.3611 24.4959 54.9157 24.1215 55.4011 23.4698H55.4427V24.3018H57.2591Z" fill="#858585"/>
<path id="Vector_5" d="M58.4785 24.3026H60.3644V20.1704C60.3644 19.2275 60.8774 18.6175 61.64 18.6175C62.3333 18.6175 62.7355 19.0334 62.7355 19.8377V24.3026H64.6213V20.1704C64.6213 19.2275 65.1066 18.6175 65.8969 18.6175C66.5902 18.6175 66.9924 19.0334 66.9924 19.8377V24.3026H68.8782V19.5188C68.8782 17.9657 68.0323 16.9951 66.5348 16.9951C65.6335 16.9951 64.8847 17.4666 64.3994 18.243H64.3717C64.025 17.4943 63.304 16.9951 62.4027 16.9951C61.4182 16.9951 60.7249 17.4943 60.3366 18.146H60.295V17.1893H58.4785V24.3026Z" fill="#858585"/>
<path id="Vector_6" d="M33.2251 12.1184H35.1109V2.2041H33.2251V12.1184Z" fill="#858585"/>
<path id="Vector_7" d="M39.722 12.327C41.9268 12.327 43.4381 10.6908 43.4381 8.56924C43.4381 6.44772 41.9268 4.81152 39.722 4.81152C37.5173 4.81152 36.0059 6.44772 36.0059 8.56924C36.0059 10.6908 37.5173 12.327 39.722 12.327ZM39.722 10.8849C38.5572 10.8849 37.9194 9.95586 37.9194 8.56924C37.9194 7.18262 38.5572 6.23974 39.722 6.23974C40.8729 6.23974 41.5246 7.18262 41.5246 8.56924C41.5246 9.95586 40.8729 10.8849 39.722 10.8849Z" fill="#858585"/>
<path id="Vector_8" d="M47.4482 14.5456C48.5021 14.5456 49.4172 14.296 50.0134 13.7413C50.5403 13.256 50.8593 12.5766 50.8593 11.5782V5.00565H49.0428V5.75442H49.0151C48.5852 5.15817 47.9335 4.81152 47.0461 4.81152C45.2435 4.81152 43.9678 6.17041 43.9678 8.29193C43.9678 10.4412 45.5208 11.6891 47.1016 11.6891C48.0029 11.6891 48.5436 11.3286 48.9596 10.8572H49.0012V11.6337C49.0012 12.6043 48.4882 13.1173 47.4205 13.1173C46.5469 13.1173 46.1448 12.7707 45.9923 12.327H44.1203C44.3145 13.7136 45.5069 14.5456 47.4482 14.5456ZM47.4205 10.1777C46.4498 10.1777 45.812 9.47055 45.812 8.26421C45.812 7.07172 46.4498 6.32293 47.4066 6.32293C48.5436 6.32293 49.0983 7.21034 49.0983 8.25034C49.0983 9.30414 48.6129 10.1777 47.4205 10.1777Z" fill="#858585"/>
<path id="Vector_9" d="M55.4432 12.327C57.6479 12.327 59.1593 10.6908 59.1593 8.56924C59.1593 6.44772 57.6479 4.81152 55.4432 4.81152C53.2385 4.81152 51.7271 6.44772 51.7271 8.56924C51.7271 10.6908 53.2385 12.327 55.4432 12.327ZM55.4432 10.8849C54.2784 10.8849 53.6406 9.95586 53.6406 8.56924C53.6406 7.18262 54.2784 6.23974 55.4432 6.23974C56.5941 6.23974 57.2458 7.18262 57.2458 8.56924C57.2458 9.95586 56.5941 10.8849 55.4432 10.8849Z" fill="#858585"/>
<path id="Vector_10" d="M60.8125 9.40066H68.9657V7.77832H60.8125V9.40066Z" fill="#858585"/>
<path id="Vector_11" d="M69.5635 15.9801C69.5635 15.661 69.8221 15.4023 70.1414 15.4023H71.2966C71.6159 15.4023 71.8745 15.661 71.8745 15.9801C71.8745 16.2992 71.6159 16.5579 71.2966 16.5579H70.1414C69.8221 16.5579 69.5635 16.2992 69.5635 15.9801Z" fill="#858585"/>
<path id="Vector_12" fill-rule="evenodd" clip-rule="evenodd" d="M14.153 0C21.7707 0 27.9461 6.17538 27.9461 13.7931C27.9461 21.4108 21.7707 27.5862 14.153 27.5862C6.53524 27.5862 0.359863 21.4108 0.359863 13.7931C0.359863 6.17538 6.53524 0 14.153 0ZM13.6544 1.03213C12.0809 1.25358 10.5825 2.51799 9.41944 4.63269C9.08206 5.24609 8.77765 5.92376 8.51234 6.65547C10.0939 6.25805 11.8312 6.02374 13.6544 5.98749V1.03213ZM7.34662 6.98676C7.67648 5.95143 8.08006 4.99889 8.54579 4.15217C9.12234 3.10385 9.80662 2.19859 10.5776 1.50329C6.38524 2.72085 3.08071 6.02537 1.86316 10.2177C2.55844 9.44676 3.46372 8.76248 4.51204 8.18593C5.35876 7.7202 6.31129 7.31662 7.34662 6.98676ZM7.01531 8.15248C6.61791 9.734 6.3836 11.4713 6.34736 13.2945H1.39199C1.61345 11.721 2.87785 10.2226 4.99255 9.05958C5.60595 8.7222 6.28363 8.41779 7.01531 8.15248ZM7.34468 13.2945C7.38586 11.3048 7.67227 9.43682 8.1462 7.78634C9.79668 7.31241 11.6648 7.02593 13.6544 6.98476V9.13848C12.9121 11.0388 11.3982 12.5525 9.49786 13.2945H7.34468ZM6.34736 14.2917H1.39199C1.61345 15.8652 2.87785 17.3635 4.99255 18.5266C5.60595 18.864 6.28363 19.1684 7.01531 19.4337C6.61791 17.8522 6.3836 16.1149 6.34736 14.2917ZM8.1462 19.7999C7.67227 18.1494 7.38586 16.2814 7.34468 14.2917H9.49786C11.3982 15.0337 12.9122 16.5474 13.6544 18.4477V20.6014C11.6648 20.5603 9.79668 20.2738 8.1462 19.7999ZM7.34662 20.5994C6.31129 20.2696 5.35876 19.866 4.51204 19.4003C3.46372 18.8237 2.55844 18.1394 1.86316 17.3685C3.08071 21.5608 6.38524 24.8654 10.5776 26.0829C9.80662 25.3876 9.12234 24.4823 8.54579 23.434C8.08006 22.5873 7.67648 21.6348 7.34662 20.5994ZM13.6544 26.5541C12.0809 26.3326 10.5825 25.0682 9.41944 22.9535C9.08206 22.3401 8.77765 21.6624 8.51234 20.9308C10.0939 21.3281 11.8312 21.5625 13.6544 21.5987V26.5541ZM17.7283 26.0829C18.4993 25.3876 19.1836 24.4823 19.7602 23.434C20.2259 22.5873 20.6294 21.6348 20.9593 20.5994C21.9946 20.2696 22.9472 19.866 23.7939 19.4003C24.8422 18.8237 25.7475 18.1394 26.4427 17.3685C25.2252 21.5608 21.9207 24.8654 17.7283 26.0829ZM19.7936 20.9308C19.5283 21.6624 19.2239 22.3401 18.8865 22.9535C17.7234 25.0682 16.2251 26.3326 14.6515 26.5541V21.5987C16.4748 21.5625 18.2121 21.3281 19.7936 20.9308ZM21.2906 19.4337C22.0223 19.1684 22.7 18.864 23.3134 18.5266C25.4281 17.3635 26.6925 15.8652 26.9139 14.2917H21.9585C21.9223 16.1149 21.688 17.8522 21.2906 19.4337ZM20.9613 14.2917C20.9201 16.2814 20.6336 18.1494 20.1597 19.7999C18.5092 20.2738 16.6412 20.5603 14.6515 20.6014V18.4493C15.3935 16.5483 16.9078 15.0339 18.8087 14.2917H20.9613ZM21.9585 13.2945H26.9139C26.6925 11.721 25.4281 10.2226 23.3134 9.05958C22.7 8.7222 22.0223 8.41779 21.2906 8.15248C21.688 9.734 21.9223 11.4713 21.9585 13.2945ZM20.1597 7.78634C20.6336 9.43682 20.9201 11.3048 20.9613 13.2945H18.8087C16.9078 12.5523 15.3935 11.0379 14.6515 9.13689V6.98476C16.6412 7.02593 18.5092 7.31241 20.1597 7.78634ZM20.9593 6.98676C21.9946 7.31662 22.9472 7.7202 23.7939 8.18593C24.8422 8.76248 25.7475 9.44676 26.4427 10.2177C25.2252 6.02537 21.9207 2.72085 17.7283 1.50329C18.4993 2.19859 19.1836 3.10385 19.7602 4.15217C20.2259 4.99889 20.6294 5.95143 20.9593 6.98676ZM14.6515 1.03213C16.2251 1.25358 17.7234 2.51799 18.8865 4.63269C19.2239 5.24609 19.5283 5.92376 19.7936 6.65547C18.2121 6.25805 16.4748 6.02374 14.6515 5.98749V1.03213Z" fill="#858585"/>
</g>
<defs>
<clipPath id="clip0_95_879">
<rect width="72.4138" height="27.5862" fill="white"/>
</clipPath>
</defs>
</svg>
