<svg width="88" height="88" viewBox="0 0 88 88" fill="none" xmlns="http://www.w3.org/2000/svg">
<g id="OBJECTS" clip-path="url(#clip0_2007_1225)">
<path id="Vector" d="M70.7197 18.0076C72.106 19.3864 73.356 20.8864 74.5076 22.4697C77.803 26.9849 80.1136 31.9621 81.3636 37.4167C81.6894 38.8485 81.9091 40.3182 82.1364 41.7728C82.2197 42.3106 82.1818 42.8712 82.2576 43.4167C82.4697 44.8864 82.4545 46.3561 82.4167 47.8334C82.3939 48.7879 82.3333 49.7349 82.2424 50.6894C81.9318 54.1137 81.197 57.4546 80.0303 60.6894C78.3182 65.447 75.8257 69.7424 72.5379 73.5834C68.6136 78.1591 63.9167 81.7197 58.447 84.25C55.4242 85.6515 52.2651 86.644 48.9924 87.2803C45.8864 87.8788 42.75 88.0909 39.5985 87.9849C38.5985 87.9546 37.6061 87.8334 36.6136 87.75C35.9621 87.6894 35.303 87.6515 34.6667 87.5379C33.5985 87.3409 32.5379 87.1137 31.4773 86.8561C25.4621 85.394 20.053 82.7046 15.25 78.8106C11.0758 75.4243 7.69696 71.3712 5.09848 66.6743C2.93939 62.7652 1.46969 58.6061 0.659085 54.2197C0.333328 52.4546 0.121206 50.6667 0.0606003 48.8712C0.0378731 48.2728 -0.0151572 47.6743 -5.70901e-06 47.0758C0.0302973 45.8182 0.0606003 44.5531 0.159085 43.2955C0.5606 38.0985 1.96212 33.1743 4.26515 28.5152C6.10605 24.7955 8.46211 21.4243 11.3333 18.4243C16.3106 13.2121 22.2424 9.52275 29.1288 7.39396C30.9091 6.84093 32.7121 6.41669 34.553 6.12881C35.3788 6.00002 36.2197 5.95457 37.0454 5.84093C38.8182 5.58336 40.5985 5.56063 42.3788 5.59851C43.2045 5.61366 44.0379 5.68184 44.8636 5.7576C47.3333 5.99245 49.7803 6.38639 52.1742 7.06063C57.6061 8.57578 62.5379 11.0758 66.9318 14.6061C68 15.4621 68.9848 16.4167 70.0076 17.3182C69.9394 17.4015 69.8864 17.4924 69.8106 17.5682C67.4697 19.9091 65.1288 22.25 62.7879 24.5909C62.697 24.6818 62.5682 24.7273 62.4545 24.7879C62.3712 24.7197 62.2879 24.644 62.2121 24.5758C60.1591 22.644 57.9015 21.0076 55.4015 19.7121C52.7576 18.3409 49.9848 17.3409 47.0379 16.8031C45.7954 16.5758 44.553 16.394 43.3106 16.3106C40.9015 16.1515 38.4924 16.2424 36.0985 16.6515C33.2803 17.1364 30.5757 17.9849 28 19.2273C23.8712 21.2121 20.3561 23.9849 17.4773 27.5455C12.9924 33.0909 10.7348 39.4546 10.6439 46.5758C10.6288 47.8637 10.7424 49.1591 10.8712 50.4394C11.1136 52.9318 11.7197 55.3409 12.6288 57.6743C15.3561 64.6894 20.0227 70.0228 26.5985 73.6667C29.9773 75.5379 33.5909 76.7197 37.4318 77.144C38.5 77.2652 39.5757 77.3561 40.6515 77.3864C42.5985 77.4318 44.5454 77.2955 46.4621 76.947C47.8257 76.7046 49.1667 76.3864 50.4848 75.9621C56.1364 74.144 60.8788 70.9622 64.6818 66.4091C69.197 61 71.5227 54.7349 71.7879 47.7046C71.8636 45.7046 71.697 43.7121 71.3712 41.7349C70.6742 37.5303 69.1364 33.6591 66.8257 30.0909C65.7651 28.4621 64.5303 26.9697 63.2121 25.5455C63.303 25.4394 63.3864 25.3334 63.4848 25.2349C65.803 22.9167 68.1212 20.5909 70.447 18.2728C70.5303 18.1894 70.6288 18.1137 70.7273 18.0379L70.7197 18.0076Z" fill="#FF9900"/>
<g id="Vector_2">
<mask id="path-2-inside-1_2007_1225" fill="white">
<path d="M62.4621 24.7652C62.5757 24.697 62.7045 24.6516 62.7954 24.5682C65.1439 22.2273 67.4848 19.8864 69.8182 17.5455C69.8939 17.4697 69.947 17.3788 70.0151 17.2955C70.947 16.3788 71.8788 15.4622 72.8409 14.5228C72.7348 14.394 72.6439 14.2803 72.5454 14.1667C71.4015 12.7955 71.0833 11.2349 71.5 9.51519C71.7121 8.64397 72.1591 7.90155 72.7803 7.27276C75.106 4.93943 77.4318 2.61367 79.7651 0.287913C79.8485 0.20458 79.9394 0.106095 80.0454 0.0530649C80.2954 -0.075723 80.6212 0.0530649 80.6742 0.318216C80.7879 0.947004 80.8712 1.57579 80.9697 2.20458C81.0076 2.45458 81.053 2.70458 81.0909 2.96216C81.2045 3.697 81.3106 4.43185 81.4242 5.15913C81.4848 5.54549 81.5682 5.92428 81.6515 6.3561C82.4394 6.47731 83.2424 6.6061 84.0454 6.73488C84.6818 6.84094 85.3182 6.96973 85.9621 7.07579C86.4394 7.15155 86.9167 7.22731 87.3939 7.28034C87.6363 7.31064 87.8636 7.33337 87.9621 7.58337C88.0682 7.8561 87.9242 8.04549 87.7348 8.23488C87.1439 8.81822 86.5606 9.40913 85.9697 9.99246C84.2727 11.6894 82.5682 13.3788 80.8788 15.0834C80.0757 15.894 79.1288 16.4243 78 16.6137C77.447 16.6137 76.8864 16.6137 76.3333 16.6137C75.2576 16.4394 74.3333 15.9546 73.5303 15.1819C73.4621 15.2273 73.4015 15.2652 73.3485 15.3106C72.5 16.1515 71.6515 17 70.8106 17.8485C70.7727 17.8864 70.7424 17.947 70.7121 18C70.6212 18.0758 70.5227 18.1515 70.4318 18.2349C68.1136 20.5531 65.7879 22.8712 63.4697 25.197C63.3712 25.2955 63.2879 25.4016 63.197 25.5076C63.0833 25.6061 62.9545 25.697 62.8485 25.8031C60.5454 28.1061 58.2424 30.4091 55.9394 32.7122C55.8333 32.8182 55.7424 32.9394 55.6439 33.0606C55.5606 33.1288 55.4773 33.1894 55.4015 33.2652C53.0606 35.6061 50.7121 37.947 48.3712 40.2955C48.2879 40.3788 48.2197 40.4849 48.1363 40.5758C48.0076 40.6819 47.8712 40.7803 47.75 40.9016C45.8106 42.8334 43.8712 44.7728 41.9394 46.7122C41.6667 46.9849 41.4091 47.2425 40.9924 47.2576C40.553 46.7955 40.553 46.7803 41.0076 46.3182C41.0606 46.2652 41.1136 46.2122 41.1742 46.1516C43.1439 44.1819 45.1136 42.2122 47.0833 40.2425C47.2045 40.1212 47.3106 39.9925 47.4167 39.8637C47.5454 39.7576 47.6818 39.6591 47.803 39.5379C50.0833 37.2576 52.3712 34.9773 54.6439 32.697C54.75 32.5909 54.8409 32.4622 54.9394 32.3485C54.9848 32.3106 55.0454 32.2803 55.0833 32.2349C57.4848 29.8334 59.8863 27.4319 62.2879 25.0303C62.356 24.9622 62.3863 24.8561 62.4394 24.7652H62.4621ZM77.8257 15.697C78.7121 15.5455 79.4848 15.1515 80.1212 14.5152C82.1742 12.4622 84.2348 10.4016 86.2879 8.34852C86.356 8.28034 86.4091 8.197 86.5076 8.07579C86.3636 8.05307 86.2727 8.04549 86.1894 8.03034C85.697 7.96216 85.197 7.90913 84.7045 7.83337C84.2273 7.75761 83.7576 7.65155 83.2803 7.56822C82.5985 7.447 81.9091 7.33337 81.2197 7.21973C80.9773 7.18185 80.8257 7.04549 80.7803 6.81064C80.7273 6.51519 80.6894 6.21216 80.6364 5.9167C80.5 5.17428 80.3409 4.43185 80.2197 3.68185C80.106 2.96973 80.0227 2.25761 79.9166 1.47731C79.7954 1.58337 79.7197 1.64397 79.6591 1.70458C77.5909 3.77276 75.5227 5.83337 73.4621 7.90155C72.5 8.86367 72.1212 10.0379 72.2803 11.3788C72.3939 12.3182 72.803 13.1212 73.5 13.8106C73.6288 13.6819 73.7424 13.5834 73.8485 13.4773C75.3712 11.9546 76.8939 10.4319 78.4167 8.90913C78.5151 8.81064 78.606 8.67428 78.7273 8.6364C78.8712 8.59094 79.0606 8.58337 79.2045 8.6364C79.3712 8.68185 79.3712 8.8561 79.3863 9.02276C79.4015 9.25761 79.2727 9.3864 79.1288 9.53034C77.5909 11.0606 76.0606 12.5985 74.5303 14.1288C74.4166 14.2425 74.303 14.3712 74.1818 14.5C74.8485 15.1667 75.6212 15.5531 76.5076 15.697C76.9394 15.8409 77.3788 15.8409 77.8106 15.697H77.8257Z"/>
</mask>
<path d="M62.4621 24.7652C62.5757 24.697 62.7045 24.6516 62.7954 24.5682C65.1439 22.2273 67.4848 19.8864 69.8182 17.5455C69.8939 17.4697 69.947 17.3788 70.0151 17.2955C70.947 16.3788 71.8788 15.4622 72.8409 14.5228C72.7348 14.394 72.6439 14.2803 72.5454 14.1667C71.4015 12.7955 71.0833 11.2349 71.5 9.51519C71.7121 8.64397 72.1591 7.90155 72.7803 7.27276C75.106 4.93943 77.4318 2.61367 79.7651 0.287913C79.8485 0.20458 79.9394 0.106095 80.0454 0.0530649C80.2954 -0.075723 80.6212 0.0530649 80.6742 0.318216C80.7879 0.947004 80.8712 1.57579 80.9697 2.20458C81.0076 2.45458 81.053 2.70458 81.0909 2.96216C81.2045 3.697 81.3106 4.43185 81.4242 5.15913C81.4848 5.54549 81.5682 5.92428 81.6515 6.3561C82.4394 6.47731 83.2424 6.6061 84.0454 6.73488C84.6818 6.84094 85.3182 6.96973 85.9621 7.07579C86.4394 7.15155 86.9167 7.22731 87.3939 7.28034C87.6363 7.31064 87.8636 7.33337 87.9621 7.58337C88.0682 7.8561 87.9242 8.04549 87.7348 8.23488C87.1439 8.81822 86.5606 9.40913 85.9697 9.99246C84.2727 11.6894 82.5682 13.3788 80.8788 15.0834C80.0757 15.894 79.1288 16.4243 78 16.6137C77.447 16.6137 76.8864 16.6137 76.3333 16.6137C75.2576 16.4394 74.3333 15.9546 73.5303 15.1819C73.4621 15.2273 73.4015 15.2652 73.3485 15.3106C72.5 16.1515 71.6515 17 70.8106 17.8485C70.7727 17.8864 70.7424 17.947 70.7121 18C70.6212 18.0758 70.5227 18.1515 70.4318 18.2349C68.1136 20.5531 65.7879 22.8712 63.4697 25.197C63.3712 25.2955 63.2879 25.4016 63.197 25.5076C63.0833 25.6061 62.9545 25.697 62.8485 25.8031C60.5454 28.1061 58.2424 30.4091 55.9394 32.7122C55.8333 32.8182 55.7424 32.9394 55.6439 33.0606C55.5606 33.1288 55.4773 33.1894 55.4015 33.2652C53.0606 35.6061 50.7121 37.947 48.3712 40.2955C48.2879 40.3788 48.2197 40.4849 48.1363 40.5758C48.0076 40.6819 47.8712 40.7803 47.75 40.9016C45.8106 42.8334 43.8712 44.7728 41.9394 46.7122C41.6667 46.9849 41.4091 47.2425 40.9924 47.2576C40.553 46.7955 40.553 46.7803 41.0076 46.3182C41.0606 46.2652 41.1136 46.2122 41.1742 46.1516C43.1439 44.1819 45.1136 42.2122 47.0833 40.2425C47.2045 40.1212 47.3106 39.9925 47.4167 39.8637C47.5454 39.7576 47.6818 39.6591 47.803 39.5379C50.0833 37.2576 52.3712 34.9773 54.6439 32.697C54.75 32.5909 54.8409 32.4622 54.9394 32.3485C54.9848 32.3106 55.0454 32.2803 55.0833 32.2349C57.4848 29.8334 59.8863 27.4319 62.2879 25.0303C62.356 24.9622 62.3863 24.8561 62.4394 24.7652H62.4621ZM77.8257 15.697C78.7121 15.5455 79.4848 15.1515 80.1212 14.5152C82.1742 12.4622 84.2348 10.4016 86.2879 8.34852C86.356 8.28034 86.4091 8.197 86.5076 8.07579C86.3636 8.05307 86.2727 8.04549 86.1894 8.03034C85.697 7.96216 85.197 7.90913 84.7045 7.83337C84.2273 7.75761 83.7576 7.65155 83.2803 7.56822C82.5985 7.447 81.9091 7.33337 81.2197 7.21973C80.9773 7.18185 80.8257 7.04549 80.7803 6.81064C80.7273 6.51519 80.6894 6.21216 80.6364 5.9167C80.5 5.17428 80.3409 4.43185 80.2197 3.68185C80.106 2.96973 80.0227 2.25761 79.9166 1.47731C79.7954 1.58337 79.7197 1.64397 79.6591 1.70458C77.5909 3.77276 75.5227 5.83337 73.4621 7.90155C72.5 8.86367 72.1212 10.0379 72.2803 11.3788C72.3939 12.3182 72.803 13.1212 73.5 13.8106C73.6288 13.6819 73.7424 13.5834 73.8485 13.4773C75.3712 11.9546 76.8939 10.4319 78.4167 8.90913C78.5151 8.81064 78.606 8.67428 78.7273 8.6364C78.8712 8.59094 79.0606 8.58337 79.2045 8.6364C79.3712 8.68185 79.3712 8.8561 79.3863 9.02276C79.4015 9.25761 79.2727 9.3864 79.1288 9.53034C77.5909 11.0606 76.0606 12.5985 74.5303 14.1288C74.4166 14.2425 74.303 14.3712 74.1818 14.5C74.8485 15.1667 75.6212 15.5531 76.5076 15.697C76.9394 15.8409 77.3788 15.8409 77.8106 15.697H77.8257Z" fill="#504F4F"/>
<path d="M62.4621 24.7652V28.7652H63.57L64.5201 28.1952L62.4621 24.7652ZM62.7954 24.5682L65.4983 27.5168L65.56 27.4603L65.6193 27.4012L62.7954 24.5682ZM69.8182 17.5455L66.9897 14.7171L66.9852 14.7216L69.8182 17.5455ZM70.0151 17.2955L67.21 14.444L67.056 14.5954L66.9193 14.7625L70.0151 17.2955ZM72.8409 14.5228L75.6353 17.3848L78.2651 14.8171L75.9286 11.9799L72.8409 14.5228ZM72.5454 14.1667L69.4739 16.7291L69.498 16.758L69.5227 16.7864L72.5454 14.1667ZM71.5 9.51519L67.6135 8.56892L67.6125 8.57328L71.5 9.51519ZM72.7803 7.27276L69.9473 4.44894L69.941 4.45522L69.9348 4.46153L72.7803 7.27276ZM79.7651 0.287913L82.589 3.12094L82.5936 3.11634L79.7651 0.287913ZM80.0454 0.0530649L81.8343 3.63077L81.8559 3.62L81.8773 3.60896L80.0454 0.0530649ZM80.6742 0.318216L84.6105 -0.393152L84.6038 -0.429765L84.5965 -0.466248L80.6742 0.318216ZM80.9697 2.20458L84.9245 1.60536L84.923 1.59549L84.9215 1.58562L80.9697 2.20458ZM81.0909 2.96216L77.1335 3.54413L77.1356 3.5588L77.1379 3.57345L81.0909 2.96216ZM81.4242 5.15913L77.4722 5.77663L77.4725 5.779L81.4242 5.15913ZM81.6515 6.3561L77.724 7.11404L78.258 9.88107L81.0433 10.3096L81.6515 6.3561ZM84.0454 6.73488L84.703 2.78931L84.691 2.78729L84.6789 2.78535L84.0454 6.73488ZM85.9621 7.07579L85.312 11.0226L85.3235 11.0245L85.335 11.0263L85.9621 7.07579ZM87.3939 7.28034L87.8901 3.31123L87.8629 3.30783L87.8357 3.3048L87.3939 7.28034ZM87.9621 7.58337L91.6901 6.13358L91.687 6.12542L91.6837 6.11727L87.9621 7.58337ZM87.7348 8.23488L90.545 11.0815L90.5541 11.0724L90.5633 11.0633L87.7348 8.23488ZM85.9697 9.99246L83.1596 7.14584L83.1504 7.15491L83.1413 7.16403L85.9697 9.99246ZM80.8788 15.0834L78.0378 12.2676L78.0371 12.2683L80.8788 15.0834ZM78 16.6137V20.6137H78.3332L78.6619 20.5585L78 16.6137ZM76.3333 16.6137L75.6938 20.5622L76.0115 20.6137H76.3333V16.6137ZM73.5303 15.1819L76.3038 12.2996L73.9869 10.0701L71.3115 11.8537L73.5303 15.1819ZM73.3485 15.3106L70.7453 12.2736L70.6355 12.3677L70.5328 12.4696L73.3485 15.3106ZM70.8106 17.8485L73.639 20.6769L73.6454 20.6706L73.6517 20.6642L70.8106 17.8485ZM70.7121 18L73.2728 21.0729L73.8271 20.611L74.1851 19.9846L70.7121 18ZM70.4318 18.2349L67.7289 15.2863L67.6648 15.345L67.6034 15.4065L70.4318 18.2349ZM63.4697 25.197L66.2981 28.0254L66.3027 28.0208L63.4697 25.197ZM63.197 25.5076L65.8167 28.5304L66.0409 28.336L66.234 28.1108L63.197 25.5076ZM55.6439 33.0606L58.1769 36.1565L58.4918 35.8988L58.7484 35.583L55.6439 33.0606ZM48.3712 40.2955L51.1996 43.1239L51.2042 43.1193L48.3712 40.2955ZM48.1363 40.5758L50.6792 43.6635L50.8956 43.4853L51.085 43.2787L48.1363 40.5758ZM47.75 40.9016L50.5729 43.7355L50.5784 43.73L47.75 40.9016ZM41.9394 46.7122L44.7678 49.5406L44.7733 49.535L41.9394 46.7122ZM40.9924 47.2576L38.0936 50.0139L39.336 51.3205L41.1378 51.255L40.9924 47.2576ZM41.0076 46.3182L38.1791 43.4898L38.1674 43.5015L38.1559 43.5133L41.0076 46.3182ZM47.4167 39.8637L44.8738 36.776L44.575 37.022L44.3289 37.3208L47.4167 39.8637ZM54.6439 32.697L51.8155 29.8686L51.8108 29.8733L54.6439 32.697ZM54.9394 32.3485L52.3786 29.2756L52.1292 29.4835L51.9166 29.7288L54.9394 32.3485ZM55.0833 32.2349L52.2549 29.4065L52.1266 29.5348L52.0104 29.6741L55.0833 32.2349ZM62.4394 24.7652V20.7652H60.1419L58.9843 22.7497L62.4394 24.7652ZM77.8257 15.697V19.697H78.1652L78.4997 19.6398L77.8257 15.697ZM86.5076 8.07579L89.612 10.5982L93.9916 5.20793L87.1314 4.12474L86.5076 8.07579ZM86.1894 8.03034L86.9049 4.09486L86.8217 4.07973L86.738 4.06814L86.1894 8.03034ZM84.7045 7.83337L84.0775 11.7839L84.0869 11.7854L84.0963 11.7869L84.7045 7.83337ZM83.2803 7.56822L82.5802 11.5065L82.5923 11.5086L83.2803 7.56822ZM81.2197 7.21973L81.8702 3.27299L81.8537 3.27027L81.8372 3.26768L81.2197 7.21973ZM80.7803 6.81064L76.8432 7.5173L76.848 7.54405L76.8532 7.57073L80.7803 6.81064ZM80.6364 5.9167L84.5734 5.21004L84.572 5.20207L84.5705 5.1941L80.6364 5.9167ZM80.2197 3.68185L76.2696 4.31218L76.2709 4.32004L80.2197 3.68185ZM79.9166 1.47731L83.8802 0.938572L82.8787 -6.42957L77.2826 -1.533L79.9166 1.47731ZM73.4621 7.90155L76.2905 10.73L76.2957 10.7248L73.4621 7.90155ZM72.2803 11.3788L68.3081 11.8501L68.3092 11.8592L72.2803 11.3788ZM73.5 13.8106L70.6871 16.6545L73.5154 19.4521L76.3284 16.6391L73.5 13.8106ZM78.7273 8.6364L79.9204 12.4543L79.9318 12.4507L78.7273 8.6364ZM79.2045 8.6364L77.8217 12.3898L77.9846 12.4498L78.1521 12.4955L79.2045 8.6364ZM79.3863 9.02276L83.3781 8.76523L83.3747 8.71287L83.3699 8.66062L79.3863 9.02276ZM79.1288 9.53034L81.9502 12.3657L81.9572 12.3588L79.1288 9.53034ZM74.1818 14.5L71.269 11.7586L68.6094 14.5844L71.3534 17.3285L74.1818 14.5ZM76.5076 15.697L77.7725 11.9023L77.4668 11.8004L77.1487 11.7487L76.5076 15.697ZM77.8106 15.697V11.697H77.1615L76.5457 11.9023L77.8106 15.697ZM64.5201 28.1952C64.4761 28.2216 64.4403 28.2415 64.4172 28.2541C64.3945 28.2664 64.3793 28.2743 64.3781 28.2749C64.3772 28.2753 64.3782 28.2748 64.3828 28.2725C64.3927 28.2674 64.3885 28.2696 64.4039 28.2618C64.4214 28.2529 64.4559 28.2353 64.4955 28.2146C64.6193 28.1496 65.0553 27.923 65.4983 27.5168L60.0925 21.6196C60.2809 21.447 60.4511 21.3282 60.5648 21.2555C60.6756 21.1845 60.7606 21.1399 60.7791 21.1302C60.7898 21.1246 60.7951 21.1219 60.7832 21.128C60.7782 21.1305 60.7475 21.146 60.7206 21.1599C60.6636 21.1892 60.544 21.2513 60.4041 21.3352L64.5201 28.1952ZM65.6193 27.4012C67.9708 25.0573 70.3148 22.7133 72.6512 20.3693L66.9852 14.7216C64.6549 17.0595 62.317 19.3974 59.9716 21.7352L65.6193 27.4012ZM72.6466 20.3739C72.9082 20.1123 73.0865 19.8687 73.1452 19.7887C73.1615 19.7665 73.1767 19.7455 73.1826 19.7372C73.1912 19.7254 73.1912 19.7254 73.1896 19.7275C73.1864 19.7319 73.1564 19.7729 73.111 19.8284L66.9193 14.7625C66.8786 14.8123 66.8433 14.8574 66.8143 14.8953C66.7854 14.933 66.7609 14.966 66.7429 14.9906C66.7256 15.0141 66.71 15.0356 66.703 15.0453C66.6935 15.0584 66.6932 15.0588 66.6938 15.0579C66.6954 15.0557 66.7036 15.0447 66.7158 15.0287C66.7282 15.0124 66.7469 14.9884 66.7707 14.9591C66.818 14.9011 66.8915 14.8153 66.9897 14.7171L72.6466 20.3739ZM72.8203 20.147C73.7529 19.2296 74.6794 18.3181 75.6353 17.3848L70.0465 11.6607C69.0781 12.6062 68.141 13.5281 67.21 14.444L72.8203 20.147ZM75.9286 11.9799C75.8691 11.9077 75.7106 11.7113 75.5682 11.547L69.5227 16.7864C69.5773 16.8494 69.6006 16.8803 69.7532 17.0656L75.9286 11.9799ZM75.6169 11.6043C75.4183 11.3662 75.3651 11.2081 75.3445 11.114C75.3222 11.0124 75.3012 10.8131 75.3875 10.4571L67.6125 8.57328C66.9155 11.4498 67.4704 14.3275 69.4739 16.7291L75.6169 11.6043ZM75.3864 10.4615C75.4073 10.3758 75.4522 10.2597 75.6258 10.084L69.9348 4.46153C68.866 5.54335 68.0169 6.91212 67.6135 8.56892L75.3864 10.4615ZM75.6133 10.0966C77.936 7.76632 80.2587 5.44363 82.589 3.12094L76.9413 -2.54511C74.6049 -0.21629 72.2761 2.11253 69.9473 4.44894L75.6133 10.0966ZM82.5936 3.11634C82.6126 3.09734 82.6316 3.07806 82.6388 3.07082C82.6491 3.06038 82.6506 3.05891 82.6499 3.05963C82.6492 3.06034 82.6178 3.09174 82.5692 3.13535C82.4883 3.20799 82.2339 3.43097 81.8343 3.63077L78.2566 -3.52464C77.7509 -3.27181 77.398 -2.97307 77.2243 -2.8171C77.0718 -2.68019 76.897 -2.50085 76.9367 -2.54051L82.5936 3.11634ZM81.8773 3.60896C80.8877 4.11876 79.7988 4.10314 78.9077 3.7354C78.0002 3.36087 77.0288 2.48706 76.7519 1.10268L84.5965 -0.466248C83.9248 -3.82508 80.3643 -4.61075 78.2136 -3.50283L81.8773 3.60896ZM76.738 1.02958C76.8419 1.60465 76.8988 2.06323 77.0179 2.82354L84.9215 1.58562C84.8436 1.08835 84.7338 0.289363 84.6105 -0.393152L76.738 1.02958ZM77.0148 2.8038C77.1098 3.43093 77.0645 3.07533 77.1335 3.54413L85.0483 2.38018C85.0236 2.21185 84.9973 2.05277 84.9767 1.92772C84.9543 1.79225 84.9385 1.69758 84.9245 1.60536L77.0148 2.8038ZM77.1379 3.57345C77.232 4.18221 77.3693 5.11801 77.4722 5.77663L85.3763 4.54162C85.2519 3.7457 85.177 3.2118 85.0439 2.35086L77.1379 3.57345ZM77.4725 5.779C77.5473 6.25531 77.6668 6.81805 77.724 7.11404L85.579 5.59815C85.4695 5.03051 85.4224 4.83567 85.3759 4.53925L77.4725 5.779ZM81.0433 10.3096C81.8164 10.4285 82.6067 10.5553 83.412 10.6844L84.6789 2.78535C83.8781 2.65693 83.0624 2.52609 82.2597 2.40261L81.0433 10.3096ZM83.3878 10.6805C83.6667 10.7269 83.9503 10.7792 84.2772 10.8393C84.5923 10.8973 84.9478 10.9626 85.312 11.0226L86.6122 3.12897C86.3325 3.08291 86.0478 3.03081 85.7247 2.97136C85.4133 2.91407 85.0606 2.8489 84.703 2.78931L83.3878 10.6805ZM85.335 11.0263C85.7965 11.0996 86.3663 11.1908 86.9522 11.2559L87.8357 3.3048C87.467 3.26384 87.0823 3.20352 86.5892 3.12525L85.335 11.0263ZM86.8978 11.2494C87.0045 11.2628 86.9354 11.2552 86.8592 11.2414C86.7685 11.225 86.523 11.1768 86.2161 11.0511C85.8896 10.9174 85.4761 10.6892 85.0814 10.3066C84.6797 9.91699 84.4077 9.47406 84.2405 9.04947L91.6837 6.11727C91.1889 4.8612 90.2347 4.05196 89.2479 3.64784C88.8416 3.48145 88.4876 3.40617 88.2831 3.36918C88.093 3.3348 87.9046 3.31304 87.8901 3.31123L86.8978 11.2494ZM84.2341 9.03315C84.0887 8.65939 83.9856 8.19514 83.9993 7.6694C84.013 7.14348 84.1402 6.68699 84.3 6.32498C84.4519 5.98071 84.6252 5.74002 84.7276 5.61047C84.7812 5.54268 84.8263 5.49183 84.8549 5.46054C84.8835 5.42938 84.9031 5.40975 84.9064 5.40646L90.5633 11.0633C90.6966 10.9299 91.25 10.3906 91.6186 9.55577C92.0856 8.49791 92.1359 7.27973 91.6901 6.13358L84.2341 9.03315ZM84.9247 5.38827C84.6185 5.69051 84.3159 5.99321 84.0238 6.28525C83.7287 6.58033 83.4443 6.86475 83.1596 7.14584L88.7798 12.8391C89.086 12.5368 89.3886 12.2341 89.6807 11.9421C89.9758 11.647 90.2602 11.3626 90.545 11.0815L84.9247 5.38827ZM83.1413 7.16403C81.4622 8.84311 79.7345 10.5557 78.0378 12.2676L83.7198 17.8991C85.4019 16.202 87.0833 14.5357 88.7981 12.8209L83.1413 7.16403ZM78.0371 12.2683C77.7601 12.5479 77.5542 12.6326 77.3381 12.6688L78.6619 20.5585C80.7034 20.216 82.3914 19.24 83.7205 17.8985L78.0371 12.2683ZM78 12.6137C77.9989 12.6137 77.9978 12.6137 77.9967 12.6137C77.9957 12.6137 77.9946 12.6137 77.9935 12.6137C77.9924 12.6137 77.9913 12.6137 77.9903 12.6137C77.9892 12.6137 77.9881 12.6137 77.987 12.6137C77.9859 12.6137 77.9849 12.6137 77.9838 12.6137C77.9827 12.6137 77.9816 12.6137 77.9805 12.6137C77.9795 12.6137 77.9784 12.6137 77.9773 12.6137C77.9762 12.6137 77.9751 12.6137 77.9741 12.6137C77.973 12.6137 77.9719 12.6137 77.9708 12.6137C77.9697 12.6137 77.9687 12.6137 77.9676 12.6137C77.9665 12.6137 77.9654 12.6137 77.9643 12.6137C77.9632 12.6137 77.9622 12.6137 77.9611 12.6137C77.96 12.6137 77.9589 12.6137 77.9578 12.6137C77.9568 12.6137 77.9557 12.6137 77.9546 12.6137C77.9535 12.6137 77.9524 12.6137 77.9514 12.6137C77.9503 12.6137 77.9492 12.6137 77.9481 12.6137C77.947 12.6137 77.946 12.6137 77.9449 12.6137C77.9438 12.6137 77.9427 12.6137 77.9416 12.6137C77.9405 12.6137 77.9395 12.6137 77.9384 12.6137C77.9373 12.6137 77.9362 12.6137 77.9351 12.6137C77.9341 12.6137 77.933 12.6137 77.9319 12.6137C77.9308 12.6137 77.9297 12.6137 77.9287 12.6137C77.9276 12.6137 77.9265 12.6137 77.9254 12.6137C77.9243 12.6137 77.9232 12.6137 77.9222 12.6137C77.9211 12.6137 77.92 12.6137 77.9189 12.6137C77.9178 12.6137 77.9168 12.6137 77.9157 12.6137C77.9146 12.6137 77.9135 12.6137 77.9124 12.6137C77.9114 12.6137 77.9103 12.6137 77.9092 12.6137C77.9081 12.6137 77.907 12.6137 77.9059 12.6137C77.9049 12.6137 77.9038 12.6137 77.9027 12.6137C77.9016 12.6137 77.9005 12.6137 77.8995 12.6137C77.8984 12.6137 77.8973 12.6137 77.8962 12.6137C77.8951 12.6137 77.894 12.6137 77.893 12.6137C77.8919 12.6137 77.8908 12.6137 77.8897 12.6137C77.8886 12.6137 77.8876 12.6137 77.8865 12.6137C77.8854 12.6137 77.8843 12.6137 77.8832 12.6137C77.8821 12.6137 77.8811 12.6137 77.88 12.6137C77.8789 12.6137 77.8778 12.6137 77.8767 12.6137C77.8756 12.6137 77.8746 12.6137 77.8735 12.6137C77.8724 12.6137 77.8713 12.6137 77.8702 12.6137C77.8692 12.6137 77.8681 12.6137 77.867 12.6137C77.8659 12.6137 77.8648 12.6137 77.8637 12.6137C77.8627 12.6137 77.8616 12.6137 77.8605 12.6137C77.8594 12.6137 77.8583 12.6137 77.8573 12.6137C77.8562 12.6137 77.8551 12.6137 77.854 12.6137C77.8529 12.6137 77.8518 12.6137 77.8508 12.6137C77.8497 12.6137 77.8486 12.6137 77.8475 12.6137C77.8464 12.6137 77.8453 12.6137 77.8443 12.6137C77.8432 12.6137 77.8421 12.6137 77.841 12.6137C77.8399 12.6137 77.8388 12.6137 77.8378 12.6137C77.8367 12.6137 77.8356 12.6137 77.8345 12.6137C77.8334 12.6137 77.8323 12.6137 77.8313 12.6137C77.8302 12.6137 77.8291 12.6137 77.828 12.6137C77.8269 12.6137 77.8259 12.6137 77.8248 12.6137C77.8237 12.6137 77.8226 12.6137 77.8215 12.6137C77.8204 12.6137 77.8194 12.6137 77.8183 12.6137C77.8172 12.6137 77.8161 12.6137 77.815 12.6137C77.8139 12.6137 77.8129 12.6137 77.8118 12.6137C77.8107 12.6137 77.8096 12.6137 77.8085 12.6137C77.8074 12.6137 77.8064 12.6137 77.8053 12.6137C77.8042 12.6137 77.8031 12.6137 77.802 12.6137C77.8009 12.6137 77.7999 12.6137 77.7988 12.6137C77.7977 12.6137 77.7966 12.6137 77.7955 12.6137C77.7944 12.6137 77.7934 12.6137 77.7923 12.6137C77.7912 12.6137 77.7901 12.6137 77.789 12.6137C77.7879 12.6137 77.7869 12.6137 77.7858 12.6137C77.7847 12.6137 77.7836 12.6137 77.7825 12.6137C77.7814 12.6137 77.7804 12.6137 77.7793 12.6137C77.7782 12.6137 77.7771 12.6137 77.776 12.6137C77.7749 12.6137 77.7739 12.6137 77.7728 12.6137C77.7717 12.6137 77.7706 12.6137 77.7695 12.6137C77.7684 12.6137 77.7674 12.6137 77.7663 12.6137C77.7652 12.6137 77.7641 12.6137 77.763 12.6137C77.7619 12.6137 77.7608 12.6137 77.7598 12.6137C77.7587 12.6137 77.7576 12.6137 77.7565 12.6137C77.7554 12.6137 77.7543 12.6137 77.7533 12.6137C77.7522 12.6137 77.7511 12.6137 77.75 12.6137C77.7489 12.6137 77.7478 12.6137 77.7468 12.6137C77.7457 12.6137 77.7446 12.6137 77.7435 12.6137C77.7424 12.6137 77.7413 12.6137 77.7403 12.6137C77.7392 12.6137 77.7381 12.6137 77.737 12.6137C77.7359 12.6137 77.7348 12.6137 77.7337 12.6137C77.7327 12.6137 77.7316 12.6137 77.7305 12.6137C77.7294 12.6137 77.7283 12.6137 77.7272 12.6137C77.7262 12.6137 77.7251 12.6137 77.724 12.6137C77.7229 12.6137 77.7218 12.6137 77.7207 12.6137C77.7197 12.6137 77.7186 12.6137 77.7175 12.6137C77.7164 12.6137 77.7153 12.6137 77.7142 12.6137C77.7132 12.6137 77.7121 12.6137 77.711 12.6137C77.7099 12.6137 77.7088 12.6137 77.7077 12.6137C77.7066 12.6137 77.7056 12.6137 77.7045 12.6137C77.7034 12.6137 77.7023 12.6137 77.7012 12.6137C77.7001 12.6137 77.6991 12.6137 77.698 12.6137C77.6969 12.6137 77.6958 12.6137 77.6947 12.6137C77.6936 12.6137 77.6925 12.6137 77.6915 12.6137C77.6904 12.6137 77.6893 12.6137 77.6882 12.6137C77.6871 12.6137 77.686 12.6137 77.685 12.6137C77.6839 12.6137 77.6828 12.6137 77.6817 12.6137C77.6806 12.6137 77.6795 12.6137 77.6784 12.6137C77.6774 12.6137 77.6763 12.6137 77.6752 12.6137C77.6741 12.6137 77.673 12.6137 77.6719 12.6137C77.6708 12.6137 77.6698 12.6137 77.6687 12.6137C77.6676 12.6137 77.6665 12.6137 77.6654 12.6137C77.6643 12.6137 77.6633 12.6137 77.6622 12.6137C77.6611 12.6137 77.66 12.6137 77.6589 12.6137C77.6578 12.6137 77.6567 12.6137 77.6557 12.6137C77.6546 12.6137 77.6535 12.6137 77.6524 12.6137C77.6513 12.6137 77.6502 12.6137 77.6492 12.6137C77.6481 12.6137 77.647 12.6137 77.6459 12.6137C77.6448 12.6137 77.6437 12.6137 77.6426 12.6137C77.6416 12.6137 77.6405 12.6137 77.6394 12.6137C77.6383 12.6137 77.6372 12.6137 77.6361 12.6137C77.635 12.6137 77.634 12.6137 77.6329 12.6137C77.6318 12.6137 77.6307 12.6137 77.6296 12.6137C77.6285 12.6137 77.6274 12.6137 77.6264 12.6137C77.6253 12.6137 77.6242 12.6137 77.6231 12.6137C77.622 12.6137 77.6209 12.6137 77.6199 12.6137C77.6188 12.6137 77.6177 12.6137 77.6166 12.6137C77.6155 12.6137 77.6144 12.6137 77.6133 12.6137C77.6123 12.6137 77.6112 12.6137 77.6101 12.6137C77.609 12.6137 77.6079 12.6137 77.6068 12.6137C77.6057 12.6137 77.6047 12.6137 77.6036 12.6137C77.6025 12.6137 77.6014 12.6137 77.6003 12.6137C77.5992 12.6137 77.5981 12.6137 77.5971 12.6137C77.596 12.6137 77.5949 12.6137 77.5938 12.6137C77.5927 12.6137 77.5916 12.6137 77.5905 12.6137C77.5895 12.6137 77.5884 12.6137 77.5873 12.6137C77.5862 12.6137 77.5851 12.6137 77.584 12.6137C77.5829 12.6137 77.5819 12.6137 77.5808 12.6137C77.5797 12.6137 77.5786 12.6137 77.5775 12.6137C77.5764 12.6137 77.5753 12.6137 77.5743 12.6137C77.5732 12.6137 77.5721 12.6137 77.571 12.6137C77.5699 12.6137 77.5688 12.6137 77.5677 12.6137C77.5667 12.6137 77.5656 12.6137 77.5645 12.6137C77.5634 12.6137 77.5623 12.6137 77.5612 12.6137C77.5601 12.6137 77.5591 12.6137 77.558 12.6137C77.5569 12.6137 77.5558 12.6137 77.5547 12.6137C77.5536 12.6137 77.5525 12.6137 77.5515 12.6137C77.5504 12.6137 77.5493 12.6137 77.5482 12.6137C77.5471 12.6137 77.546 12.6137 77.5449 12.6137C77.5439 12.6137 77.5428 12.6137 77.5417 12.6137C77.5406 12.6137 77.5395 12.6137 77.5384 12.6137C77.5373 12.6137 77.5363 12.6137 77.5352 12.6137C77.5341 12.6137 77.533 12.6137 77.5319 12.6137C77.5308 12.6137 77.5297 12.6137 77.5286 12.6137C77.5276 12.6137 77.5265 12.6137 77.5254 12.6137C77.5243 12.6137 77.5232 12.6137 77.5221 12.6137C77.521 12.6137 77.52 12.6137 77.5189 12.6137C77.5178 12.6137 77.5167 12.6137 77.5156 12.6137C77.5145 12.6137 77.5134 12.6137 77.5124 12.6137C77.5113 12.6137 77.5102 12.6137 77.5091 12.6137C77.508 12.6137 77.5069 12.6137 77.5058 12.6137C77.5047 12.6137 77.5037 12.6137 77.5026 12.6137C77.5015 12.6137 77.5004 12.6137 77.4993 12.6137C77.4982 12.6137 77.4971 12.6137 77.4961 12.6137C77.495 12.6137 77.4939 12.6137 77.4928 12.6137C77.4917 12.6137 77.4906 12.6137 77.4895 12.6137C77.4885 12.6137 77.4874 12.6137 77.4863 12.6137C77.4852 12.6137 77.4841 12.6137 77.483 12.6137C77.4819 12.6137 77.4809 12.6137 77.4798 12.6137C77.4787 12.6137 77.4776 12.6137 77.4765 12.6137C77.4754 12.6137 77.4743 12.6137 77.4732 12.6137C77.4722 12.6137 77.4711 12.6137 77.47 12.6137C77.4689 12.6137 77.4678 12.6137 77.4667 12.6137C77.4656 12.6137 77.4646 12.6137 77.4635 12.6137C77.4624 12.6137 77.4613 12.6137 77.4602 12.6137C77.4591 12.6137 77.458 12.6137 77.4569 12.6137C77.4559 12.6137 77.4548 12.6137 77.4537 12.6137C77.4526 12.6137 77.4515 12.6137 77.4504 12.6137C77.4493 12.6137 77.4482 12.6137 77.4472 12.6137C77.4461 12.6137 77.445 12.6137 77.4439 12.6137C77.4428 12.6137 77.4417 12.6137 77.4406 12.6137C77.4396 12.6137 77.4385 12.6137 77.4374 12.6137C77.4363 12.6137 77.4352 12.6137 77.4341 12.6137C77.433 12.6137 77.4319 12.6137 77.4309 12.6137C77.4298 12.6137 77.4287 12.6137 77.4276 12.6137C77.4265 12.6137 77.4254 12.6137 77.4243 12.6137C77.4233 12.6137 77.4222 12.6137 77.4211 12.6137C77.42 12.6137 77.4189 12.6137 77.4178 12.6137C77.4167 12.6137 77.4156 12.6137 77.4146 12.6137C77.4135 12.6137 77.4124 12.6137 77.4113 12.6137C77.4102 12.6137 77.4091 12.6137 77.408 12.6137C77.407 12.6137 77.4059 12.6137 77.4048 12.6137C77.4037 12.6137 77.4026 12.6137 77.4015 12.6137C77.4004 12.6137 77.3993 12.6137 77.3983 12.6137C77.3972 12.6137 77.3961 12.6137 77.395 12.6137C77.3939 12.6137 77.3928 12.6137 77.3917 12.6137C77.3906 12.6137 77.3896 12.6137 77.3885 12.6137C77.3874 12.6137 77.3863 12.6137 77.3852 12.6137C77.3841 12.6137 77.383 12.6137 77.382 12.6137C77.3809 12.6137 77.3798 12.6137 77.3787 12.6137C77.3776 12.6137 77.3765 12.6137 77.3754 12.6137C77.3743 12.6137 77.3733 12.6137 77.3722 12.6137C77.3711 12.6137 77.37 12.6137 77.3689 12.6137C77.3678 12.6137 77.3667 12.6137 77.3656 12.6137C77.3646 12.6137 77.3635 12.6137 77.3624 12.6137C77.3613 12.6137 77.3602 12.6137 77.3591 12.6137C77.358 12.6137 77.3569 12.6137 77.3559 12.6137C77.3548 12.6137 77.3537 12.6137 77.3526 12.6137C77.3515 12.6137 77.3504 12.6137 77.3493 12.6137C77.3483 12.6137 77.3472 12.6137 77.3461 12.6137C77.345 12.6137 77.3439 12.6137 77.3428 12.6137C77.3417 12.6137 77.3406 12.6137 77.3396 12.6137C77.3385 12.6137 77.3374 12.6137 77.3363 12.6137C77.3352 12.6137 77.3341 12.6137 77.333 12.6137C77.3319 12.6137 77.3309 12.6137 77.3298 12.6137C77.3287 12.6137 77.3276 12.6137 77.3265 12.6137C77.3254 12.6137 77.3243 12.6137 77.3232 12.6137C77.3222 12.6137 77.3211 12.6137 77.32 12.6137C77.3189 12.6137 77.3178 12.6137 77.3167 12.6137C77.3156 12.6137 77.3145 12.6137 77.3135 12.6137C77.3124 12.6137 77.3113 12.6137 77.3102 12.6137C77.3091 12.6137 77.308 12.6137 77.3069 12.6137C77.3058 12.6137 77.3048 12.6137 77.3037 12.6137C77.3026 12.6137 77.3015 12.6137 77.3004 12.6137C77.2993 12.6137 77.2982 12.6137 77.2971 12.6137C77.2961 12.6137 77.295 12.6137 77.2939 12.6137C77.2928 12.6137 77.2917 12.6137 77.2906 12.6137C77.2895 12.6137 77.2885 12.6137 77.2874 12.6137C77.2863 12.6137 77.2852 12.6137 77.2841 12.6137C77.283 12.6137 77.2819 12.6137 77.2808 12.6137C77.2798 12.6137 77.2787 12.6137 77.2776 12.6137C77.2765 12.6137 77.2754 12.6137 77.2743 12.6137C77.2732 12.6137 77.2721 12.6137 77.2711 12.6137C77.27 12.6137 77.2689 12.6137 77.2678 12.6137C77.2667 12.6137 77.2656 12.6137 77.2645 12.6137C77.2634 12.6137 77.2624 12.6137 77.2613 12.6137C77.2602 12.6137 77.2591 12.6137 77.258 12.6137C77.2569 12.6137 77.2558 12.6137 77.2547 12.6137C77.2537 12.6137 77.2526 12.6137 77.2515 12.6137C77.2504 12.6137 77.2493 12.6137 77.2482 12.6137C77.2471 12.6137 77.246 12.6137 77.245 12.6137C77.2439 12.6137 77.2428 12.6137 77.2417 12.6137C77.2406 12.6137 77.2395 12.6137 77.2384 12.6137C77.2373 12.6137 77.2363 12.6137 77.2352 12.6137C77.2341 12.6137 77.233 12.6137 77.2319 12.6137C77.2308 12.6137 77.2297 12.6137 77.2286 12.6137C77.2276 12.6137 77.2265 12.6137 77.2254 12.6137C77.2243 12.6137 77.2232 12.6137 77.2221 12.6137C77.221 12.6137 77.2199 12.6137 77.2189 12.6137C77.2178 12.6137 77.2167 12.6137 77.2156 12.6137C77.2145 12.6137 77.2134 12.6137 77.2123 12.6137C77.2112 12.6137 77.2102 12.6137 77.2091 12.6137C77.208 12.6137 77.2069 12.6137 77.2058 12.6137C77.2047 12.6137 77.2036 12.6137 77.2025 12.6137C77.2015 12.6137 77.2004 12.6137 77.1993 12.6137C77.1982 12.6137 77.1971 12.6137 77.196 12.6137C77.1949 12.6137 77.1938 12.6137 77.1928 12.6137C77.1917 12.6137 77.1906 12.6137 77.1895 12.6137C77.1884 12.6137 77.1873 12.6137 77.1862 12.6137C77.1851 12.6137 77.1841 12.6137 77.183 12.6137C77.1819 12.6137 77.1808 12.6137 77.1797 12.6137C77.1786 12.6137 77.1775 12.6137 77.1764 12.6137C77.1754 12.6137 77.1743 12.6137 77.1732 12.6137C77.1721 12.6137 77.171 12.6137 77.1699 12.6137C77.1688 12.6137 77.1677 12.6137 77.1667 12.6137C77.1656 12.6137 77.1645 12.6137 77.1634 12.6137C77.1623 12.6137 77.1612 12.6137 77.1601 12.6137C77.159 12.6137 77.158 12.6137 77.1569 12.6137C77.1558 12.6137 77.1547 12.6137 77.1536 12.6137C77.1525 12.6137 77.1514 12.6137 77.1503 12.6137C77.1493 12.6137 77.1482 12.6137 77.1471 12.6137C77.146 12.6137 77.1449 12.6137 77.1438 12.6137C77.1427 12.6137 77.1416 12.6137 77.1406 12.6137C77.1395 12.6137 77.1384 12.6137 77.1373 12.6137C77.1362 12.6137 77.1351 12.6137 77.134 12.6137C77.1329 12.6137 77.1319 12.6137 77.1308 12.6137C77.1297 12.6137 77.1286 12.6137 77.1275 12.6137C77.1264 12.6137 77.1253 12.6137 77.1242 12.6137C77.1231 12.6137 77.1221 12.6137 77.121 12.6137C77.1199 12.6137 77.1188 12.6137 77.1177 12.6137C77.1166 12.6137 77.1155 12.6137 77.1145 12.6137C77.1134 12.6137 77.1123 12.6137 77.1112 12.6137C77.1101 12.6137 77.109 12.6137 77.1079 12.6137C77.1068 12.6137 77.1058 12.6137 77.1047 12.6137C77.1036 12.6137 77.1025 12.6137 77.1014 12.6137C77.1003 12.6137 77.0992 12.6137 77.0981 12.6137C77.0971 12.6137 77.096 12.6137 77.0949 12.6137C77.0938 12.6137 77.0927 12.6137 77.0916 12.6137C77.0905 12.6137 77.0894 12.6137 77.0884 12.6137C77.0873 12.6137 77.0862 12.6137 77.0851 12.6137C77.084 12.6137 77.0829 12.6137 77.0818 12.6137C77.0807 12.6137 77.0797 12.6137 77.0786 12.6137C77.0775 12.6137 77.0764 12.6137 77.0753 12.6137C77.0742 12.6137 77.0731 12.6137 77.072 12.6137C77.071 12.6137 77.0699 12.6137 77.0688 12.6137C77.0677 12.6137 77.0666 12.6137 77.0655 12.6137C77.0644 12.6137 77.0633 12.6137 77.0623 12.6137C77.0612 12.6137 77.0601 12.6137 77.059 12.6137C77.0579 12.6137 77.0568 12.6137 77.0557 12.6137C77.0546 12.6137 77.0536 12.6137 77.0525 12.6137C77.0514 12.6137 77.0503 12.6137 77.0492 12.6137C77.0481 12.6137 77.047 12.6137 77.0459 12.6137C77.0449 12.6137 77.0438 12.6137 77.0427 12.6137C77.0416 12.6137 77.0405 12.6137 77.0394 12.6137C77.0383 12.6137 77.0372 12.6137 77.0362 12.6137C77.0351 12.6137 77.034 12.6137 77.0329 12.6137C77.0318 12.6137 77.0307 12.6137 77.0296 12.6137C77.0285 12.6137 77.0275 12.6137 77.0264 12.6137C77.0253 12.6137 77.0242 12.6137 77.0231 12.6137C77.022 12.6137 77.0209 12.6137 77.0198 12.6137C77.0188 12.6137 77.0177 12.6137 77.0166 12.6137C77.0155 12.6137 77.0144 12.6137 77.0133 12.6137C77.0122 12.6137 77.0111 12.6137 77.0101 12.6137C77.009 12.6137 77.0079 12.6137 77.0068 12.6137C77.0057 12.6137 77.0046 12.6137 77.0035 12.6137C77.0024 12.6137 77.0014 12.6137 77.0003 12.6137C76.9992 12.6137 76.9981 12.6137 76.997 12.6137C76.9959 12.6137 76.9948 12.6137 76.9938 12.6137C76.9927 12.6137 76.9916 12.6137 76.9905 12.6137C76.9894 12.6137 76.9883 12.6137 76.9872 12.6137C76.9861 12.6137 76.9851 12.6137 76.984 12.6137C76.9829 12.6137 76.9818 12.6137 76.9807 12.6137C76.9796 12.6137 76.9785 12.6137 76.9774 12.6137C76.9764 12.6137 76.9753 12.6137 76.9742 12.6137C76.9731 12.6137 76.972 12.6137 76.9709 12.6137C76.9698 12.6137 76.9687 12.6137 76.9677 12.6137C76.9666 12.6137 76.9655 12.6137 76.9644 12.6137C76.9633 12.6137 76.9622 12.6137 76.9611 12.6137C76.96 12.6137 76.959 12.6137 76.9579 12.6137C76.9568 12.6137 76.9557 12.6137 76.9546 12.6137C76.9535 12.6137 76.9524 12.6137 76.9514 12.6137C76.9503 12.6137 76.9492 12.6137 76.9481 12.6137C76.947 12.6137 76.9459 12.6137 76.9448 12.6137C76.9437 12.6137 76.9427 12.6137 76.9416 12.6137C76.9405 12.6137 76.9394 12.6137 76.9383 12.6137C76.9372 12.6137 76.9361 12.6137 76.935 12.6137C76.934 12.6137 76.9329 12.6137 76.9318 12.6137C76.9307 12.6137 76.9296 12.6137 76.9285 12.6137C76.9274 12.6137 76.9264 12.6137 76.9253 12.6137C76.9242 12.6137 76.9231 12.6137 76.922 12.6137C76.9209 12.6137 76.9198 12.6137 76.9187 12.6137C76.9177 12.6137 76.9166 12.6137 76.9155 12.6137C76.9144 12.6137 76.9133 12.6137 76.9122 12.6137C76.9111 12.6137 76.91 12.6137 76.909 12.6137C76.9079 12.6137 76.9068 12.6137 76.9057 12.6137C76.9046 12.6137 76.9035 12.6137 76.9024 12.6137C76.9014 12.6137 76.9003 12.6137 76.8992 12.6137C76.8981 12.6137 76.897 12.6137 76.8959 12.6137C76.8948 12.6137 76.8937 12.6137 76.8927 12.6137C76.8916 12.6137 76.8905 12.6137 76.8894 12.6137C76.8883 12.6137 76.8872 12.6137 76.8861 12.6137C76.8851 12.6137 76.884 12.6137 76.8829 12.6137C76.8818 12.6137 76.8807 12.6137 76.8796 12.6137C76.8785 12.6137 76.8774 12.6137 76.8764 12.6137C76.8753 12.6137 76.8742 12.6137 76.8731 12.6137C76.872 12.6137 76.8709 12.6137 76.8698 12.6137C76.8688 12.6137 76.8677 12.6137 76.8666 12.6137C76.8655 12.6137 76.8644 12.6137 76.8633 12.6137C76.8622 12.6137 76.8611 12.6137 76.8601 12.6137C76.859 12.6137 76.8579 12.6137 76.8568 12.6137C76.8557 12.6137 76.8546 12.6137 76.8535 12.6137C76.8525 12.6137 76.8514 12.6137 76.8503 12.6137C76.8492 12.6137 76.8481 12.6137 76.847 12.6137C76.8459 12.6137 76.8449 12.6137 76.8438 12.6137C76.8427 12.6137 76.8416 12.6137 76.8405 12.6137C76.8394 12.6137 76.8383 12.6137 76.8372 12.6137C76.8362 12.6137 76.8351 12.6137 76.834 12.6137C76.8329 12.6137 76.8318 12.6137 76.8307 12.6137C76.8296 12.6137 76.8286 12.6137 76.8275 12.6137C76.8264 12.6137 76.8253 12.6137 76.8242 12.6137C76.8231 12.6137 76.822 12.6137 76.821 12.6137C76.8199 12.6137 76.8188 12.6137 76.8177 12.6137C76.8166 12.6137 76.8155 12.6137 76.8144 12.6137C76.8133 12.6137 76.8123 12.6137 76.8112 12.6137C76.8101 12.6137 76.809 12.6137 76.8079 12.6137C76.8068 12.6137 76.8057 12.6137 76.8047 12.6137C76.8036 12.6137 76.8025 12.6137 76.8014 12.6137C76.8003 12.6137 76.7992 12.6137 76.7981 12.6137C76.7971 12.6137 76.796 12.6137 76.7949 12.6137C76.7938 12.6137 76.7927 12.6137 76.7916 12.6137C76.7905 12.6137 76.7895 12.6137 76.7884 12.6137C76.7873 12.6137 76.7862 12.6137 76.7851 12.6137C76.784 12.6137 76.7829 12.6137 76.7819 12.6137C76.7808 12.6137 76.7797 12.6137 76.7786 12.6137C76.7775 12.6137 76.7764 12.6137 76.7753 12.6137C76.7743 12.6137 76.7732 12.6137 76.7721 12.6137C76.771 12.6137 76.7699 12.6137 76.7688 12.6137C76.7677 12.6137 76.7666 12.6137 76.7656 12.6137C76.7645 12.6137 76.7634 12.6137 76.7623 12.6137C76.7612 12.6137 76.7601 12.6137 76.759 12.6137C76.758 12.6137 76.7569 12.6137 76.7558 12.6137C76.7547 12.6137 76.7536 12.6137 76.7525 12.6137C76.7514 12.6137 76.7504 12.6137 76.7493 12.6137C76.7482 12.6137 76.7471 12.6137 76.746 12.6137C76.7449 12.6137 76.7438 12.6137 76.7428 12.6137C76.7417 12.6137 76.7406 12.6137 76.7395 12.6137C76.7384 12.6137 76.7373 12.6137 76.7362 12.6137C76.7352 12.6137 76.7341 12.6137 76.733 12.6137C76.7319 12.6137 76.7308 12.6137 76.7297 12.6137C76.7286 12.6137 76.7276 12.6137 76.7265 12.6137C76.7254 12.6137 76.7243 12.6137 76.7232 12.6137C76.7221 12.6137 76.7211 12.6137 76.72 12.6137C76.7189 12.6137 76.7178 12.6137 76.7167 12.6137C76.7156 12.6137 76.7145 12.6137 76.7135 12.6137C76.7124 12.6137 76.7113 12.6137 76.7102 12.6137C76.7091 12.6137 76.708 12.6137 76.7069 12.6137C76.7059 12.6137 76.7048 12.6137 76.7037 12.6137C76.7026 12.6137 76.7015 12.6137 76.7004 12.6137C76.6993 12.6137 76.6983 12.6137 76.6972 12.6137C76.6961 12.6137 76.695 12.6137 76.6939 12.6137C76.6928 12.6137 76.6917 12.6137 76.6907 12.6137C76.6896 12.6137 76.6885 12.6137 76.6874 12.6137C76.6863 12.6137 76.6852 12.6137 76.6842 12.6137C76.6831 12.6137 76.682 12.6137 76.6809 12.6137C76.6798 12.6137 76.6787 12.6137 76.6776 12.6137C76.6766 12.6137 76.6755 12.6137 76.6744 12.6137C76.6733 12.6137 76.6722 12.6137 76.6711 12.6137C76.67 12.6137 76.669 12.6137 76.6679 12.6137C76.6668 12.6137 76.6657 12.6137 76.6646 12.6137C76.6635 12.6137 76.6625 12.6137 76.6614 12.6137C76.6603 12.6137 76.6592 12.6137 76.6581 12.6137C76.657 12.6137 76.6559 12.6137 76.6549 12.6137C76.6538 12.6137 76.6527 12.6137 76.6516 12.6137C76.6505 12.6137 76.6494 12.6137 76.6484 12.6137C76.6473 12.6137 76.6462 12.6137 76.6451 12.6137C76.644 12.6137 76.6429 12.6137 76.6418 12.6137C76.6408 12.6137 76.6397 12.6137 76.6386 12.6137C76.6375 12.6137 76.6364 12.6137 76.6353 12.6137C76.6343 12.6137 76.6332 12.6137 76.6321 12.6137C76.631 12.6137 76.6299 12.6137 76.6288 12.6137C76.6277 12.6137 76.6267 12.6137 76.6256 12.6137C76.6245 12.6137 76.6234 12.6137 76.6223 12.6137C76.6212 12.6137 76.6202 12.6137 76.6191 12.6137C76.618 12.6137 76.6169 12.6137 76.6158 12.6137C76.6147 12.6137 76.6137 12.6137 76.6126 12.6137C76.6115 12.6137 76.6104 12.6137 76.6093 12.6137C76.6082 12.6137 76.6071 12.6137 76.6061 12.6137C76.605 12.6137 76.6039 12.6137 76.6028 12.6137C76.6017 12.6137 76.6006 12.6137 76.5996 12.6137C76.5985 12.6137 76.5974 12.6137 76.5963 12.6137C76.5952 12.6137 76.5941 12.6137 76.5931 12.6137C76.592 12.6137 76.5909 12.6137 76.5898 12.6137C76.5887 12.6137 76.5876 12.6137 76.5865 12.6137C76.5855 12.6137 76.5844 12.6137 76.5833 12.6137C76.5822 12.6137 76.5811 12.6137 76.58 12.6137C76.579 12.6137 76.5779 12.6137 76.5768 12.6137C76.5757 12.6137 76.5746 12.6137 76.5735 12.6137C76.5725 12.6137 76.5714 12.6137 76.5703 12.6137C76.5692 12.6137 76.5681 12.6137 76.567 12.6137C76.566 12.6137 76.5649 12.6137 76.5638 12.6137C76.5627 12.6137 76.5616 12.6137 76.5605 12.6137C76.5595 12.6137 76.5584 12.6137 76.5573 12.6137C76.5562 12.6137 76.5551 12.6137 76.554 12.6137C76.553 12.6137 76.5519 12.6137 76.5508 12.6137C76.5497 12.6137 76.5486 12.6137 76.5475 12.6137C76.5464 12.6137 76.5454 12.6137 76.5443 12.6137C76.5432 12.6137 76.5421 12.6137 76.541 12.6137C76.5399 12.6137 76.5389 12.6137 76.5378 12.6137C76.5367 12.6137 76.5356 12.6137 76.5345 12.6137C76.5334 12.6137 76.5324 12.6137 76.5313 12.6137C76.5302 12.6137 76.5291 12.6137 76.528 12.6137C76.527 12.6137 76.5259 12.6137 76.5248 12.6137C76.5237 12.6137 76.5226 12.6137 76.5215 12.6137C76.5205 12.6137 76.5194 12.6137 76.5183 12.6137C76.5172 12.6137 76.5161 12.6137 76.515 12.6137C76.514 12.6137 76.5129 12.6137 76.5118 12.6137C76.5107 12.6137 76.5096 12.6137 76.5085 12.6137C76.5075 12.6137 76.5064 12.6137 76.5053 12.6137C76.5042 12.6137 76.5031 12.6137 76.502 12.6137C76.501 12.6137 76.4999 12.6137 76.4988 12.6137C76.4977 12.6137 76.4966 12.6137 76.4955 12.6137C76.4945 12.6137 76.4934 12.6137 76.4923 12.6137C76.4912 12.6137 76.4901 12.6137 76.489 12.6137C76.488 12.6137 76.4869 12.6137 76.4858 12.6137C76.4847 12.6137 76.4836 12.6137 76.4826 12.6137C76.4815 12.6137 76.4804 12.6137 76.4793 12.6137C76.4782 12.6137 76.4771 12.6137 76.4761 12.6137C76.475 12.6137 76.4739 12.6137 76.4728 12.6137C76.4717 12.6137 76.4706 12.6137 76.4696 12.6137C76.4685 12.6137 76.4674 12.6137 76.4663 12.6137C76.4652 12.6137 76.4641 12.6137 76.4631 12.6137C76.462 12.6137 76.4609 12.6137 76.4598 12.6137C76.4587 12.6137 76.4577 12.6137 76.4566 12.6137C76.4555 12.6137 76.4544 12.6137 76.4533 12.6137C76.4522 12.6137 76.4512 12.6137 76.4501 12.6137C76.449 12.6137 76.4479 12.6137 76.4468 12.6137C76.4458 12.6137 76.4447 12.6137 76.4436 12.6137C76.4425 12.6137 76.4414 12.6137 76.4403 12.6137C76.4393 12.6137 76.4382 12.6137 76.4371 12.6137C76.436 12.6137 76.4349 12.6137 76.4339 12.6137C76.4328 12.6137 76.4317 12.6137 76.4306 12.6137C76.4295 12.6137 76.4284 12.6137 76.4274 12.6137C76.4263 12.6137 76.4252 12.6137 76.4241 12.6137C76.423 12.6137 76.422 12.6137 76.4209 12.6137C76.4198 12.6137 76.4187 12.6137 76.4176 12.6137C76.4165 12.6137 76.4155 12.6137 76.4144 12.6137C76.4133 12.6137 76.4122 12.6137 76.4111 12.6137C76.4101 12.6137 76.409 12.6137 76.4079 12.6137C76.4068 12.6137 76.4057 12.6137 76.4047 12.6137C76.4036 12.6137 76.4025 12.6137 76.4014 12.6137C76.4003 12.6137 76.3992 12.6137 76.3982 12.6137C76.3971 12.6137 76.396 12.6137 76.3949 12.6137C76.3938 12.6137 76.3928 12.6137 76.3917 12.6137C76.3906 12.6137 76.3895 12.6137 76.3884 12.6137C76.3874 12.6137 76.3863 12.6137 76.3852 12.6137C76.3841 12.6137 76.383 12.6137 76.3819 12.6137C76.3809 12.6137 76.3798 12.6137 76.3787 12.6137C76.3776 12.6137 76.3765 12.6137 76.3755 12.6137C76.3744 12.6137 76.3733 12.6137 76.3722 12.6137C76.3711 12.6137 76.3701 12.6137 76.369 12.6137C76.3679 12.6137 76.3668 12.6137 76.3657 12.6137C76.3647 12.6137 76.3636 12.6137 76.3625 12.6137C76.3614 12.6137 76.3603 12.6137 76.3592 12.6137C76.3582 12.6137 76.3571 12.6137 76.356 12.6137C76.3549 12.6137 76.3538 12.6137 76.3528 12.6137C76.3517 12.6137 76.3506 12.6137 76.3495 12.6137C76.3484 12.6137 76.3474 12.6137 76.3463 12.6137C76.3452 12.6137 76.3441 12.6137 76.343 12.6137C76.342 12.6137 76.3409 12.6137 76.3398 12.6137C76.3387 12.6137 76.3376 12.6137 76.3366 12.6137C76.3355 12.6137 76.3344 12.6137 76.3333 12.6137V20.6137C76.3344 20.6137 76.3355 20.6137 76.3366 20.6137C76.3376 20.6137 76.3387 20.6137 76.3398 20.6137C76.3409 20.6137 76.342 20.6137 76.343 20.6137C76.3441 20.6137 76.3452 20.6137 76.3463 20.6137C76.3474 20.6137 76.3484 20.6137 76.3495 20.6137C76.3506 20.6137 76.3517 20.6137 76.3528 20.6137C76.3538 20.6137 76.3549 20.6137 76.356 20.6137C76.3571 20.6137 76.3582 20.6137 76.3592 20.6137C76.3603 20.6137 76.3614 20.6137 76.3625 20.6137C76.3636 20.6137 76.3647 20.6137 76.3657 20.6137C76.3668 20.6137 76.3679 20.6137 76.369 20.6137C76.3701 20.6137 76.3711 20.6137 76.3722 20.6137C76.3733 20.6137 76.3744 20.6137 76.3755 20.6137C76.3765 20.6137 76.3776 20.6137 76.3787 20.6137C76.3798 20.6137 76.3809 20.6137 76.3819 20.6137C76.383 20.6137 76.3841 20.6137 76.3852 20.6137C76.3863 20.6137 76.3874 20.6137 76.3884 20.6137C76.3895 20.6137 76.3906 20.6137 76.3917 20.6137C76.3928 20.6137 76.3938 20.6137 76.3949 20.6137C76.396 20.6137 76.3971 20.6137 76.3982 20.6137C76.3992 20.6137 76.4003 20.6137 76.4014 20.6137C76.4025 20.6137 76.4036 20.6137 76.4047 20.6137C76.4057 20.6137 76.4068 20.6137 76.4079 20.6137C76.409 20.6137 76.4101 20.6137 76.4111 20.6137C76.4122 20.6137 76.4133 20.6137 76.4144 20.6137C76.4155 20.6137 76.4165 20.6137 76.4176 20.6137C76.4187 20.6137 76.4198 20.6137 76.4209 20.6137C76.422 20.6137 76.423 20.6137 76.4241 20.6137C76.4252 20.6137 76.4263 20.6137 76.4274 20.6137C76.4284 20.6137 76.4295 20.6137 76.4306 20.6137C76.4317 20.6137 76.4328 20.6137 76.4339 20.6137C76.4349 20.6137 76.436 20.6137 76.4371 20.6137C76.4382 20.6137 76.4393 20.6137 76.4403 20.6137C76.4414 20.6137 76.4425 20.6137 76.4436 20.6137C76.4447 20.6137 76.4458 20.6137 76.4468 20.6137C76.4479 20.6137 76.449 20.6137 76.4501 20.6137C76.4512 20.6137 76.4522 20.6137 76.4533 20.6137C76.4544 20.6137 76.4555 20.6137 76.4566 20.6137C76.4577 20.6137 76.4587 20.6137 76.4598 20.6137C76.4609 20.6137 76.462 20.6137 76.4631 20.6137C76.4641 20.6137 76.4652 20.6137 76.4663 20.6137C76.4674 20.6137 76.4685 20.6137 76.4696 20.6137C76.4706 20.6137 76.4717 20.6137 76.4728 20.6137C76.4739 20.6137 76.475 20.6137 76.4761 20.6137C76.4771 20.6137 76.4782 20.6137 76.4793 20.6137C76.4804 20.6137 76.4815 20.6137 76.4826 20.6137C76.4836 20.6137 76.4847 20.6137 76.4858 20.6137C76.4869 20.6137 76.488 20.6137 76.489 20.6137C76.4901 20.6137 76.4912 20.6137 76.4923 20.6137C76.4934 20.6137 76.4945 20.6137 76.4955 20.6137C76.4966 20.6137 76.4977 20.6137 76.4988 20.6137C76.4999 20.6137 76.501 20.6137 76.502 20.6137C76.5031 20.6137 76.5042 20.6137 76.5053 20.6137C76.5064 20.6137 76.5075 20.6137 76.5085 20.6137C76.5096 20.6137 76.5107 20.6137 76.5118 20.6137C76.5129 20.6137 76.514 20.6137 76.515 20.6137C76.5161 20.6137 76.5172 20.6137 76.5183 20.6137C76.5194 20.6137 76.5205 20.6137 76.5215 20.6137C76.5226 20.6137 76.5237 20.6137 76.5248 20.6137C76.5259 20.6137 76.527 20.6137 76.528 20.6137C76.5291 20.6137 76.5302 20.6137 76.5313 20.6137C76.5324 20.6137 76.5334 20.6137 76.5345 20.6137C76.5356 20.6137 76.5367 20.6137 76.5378 20.6137C76.5389 20.6137 76.5399 20.6137 76.541 20.6137C76.5421 20.6137 76.5432 20.6137 76.5443 20.6137C76.5454 20.6137 76.5464 20.6137 76.5475 20.6137C76.5486 20.6137 76.5497 20.6137 76.5508 20.6137C76.5519 20.6137 76.553 20.6137 76.554 20.6137C76.5551 20.6137 76.5562 20.6137 76.5573 20.6137C76.5584 20.6137 76.5595 20.6137 76.5605 20.6137C76.5616 20.6137 76.5627 20.6137 76.5638 20.6137C76.5649 20.6137 76.566 20.6137 76.567 20.6137C76.5681 20.6137 76.5692 20.6137 76.5703 20.6137C76.5714 20.6137 76.5725 20.6137 76.5735 20.6137C76.5746 20.6137 76.5757 20.6137 76.5768 20.6137C76.5779 20.6137 76.579 20.6137 76.58 20.6137C76.5811 20.6137 76.5822 20.6137 76.5833 20.6137C76.5844 20.6137 76.5855 20.6137 76.5865 20.6137C76.5876 20.6137 76.5887 20.6137 76.5898 20.6137C76.5909 20.6137 76.592 20.6137 76.5931 20.6137C76.5941 20.6137 76.5952 20.6137 76.5963 20.6137C76.5974 20.6137 76.5985 20.6137 76.5996 20.6137C76.6006 20.6137 76.6017 20.6137 76.6028 20.6137C76.6039 20.6137 76.605 20.6137 76.6061 20.6137C76.6071 20.6137 76.6082 20.6137 76.6093 20.6137C76.6104 20.6137 76.6115 20.6137 76.6126 20.6137C76.6137 20.6137 76.6147 20.6137 76.6158 20.6137C76.6169 20.6137 76.618 20.6137 76.6191 20.6137C76.6202 20.6137 76.6212 20.6137 76.6223 20.6137C76.6234 20.6137 76.6245 20.6137 76.6256 20.6137C76.6267 20.6137 76.6277 20.6137 76.6288 20.6137C76.6299 20.6137 76.631 20.6137 76.6321 20.6137C76.6332 20.6137 76.6343 20.6137 76.6353 20.6137C76.6364 20.6137 76.6375 20.6137 76.6386 20.6137C76.6397 20.6137 76.6408 20.6137 76.6418 20.6137C76.6429 20.6137 76.644 20.6137 76.6451 20.6137C76.6462 20.6137 76.6473 20.6137 76.6484 20.6137C76.6494 20.6137 76.6505 20.6137 76.6516 20.6137C76.6527 20.6137 76.6538 20.6137 76.6549 20.6137C76.6559 20.6137 76.657 20.6137 76.6581 20.6137C76.6592 20.6137 76.6603 20.6137 76.6614 20.6137C76.6625 20.6137 76.6635 20.6137 76.6646 20.6137C76.6657 20.6137 76.6668 20.6137 76.6679 20.6137C76.669 20.6137 76.67 20.6137 76.6711 20.6137C76.6722 20.6137 76.6733 20.6137 76.6744 20.6137C76.6755 20.6137 76.6766 20.6137 76.6776 20.6137C76.6787 20.6137 76.6798 20.6137 76.6809 20.6137C76.682 20.6137 76.6831 20.6137 76.6842 20.6137C76.6852 20.6137 76.6863 20.6137 76.6874 20.6137C76.6885 20.6137 76.6896 20.6137 76.6907 20.6137C76.6917 20.6137 76.6928 20.6137 76.6939 20.6137C76.695 20.6137 76.6961 20.6137 76.6972 20.6137C76.6983 20.6137 76.6993 20.6137 76.7004 20.6137C76.7015 20.6137 76.7026 20.6137 76.7037 20.6137C76.7048 20.6137 76.7059 20.6137 76.7069 20.6137C76.708 20.6137 76.7091 20.6137 76.7102 20.6137C76.7113 20.6137 76.7124 20.6137 76.7135 20.6137C76.7145 20.6137 76.7156 20.6137 76.7167 20.6137C76.7178 20.6137 76.7189 20.6137 76.72 20.6137C76.7211 20.6137 76.7221 20.6137 76.7232 20.6137C76.7243 20.6137 76.7254 20.6137 76.7265 20.6137C76.7276 20.6137 76.7286 20.6137 76.7297 20.6137C76.7308 20.6137 76.7319 20.6137 76.733 20.6137C76.7341 20.6137 76.7352 20.6137 76.7362 20.6137C76.7373 20.6137 76.7384 20.6137 76.7395 20.6137C76.7406 20.6137 76.7417 20.6137 76.7428 20.6137C76.7438 20.6137 76.7449 20.6137 76.746 20.6137C76.7471 20.6137 76.7482 20.6137 76.7493 20.6137C76.7504 20.6137 76.7514 20.6137 76.7525 20.6137C76.7536 20.6137 76.7547 20.6137 76.7558 20.6137C76.7569 20.6137 76.758 20.6137 76.759 20.6137C76.7601 20.6137 76.7612 20.6137 76.7623 20.6137C76.7634 20.6137 76.7645 20.6137 76.7656 20.6137C76.7666 20.6137 76.7677 20.6137 76.7688 20.6137C76.7699 20.6137 76.771 20.6137 76.7721 20.6137C76.7732 20.6137 76.7743 20.6137 76.7753 20.6137C76.7764 20.6137 76.7775 20.6137 76.7786 20.6137C76.7797 20.6137 76.7808 20.6137 76.7819 20.6137C76.7829 20.6137 76.784 20.6137 76.7851 20.6137C76.7862 20.6137 76.7873 20.6137 76.7884 20.6137C76.7895 20.6137 76.7905 20.6137 76.7916 20.6137C76.7927 20.6137 76.7938 20.6137 76.7949 20.6137C76.796 20.6137 76.7971 20.6137 76.7981 20.6137C76.7992 20.6137 76.8003 20.6137 76.8014 20.6137C76.8025 20.6137 76.8036 20.6137 76.8047 20.6137C76.8057 20.6137 76.8068 20.6137 76.8079 20.6137C76.809 20.6137 76.8101 20.6137 76.8112 20.6137C76.8123 20.6137 76.8133 20.6137 76.8144 20.6137C76.8155 20.6137 76.8166 20.6137 76.8177 20.6137C76.8188 20.6137 76.8199 20.6137 76.821 20.6137C76.822 20.6137 76.8231 20.6137 76.8242 20.6137C76.8253 20.6137 76.8264 20.6137 76.8275 20.6137C76.8286 20.6137 76.8296 20.6137 76.8307 20.6137C76.8318 20.6137 76.8329 20.6137 76.834 20.6137C76.8351 20.6137 76.8362 20.6137 76.8372 20.6137C76.8383 20.6137 76.8394 20.6137 76.8405 20.6137C76.8416 20.6137 76.8427 20.6137 76.8438 20.6137C76.8449 20.6137 76.8459 20.6137 76.847 20.6137C76.8481 20.6137 76.8492 20.6137 76.8503 20.6137C76.8514 20.6137 76.8525 20.6137 76.8535 20.6137C76.8546 20.6137 76.8557 20.6137 76.8568 20.6137C76.8579 20.6137 76.859 20.6137 76.8601 20.6137C76.8611 20.6137 76.8622 20.6137 76.8633 20.6137C76.8644 20.6137 76.8655 20.6137 76.8666 20.6137C76.8677 20.6137 76.8688 20.6137 76.8698 20.6137C76.8709 20.6137 76.872 20.6137 76.8731 20.6137C76.8742 20.6137 76.8753 20.6137 76.8764 20.6137C76.8774 20.6137 76.8785 20.6137 76.8796 20.6137C76.8807 20.6137 76.8818 20.6137 76.8829 20.6137C76.884 20.6137 76.8851 20.6137 76.8861 20.6137C76.8872 20.6137 76.8883 20.6137 76.8894 20.6137C76.8905 20.6137 76.8916 20.6137 76.8927 20.6137C76.8937 20.6137 76.8948 20.6137 76.8959 20.6137C76.897 20.6137 76.8981 20.6137 76.8992 20.6137C76.9003 20.6137 76.9014 20.6137 76.9024 20.6137C76.9035 20.6137 76.9046 20.6137 76.9057 20.6137C76.9068 20.6137 76.9079 20.6137 76.909 20.6137C76.91 20.6137 76.9111 20.6137 76.9122 20.6137C76.9133 20.6137 76.9144 20.6137 76.9155 20.6137C76.9166 20.6137 76.9177 20.6137 76.9187 20.6137C76.9198 20.6137 76.9209 20.6137 76.922 20.6137C76.9231 20.6137 76.9242 20.6137 76.9253 20.6137C76.9264 20.6137 76.9274 20.6137 76.9285 20.6137C76.9296 20.6137 76.9307 20.6137 76.9318 20.6137C76.9329 20.6137 76.934 20.6137 76.935 20.6137C76.9361 20.6137 76.9372 20.6137 76.9383 20.6137C76.9394 20.6137 76.9405 20.6137 76.9416 20.6137C76.9427 20.6137 76.9437 20.6137 76.9448 20.6137C76.9459 20.6137 76.947 20.6137 76.9481 20.6137C76.9492 20.6137 76.9503 20.6137 76.9514 20.6137C76.9524 20.6137 76.9535 20.6137 76.9546 20.6137C76.9557 20.6137 76.9568 20.6137 76.9579 20.6137C76.959 20.6137 76.96 20.6137 76.9611 20.6137C76.9622 20.6137 76.9633 20.6137 76.9644 20.6137C76.9655 20.6137 76.9666 20.6137 76.9677 20.6137C76.9687 20.6137 76.9698 20.6137 76.9709 20.6137C76.972 20.6137 76.9731 20.6137 76.9742 20.6137C76.9753 20.6137 76.9764 20.6137 76.9774 20.6137C76.9785 20.6137 76.9796 20.6137 76.9807 20.6137C76.9818 20.6137 76.9829 20.6137 76.984 20.6137C76.9851 20.6137 76.9861 20.6137 76.9872 20.6137C76.9883 20.6137 76.9894 20.6137 76.9905 20.6137C76.9916 20.6137 76.9927 20.6137 76.9938 20.6137C76.9948 20.6137 76.9959 20.6137 76.997 20.6137C76.9981 20.6137 76.9992 20.6137 77.0003 20.6137C77.0014 20.6137 77.0024 20.6137 77.0035 20.6137C77.0046 20.6137 77.0057 20.6137 77.0068 20.6137C77.0079 20.6137 77.009 20.6137 77.0101 20.6137C77.0111 20.6137 77.0122 20.6137 77.0133 20.6137C77.0144 20.6137 77.0155 20.6137 77.0166 20.6137C77.0177 20.6137 77.0188 20.6137 77.0198 20.6137C77.0209 20.6137 77.022 20.6137 77.0231 20.6137C77.0242 20.6137 77.0253 20.6137 77.0264 20.6137C77.0275 20.6137 77.0285 20.6137 77.0296 20.6137C77.0307 20.6137 77.0318 20.6137 77.0329 20.6137C77.034 20.6137 77.0351 20.6137 77.0362 20.6137C77.0372 20.6137 77.0383 20.6137 77.0394 20.6137C77.0405 20.6137 77.0416 20.6137 77.0427 20.6137C77.0438 20.6137 77.0449 20.6137 77.0459 20.6137C77.047 20.6137 77.0481 20.6137 77.0492 20.6137C77.0503 20.6137 77.0514 20.6137 77.0525 20.6137C77.0536 20.6137 77.0546 20.6137 77.0557 20.6137C77.0568 20.6137 77.0579 20.6137 77.059 20.6137C77.0601 20.6137 77.0612 20.6137 77.0623 20.6137C77.0633 20.6137 77.0644 20.6137 77.0655 20.6137C77.0666 20.6137 77.0677 20.6137 77.0688 20.6137C77.0699 20.6137 77.071 20.6137 77.072 20.6137C77.0731 20.6137 77.0742 20.6137 77.0753 20.6137C77.0764 20.6137 77.0775 20.6137 77.0786 20.6137C77.0797 20.6137 77.0807 20.6137 77.0818 20.6137C77.0829 20.6137 77.084 20.6137 77.0851 20.6137C77.0862 20.6137 77.0873 20.6137 77.0884 20.6137C77.0894 20.6137 77.0905 20.6137 77.0916 20.6137C77.0927 20.6137 77.0938 20.6137 77.0949 20.6137C77.096 20.6137 77.0971 20.6137 77.0981 20.6137C77.0992 20.6137 77.1003 20.6137 77.1014 20.6137C77.1025 20.6137 77.1036 20.6137 77.1047 20.6137C77.1058 20.6137 77.1068 20.6137 77.1079 20.6137C77.109 20.6137 77.1101 20.6137 77.1112 20.6137C77.1123 20.6137 77.1134 20.6137 77.1145 20.6137C77.1155 20.6137 77.1166 20.6137 77.1177 20.6137C77.1188 20.6137 77.1199 20.6137 77.121 20.6137C77.1221 20.6137 77.1231 20.6137 77.1242 20.6137C77.1253 20.6137 77.1264 20.6137 77.1275 20.6137C77.1286 20.6137 77.1297 20.6137 77.1308 20.6137C77.1319 20.6137 77.1329 20.6137 77.134 20.6137C77.1351 20.6137 77.1362 20.6137 77.1373 20.6137C77.1384 20.6137 77.1395 20.6137 77.1406 20.6137C77.1416 20.6137 77.1427 20.6137 77.1438 20.6137C77.1449 20.6137 77.146 20.6137 77.1471 20.6137C77.1482 20.6137 77.1493 20.6137 77.1503 20.6137C77.1514 20.6137 77.1525 20.6137 77.1536 20.6137C77.1547 20.6137 77.1558 20.6137 77.1569 20.6137C77.158 20.6137 77.159 20.6137 77.1601 20.6137C77.1612 20.6137 77.1623 20.6137 77.1634 20.6137C77.1645 20.6137 77.1656 20.6137 77.1667 20.6137C77.1677 20.6137 77.1688 20.6137 77.1699 20.6137C77.171 20.6137 77.1721 20.6137 77.1732 20.6137C77.1743 20.6137 77.1754 20.6137 77.1764 20.6137C77.1775 20.6137 77.1786 20.6137 77.1797 20.6137C77.1808 20.6137 77.1819 20.6137 77.183 20.6137C77.1841 20.6137 77.1851 20.6137 77.1862 20.6137C77.1873 20.6137 77.1884 20.6137 77.1895 20.6137C77.1906 20.6137 77.1917 20.6137 77.1928 20.6137C77.1938 20.6137 77.1949 20.6137 77.196 20.6137C77.1971 20.6137 77.1982 20.6137 77.1993 20.6137C77.2004 20.6137 77.2015 20.6137 77.2025 20.6137C77.2036 20.6137 77.2047 20.6137 77.2058 20.6137C77.2069 20.6137 77.208 20.6137 77.2091 20.6137C77.2102 20.6137 77.2112 20.6137 77.2123 20.6137C77.2134 20.6137 77.2145 20.6137 77.2156 20.6137C77.2167 20.6137 77.2178 20.6137 77.2189 20.6137C77.2199 20.6137 77.221 20.6137 77.2221 20.6137C77.2232 20.6137 77.2243 20.6137 77.2254 20.6137C77.2265 20.6137 77.2276 20.6137 77.2286 20.6137C77.2297 20.6137 77.2308 20.6137 77.2319 20.6137C77.233 20.6137 77.2341 20.6137 77.2352 20.6137C77.2363 20.6137 77.2373 20.6137 77.2384 20.6137C77.2395 20.6137 77.2406 20.6137 77.2417 20.6137C77.2428 20.6137 77.2439 20.6137 77.245 20.6137C77.246 20.6137 77.2471 20.6137 77.2482 20.6137C77.2493 20.6137 77.2504 20.6137 77.2515 20.6137C77.2526 20.6137 77.2537 20.6137 77.2547 20.6137C77.2558 20.6137 77.2569 20.6137 77.258 20.6137C77.2591 20.6137 77.2602 20.6137 77.2613 20.6137C77.2624 20.6137 77.2634 20.6137 77.2645 20.6137C77.2656 20.6137 77.2667 20.6137 77.2678 20.6137C77.2689 20.6137 77.27 20.6137 77.2711 20.6137C77.2721 20.6137 77.2732 20.6137 77.2743 20.6137C77.2754 20.6137 77.2765 20.6137 77.2776 20.6137C77.2787 20.6137 77.2798 20.6137 77.2808 20.6137C77.2819 20.6137 77.283 20.6137 77.2841 20.6137C77.2852 20.6137 77.2863 20.6137 77.2874 20.6137C77.2885 20.6137 77.2895 20.6137 77.2906 20.6137C77.2917 20.6137 77.2928 20.6137 77.2939 20.6137C77.295 20.6137 77.2961 20.6137 77.2971 20.6137C77.2982 20.6137 77.2993 20.6137 77.3004 20.6137C77.3015 20.6137 77.3026 20.6137 77.3037 20.6137C77.3048 20.6137 77.3058 20.6137 77.3069 20.6137C77.308 20.6137 77.3091 20.6137 77.3102 20.6137C77.3113 20.6137 77.3124 20.6137 77.3135 20.6137C77.3145 20.6137 77.3156 20.6137 77.3167 20.6137C77.3178 20.6137 77.3189 20.6137 77.32 20.6137C77.3211 20.6137 77.3222 20.6137 77.3232 20.6137C77.3243 20.6137 77.3254 20.6137 77.3265 20.6137C77.3276 20.6137 77.3287 20.6137 77.3298 20.6137C77.3309 20.6137 77.3319 20.6137 77.333 20.6137C77.3341 20.6137 77.3352 20.6137 77.3363 20.6137C77.3374 20.6137 77.3385 20.6137 77.3396 20.6137C77.3406 20.6137 77.3417 20.6137 77.3428 20.6137C77.3439 20.6137 77.345 20.6137 77.3461 20.6137C77.3472 20.6137 77.3483 20.6137 77.3493 20.6137C77.3504 20.6137 77.3515 20.6137 77.3526 20.6137C77.3537 20.6137 77.3548 20.6137 77.3559 20.6137C77.3569 20.6137 77.358 20.6137 77.3591 20.6137C77.3602 20.6137 77.3613 20.6137 77.3624 20.6137C77.3635 20.6137 77.3646 20.6137 77.3656 20.6137C77.3667 20.6137 77.3678 20.6137 77.3689 20.6137C77.37 20.6137 77.3711 20.6137 77.3722 20.6137C77.3733 20.6137 77.3743 20.6137 77.3754 20.6137C77.3765 20.6137 77.3776 20.6137 77.3787 20.6137C77.3798 20.6137 77.3809 20.6137 77.382 20.6137C77.383 20.6137 77.3841 20.6137 77.3852 20.6137C77.3863 20.6137 77.3874 20.6137 77.3885 20.6137C77.3896 20.6137 77.3906 20.6137 77.3917 20.6137C77.3928 20.6137 77.3939 20.6137 77.395 20.6137C77.3961 20.6137 77.3972 20.6137 77.3983 20.6137C77.3993 20.6137 77.4004 20.6137 77.4015 20.6137C77.4026 20.6137 77.4037 20.6137 77.4048 20.6137C77.4059 20.6137 77.407 20.6137 77.408 20.6137C77.4091 20.6137 77.4102 20.6137 77.4113 20.6137C77.4124 20.6137 77.4135 20.6137 77.4146 20.6137C77.4156 20.6137 77.4167 20.6137 77.4178 20.6137C77.4189 20.6137 77.42 20.6137 77.4211 20.6137C77.4222 20.6137 77.4233 20.6137 77.4243 20.6137C77.4254 20.6137 77.4265 20.6137 77.4276 20.6137C77.4287 20.6137 77.4298 20.6137 77.4309 20.6137C77.4319 20.6137 77.433 20.6137 77.4341 20.6137C77.4352 20.6137 77.4363 20.6137 77.4374 20.6137C77.4385 20.6137 77.4396 20.6137 77.4406 20.6137C77.4417 20.6137 77.4428 20.6137 77.4439 20.6137C77.445 20.6137 77.4461 20.6137 77.4472 20.6137C77.4482 20.6137 77.4493 20.6137 77.4504 20.6137C77.4515 20.6137 77.4526 20.6137 77.4537 20.6137C77.4548 20.6137 77.4559 20.6137 77.4569 20.6137C77.458 20.6137 77.4591 20.6137 77.4602 20.6137C77.4613 20.6137 77.4624 20.6137 77.4635 20.6137C77.4646 20.6137 77.4656 20.6137 77.4667 20.6137C77.4678 20.6137 77.4689 20.6137 77.47 20.6137C77.4711 20.6137 77.4722 20.6137 77.4732 20.6137C77.4743 20.6137 77.4754 20.6137 77.4765 20.6137C77.4776 20.6137 77.4787 20.6137 77.4798 20.6137C77.4809 20.6137 77.4819 20.6137 77.483 20.6137C77.4841 20.6137 77.4852 20.6137 77.4863 20.6137C77.4874 20.6137 77.4885 20.6137 77.4895 20.6137C77.4906 20.6137 77.4917 20.6137 77.4928 20.6137C77.4939 20.6137 77.495 20.6137 77.4961 20.6137C77.4971 20.6137 77.4982 20.6137 77.4993 20.6137C77.5004 20.6137 77.5015 20.6137 77.5026 20.6137C77.5037 20.6137 77.5047 20.6137 77.5058 20.6137C77.5069 20.6137 77.508 20.6137 77.5091 20.6137C77.5102 20.6137 77.5113 20.6137 77.5124 20.6137C77.5134 20.6137 77.5145 20.6137 77.5156 20.6137C77.5167 20.6137 77.5178 20.6137 77.5189 20.6137C77.52 20.6137 77.521 20.6137 77.5221 20.6137C77.5232 20.6137 77.5243 20.6137 77.5254 20.6137C77.5265 20.6137 77.5276 20.6137 77.5286 20.6137C77.5297 20.6137 77.5308 20.6137 77.5319 20.6137C77.533 20.6137 77.5341 20.6137 77.5352 20.6137C77.5363 20.6137 77.5373 20.6137 77.5384 20.6137C77.5395 20.6137 77.5406 20.6137 77.5417 20.6137C77.5428 20.6137 77.5439 20.6137 77.5449 20.6137C77.546 20.6137 77.5471 20.6137 77.5482 20.6137C77.5493 20.6137 77.5504 20.6137 77.5515 20.6137C77.5525 20.6137 77.5536 20.6137 77.5547 20.6137C77.5558 20.6137 77.5569 20.6137 77.558 20.6137C77.5591 20.6137 77.5601 20.6137 77.5612 20.6137C77.5623 20.6137 77.5634 20.6137 77.5645 20.6137C77.5656 20.6137 77.5667 20.6137 77.5677 20.6137C77.5688 20.6137 77.5699 20.6137 77.571 20.6137C77.5721 20.6137 77.5732 20.6137 77.5743 20.6137C77.5753 20.6137 77.5764 20.6137 77.5775 20.6137C77.5786 20.6137 77.5797 20.6137 77.5808 20.6137C77.5819 20.6137 77.5829 20.6137 77.584 20.6137C77.5851 20.6137 77.5862 20.6137 77.5873 20.6137C77.5884 20.6137 77.5895 20.6137 77.5905 20.6137C77.5916 20.6137 77.5927 20.6137 77.5938 20.6137C77.5949 20.6137 77.596 20.6137 77.5971 20.6137C77.5981 20.6137 77.5992 20.6137 77.6003 20.6137C77.6014 20.6137 77.6025 20.6137 77.6036 20.6137C77.6047 20.6137 77.6057 20.6137 77.6068 20.6137C77.6079 20.6137 77.609 20.6137 77.6101 20.6137C77.6112 20.6137 77.6123 20.6137 77.6133 20.6137C77.6144 20.6137 77.6155 20.6137 77.6166 20.6137C77.6177 20.6137 77.6188 20.6137 77.6199 20.6137C77.6209 20.6137 77.622 20.6137 77.6231 20.6137C77.6242 20.6137 77.6253 20.6137 77.6264 20.6137C77.6274 20.6137 77.6285 20.6137 77.6296 20.6137C77.6307 20.6137 77.6318 20.6137 77.6329 20.6137C77.634 20.6137 77.635 20.6137 77.6361 20.6137C77.6372 20.6137 77.6383 20.6137 77.6394 20.6137C77.6405 20.6137 77.6416 20.6137 77.6426 20.6137C77.6437 20.6137 77.6448 20.6137 77.6459 20.6137C77.647 20.6137 77.6481 20.6137 77.6492 20.6137C77.6502 20.6137 77.6513 20.6137 77.6524 20.6137C77.6535 20.6137 77.6546 20.6137 77.6557 20.6137C77.6567 20.6137 77.6578 20.6137 77.6589 20.6137C77.66 20.6137 77.6611 20.6137 77.6622 20.6137C77.6633 20.6137 77.6643 20.6137 77.6654 20.6137C77.6665 20.6137 77.6676 20.6137 77.6687 20.6137C77.6698 20.6137 77.6708 20.6137 77.6719 20.6137C77.673 20.6137 77.6741 20.6137 77.6752 20.6137C77.6763 20.6137 77.6774 20.6137 77.6784 20.6137C77.6795 20.6137 77.6806 20.6137 77.6817 20.6137C77.6828 20.6137 77.6839 20.6137 77.685 20.6137C77.686 20.6137 77.6871 20.6137 77.6882 20.6137C77.6893 20.6137 77.6904 20.6137 77.6915 20.6137C77.6925 20.6137 77.6936 20.6137 77.6947 20.6137C77.6958 20.6137 77.6969 20.6137 77.698 20.6137C77.6991 20.6137 77.7001 20.6137 77.7012 20.6137C77.7023 20.6137 77.7034 20.6137 77.7045 20.6137C77.7056 20.6137 77.7066 20.6137 77.7077 20.6137C77.7088 20.6137 77.7099 20.6137 77.711 20.6137C77.7121 20.6137 77.7132 20.6137 77.7142 20.6137C77.7153 20.6137 77.7164 20.6137 77.7175 20.6137C77.7186 20.6137 77.7197 20.6137 77.7207 20.6137C77.7218 20.6137 77.7229 20.6137 77.724 20.6137C77.7251 20.6137 77.7262 20.6137 77.7272 20.6137C77.7283 20.6137 77.7294 20.6137 77.7305 20.6137C77.7316 20.6137 77.7327 20.6137 77.7337 20.6137C77.7348 20.6137 77.7359 20.6137 77.737 20.6137C77.7381 20.6137 77.7392 20.6137 77.7403 20.6137C77.7413 20.6137 77.7424 20.6137 77.7435 20.6137C77.7446 20.6137 77.7457 20.6137 77.7468 20.6137C77.7478 20.6137 77.7489 20.6137 77.75 20.6137C77.7511 20.6137 77.7522 20.6137 77.7533 20.6137C77.7543 20.6137 77.7554 20.6137 77.7565 20.6137C77.7576 20.6137 77.7587 20.6137 77.7598 20.6137C77.7608 20.6137 77.7619 20.6137 77.763 20.6137C77.7641 20.6137 77.7652 20.6137 77.7663 20.6137C77.7674 20.6137 77.7684 20.6137 77.7695 20.6137C77.7706 20.6137 77.7717 20.6137 77.7728 20.6137C77.7739 20.6137 77.7749 20.6137 77.776 20.6137C77.7771 20.6137 77.7782 20.6137 77.7793 20.6137C77.7804 20.6137 77.7814 20.6137 77.7825 20.6137C77.7836 20.6137 77.7847 20.6137 77.7858 20.6137C77.7869 20.6137 77.7879 20.6137 77.789 20.6137C77.7901 20.6137 77.7912 20.6137 77.7923 20.6137C77.7934 20.6137 77.7944 20.6137 77.7955 20.6137C77.7966 20.6137 77.7977 20.6137 77.7988 20.6137C77.7999 20.6137 77.8009 20.6137 77.802 20.6137C77.8031 20.6137 77.8042 20.6137 77.8053 20.6137C77.8064 20.6137 77.8074 20.6137 77.8085 20.6137C77.8096 20.6137 77.8107 20.6137 77.8118 20.6137C77.8129 20.6137 77.8139 20.6137 77.815 20.6137C77.8161 20.6137 77.8172 20.6137 77.8183 20.6137C77.8194 20.6137 77.8204 20.6137 77.8215 20.6137C77.8226 20.6137 77.8237 20.6137 77.8248 20.6137C77.8259 20.6137 77.8269 20.6137 77.828 20.6137C77.8291 20.6137 77.8302 20.6137 77.8313 20.6137C77.8323 20.6137 77.8334 20.6137 77.8345 20.6137C77.8356 20.6137 77.8367 20.6137 77.8378 20.6137C77.8388 20.6137 77.8399 20.6137 77.841 20.6137C77.8421 20.6137 77.8432 20.6137 77.8443 20.6137C77.8453 20.6137 77.8464 20.6137 77.8475 20.6137C77.8486 20.6137 77.8497 20.6137 77.8508 20.6137C77.8518 20.6137 77.8529 20.6137 77.854 20.6137C77.8551 20.6137 77.8562 20.6137 77.8573 20.6137C77.8583 20.6137 77.8594 20.6137 77.8605 20.6137C77.8616 20.6137 77.8627 20.6137 77.8637 20.6137C77.8648 20.6137 77.8659 20.6137 77.867 20.6137C77.8681 20.6137 77.8692 20.6137 77.8702 20.6137C77.8713 20.6137 77.8724 20.6137 77.8735 20.6137C77.8746 20.6137 77.8756 20.6137 77.8767 20.6137C77.8778 20.6137 77.8789 20.6137 77.88 20.6137C77.8811 20.6137 77.8821 20.6137 77.8832 20.6137C77.8843 20.6137 77.8854 20.6137 77.8865 20.6137C77.8876 20.6137 77.8886 20.6137 77.8897 20.6137C77.8908 20.6137 77.8919 20.6137 77.893 20.6137C77.894 20.6137 77.8951 20.6137 77.8962 20.6137C77.8973 20.6137 77.8984 20.6137 77.8995 20.6137C77.9005 20.6137 77.9016 20.6137 77.9027 20.6137C77.9038 20.6137 77.9049 20.6137 77.9059 20.6137C77.907 20.6137 77.9081 20.6137 77.9092 20.6137C77.9103 20.6137 77.9114 20.6137 77.9124 20.6137C77.9135 20.6137 77.9146 20.6137 77.9157 20.6137C77.9168 20.6137 77.9178 20.6137 77.9189 20.6137C77.92 20.6137 77.9211 20.6137 77.9222 20.6137C77.9232 20.6137 77.9243 20.6137 77.9254 20.6137C77.9265 20.6137 77.9276 20.6137 77.9287 20.6137C77.9297 20.6137 77.9308 20.6137 77.9319 20.6137C77.933 20.6137 77.9341 20.6137 77.9351 20.6137C77.9362 20.6137 77.9373 20.6137 77.9384 20.6137C77.9395 20.6137 77.9405 20.6137 77.9416 20.6137C77.9427 20.6137 77.9438 20.6137 77.9449 20.6137C77.946 20.6137 77.947 20.6137 77.9481 20.6137C77.9492 20.6137 77.9503 20.6137 77.9514 20.6137C77.9524 20.6137 77.9535 20.6137 77.9546 20.6137C77.9557 20.6137 77.9568 20.6137 77.9578 20.6137C77.9589 20.6137 77.96 20.6137 77.9611 20.6137C77.9622 20.6137 77.9632 20.6137 77.9643 20.6137C77.9654 20.6137 77.9665 20.6137 77.9676 20.6137C77.9687 20.6137 77.9697 20.6137 77.9708 20.6137C77.9719 20.6137 77.973 20.6137 77.9741 20.6137C77.9751 20.6137 77.9762 20.6137 77.9773 20.6137C77.9784 20.6137 77.9795 20.6137 77.9805 20.6137C77.9816 20.6137 77.9827 20.6137 77.9838 20.6137C77.9849 20.6137 77.9859 20.6137 77.987 20.6137C77.9881 20.6137 77.9892 20.6137 77.9903 20.6137C77.9913 20.6137 77.9924 20.6137 77.9935 20.6137C77.9946 20.6137 77.9957 20.6137 77.9967 20.6137C77.9978 20.6137 77.9989 20.6137 78 20.6137V12.6137ZM76.9729 12.6651C76.7631 12.6311 76.568 12.5538 76.3038 12.2996L70.7568 18.0641C72.0986 19.3553 73.7521 20.2477 75.6938 20.5622L76.9729 12.6651ZM71.3115 11.8537C71.3013 11.8605 71.304 11.8586 71.2731 11.879C71.2519 11.8931 71.2126 11.9191 71.1676 11.9501C71.0789 12.011 70.9225 12.1217 70.7453 12.2736L75.9516 18.3477C75.8274 18.4541 75.7279 18.5231 75.6998 18.5424C75.6851 18.5525 75.677 18.5578 75.688 18.5505C75.6894 18.5496 75.7252 18.526 75.7491 18.5101L71.3115 11.8537ZM70.5328 12.4696C69.6758 13.3189 68.8188 14.1758 67.9695 15.0328L73.6517 20.6642C74.4842 19.8242 75.3242 18.9842 76.1642 18.1517L70.5328 12.4696ZM67.9822 15.0201C67.7895 15.2128 67.6476 15.3923 67.5528 15.5222C67.4567 15.6538 67.3847 15.768 67.3394 15.8426C67.2943 15.917 67.2591 15.9795 67.2455 16.0039C67.2198 16.0498 67.2361 16.0208 67.2391 16.0155L74.1851 19.9846C74.2032 19.9528 74.2347 19.8963 74.2244 19.9147C74.2244 19.9147 74.2197 19.9231 74.2126 19.9355C74.2053 19.9482 74.1933 19.9688 74.1776 19.9946C74.1484 20.0427 74.093 20.1313 74.0142 20.2392C73.9366 20.3455 73.8128 20.5032 73.639 20.6769L67.9822 15.0201ZM68.1514 14.9271C68.1133 14.9588 68.1421 14.9342 68.0356 15.0216C67.9684 15.0767 67.855 15.1707 67.7289 15.2863L73.1347 21.1835C73.0995 21.2157 73.0808 21.2302 73.1083 21.2077C73.1235 21.1952 73.1351 21.1858 73.1663 21.1605C73.1921 21.1395 73.2307 21.108 73.2728 21.0729L68.1514 14.9271ZM67.6034 15.4065C65.2917 17.7181 62.9575 20.0447 60.6366 22.3732L66.3027 28.0208C68.6182 25.6978 70.9355 23.388 73.2602 21.0633L67.6034 15.4065ZM60.6413 22.3686C60.4864 22.5234 60.3645 22.6632 60.2896 22.7509C60.2528 22.7938 60.2181 22.8353 60.1991 22.858C60.1758 22.8857 60.1667 22.8966 60.1599 22.9044L66.234 28.1108C66.2727 28.0656 66.3081 28.0234 66.3291 27.9984C66.3543 27.9682 66.3636 27.9572 66.3714 27.9481C66.3774 27.941 66.3727 27.9467 66.3612 27.9594C66.3492 27.9727 66.3277 27.9959 66.2981 28.0254L60.6413 22.3686ZM60.5772 22.4849C60.5986 22.4663 60.6093 22.458 60.5941 22.4703C60.5866 22.4763 60.5782 22.4831 60.5618 22.4963C60.5476 22.5076 60.5259 22.525 60.5031 22.5435C60.4218 22.6093 60.2281 22.7666 60.02 22.9746L65.6769 28.6315C65.6206 28.6878 65.5763 28.7271 65.5543 28.7463C65.533 28.7647 65.5224 28.773 65.5367 28.7615C65.5436 28.7558 65.5519 28.7492 65.5677 28.7366C65.5812 28.7257 65.6026 28.7085 65.6249 28.6905C65.6691 28.6548 65.7384 28.5982 65.8167 28.5304L60.5772 22.4849ZM60.02 22.9746C58.8685 24.1262 57.717 25.2777 56.5655 26.4292C55.414 27.5807 54.2625 28.7322 53.1109 29.8837L58.7678 35.5406C59.9193 34.3891 61.0708 33.2376 62.2223 32.086C63.3739 30.9345 64.5254 29.783 65.6769 28.6315L60.02 22.9746ZM53.1109 29.8837C52.928 30.0667 52.7864 30.2342 52.6996 30.3396C52.6559 30.3928 52.6165 30.4421 52.592 30.4727C52.5626 30.5095 52.5513 30.5238 52.5395 30.5383L58.7484 35.583C58.7684 35.5584 58.7867 35.5357 58.8019 35.5166C58.8096 35.507 58.8169 35.4979 58.8234 35.4898C58.8267 35.4857 58.8299 35.4817 58.8328 35.478C58.8359 35.4742 58.8387 35.4707 58.8414 35.4673C58.8526 35.4532 58.8603 35.4436 58.8668 35.4355C58.8731 35.4277 58.8765 35.4236 58.878 35.4218C58.8814 35.4177 58.8726 35.4285 58.8554 35.4479C58.8379 35.4676 58.8082 35.5002 58.7678 35.5406L53.1109 29.8837ZM53.111 29.9648C53.1154 29.9612 53.1158 29.961 53.0937 29.9785C53.0785 29.9906 53.0375 30.0231 52.9948 30.0578C52.9065 30.1297 52.7488 30.261 52.5731 30.4368L58.2299 36.0936C58.1783 36.1452 58.1341 36.1856 58.1025 36.2134C58.0716 36.2405 58.0498 36.2584 58.0449 36.2623C58.0423 36.2645 58.0422 36.2645 58.0466 36.261C58.0518 36.2569 58.0571 36.2526 58.0694 36.2429C58.0798 36.2346 58.0958 36.2219 58.1131 36.2081C58.1308 36.1939 58.1526 36.1763 58.1769 36.1565L53.111 29.9648ZM52.5731 30.4368C50.2386 32.7712 47.8818 35.1205 45.5382 37.4716L51.2042 43.1193C53.5424 40.7735 55.8825 38.441 58.2299 36.0936L52.5731 30.4368ZM45.5428 37.4671C45.4171 37.5927 45.318 37.706 45.2498 37.7871C45.1836 37.8658 45.1291 37.9352 45.1063 37.9643C45.0715 38.0087 45.0806 37.9971 45.085 37.9917C45.0956 37.9786 45.1326 37.9331 45.1877 37.8729L51.085 43.2787C51.1818 43.1731 51.2585 43.0802 51.308 43.0191C51.3332 42.9879 51.3547 42.9606 51.3697 42.9416C51.3772 42.932 51.3841 42.9232 51.3892 42.9167C51.3949 42.9093 51.3979 42.9056 51.4012 42.9013C51.4163 42.8821 51.3997 42.9037 51.3724 42.9362C51.343 42.9712 51.2836 43.0399 51.1996 43.1239L45.5428 37.4671ZM45.5935 37.4881C45.5936 37.488 45.5908 37.4903 45.5834 37.4962C45.5757 37.5024 45.5662 37.51 45.551 37.5221C45.5267 37.5414 45.473 37.5839 45.4197 37.6271C45.31 37.7162 45.1241 37.8706 44.9216 38.0731L50.5784 43.73C50.5355 43.7729 50.5012 43.8039 50.4813 43.8213C50.4622 43.8381 50.4525 43.8457 50.461 43.8388C50.465 43.8356 50.4715 43.8304 50.4827 43.8214C50.4954 43.8113 50.5063 43.8026 50.5264 43.7867C50.5599 43.7601 50.617 43.7147 50.6792 43.6635L45.5935 37.4881ZM44.9271 38.0676C42.984 40.0031 41.0409 41.9462 39.1054 43.8893L44.7733 49.535C46.7015 47.5993 48.6372 45.6636 50.5729 43.7355L44.9271 38.0676ZM39.111 43.8837C39.0303 43.9644 39.0307 43.9629 39.0443 43.9506C39.0656 43.9311 39.156 43.85 39.3011 43.7533C39.644 43.5247 40.1812 43.2845 40.8471 43.2603L41.1378 51.255C43.3455 51.1747 44.6558 49.6526 44.7678 49.5406L39.111 43.8837ZM43.8912 44.5014C43.7246 44.3261 43.8349 44.4319 43.9566 44.5957C44.0785 44.7599 44.6844 45.5847 44.6643 46.8514C44.6444 48.1027 44.0256 48.9003 43.9134 49.0451C43.7945 49.1985 43.6899 49.2954 43.8593 49.1232L38.1559 43.5133C38.098 43.5721 37.8229 43.8442 37.5899 44.1448C37.3635 44.4369 36.687 45.3538 36.6653 46.7244C36.6433 48.1104 37.3031 49.0546 37.5344 49.366C37.7655 49.6771 38.0405 49.9581 38.0936 50.0139L43.8912 44.5014ZM43.836 49.1466C43.8625 49.1201 43.8891 49.0936 43.9165 49.0661C43.944 49.0386 43.9724 49.0103 44.0027 48.98L38.3458 43.3231C38.3155 43.3535 38.287 43.3819 38.2596 43.4093C38.2321 43.4368 38.2056 43.4633 38.1791 43.4898L43.836 49.1466ZM44.0027 48.98C44.9875 47.9951 45.9724 47.0103 46.9572 46.0254C47.942 45.0406 48.9269 44.0557 49.9117 43.0709L44.2549 37.414C43.27 38.3989 42.2852 39.3837 41.3003 40.3686C40.3155 41.3534 39.3306 42.3383 38.3458 43.3231L44.0027 48.98ZM49.9117 43.0709C50.1913 42.7913 50.4164 42.5133 50.5044 42.4065L44.3289 37.3208C44.3011 37.3546 44.2824 37.3773 44.2649 37.3983C44.2483 37.4182 44.2379 37.4304 44.2314 37.4379C44.218 37.4534 44.2282 37.4408 44.2549 37.414L49.9117 43.0709ZM49.9595 42.9514C49.9594 42.9515 49.9622 42.9492 49.9696 42.9432C49.9773 42.9371 49.9869 42.9294 50.002 42.9174C50.0263 42.8981 50.08 42.8556 50.1333 42.8123C50.243 42.7233 50.4289 42.5688 50.6314 42.3663L44.9746 36.7095C45.0175 36.6666 45.0518 36.6356 45.0716 36.6182C45.0908 36.6014 45.1004 36.5938 45.092 36.6006C45.088 36.6039 45.0815 36.6091 45.0703 36.6181C45.0575 36.6282 45.0466 36.6369 45.0266 36.6528C44.9931 36.6794 44.936 36.7248 44.8738 36.776L49.9595 42.9514ZM50.6314 42.3663C52.9051 40.0927 55.2016 37.8038 57.4771 35.5207L51.8108 29.8733C49.5408 32.1508 47.2615 34.4225 44.9746 36.7095L50.6314 42.3663ZM57.4723 35.5254C57.6804 35.3174 57.8377 35.1236 57.9035 35.0424C57.922 35.0195 57.9394 34.9978 57.9507 34.9837C57.9639 34.9673 57.9707 34.9588 57.9767 34.9514C57.989 34.9361 57.9807 34.9468 57.9621 34.9682L51.9166 29.7288C51.8488 29.807 51.7922 29.8764 51.7564 29.9206C51.7385 29.9429 51.7213 29.9643 51.7104 29.9778C51.6978 29.9936 51.6911 30.0019 51.6855 30.0088C51.674 30.023 51.6823 30.0124 51.7007 29.9912C51.7198 29.9692 51.7592 29.9248 51.8155 29.8686L57.4723 35.5254ZM57.5001 35.4214C57.3854 35.517 57.2929 35.5818 57.2717 35.5966C57.26 35.6048 57.2501 35.6116 57.2607 35.6043C57.2657 35.6008 57.2893 35.5846 57.3162 35.5657C57.3679 35.5294 57.4845 35.4463 57.6211 35.3317C57.7597 35.2155 57.9542 35.0381 58.1562 34.7956L52.0104 29.6741C52.1935 29.4544 52.3662 29.2978 52.4813 29.2013C52.5945 29.1063 52.686 29.0417 52.7122 29.0234C52.7262 29.0134 52.737 29.0061 52.7291 29.0116C52.7269 29.013 52.7041 29.0286 52.6798 29.0457C52.6332 29.0783 52.516 29.1611 52.3786 29.2756L57.5001 35.4214ZM57.9117 35.0633C59.1125 33.8626 60.3133 32.6618 61.514 31.461C62.7148 30.2603 63.9155 29.0595 65.1163 27.8588L59.4594 22.2019C58.2587 23.4027 57.0579 24.6034 55.8572 25.8042C54.6564 27.0049 53.4556 28.2057 52.2549 29.4065L57.9117 35.0633ZM65.1163 27.8588C65.3935 27.5815 65.5861 27.3123 65.713 27.1117C65.837 26.9157 65.9214 26.7478 65.9616 26.6657C65.9827 26.6226 66 26.5857 66.007 26.5707C66.0181 26.5472 66.0143 26.5552 66.0124 26.5593C66.0069 26.5707 65.9636 26.6622 65.8945 26.7807L58.9843 22.7497C58.8887 22.9136 58.8217 23.0524 58.7935 23.1115C58.7802 23.1394 58.7653 23.1712 58.7652 23.1714C58.7611 23.1801 58.7673 23.1668 58.777 23.1469C58.7945 23.1112 58.8552 22.9882 58.9527 22.8341C59.053 22.6755 59.2163 22.4451 59.4594 22.2019L65.1163 27.8588ZM62.4394 28.7652H62.4621V20.7652H62.4394V28.7652ZM78.4997 19.6398C80.1862 19.3515 81.7163 18.5769 82.9496 17.3436L77.2928 11.6868C77.2592 11.7204 77.2424 11.7284 77.2398 11.7297C77.2366 11.7314 77.2132 11.7437 77.1518 11.7542L78.4997 19.6398ZM82.9496 17.3436C83.9761 16.3171 85.0046 15.2887 86.033 14.2603C87.0614 13.2319 88.0898 12.2035 89.1163 11.1769L83.4594 5.52009C82.4329 6.54661 81.4045 7.57502 80.3761 8.60343C79.3477 9.63183 78.3193 10.6602 77.2928 11.6868L82.9496 17.3436ZM89.1163 11.1769C89.3493 10.944 89.5138 10.727 89.5618 10.6644C89.5764 10.6453 89.5909 10.6263 89.5981 10.6168C89.6071 10.6049 89.6114 10.5992 89.615 10.5946C89.6207 10.5871 89.6183 10.5904 89.612 10.5982L83.4031 5.55342C83.3476 5.62179 83.3016 5.68095 83.2676 5.7253C83.2512 5.7466 83.2366 5.76582 83.2274 5.77791C83.2164 5.79243 83.2133 5.79649 83.2109 5.79971C83.2092 5.80191 83.2138 5.79579 83.2222 5.78519C83.2308 5.77431 83.2458 5.75552 83.2658 5.73158C83.306 5.68332 83.3715 5.60798 83.4594 5.52009L89.1163 11.1769ZM87.1314 4.12474C86.9987 4.10379 86.8904 4.08995 86.8399 4.08341C86.8104 4.07958 86.811 4.0796 86.8168 4.08042C86.8257 4.0817 86.8587 4.08645 86.9049 4.09486L85.4738 11.9658C85.5618 11.9818 85.6373 11.9932 85.6913 12.0009C85.742 12.0081 85.79 12.0142 85.8116 12.017C85.8634 12.0238 85.8725 12.0251 85.8837 12.0268L87.1314 4.12474ZM86.738 4.06814C86.0229 3.96913 85.8184 3.95767 85.3128 3.87988L84.0963 11.7869C84.5755 11.8606 85.371 11.9552 85.6408 11.9925L86.738 4.06814ZM85.3316 3.88283C84.749 3.79036 84.8491 3.78161 83.9683 3.62783L82.5923 11.5086C82.6661 11.5215 83.7055 11.7249 84.0775 11.7839L85.3316 3.88283ZM83.9804 3.62997C83.2697 3.50361 82.5553 3.38592 81.8702 3.27299L80.5691 11.1665C81.2628 11.2808 81.9273 11.3904 82.5802 11.5065L83.9804 3.62997ZM81.8372 3.26768C82.3141 3.3422 83.0063 3.56559 83.6392 4.14983C84.289 4.7496 84.5951 5.47041 84.7074 6.05055L76.8532 7.57073C77.0109 8.38573 77.4155 9.29214 78.213 10.0283C78.9937 10.7489 79.8829 11.0594 80.6022 11.1718L81.8372 3.26768ZM84.7174 6.10398C84.7019 6.01806 84.6871 5.92182 84.663 5.76301C84.6416 5.62258 84.611 5.41958 84.5734 5.21004L76.6993 6.62336C76.7147 6.70928 76.7296 6.80552 76.7537 6.96433C76.775 7.10476 76.8056 7.30777 76.8432 7.5173L84.7174 6.10398ZM84.5705 5.1941C84.4018 4.27553 84.284 3.75892 84.1684 3.04367L76.2709 4.32004C76.3977 5.10479 76.5982 6.07302 76.7022 6.63931L84.5705 5.1941ZM84.1697 3.05153C84.0654 2.39774 83.9998 1.81852 83.8802 0.938572L75.9531 2.01604C76.0456 2.6967 76.1467 3.54172 76.2697 4.31218L84.1697 3.05153ZM77.2826 -1.533C77.2656 -1.51814 77.2487 -1.50353 77.2282 -1.48595C77.2141 -1.47381 77.177 -1.44205 77.1506 -1.41927C77.0975 -1.37343 76.9703 -1.26353 76.8307 -1.12385L82.4875 4.53301C82.4442 4.57634 82.41 4.60779 82.3926 4.62358C82.3764 4.63819 82.3685 4.64484 82.3796 4.63525C82.3846 4.63101 82.3911 4.62537 82.4017 4.61629C82.4105 4.60877 82.4258 4.59561 82.4393 4.58403C82.469 4.55852 82.507 4.52578 82.5507 4.48761L77.2826 -1.533ZM76.8307 -1.12385C74.7698 0.936987 72.6921 3.0071 70.6285 5.07832L76.2957 10.7248C78.3533 8.65963 80.412 6.60854 82.4875 4.53301L76.8307 -1.12385ZM70.6337 5.07312C68.7637 6.94313 68.0117 9.35132 68.3081 11.8501L76.2524 10.9076C76.2426 10.825 76.2451 10.7788 76.2465 10.7629C76.2478 10.7484 76.2487 10.7535 76.243 10.7705C76.2405 10.778 76.2376 10.7851 76.2347 10.7911C76.2318 10.7972 76.23 10.8 76.2305 10.7992C76.2308 10.7987 76.2458 10.7747 76.2905 10.73L70.6337 5.07312ZM68.3092 11.8592C68.5385 13.7543 69.3926 15.3741 70.6871 16.6545L76.3129 10.9668C76.2759 10.9302 76.2564 10.9056 76.2481 10.8945C76.2402 10.8837 76.2404 10.8824 76.2441 10.8896C76.2478 10.8971 76.2512 10.9056 76.2532 10.9124C76.2551 10.9189 76.2534 10.9156 76.2513 10.8985L68.3092 11.8592ZM76.3284 16.6391C76.34 16.6275 76.3563 16.6118 76.4137 16.5581C76.4572 16.5175 76.5661 16.4165 76.6769 16.3057L71.02 10.6489C71.0247 10.6442 71.0239 10.6455 70.9518 10.7128C70.8937 10.7671 70.7888 10.865 70.6716 10.9822L76.3284 16.6391ZM76.6769 16.3057C77.4383 15.5444 78.1996 14.783 78.961 14.0216C79.7224 13.2603 80.4837 12.4989 81.2451 11.7376L75.5882 6.0807C74.8269 6.84206 74.0655 7.60343 73.3041 8.36479C72.5428 9.12615 71.7814 9.88752 71.02 10.6489L76.6769 16.3057ZM81.2451 11.7376C81.3635 11.6192 81.4615 11.5078 81.4757 11.4918C81.5169 11.4456 81.4737 11.4953 81.4182 11.5519C81.3579 11.6134 81.2098 11.7597 80.9891 11.9197C80.7637 12.0832 80.4057 12.3027 79.9204 12.4543L77.5342 4.81848C76.9882 4.98908 76.5734 5.23983 76.2938 5.44254C76.0188 5.64186 75.8192 5.83558 75.7087 5.94818C75.603 6.05588 75.511 6.16056 75.5036 6.16882C75.4693 6.20728 75.5191 6.14983 75.5882 6.0807L81.2451 11.7376ZM79.9318 12.4507C79.6084 12.5528 79.2996 12.5959 79.0113 12.5992C78.7335 12.6024 78.3118 12.5703 77.8217 12.3898L80.5874 4.88303C79.4363 4.45897 78.3148 4.57194 77.5227 4.82207L79.9318 12.4507ZM78.1521 12.4955C77.5276 12.3251 76.8957 11.9769 76.3787 11.4237C75.8915 10.9024 75.6592 10.3631 75.5474 10.0181C75.4406 9.689 75.4098 9.42964 75.4021 9.36312C75.3996 9.34163 75.3869 9.20989 75.4028 9.3849L83.3699 8.66062C83.3783 8.75231 83.3599 8.53629 83.3479 8.43382C83.3307 8.28634 83.2866 7.94933 83.1572 7.55013C83.0226 7.1351 82.7581 6.53323 82.2235 5.9613C81.6592 5.35742 80.9648 4.97039 80.257 4.77734L78.1521 12.4955ZM75.3946 9.28029C75.3728 8.94171 75.3999 8.56881 75.4991 8.18344C75.5978 7.80001 75.7479 7.48204 75.8981 7.23472C76.1449 6.82824 76.4451 6.55717 76.3003 6.70191L81.9572 12.3588C81.9961 12.3198 83.5224 11.003 83.3781 8.76523L75.3946 9.28029ZM76.3073 6.69494C74.7654 8.2293 73.2223 9.77998 71.7019 11.3004L77.3587 16.9572C78.8989 15.4171 80.4164 13.892 81.9502 12.3657L76.3073 6.69494ZM71.7019 11.3004C71.5873 11.415 71.4869 11.5228 71.4214 11.5938C71.3388 11.6831 71.3135 11.7113 71.269 11.7586L77.0946 17.2415C77.1385 17.1948 77.1789 17.1512 77.2119 17.1154C77.2525 17.0714 77.2668 17.0557 77.2964 17.0237C77.3464 16.9696 77.3597 16.9563 77.3587 16.9572L71.7019 11.3004ZM71.3534 17.3285C72.6167 18.5918 74.1558 19.3675 75.8664 19.6453L77.1487 11.7487C77.1165 11.7435 77.0984 11.7382 77.091 11.7359C77.0871 11.7346 77.0849 11.7337 77.084 11.7333C77.0831 11.733 77.0826 11.7328 77.0824 11.7326C77.0822 11.7325 77.0813 11.7321 77.0796 11.731C77.0779 11.7299 77.0745 11.7278 77.0695 11.7241C77.0598 11.717 77.0398 11.7012 77.0102 11.6716L71.3534 17.3285ZM75.2426 19.4917C76.4955 19.9094 77.8226 19.9094 79.0755 19.4917L76.5457 11.9023C76.721 11.8438 76.9298 11.805 77.1591 11.805C77.3884 11.805 77.5971 11.8438 77.7725 11.9023L75.2426 19.4917ZM77.8106 19.697H77.8257V11.697H77.8106V19.697Z" fill="#241E20" mask="url(#path-2-inside-1_2007_1225)"/>
</g>
<path id="Vector_3" d="M76.3409 16.6212C76.8939 16.6212 77.4546 16.6212 78.0076 16.6212C77.4546 16.7803 76.9015 16.7727 76.3409 16.6212Z" fill="#82ABAB"/>
<path id="Vector_4" d="M62.4621 24.7651C62.4091 24.856 62.3788 24.9621 62.3106 25.0303C59.9091 27.4318 57.5076 29.8333 55.106 32.2348C55.0606 32.2803 55.0076 32.3106 54.9621 32.3485C51.6742 29.2348 47.7727 27.447 43.2727 26.9621C41.3636 26.7576 39.4697 26.8257 37.5833 27.1818C33.3257 27.9848 29.697 29.9621 26.7273 33.1136C23.4848 36.553 21.697 40.6515 21.3409 45.3561C21.1591 47.7651 21.3864 50.1515 22.1136 52.4697C23.9621 58.3561 27.7121 62.5682 33.3333 65.0833C35.5606 66.0833 37.9091 66.6288 40.3712 66.6818C41.447 66.7045 42.5151 66.697 43.5833 66.5682C44.7424 66.4318 45.8864 66.2121 47 65.856C52.8712 63.9773 57.0606 60.2121 59.5682 54.5833C60.447 52.6136 60.9394 50.5379 61.0909 48.3939C61.1894 46.9924 61.1591 45.5833 60.9545 44.1818C60.8409 43.4091 60.7424 42.6288 60.5454 41.8712C59.6818 38.5076 58.0682 35.5606 55.6667 33.0606C55.7651 32.947 55.856 32.8257 55.9621 32.7121C58.2651 30.4091 60.5682 28.1061 62.8712 25.803C62.9773 25.697 63.0985 25.606 63.2197 25.5076C64.5454 26.9318 65.7803 28.4167 66.8333 30.053C69.1439 33.6212 70.6818 37.4924 71.3788 41.697C71.7045 43.6742 71.8712 45.6667 71.7954 47.6667C71.5303 54.697 69.2045 60.9545 64.6894 66.3712C60.8864 70.9242 56.1439 74.1061 50.4924 75.9242C49.1742 76.3485 47.8333 76.6667 46.4697 76.9091C44.5454 77.2576 42.606 77.3939 40.6591 77.3485C39.5833 77.3257 38.5076 77.2273 37.4394 77.106C33.5909 76.6818 29.9773 75.5 26.6061 73.6288C20.0303 69.9848 15.3636 64.6515 12.6364 57.6364C11.7273 55.303 11.1212 52.8939 10.8788 50.4015C10.75 49.1212 10.6364 47.8257 10.6515 46.5379C10.7424 39.4167 13 33.053 17.4848 27.5076C20.3636 23.947 23.8788 21.1742 28.0076 19.1894C30.5833 17.947 33.2879 17.0985 36.1061 16.6136C38.4924 16.2045 40.9015 16.1136 43.3182 16.2727C44.5682 16.3561 45.8106 16.5379 47.0454 16.7651C49.9924 17.3106 52.7651 18.303 55.4091 19.6742C57.9091 20.9697 60.1742 22.6061 62.2197 24.5379C62.2954 24.6136 62.3788 24.6818 62.4621 24.75V24.7651Z" fill="white"/>
<path id="Vector_5" d="M55.6667 33.0607C58.0757 35.5682 59.6894 38.5152 60.5454 41.8713C60.7424 42.6288 60.8409 43.4016 60.9545 44.1819C61.1591 45.591 61.1894 46.9925 61.0909 48.394C60.9394 50.5379 60.447 52.6213 59.5682 54.5834C57.0606 60.2122 52.8712 63.9773 47 65.8561C45.8864 66.2122 44.7424 66.4319 43.5833 66.5682C42.5151 66.697 41.447 66.7046 40.3712 66.6819C37.9167 66.6288 35.5606 66.0758 33.3333 65.0834C27.7121 62.5682 23.9621 58.3485 22.1136 52.4697C21.3863 50.1516 21.1591 47.7652 21.3409 45.3561C21.6894 40.6516 23.4848 36.5531 26.7273 33.1137C29.697 29.9622 33.3333 27.9849 37.5833 27.1819C39.4621 26.8258 41.3636 26.7576 43.2727 26.9622C47.7727 27.447 51.6742 29.2349 54.9621 32.3485C54.8636 32.4622 54.7727 32.591 54.6667 32.697C52.3864 34.9773 50.106 37.2652 47.8257 39.5379C47.7045 39.6591 47.5682 39.7576 47.4394 39.8637C46.0606 38.7122 44.5379 37.9016 42.7197 37.6364C41.6212 37.4773 40.553 37.4697 39.4773 37.6591C34.7045 38.5152 30.9394 43.3182 32.1667 48.8561C33.1439 53.2879 37.6363 56.9773 43.1363 55.8637C48.5151 54.7728 52.0379 49.0228 49.8712 43.3485C49.4773 42.3182 48.8636 41.4167 48.1667 40.5682C48.2424 40.4773 48.3106 40.3713 48.4015 40.2879C50.7424 37.947 53.0833 35.5985 55.4318 33.2576C55.5076 33.1819 55.5909 33.1213 55.6742 33.0531L55.6667 33.0607Z" fill="#FF9A00"/>
<path id="Vector_6" d="M48.1591 40.5757C48.856 41.4242 49.4697 42.3182 49.8636 43.356C52.0303 49.0303 48.5076 54.7803 43.1288 55.8712C37.6288 56.9848 33.1364 53.2954 32.1591 48.8636C30.9318 43.3257 34.697 38.5151 39.4697 37.6666C40.5454 37.4773 41.6136 37.4848 42.7121 37.6439C44.5379 37.9091 46.053 38.7197 47.4318 39.8712C47.3182 40 47.2121 40.1288 47.0985 40.25C45.1288 42.2197 43.1591 44.1894 41.1894 46.1591C41.1364 46.2121 41.0833 46.2651 41.0227 46.3257C40.5682 46.7879 40.5682 46.8106 41.0076 47.2651C41.4242 47.2576 41.6818 46.9924 41.9545 46.7197C43.8864 44.7803 45.8257 42.8409 47.7651 40.9091C47.8864 40.7879 48.0227 40.6894 48.1515 40.5833L48.1591 40.5757Z" fill="#FFFEFE"/>
<path id="Vector_7" d="M76.5227 15.697C75.6364 15.5455 74.8636 15.1667 74.197 14.5C74.3182 14.3712 74.4242 14.2424 74.5455 14.1288C76.0758 12.5909 77.6136 11.0606 79.1439 9.53032C79.2879 9.38639 79.4167 9.2576 79.4015 9.02275C79.3864 8.85608 79.3864 8.68942 79.2197 8.63638C79.0682 8.59093 78.8864 8.59093 78.7424 8.63638C78.6212 8.67426 78.5303 8.81063 78.4318 8.90911C76.9091 10.4318 75.3864 11.9546 73.8636 13.4773C73.7576 13.5834 73.6439 13.6818 73.5152 13.8106C72.8258 13.1212 72.4091 12.3258 72.2955 11.3788C72.1364 10.0379 72.5152 8.86366 73.4773 7.90154C75.5379 5.83336 77.6061 3.76517 79.6742 1.70457C79.7349 1.64396 79.8106 1.59093 79.9318 1.47729C80.0379 2.2576 80.1212 2.96972 80.2349 3.68184C80.3561 4.43184 80.5152 5.17426 80.6515 5.91669C80.7045 6.21214 80.7349 6.51517 80.7955 6.81063C80.8409 7.04548 80.9924 7.18184 81.2349 7.21972C81.9242 7.33335 82.6061 7.44699 83.2955 7.5682C83.7727 7.65154 84.2424 7.7576 84.7197 7.83336C85.2121 7.90911 85.7121 7.96972 86.2046 8.03032C86.2879 8.04548 86.3788 8.05305 86.5227 8.07578C86.4242 8.19699 86.3712 8.28032 86.303 8.34851C84.25 10.4091 82.1894 12.4621 80.1364 14.5152C79.5 15.1515 78.7273 15.5455 77.8409 15.697C77.4091 15.697 76.9697 15.697 76.5379 15.697H76.5227Z" fill="#FDFDFD"/>
<path id="Vector_8" d="M76.5227 15.697C76.9546 15.697 77.3939 15.697 77.8258 15.697C77.3939 15.841 76.9546 15.841 76.5227 15.697Z" fill="#B98D8D"/>
</g>
<defs>
<clipPath id="clip0_2007_1225">
<rect width="88" height="88" fill="white"/>
</clipPath>
</defs>
</svg>
