<svg width="194" height="67" viewBox="0 0 194 67" fill="none" xmlns="http://www.w3.org/2000/svg">
<path id="Vector 15" d="M4.51123 21.1725C11.0483 21.1725 16.8653 19.8942 23.2667 18.4641C37.2616 15.3376 51.6405 15.3809 65.7204 12.7088C80.2645 9.94861 94.7339 7.15664 109.596 7.15664C117.811 7.15664 126.027 7.15664 134.242 7.15664C141.802 7.15664 149.365 7.21103 156.925 7.15664C164.071 7.10523 170.913 4.71911 178.152 4.71911C181.108 4.71911 184.065 4.71911 187.021 4.71911C188.774 4.71911 189.351 4.37448 187.191 4.85453C179.734 6.51147 172.569 8.43548 164.914 9.59417C139.712 13.4092 114.426 16.5445 89.1478 19.7506C78.6652 21.0801 68.3688 24.2194 57.7645 24.2194C50.5324 24.2194 43.4284 24.3716 36.233 24.7949C31.7892 25.0563 27.2464 24.8287 22.7927 24.8287C19.4602 24.8287 14.1795 23.8792 11.2144 25.5736C10.4799 25.9933 12.8765 26.0486 13.7197 25.9798C19.4576 25.5114 25.0593 24.1415 30.7486 23.3391C37.8748 22.3342 45.1294 21.8028 52.1785 20.2922C65.7714 17.3795 79.9444 17.0234 93.752 15.0786C99.3679 14.2876 105.048 14.305 110.679 13.7244C115.83 13.1934 120.481 12.0317 125.711 12.0317C136.363 12.0317 147.017 12.0887 157.669 12.0317C163.03 12.003 168.845 10.4305 174.055 12.1671C175.198 12.5481 177.085 13.2524 177.847 14.2323C179.21 15.9854 174.054 17.3903 172.904 17.4823C168.563 17.8296 164.732 19.2403 160.513 19.8183C155.925 20.4467 151.336 20.7952 146.734 21.511C141.239 22.3659 135.749 24.1531 130.18 24.2194C124.132 24.2914 118.099 24.8287 112.067 24.8287C106.895 24.8287 101.892 26.0475 96.6635 26.0475C92.8718 26.0475 89.0801 26.0475 85.2883 26.0475C80.0522 26.0475 74.816 26.0475 69.5798 26.0475C63.1127 26.0475 56.5518 25.7178 50.215 26.623C45.8444 27.2474 41.7408 27.5889 37.4179 28.7897C31.5626 30.4162 25.2812 30.0631 19.4073 31.8705C17.1487 32.5654 14.7168 31.8117 12.4332 32.446C11.546 32.6925 8.21447 32.7507 10.8759 32.7507C17.9117 32.7507 24.8269 32.1554 31.798 31.1596C46.9646 28.9929 62.0559 26.6053 77.1971 24.2532C93.2405 21.761 108.671 18.1759 125 17.5162C132.492 17.2134 140.16 15.688 147.581 15.688C149.416 15.688 151.376 15.4733 153.201 15.688C154.3 15.8173 153.399 17.1897 152.964 17.5162C150.592 19.2947 146.8 19.777 143.992 20.5631C136.178 22.751 127.804 23.2603 119.82 24.6933C110.222 26.4161 100.426 26.7422 90.9421 28.7897C78.1973 31.5414 64.8022 32.213 51.84 33.3601C43.5194 34.0964 35.3109 36.0742 26.9907 36.407C25.0777 36.4835 21.0949 37.0374 19.3734 37.9643C15.9376 39.8144 11.8479 40.0639 8.23524 41.4852C7.48102 41.782 3.28185 41.8915 5.86541 41.8915C20.3918 41.8915 34.8205 37.0601 49.267 35.9331C57.4953 35.2911 65.9494 34.0211 74.1163 32.7507C87.4078 30.6832 100.927 31.1285 114.268 29.0944C127.592 27.0629 140.914 27.2663 154.352 27.2663C160.725 27.2663 166.886 26.199 173.175 26.0475C176.741 25.9616 181.182 26.6644 184.55 25.1334C190.511 22.424 171.497 26.2653 165.016 27.1986C144.134 30.2055 123.276 32.7179 102.486 36.3732C97.8767 37.1837 93.3464 37.7883 88.6738 38.0998C83.3887 38.4521 78.4599 39.9808 73.2361 40.6727C64.647 41.8103 56.0493 43.2577 47.4389 44.1936C42.198 44.7633 36.777 45.3332 31.6288 46.4957C28.5768 47.1849 25.4279 46.8316 22.4542 47.5113C20.9952 47.8448 19.187 48.5947 17.7145 48.5947C8.92425 48.5947 35.3535 48.2053 44.0196 46.7327C55.6126 44.7626 67.2961 43.4352 78.9237 41.6883C93.0455 39.5668 107.09 36.9885 121.377 36.2716C129.411 35.8685 137.539 36.3163 145.55 35.7638C149.793 35.4711 153.935 35.1883 158.211 35.1883C160.015 35.1883 163.131 35.7945 164.779 35.0528C169.503 32.9271 175.527 33.9695 180.657 33.9695C181.572 33.9695 185.501 33.4669 182.79 34.1049C179.232 34.9421 175.827 36.5374 172.329 37.6258C164.085 40.1905 155.466 40.7816 147.039 42.467C133.905 45.0938 120.424 46.0028 107.226 48.3239C91.8344 51.0307 76.4688 51.0322 60.913 51.0322C52.7553 51.0322 45.0921 52.0189 37.0117 52.7249C34.7319 52.9242 32.5579 54.0791 30.5793 54.0791C29.5524 54.0791 26.4716 54.0791 27.4985 54.0791C36.4883 54.0791 44.8555 50.052 53.6004 48.3916C66.6328 45.9171 80.3455 46.7665 93.5489 46.7665C99.3862 46.7665 105.304 47.0448 111.119 46.428C114.174 46.104 117.173 45.1903 120.226 44.9722C121.905 44.8523 123.622 44.9384 125.304 44.9384C127.856 44.9384 129.676 43.8615 132.211 43.4488C133.903 43.1734 138.576 44.1987 138.576 41.8915C138.576 39.9115 135.915 40.7105 134.581 40.9774C123.962 43.101 112.902 44.9384 102.08 44.9384C99.1937 44.9384 96.2295 44.7461 93.3457 44.9384C89.1067 45.221 83.8182 48.8735 79.9393 50.5583C73.4686 53.3687 65.1964 56.1245 58.1369 56.5167C53.3169 56.7844 48.3597 59.1082 43.7487 60.5115C41.3745 61.2341 34.1299 62.4337 36.6054 62.6105C51.6975 63.6885 67.0993 60.5395 81.9367 58.3787C110.19 54.2642 138.749 53.3266 167.013 49.3395C174.03 48.3496 180.858 47.3759 187.936 47.3759C191.461 47.3759 185.532 48.4996 184.584 48.5608C178.655 48.9433 172.84 49.2041 166.878 49.2041C144.683 49.2041 122.511 49.8135 100.32 49.8135C99.7539 49.8135 97.4501 50.143 97.0697 49.678C96.8803 49.4465 115.556 45.0523 116.231 44.9384C128.291 42.9042 140.411 41.1998 152.625 40.4696C157.734 40.1642 163.356 39.5554 168.503 40.0972C169.932 40.2476 168.692 42.5049 168.3 43.1102C166.481 45.9205 161.298 47.1934 158.414 47.8499C139.845 52.077 121.166 53.3898 102.351 55.9073C96.0858 56.7456 89.8287 57.5362 83.5618 58.3448C80.6602 58.7192 77.3834 60.173 74.5903 60.173C68.4267 60.173 86.9152 59.9162 93.0749 59.699C108.936 59.1398 124.566 57.126 140.471 57.126C152.433 57.126 164.395 57.126 176.357 57.126" stroke="#FF9EA4" stroke-width="8" stroke-linecap="round"/>
</svg>
