<svg width="57" height="43" viewBox="0 0 57 43" fill="none" xmlns="http://www.w3.org/2000/svg">
<g id="Content">
<path id="Rectangle 02" d="M48.7257 3.36901C50.4305 1.66423 53.1945 1.66423 54.8993 3.36901V3.36901C55.8146 4.28429 55.8146 5.76825 54.8993 6.68353L21.0153 40.5675C19.7053 41.8775 17.5813 41.8775 16.2713 40.5675V40.5675C14.9613 39.2574 14.9613 37.1335 16.2713 35.8234L48.7257 3.36901Z" fill="white"/>
<path id="Rectangle 01" d="M3.54212 28.1036C1.83099 26.4052 1.82069 23.6412 3.5191 21.93V21.93C4.43096 21.0114 5.91491 21.0058 6.83359 21.9177L20.835 35.8151C22.1499 37.1202 22.1578 39.2442 20.8527 40.5591V40.5591C19.5476 41.874 17.4236 41.8819 16.1087 40.5768L3.54212 28.1036Z" fill="white"/>
</g>
</svg>
