<svg width="29" height="29" viewBox="0 0 29 29" fill="none" xmlns="http://www.w3.org/2000/svg">
<g id="Vector">
<path id="Vector_2" d="M14.0792 0C21.8552 0 28.1584 6.30326 28.1584 14.0792C28.1584 21.8551 21.8552 28.1584 14.0792 28.1584C11.5911 28.1627 9.14669 27.5042 6.99738 26.2507L0.00565344 28.1584L1.90916 21.1638C0.654646 19.0139 -0.00433868 16.5684 2.14971e-05 14.0792C2.14971e-05 6.30326 6.30328 0 14.0792 0ZM9.28103 7.46198L8.99944 7.47324C8.81739 7.48578 8.63951 7.5336 8.4757 7.61403C8.32305 7.70063 8.18364 7.80874 8.06177 7.93504C7.89282 8.09413 7.79708 8.23211 7.6943 8.36586C7.17354 9.04293 6.89316 9.87418 6.89742 10.7283C6.90024 11.4182 7.08045 12.0898 7.36203 12.7177C7.93787 13.9877 8.8854 15.3322 10.1356 16.5783C10.4369 16.8781 10.7326 17.1794 11.0508 17.4596C12.6043 18.8273 14.4555 19.8136 16.4572 20.3402L17.2569 20.4627C17.5174 20.4768 17.7778 20.4571 18.0397 20.4444C18.4497 20.4228 18.8499 20.3118 19.2125 20.1192C19.3967 20.0239 19.5766 19.9206 19.7517 19.8094C19.7517 19.8094 19.8113 19.7691 19.9277 19.6827C20.1178 19.5419 20.2346 19.442 20.3923 19.2772C20.5106 19.1552 20.6092 19.0135 20.688 18.852C20.7978 18.6226 20.9076 18.1847 20.9527 17.82C20.9865 17.5413 20.9766 17.3892 20.9724 17.2949C20.9668 17.1442 20.8415 16.988 20.7049 16.9218L19.8855 16.5543C19.8855 16.5543 18.6606 16.0207 17.9116 15.68C17.8332 15.6459 17.7492 15.6263 17.6638 15.6223C17.5674 15.6122 17.4701 15.6229 17.3782 15.6538C17.2864 15.6847 17.2023 15.7349 17.1316 15.8011C17.1245 15.7983 17.0302 15.8785 16.0123 17.1119C15.9539 17.1904 15.8734 17.2497 15.7811 17.2823C15.6888 17.3149 15.589 17.3193 15.4942 17.2949C15.4024 17.2704 15.3125 17.2394 15.2253 17.202C15.0507 17.1288 14.9901 17.1006 14.8705 17.0499C14.0621 16.6978 13.3139 16.2213 12.653 15.6378C12.4756 15.4829 12.3109 15.3139 12.1419 15.1506C11.5881 14.6201 11.1053 14.02 10.7058 13.3654L10.6228 13.2316C10.564 13.1412 10.5158 13.0444 10.4792 12.943C10.4257 12.736 10.5651 12.5699 10.5651 12.5699C10.5651 12.5699 10.9072 12.1954 11.0663 11.9927C11.2211 11.7956 11.3521 11.6041 11.4366 11.4675C11.6027 11.2 11.6548 10.9255 11.5675 10.7129C11.1733 9.74984 10.7659 8.79199 10.3454 7.8393C10.2623 7.65064 10.016 7.51548 9.7921 7.48872C9.71608 7.47934 9.64005 7.47183 9.56402 7.4662C9.37498 7.45536 9.18542 7.45724 8.99663 7.47183L9.28103 7.46198Z" fill="white"/>
</g>
</svg>
