<svg width="352" height="523" viewBox="0 0 352 523" fill="none" xmlns="http://www.w3.org/2000/svg">
<path d="M250.491 439.913H101.798V485.847H250.491V439.913Z" fill="#241F20"/>
<path d="M343.757 126.609C318.346 41.5809 235.692 -10.4968 147.872 3.18585C67.3121 15.7515 4.62336 86.2589 1.41213 167.796C1.27252 170.03 1.27252 172.264 1.27252 174.498C0.574425 231.183 23.1926 277.397 67.3121 313.558C91.4661 333.384 103.753 358.375 104.451 389.371V433.63H247.839V388.254C249.095 356.281 263.057 331.289 288.328 310.905C328.818 277.955 351.157 228.391 351.157 177.709C351.157 160.257 348.783 143.084 343.757 126.609Z" fill="white"/>
<path d="M248.816 434.607H103.334V389.231C102.496 358.375 90.4887 333.942 66.4743 314.256C21.6567 277.536 -0.682225 230.485 0.0158677 174.498C0.0158677 172.124 0.155484 169.89 0.155484 167.796C3.50633 85.9797 66.7535 14.7742 147.593 2.20858C236.111 -11.6137 319.044 40.6037 344.734 126.329C349.76 142.944 352.134 160.117 351.994 177.43C351.994 230.066 328.957 278.932 288.747 311.464C263.197 332.267 250.073 357.119 248.676 387.416V387.975L248.816 434.607ZM105.428 432.513H246.722V388.114C247.978 356.84 261.382 331.289 287.63 309.928C327.282 277.676 350.04 229.508 350.04 177.43C350.179 160.257 347.806 143.223 342.919 126.888C317.369 42.2791 235.413 -9.37976 148.012 4.30285C68.1497 16.7289 5.6006 87.0966 2.38938 167.936C2.38938 170.03 2.24976 172.124 2.24976 174.498C1.55167 229.926 23.6114 276.419 67.8705 312.72C92.0245 332.546 104.311 357.259 105.428 388.254V389.371V432.513Z" fill="#231F20"/>
<path d="M327.142 145.597C326.584 145.597 326.165 145.178 326.025 144.619C310.527 53.4485 224.802 25.9437 223.824 25.5248C223.266 25.3852 222.847 24.6871 223.126 24.1286C223.405 23.5702 223.964 23.1513 224.522 23.4306C225.36 23.7098 312.482 51.6335 328.259 144.201C328.399 144.759 327.98 145.318 327.282 145.457L327.142 145.597Z" fill="#231F20"/>
<path d="M331.331 167.377C330.772 167.377 330.214 166.959 330.214 166.4C329.795 162.072 329.236 156.068 329.236 156.068L331.47 155.929C331.47 155.929 332.029 162.072 332.448 166.26C332.448 166.819 332.029 167.377 331.331 167.377Z" fill="#231F20"/>
<path d="M210.98 522.427H141.17C123.858 522.427 109.896 508.466 109.896 491.153H242.394C242.394 508.466 228.432 522.427 210.98 522.427C211.119 522.427 211.119 522.427 210.98 522.427Z" fill="#241F20"/>
<path d="M249.793 431.257H102.356C98.0279 431.257 94.5375 434.747 94.5375 439.075C94.5375 443.403 98.0279 446.894 102.356 446.894H249.793C254.121 446.894 257.612 443.403 257.612 439.075C257.612 434.747 254.121 431.257 249.793 431.257Z" fill="white"/>
<path d="M249.794 448.011H102.356C97.4697 448.011 93.4208 444.101 93.4208 439.075C93.4208 434.049 97.3301 430.139 102.356 430.139H249.794C254.68 430.139 258.729 434.049 258.729 439.075C258.729 444.101 254.68 448.011 249.794 448.011ZM102.356 432.373C98.5867 432.373 95.5151 435.445 95.5151 439.215C95.5151 442.984 98.5867 446.056 102.356 446.056H249.794C253.563 446.056 256.635 442.984 256.635 439.215C256.635 435.445 253.563 432.373 249.794 432.373H102.356Z" fill="#231F20"/>
<path d="M249.793 454.991H102.356C98.0279 454.991 94.5375 458.482 94.5375 462.81C94.5375 467.138 98.0279 470.629 102.356 470.629H249.793C254.121 470.629 257.612 467.138 257.612 462.81C257.612 458.482 254.121 454.991 249.793 454.991Z" fill="white"/>
<path d="M249.794 471.606H102.356C97.4697 471.606 93.4208 467.697 93.4208 462.67C93.4208 457.644 97.3301 453.735 102.356 453.735H249.794C254.68 453.735 258.729 457.644 258.729 462.67C258.729 467.697 254.68 471.606 249.794 471.606ZM102.356 455.969C98.5867 455.969 95.5151 459.04 95.5151 462.81C95.5151 466.58 98.5867 469.651 102.356 469.651H249.794C253.563 469.651 256.635 466.58 256.635 462.81C256.635 459.04 253.563 455.969 249.794 455.969H102.356Z" fill="#231F20"/>
<path d="M249.793 478.587H102.356C98.0279 478.587 94.5375 482.078 94.5375 486.406C94.5375 490.734 98.0279 494.224 102.356 494.224H249.793C254.121 494.224 257.612 490.734 257.612 486.406C257.612 482.078 254.121 478.587 249.793 478.587Z" fill="white"/>
<path d="M249.794 495.341H102.356C97.4697 495.341 93.4208 491.432 93.4208 486.406C93.4208 481.38 97.3301 477.47 102.356 477.47H249.794C254.68 477.47 258.729 481.38 258.729 486.406C258.729 491.432 254.68 495.341 249.794 495.341ZM102.356 479.704C98.5867 479.704 95.5151 482.776 95.5151 486.545C95.5151 490.315 98.5867 493.387 102.356 493.387H249.794C253.563 493.387 256.635 490.315 256.635 486.545C256.635 482.776 253.563 479.704 249.794 479.704H102.356Z" fill="#231F20"/>
<path d="M83.2286 116.696C84.4852 113.205 85.6021 109.715 86.8587 106.224C87.5568 104.409 88.2549 102.594 88.953 100.919C89.7907 98.5451 92.1642 97.1489 94.5377 97.5678C97.3301 97.847 100.122 98.4055 102.915 98.964C104.451 99.2432 105.986 99.5224 107.383 99.5224C108.5 99.5224 109.617 99.2432 110.454 98.5451C113.665 95.4735 116.737 92.2623 119.809 89.0511C120.926 87.7945 121.205 86.1191 120.786 84.5833C120.088 81.2324 119.25 77.742 118.552 74.3911C118.273 73.1345 118.133 71.7384 118.133 70.3422C118.273 69.3649 118.692 68.3875 119.39 67.829C124.556 64.4782 130.28 61.8254 136.284 60.15C138.099 59.5915 140.053 60.2896 141.031 61.8254C143.125 64.7574 145.498 67.6894 147.453 70.6214C148.849 72.9949 151.362 74.2515 154.155 73.9723C157.924 73.693 161.694 73.693 165.324 73.4138C166.72 73.2742 167.977 72.5761 168.675 71.4591C169.932 69.5045 171.328 67.4102 172.584 65.4555C173.701 63.7801 174.818 62.1047 175.935 60.4293C177.052 58.6142 179.147 57.9161 181.101 58.6142C186.267 60.4293 191.433 62.2443 196.599 64.199C198.553 65.0367 199.81 67.1309 199.391 69.2252C199.112 72.0176 198.414 74.9496 197.995 77.742C197.855 79.1381 197.576 80.3947 197.437 81.7909C197.157 83.6059 197.855 85.2814 199.112 86.5379C201.904 89.0511 204.557 91.7038 207.21 94.3566C208.746 96.032 211.119 96.7301 213.213 96.032C216.844 95.1943 220.613 94.3566 224.243 93.5189C226.756 92.6811 229.549 93.9377 230.387 96.4508C232.481 100.779 234.575 105.247 236.53 109.715C237.926 112.926 237.367 114.88 234.575 117.114C232.62 118.65 230.666 119.907 228.711 121.303C227.315 122.28 225.919 123.397 224.662 124.514C223.545 125.492 222.847 126.888 222.987 128.284C223.126 132.193 223.126 135.963 223.266 139.872C223.266 141.966 224.523 143.921 226.338 145.038C228.432 146.295 230.526 147.551 232.62 148.808C233.877 149.646 235.134 150.483 236.39 151.321C238.205 152.577 238.903 154.811 238.066 156.906C236.39 161.513 234.575 166.26 232.9 170.868C232.62 171.566 232.202 172.264 231.783 172.822C230.945 174.358 229.13 175.196 227.455 174.916C224.104 174.358 220.753 173.8 217.402 173.241C217.123 173.241 216.844 173.101 216.704 173.101C213.772 172.264 210.84 173.381 209.025 175.754C207.07 177.988 204.976 180.082 203.021 182.177C201.067 184.131 200.369 186.924 201.206 189.437C202.044 192.648 202.882 195.999 203.44 199.21C203.999 202.421 203.44 204.236 200.229 205.772C195.621 208.006 191.014 209.961 186.407 211.915C184.312 213.032 181.52 212.334 180.263 210.38C178.448 208.146 176.773 205.772 175.098 203.399C171.467 198.372 170.63 197.814 164.347 198.233L157.087 198.652C154.713 198.652 152.619 199.908 151.362 202.002C149.827 204.376 148.43 206.889 146.895 209.263C146.057 210.519 145.08 211.636 144.102 212.753C143.125 213.87 141.589 214.289 140.193 213.73C135.306 211.915 130.42 210.1 125.533 208.285C124.835 208.006 124.276 207.587 123.718 207.168C122.182 206.331 121.344 204.516 121.624 202.84C122.182 199.489 122.741 196.278 123.299 192.927C123.439 191.95 123.578 190.973 123.578 189.856C123.718 188.18 123.16 186.505 121.903 185.388C119.25 183.014 116.597 180.501 113.945 177.988C112.409 176.452 110.175 176.033 108.22 176.592C105.009 177.43 101.658 178.128 98.447 178.826L98.0282 178.965C93.7 179.803 92.3038 179.245 90.4888 175.196C88.3945 170.868 86.5794 166.4 84.7644 161.932C83.6475 159.14 84.2059 157.604 86.5794 155.789C89.2322 153.834 91.8849 151.879 94.5377 150.064C97.3301 148.529 98.8659 145.457 98.447 142.385C98.1678 138.895 98.1678 135.404 97.8886 131.914C97.8886 130.378 97.0508 129.122 95.7943 128.284C92.8623 126.469 89.9303 124.654 87.1379 122.699C85.1833 121.443 83.3682 120.186 82.5305 117.952L83.2286 116.696ZM194.086 136.242C194.086 117.952 179.286 103.153 161.136 103.153C160.996 103.153 160.996 103.153 160.856 103.153C145.638 103.013 128.325 116.416 128.325 136.242C128.465 154.393 142.985 169.052 161.136 169.192C182.218 169.192 195.063 150.762 194.086 136.242Z" fill="white"/>
<path d="M142.148 215.127C141.589 215.127 141.031 214.987 140.472 214.847L136.563 213.451C132.933 212.055 129.443 210.798 125.812 209.402C125.114 209.123 124.556 208.844 123.997 208.425L123.718 208.285C121.763 207.168 120.786 205.074 121.205 202.84L121.903 198.512C122.182 196.697 122.462 194.742 122.741 192.927C122.88 191.95 123.02 190.973 123.02 189.995C123.16 188.599 122.741 187.342 121.763 186.365C119.39 184.271 117.156 182.037 114.783 179.943L113.805 178.965C112.549 177.709 110.734 177.29 109.058 177.848C106.824 178.407 104.59 178.965 102.217 179.384L99.1453 180.082L98.7264 180.222C93.8398 181.06 92.0247 180.222 90.0701 175.894C88.255 172.124 86.44 167.936 84.3457 162.49C83.0891 159.279 83.6476 157.185 86.44 155.091C89.5116 152.717 92.0247 150.902 94.5379 149.366C96.9114 147.97 98.3076 145.317 97.8887 142.665C97.7491 140.431 97.6095 138.336 97.6095 136.102C97.6095 134.846 97.4699 133.45 97.4699 132.193C97.4699 131.076 96.9114 129.959 95.934 129.401L92.304 127.167C90.6286 126.05 88.8135 124.933 87.1381 123.816C85.1834 122.559 82.9495 121.163 82.1118 118.511C82.1118 118.371 82.1118 118.231 82.1118 118.231V116.696C82.1118 116.556 82.1118 116.416 82.1118 116.277L83.2288 113.205C84.0665 110.692 84.9042 108.318 85.7419 105.945C86.44 104.13 87.1381 102.315 87.8362 100.5C88.8135 97.7074 91.6059 96.032 94.5379 96.4508C96.4925 96.5904 98.3076 97.0093 100.123 97.2885L102.915 97.847L104.032 97.9866C105.149 98.2659 106.126 98.4055 107.243 98.4055C108.081 98.4055 108.919 98.1262 109.617 97.7074C113.107 94.4961 116.318 91.0057 118.971 88.2133C119.809 87.236 120.088 85.9794 119.669 84.7229C119.39 83.1871 118.971 81.6513 118.692 80.2551C118.273 78.3004 117.854 76.4854 117.435 74.5307C117.156 73.1345 117.016 71.5987 117.016 70.2025C117.156 68.8063 117.854 67.5498 118.831 66.8517C124.137 63.3612 129.861 60.7085 136.005 59.033C138.238 58.3349 140.752 59.1727 142.008 61.1273L144.382 64.1989C145.778 66.014 147.174 67.9686 148.57 69.9233C149.687 71.878 151.921 72.9949 154.155 72.7157C156.528 72.576 159.042 72.4364 161.415 72.2968L165.324 72.1572C166.302 72.1572 167.279 71.4591 167.838 70.6214C168.675 69.5044 169.373 68.2479 170.071 67.1309L171.607 64.6178L172.166 63.7801C173.143 62.3839 174.12 60.8481 175.098 59.4519C176.494 57.3576 179.147 56.3803 181.52 57.218C187.803 59.3123 192.55 61.1273 197.018 62.8027C199.531 63.7801 200.927 66.2932 200.508 68.946C200.369 70.9006 199.95 72.8553 199.671 74.6703C199.531 75.6477 199.391 76.625 199.112 77.4627C198.973 78.7193 198.693 80.1154 198.554 81.372C198.414 82.7682 198.833 84.1644 199.95 85.2813L201.905 87.0964C203.999 89.051 206.093 91.0057 208.187 93.1C209.444 94.4962 211.399 95.0546 213.214 94.4962C215.029 94.0773 216.844 93.6584 218.659 93.2396C220.474 92.8207 222.428 92.4019 224.243 91.983C227.315 91.0057 230.526 92.5415 231.643 95.6131C233.738 100.081 235.832 104.549 237.786 109.016C239.322 112.647 238.764 115.16 235.553 117.673C234.436 118.511 233.179 119.348 232.062 120.186C231.224 120.744 230.387 121.303 229.689 121.861C228.292 122.978 226.896 123.956 225.64 125.073C224.802 125.771 224.243 126.888 224.243 128.005V130.378C224.243 133.45 224.383 136.521 224.523 139.593C224.523 141.408 225.5 142.944 227.036 143.781L229.689 145.317C230.945 146.015 232.202 146.714 233.319 147.551C234.715 148.389 235.971 149.227 237.228 150.204C239.462 151.74 240.3 154.532 239.322 157.045C237.647 161.653 235.832 166.4 234.156 171.007C233.877 171.705 233.458 172.403 233.039 172.962C231.923 174.916 229.689 176.033 227.455 175.615L220.195 174.358L217.123 173.799L216.564 173.66C214.051 172.962 211.538 173.939 210.002 176.033C208.606 177.569 207.21 179.105 205.674 180.641C205.116 181.199 204.418 181.897 203.859 182.456C202.184 184.131 201.765 186.784 202.603 189.018C203.44 192.09 204.278 195.44 204.837 198.791C205.674 202.84 204.697 204.795 201.067 206.47C196.878 208.425 192.41 210.519 187.245 212.753C184.592 214.149 181.381 213.312 179.845 210.798C178.309 208.844 176.913 206.889 175.656 205.074L174.819 203.817C171.468 199.07 170.909 198.791 165.045 199.07L160.996 199.35L157.785 199.489C155.83 199.489 154.015 200.606 153.038 202.282C152.48 203.119 152.061 203.957 151.642 204.795C150.665 206.47 149.687 208.006 148.71 209.681C147.872 210.938 146.895 212.195 145.778 213.312C144.801 214.428 143.544 214.987 142.148 215.127ZM110.594 175.196C112.409 175.196 114.084 175.894 115.341 177.15L116.318 178.128C118.552 180.222 120.926 182.456 123.16 184.55C124.695 185.946 125.394 187.901 125.254 189.995C125.114 191.252 125.114 192.229 124.975 193.206C124.695 195.022 124.416 196.976 124.137 198.791L123.439 203.119C123.16 204.376 123.858 205.772 124.975 206.331L125.254 206.47C125.673 206.749 126.092 207.029 126.65 207.308C130.28 208.704 133.771 209.961 137.401 211.357L141.31 212.753C142.287 213.172 143.265 212.893 143.963 212.055C144.94 211.078 145.778 209.961 146.616 208.704C147.593 207.168 148.57 205.493 149.548 203.957C150.106 203.119 150.525 202.282 151.083 201.444C152.48 199.07 154.993 197.674 157.645 197.535L160.857 197.395L164.906 197.116C171.468 196.837 172.724 197.395 176.634 202.84L177.471 204.097C178.867 206.051 180.124 208.006 181.66 209.821C182.637 211.496 184.731 212.055 186.407 211.078C191.573 208.844 196.041 206.889 200.229 204.934C202.882 203.678 203.44 202.701 202.742 199.629C202.044 196.278 201.206 192.927 200.508 189.856C199.671 186.924 200.508 183.712 202.603 181.479C203.161 180.78 203.859 180.222 204.418 179.524C205.814 178.128 207.21 176.592 208.606 175.056C210.7 172.264 214.051 171.147 217.402 171.984H217.821L221.032 172.543L228.292 173.799C229.549 174.079 230.945 173.381 231.504 172.264C231.922 171.705 232.202 171.147 232.481 170.449C234.296 165.841 235.971 161.094 237.647 156.487C238.345 154.951 237.647 153.136 236.251 152.159C234.994 151.321 233.877 150.483 232.621 149.645C231.364 148.947 230.247 148.249 228.991 147.412L226.338 146.015C224.104 144.759 222.708 142.525 222.708 140.012C222.568 136.94 222.568 133.869 222.428 130.797V128.423C222.428 126.608 223.127 124.933 224.523 123.676C225.779 122.559 227.175 121.443 228.711 120.326C229.549 119.767 230.387 119.069 231.224 118.511C232.341 117.673 233.458 116.975 234.575 115.997C236.949 114.043 237.368 112.647 236.111 109.994C234.156 105.526 232.062 101.058 229.968 96.73C229.27 94.7754 227.175 93.6584 225.081 94.3565C225.081 94.3565 225.081 94.3565 224.942 94.3565C223.127 94.7754 221.172 95.1943 219.357 95.6131C217.542 96.032 215.727 96.4508 213.912 96.8697C211.399 97.5678 208.606 96.7301 206.791 94.915C204.837 92.9604 202.603 90.8661 200.648 88.9114L198.693 87.0964C197.157 85.7002 196.459 83.6059 196.599 81.5116C196.739 80.1154 196.878 78.7193 197.158 77.3231C197.297 76.3457 197.437 75.3684 197.716 74.3911C197.995 72.576 198.414 70.6214 198.554 68.8063C198.833 67.1309 197.995 65.5951 196.459 64.897C191.992 63.2216 187.245 61.5462 181.101 59.3123C179.705 58.7538 178.03 59.3123 177.192 60.7085C176.215 62.1047 175.237 63.5008 174.4 64.897L173.841 65.7347L172.305 68.1082C171.468 69.3648 170.77 70.4818 169.932 71.7383C169.094 73.2741 167.419 74.1118 165.743 74.2515L161.834 74.3911C159.46 74.5307 157.087 74.5307 154.574 74.6703C151.502 74.9496 148.57 73.5534 146.895 70.761C145.638 68.8063 144.102 66.9913 142.706 65.0366L140.333 61.965C139.635 60.7085 138.099 60.15 136.703 60.7085C130.839 62.3839 125.254 64.897 120.088 68.2479C119.669 68.6667 119.39 69.3648 119.25 69.9233C119.25 71.1799 119.25 72.4364 119.669 73.693C120.088 75.508 120.507 77.4627 120.926 79.2777C121.205 80.8135 121.624 82.3493 121.903 83.7455C122.462 85.7002 121.903 87.6549 120.647 89.1907C117.994 92.1226 114.643 95.4735 111.152 98.8243C110.036 99.662 108.639 100.221 107.243 100.081C105.987 100.081 104.73 99.9413 103.613 99.662L102.496 99.5224L99.5641 98.964C97.7491 98.6847 95.934 98.2659 94.119 98.1262C92.1643 97.847 90.3493 98.964 89.7908 100.779C89.0927 102.454 88.3947 104.269 87.6966 106.084C86.8588 108.458 86.0211 110.971 85.1834 113.345L84.2061 116.277V117.114C84.9042 118.929 86.44 120.046 88.255 121.163C90.0701 122.28 91.7455 123.397 93.4209 124.514L97.051 126.748C98.5868 127.725 99.5641 129.401 99.5641 131.216C99.7038 132.472 99.7037 133.869 99.7037 135.125C99.8434 137.219 99.8434 139.453 99.983 141.548C100.402 145.038 98.5868 148.529 95.5152 150.344C93.1417 151.879 90.6285 153.694 87.5569 155.928C85.6023 157.464 85.1834 158.441 86.1607 160.675C88.3946 166.12 90.0701 170.169 91.8851 173.939C93.4209 177.29 94.2586 177.709 98.1679 177.011L98.4472 176.871L101.519 176.173C103.753 175.615 105.987 175.196 108.22 174.637C108.919 174.498 109.617 174.358 110.315 174.358L110.594 175.196ZM160.996 170.169C142.148 170.03 127.069 154.951 127.069 136.242C127.069 127.167 130.699 118.511 137.122 112.228C150.106 98.8243 171.607 98.5451 184.871 111.53C191.573 117.952 195.203 126.888 195.063 136.102C195.622 144.2 192.131 152.857 185.988 159.558C179.566 166.539 170.49 170.309 160.996 170.169ZM160.577 104.13C152.34 104.409 144.521 107.76 138.657 113.764C126.231 126.05 126.092 146.155 138.378 158.581C144.382 164.585 152.34 167.936 160.857 167.936H160.996C169.792 167.936 178.309 164.445 184.313 158.023C190.177 151.879 193.388 143.782 192.829 136.242C192.969 118.65 178.728 104.269 161.136 104.269C160.996 104.269 160.857 104.269 160.577 104.13Z" fill="#D1D3D4"/>
<path d="M158.762 308.392C156.528 308.113 155.691 306.577 155.272 304.482C154.993 302.667 154.574 300.852 154.155 299.037C153.876 298.06 153.178 297.222 152.34 296.803C149.966 295.687 147.593 294.709 145.219 293.871C144.521 293.732 143.823 293.732 143.265 294.151C141.589 295.128 139.914 296.245 138.238 297.362C135.446 299.177 134.189 299.037 131.956 296.803C130.001 294.849 128.325 292.755 126.371 290.8C125.533 289.962 125.394 288.706 126.092 287.728C127.069 286.192 127.907 284.657 129.024 283.26C130.699 281.166 130.978 278.374 129.722 276C126.65 269.299 127.767 270.136 120.926 268.88C116.877 268.042 116.318 267.623 116.179 263.574C116.039 261.061 116.179 258.548 116.318 256.035C116.179 254.499 117.296 253.242 118.831 253.103C120.646 252.684 122.462 252.405 124.277 251.986C126.231 251.707 127.907 250.45 128.605 248.635C129.303 247.099 129.861 245.703 130.559 244.167C131.257 242.631 131.118 240.956 130.141 239.56C128.884 237.605 127.767 235.511 126.51 233.556C125.812 232.579 125.952 231.322 126.79 230.485C129.303 227.972 131.816 225.598 134.329 223.364C135.027 222.945 135.725 222.945 136.423 223.225C137.54 223.783 138.797 224.481 139.774 225.179C140.752 225.738 141.589 226.436 142.567 226.994C143.823 227.832 145.499 228.111 146.895 227.553C148.989 226.715 150.944 225.877 153.038 225.04C154.295 224.481 155.132 223.225 155.272 221.828C155.691 219.594 156.249 217.5 156.808 215.406C156.947 214.429 157.785 213.73 158.762 213.73C162.253 213.73 165.604 213.591 169.094 213.591C170.351 213.591 171.468 214.568 171.607 215.825C172.026 217.779 172.585 219.734 172.864 221.828C173.003 223.504 174.12 225.04 175.796 225.598C177.89 226.436 179.845 227.413 182.079 228.111C182.777 228.251 183.475 228.251 184.033 227.972C186.128 226.855 187.943 225.458 190.037 224.341C192.41 222.945 192.829 222.945 194.924 224.76C196.878 226.436 198.693 228.39 200.369 230.205C202.044 232.02 202.044 233.277 200.787 235.371C199.531 237.466 198.414 239.141 197.157 241.096C196.599 241.794 196.459 242.771 196.878 243.609C197.856 245.843 198.833 248.216 199.81 250.45C200.229 251.148 200.927 251.707 201.765 251.986C203.58 252.405 205.255 252.824 207.07 253.103C210.282 253.661 211.259 254.778 211.399 258.129C211.399 260.363 211.399 262.737 211.399 264.97C211.259 267.484 210.421 268.461 207.908 269.019C206.233 269.438 204.418 269.717 202.742 269.997C201.067 270.276 199.531 271.393 198.833 272.929C197.995 275.023 197.018 277.257 196.32 279.491C196.18 280.189 196.32 281.027 196.599 281.585C197.716 283.54 198.972 285.355 200.089 287.17C201.486 289.404 201.486 289.962 199.671 292.056C197.856 294.011 196.04 295.826 194.086 297.641C192.131 299.317 191.573 299.317 189.478 298.06C187.803 297.083 186.267 295.966 184.731 294.988C183.335 293.871 181.381 293.592 179.705 294.43C178.169 295.128 176.634 295.826 175.237 296.524C173.562 297.222 172.445 298.758 172.305 300.573C172.166 301.69 172.026 302.807 171.747 303.784C171.328 306.158 170.909 308.531 167.698 308.392H158.762ZM164.207 280.049C167.139 280.328 170.211 279.77 172.864 278.234C182.916 272.37 185.988 260.782 181.101 251.707C176.215 242.073 164.347 238.303 154.713 243.33C152.759 244.307 150.944 245.703 149.408 247.239C144.661 252.265 143.684 258.129 144.382 264.552C144.521 265.948 144.8 267.204 145.499 268.461C149.268 275.861 154.853 280.608 164.207 280.049Z" fill="white"/>
<path d="M167.698 309.509H158.762C156.249 309.23 154.434 307.135 154.295 304.622C154.015 302.807 153.736 300.992 153.178 299.317C152.898 298.618 152.48 298.06 151.921 297.781C149.687 296.664 147.314 295.687 144.94 294.849C144.521 294.849 144.242 294.849 143.823 294.988C142.706 295.687 141.589 296.385 140.472 297.083L138.797 298.2C135.586 300.294 133.771 300.154 131.118 297.502C129.861 296.385 128.744 294.988 127.767 293.871C127.069 293.034 126.371 292.336 125.673 291.498C124.416 290.381 124.277 288.426 125.254 287.17L125.952 286.053C126.65 284.796 127.348 283.679 128.186 282.562C129.582 280.887 129.861 278.513 128.744 276.419L128.046 274.744C127.069 272.37 124.975 270.695 122.462 270.276L120.786 269.997C116.458 269.159 115.341 268.461 115.062 263.574C114.922 261.061 115.062 258.548 115.201 255.895C115.062 253.941 116.598 252.126 118.552 251.846C120.228 251.427 121.903 251.148 123.439 250.869L124.137 250.729C125.673 250.59 127.069 249.473 127.627 248.077L127.767 247.518C128.326 246.262 128.884 244.865 129.442 243.609C130.001 242.352 129.861 241.096 129.024 239.979C128.325 238.862 127.627 237.745 126.929 236.488C126.371 235.651 125.952 234.813 125.394 233.835C124.416 232.439 124.695 230.624 125.952 229.507C128.186 227.273 130.839 224.76 133.631 222.247C134.608 221.549 135.865 221.409 136.842 221.828C137.82 222.247 138.797 222.806 139.635 223.364L140.333 223.783L141.729 224.76C142.148 225.04 142.567 225.319 143.125 225.598C144.102 226.296 145.359 226.436 146.476 226.017C148.431 225.319 150.246 224.481 152.48 223.504C153.457 223.085 154.015 222.108 154.155 221.13C154.434 219.594 154.853 218.059 155.132 216.523L155.551 214.568C155.83 213.032 157.087 212.055 158.623 212.055C161.136 212.055 163.789 211.915 166.302 211.915H168.954C170.77 211.776 172.305 213.172 172.585 214.987L172.864 216.523C173.143 218.059 173.562 219.455 173.841 220.991C173.981 222.387 174.818 223.504 176.075 223.923L178.588 225.04C179.845 225.598 180.962 226.017 182.218 226.575C182.637 226.715 182.916 226.575 183.335 226.436C184.452 225.877 185.569 225.179 186.546 224.481C187.524 223.783 188.361 223.364 189.199 222.806C191.992 221.13 192.969 221.27 195.342 223.364C197.297 225.179 199.112 226.994 200.927 228.949C202.882 231.043 203.021 232.998 201.486 235.511C200.369 237.186 199.391 238.862 198.274 240.537L197.856 241.096C197.576 241.515 197.437 242.073 197.716 242.631C197.995 243.33 198.274 244.028 198.554 244.726C199.252 246.262 199.95 247.937 200.648 249.473C200.927 249.892 201.346 250.31 201.904 250.45C203.161 250.869 204.418 251.148 205.814 251.288L207.21 251.567C210.98 252.265 212.236 253.941 212.376 257.571C212.376 259.805 212.376 262.178 212.376 264.552C212.236 267.623 211.119 269.019 208.048 269.578C206.512 269.857 204.976 270.136 203.58 270.416L202.882 270.555C201.486 270.695 200.369 271.533 199.81 272.789C198.833 275.023 197.995 277.117 197.297 279.212C197.157 279.63 197.297 280.049 197.437 280.468C197.995 281.445 198.693 282.423 199.252 283.4C199.81 284.377 200.369 285.215 200.927 286.053C202.463 288.845 202.463 289.962 200.369 292.196C198.554 294.151 196.739 296.105 194.644 297.781C192.41 299.735 191.293 299.875 188.641 298.339C186.965 297.362 185.29 296.245 183.754 295.128C182.637 294.29 181.101 294.011 179.845 294.709L177.75 295.687C176.913 295.966 176.215 296.385 175.377 296.803C174.12 297.362 173.143 298.618 173.003 300.015C172.864 300.573 172.864 301.132 172.724 301.55C172.585 301.969 172.585 302.667 172.445 303.226C172.305 306.298 171.747 309.648 167.698 309.509ZM158.902 307.275H167.558C169.653 307.275 170.071 306.298 170.49 303.645C170.63 303.086 170.63 302.528 170.77 301.969C170.909 301.411 170.909 300.852 171.049 300.294C171.328 298.2 172.724 296.385 174.679 295.407L177.052 294.29L179.147 293.313C181.101 292.336 183.475 292.615 185.29 294.011C186.826 295.128 188.361 296.105 190.037 297.083C191.014 297.781 192.41 297.641 193.388 296.803C195.342 295.128 197.157 293.173 198.833 291.358C200.229 289.823 200.229 289.683 199.112 287.868C198.554 287.03 197.995 286.192 197.437 285.215C196.878 284.238 196.18 283.26 195.482 282.144C194.924 281.166 194.784 280.189 195.063 279.072C195.761 276.978 196.599 274.883 197.716 272.51C198.554 270.555 200.369 269.159 202.463 268.88L203.161 268.74C204.697 268.461 206.093 268.182 207.629 267.902C209.723 267.484 210.142 266.925 210.142 264.97C210.282 262.597 210.282 260.363 210.142 258.129C210.002 255.476 209.444 254.778 206.791 254.22L205.395 253.941C203.999 253.661 202.603 253.382 201.206 252.963C200.089 252.684 199.112 251.846 198.554 250.869C197.716 249.333 197.018 247.518 196.32 245.982C196.04 245.284 195.761 244.586 195.482 243.888C194.924 242.771 195.063 241.375 195.761 240.258L196.18 239.699C197.297 238.024 198.414 236.349 199.391 234.673C200.369 232.998 200.369 232.16 199.112 230.764C197.437 228.809 195.622 226.994 193.667 225.319C192.69 224.341 191.293 224.202 190.177 225.04C189.339 225.598 188.501 226.156 187.524 226.715C186.407 227.413 185.29 228.111 184.173 228.809C183.335 229.228 182.218 229.368 181.241 229.088C179.984 228.67 178.728 228.111 177.471 227.553C176.634 227.134 175.796 226.855 174.958 226.436C173.003 225.738 171.607 223.923 171.328 221.689C171.049 220.153 170.77 218.757 170.351 217.361L170.071 215.825C169.792 214.708 169.373 214.429 168.675 214.429H166.022C163.509 214.429 160.857 214.429 158.343 214.568C157.925 214.568 157.506 214.847 157.366 215.266L156.947 217.221C156.668 218.757 156.249 220.153 155.97 221.689C155.83 223.364 154.713 224.9 153.038 225.738C150.804 226.715 148.849 227.553 146.895 228.39C145.08 229.088 143.125 228.809 141.45 227.832L140.053 226.855L138.657 226.017L138.238 225.598C137.401 225.04 136.703 224.621 135.725 224.202C135.446 224.062 135.027 224.062 134.748 224.202C132.095 226.575 129.582 228.949 127.209 231.322C126.65 231.741 126.65 232.439 127.069 232.998C127.627 233.836 128.046 234.673 128.605 235.651C129.303 236.767 130.001 237.884 130.699 239.001C131.816 240.677 131.956 242.771 131.257 244.586C130.699 245.982 130.141 247.239 129.582 248.635L129.442 249.194C128.605 251.427 126.65 252.824 124.277 253.242L123.578 253.382C122.043 253.661 120.367 253.941 118.831 254.359C117.575 254.639 117.296 255.058 117.296 256.314C117.156 258.827 117.016 261.34 117.156 263.714C117.296 267.204 117.435 267.344 121.065 267.902L122.741 268.182C127.488 269.019 127.907 269.299 130.001 273.906L130.699 275.581C132.095 278.234 131.816 281.585 129.861 283.959C129.024 285.075 128.326 286.053 127.767 287.17L127.069 288.287C126.65 288.706 126.65 289.543 127.069 289.962C127.767 290.8 128.605 291.498 129.303 292.336C130.42 293.592 131.397 294.709 132.654 295.826C134.608 297.641 135.167 297.781 137.54 296.245L139.076 295.128C140.193 294.43 141.31 293.592 142.567 292.894C143.404 292.336 144.521 292.196 145.499 292.615C148.012 293.453 150.385 294.43 152.759 295.547C153.876 296.245 154.713 297.222 155.132 298.479C155.691 300.294 156.11 302.109 156.389 304.064C156.668 306.018 157.366 306.856 158.762 306.996L158.902 307.275ZM165.464 281.306C165.045 281.306 164.626 281.306 164.207 281.306C155.412 281.725 148.989 277.815 144.521 269.159C143.823 267.763 143.544 266.367 143.404 264.831C142.567 257.012 144.242 251.288 148.71 246.541C153.317 241.654 159.879 239.42 166.441 240.258C173.143 241.235 179.007 245.284 182.079 251.288C187.384 261.34 183.754 273.348 173.422 279.351C170.909 280.608 168.256 281.306 165.464 281.306ZM164.207 278.932C167 279.212 169.792 278.653 172.305 277.257C181.52 271.951 184.871 261.061 180.124 252.265C177.332 246.96 172.166 243.19 166.162 242.352C160.298 241.515 154.434 243.609 150.246 247.937C146.197 252.126 144.8 257.291 145.499 264.412C145.638 265.669 145.917 266.785 146.476 267.902C150.525 275.861 156.11 279.351 164.207 278.932Z" fill="#D1D3D4"/>
<path d="M207.768 238.303C207.908 237.884 208.048 237.465 208.187 237.186C208.606 236.488 209.025 235.93 209.583 235.371C212.097 233.277 212.515 229.647 210.84 226.854C210.142 225.877 209.165 225.039 208.048 224.481C206.931 223.922 205.814 223.364 204.557 222.945C203.859 222.666 203.301 221.968 203.44 221.13C203.719 218.896 203.999 216.662 204.418 214.428C204.697 213.87 205.116 213.451 205.674 213.311C206.651 213.032 207.629 213.032 208.746 213.032C210.84 213.032 212.934 211.915 214.051 209.961C215.727 207.587 216.146 205.493 214.61 202.7C212.655 199.35 212.934 199.07 216.006 196.557C217.123 195.72 218.24 194.882 219.357 194.044C219.915 193.625 220.613 193.625 221.172 194.184C222.428 195.161 223.545 196.138 224.802 197.255C225.64 198.093 226.896 198.372 228.153 198.093C228.99 197.953 229.828 197.674 230.666 197.535C232.76 197.255 234.436 195.58 234.854 193.486C236.251 188.459 237.228 189.297 240.718 189.856C241.975 189.995 243.092 190.414 244.348 190.554C245.186 190.554 245.884 191.391 245.884 192.229C246.024 193.765 246.303 195.44 246.443 196.976C246.443 197.814 246.862 198.652 247.699 199.07C252.726 202.282 252.307 202.282 257.333 199.908C259.148 199.07 259.846 199.07 261.103 200.746C262.359 202.421 263.337 203.678 264.454 205.074C265.152 205.772 265.152 206.749 264.454 207.448C263.197 208.983 261.94 210.379 260.823 211.915C260.544 212.334 260.405 212.893 260.405 213.451C260.684 214.847 261.103 216.104 261.522 217.5C261.801 218.896 262.918 220.013 264.314 220.292C265.57 220.711 266.827 221.27 268.084 221.828C268.642 222.247 269.061 222.945 269.201 223.643C269.061 225.738 268.921 227.832 268.502 229.786C268.363 230.903 267.386 231.881 266.269 231.741C265.989 231.741 265.71 231.741 265.431 231.741C261.661 231.462 259.288 233.417 257.752 236.628C257.054 237.745 257.054 239.141 257.612 240.397C258.171 241.514 258.59 242.631 259.148 243.748C259.846 244.726 259.427 246.122 258.45 246.82C256.914 247.937 255.378 249.193 253.703 250.31C253.005 251.008 251.888 250.869 251.19 250.171C250.073 249.193 249.095 248.356 247.979 247.378C247.141 246.541 246.024 246.122 244.767 246.401C243.371 246.68 241.975 246.96 240.718 247.518C240.02 247.797 239.462 248.356 239.043 249.054C238.484 250.171 238.066 251.288 237.786 252.405C237.647 253.94 236.251 255.057 234.715 254.778C232.621 254.499 230.666 254.08 228.572 253.801C227.734 253.661 227.036 252.963 227.036 251.986C226.896 251.008 226.896 250.031 226.896 249.054C226.896 248.495 226.757 247.797 226.757 247.239C226.058 244.167 220.753 241.794 217.961 243.19C216.844 243.748 215.866 244.307 214.749 244.726C214.191 244.865 213.772 244.865 213.214 244.586C211.119 242.911 209.444 240.677 208.466 238.164C208.327 237.884 208.327 237.745 208.327 237.465L207.768 238.303ZM236.669 235.93C243.93 235.79 249.794 229.926 249.933 222.666C250.073 215.127 243.93 208.983 236.53 208.983C228.99 209.123 222.987 215.266 223.126 222.806C222.987 230.205 229.13 236.069 236.669 235.93C236.53 235.93 236.53 235.93 236.669 235.93Z" fill="white"/>
<path d="M234.715 256.454C234.575 256.454 234.436 256.454 234.156 256.454C232.621 256.314 231.224 256.035 229.828 255.756L228.013 255.476C226.617 255.337 225.64 254.08 225.5 252.684C225.5 252.126 225.36 251.567 225.36 250.869L225.221 249.194C225.221 248.775 225.221 248.495 225.081 248.077C224.523 246.68 223.406 245.563 222.01 245.145C220.753 244.447 219.217 244.307 217.821 244.726L216.704 245.284C216.006 245.703 215.308 245.982 214.61 246.401C213.772 246.68 212.795 246.68 211.957 246.122C209.723 244.307 207.908 241.933 206.931 239.281C206.791 239.141 206.791 238.862 206.791 238.722V238.443C206.791 238.164 206.791 238.024 206.791 237.745L206.931 237.466C207.07 237.047 207.21 236.768 207.35 236.349C207.768 235.651 208.327 234.952 208.885 234.394C210.98 232.579 211.399 229.507 210.002 227.273C209.304 226.436 208.606 225.738 207.629 225.319C206.931 224.9 206.233 224.621 205.395 224.341C204.976 224.202 204.557 224.062 204.138 223.783C202.882 223.364 202.184 222.108 202.463 220.851L202.603 219.594C202.882 217.779 203.161 215.964 203.44 214.149C203.72 213.172 204.557 212.334 205.535 212.195C206.652 211.915 207.768 211.776 208.885 211.915C210.7 211.915 212.376 210.938 213.214 209.402C214.749 207.168 214.889 205.493 213.632 203.399C211.399 199.489 211.957 198.652 215.308 195.859C216.006 195.301 216.564 194.882 217.263 194.463C217.961 194.044 218.24 193.765 218.659 193.346C219.636 192.508 221.032 192.648 221.87 193.486L223.825 195.161L225.5 196.557C226.198 197.116 227.036 197.395 227.874 197.255C228.292 197.116 228.711 197.116 229.13 196.976L230.387 196.697C232.062 196.418 233.319 195.161 233.738 193.486C235.134 188.46 236.53 188.32 239.881 188.878L240.858 189.018C241.556 189.158 242.254 189.297 242.952 189.437L244.488 189.716C245.884 189.856 246.862 190.973 247.001 192.369C247.001 193.067 247.141 193.625 247.141 194.324C247.281 195.301 247.42 196.278 247.42 197.116C247.42 197.674 247.699 198.093 248.118 198.372L248.956 198.931C251.05 200.467 253.843 200.606 256.216 199.35L256.775 199.071C259.148 197.954 260.265 198.233 261.94 200.187C262.778 201.165 263.476 202.282 264.314 203.259L265.291 204.516C266.269 205.633 266.269 207.308 265.152 208.285L265.012 208.425C263.895 209.821 262.778 211.217 261.661 212.614C261.522 212.753 261.522 213.032 261.522 213.312C261.661 214.289 261.94 215.266 262.22 216.244L262.499 217.221C262.778 218.198 263.476 218.896 264.454 219.176C265.85 219.594 267.106 220.153 268.363 220.851C269.34 221.41 269.899 222.526 269.899 223.643C269.759 225.738 269.48 227.832 269.201 229.926C269.061 231.602 267.525 232.858 265.85 232.858H265.571C265.291 232.858 265.152 232.858 264.872 232.858C261.801 232.579 259.846 233.975 258.171 237.186C257.612 238.024 257.612 239.001 258.031 239.979L258.45 240.956C258.729 241.794 259.148 242.632 259.567 243.33C260.405 244.865 259.986 246.68 258.45 247.658C256.914 248.775 255.378 250.031 253.843 251.148C252.726 252.126 250.911 252.126 249.933 251.009L248.677 249.892C247.979 249.333 247.42 248.775 246.722 248.216C246.164 247.658 245.326 247.379 244.628 247.518L243.93 247.658C242.813 247.937 241.696 248.216 240.718 248.495C240.3 248.775 239.881 249.054 239.602 249.612C239.183 250.59 238.764 251.707 238.485 252.684C238.205 254.499 236.53 255.895 234.715 255.895V256.454ZM219.357 242.213C220.613 242.213 221.87 242.492 223.126 243.05C225.081 243.888 226.757 245.424 227.455 247.518C227.594 248.077 227.594 248.495 227.594 249.054L227.734 250.729C227.734 251.288 227.734 251.846 227.874 252.405C228.013 252.963 228.153 253.103 228.432 253.243C228.99 253.382 229.689 253.522 230.247 253.522C231.643 253.801 233.039 254.08 234.436 254.22C234.715 254.22 235.832 254.359 236.39 252.684C236.669 251.427 237.088 250.311 237.647 249.054C238.205 248.077 238.903 247.379 239.881 246.96C240.998 246.541 242.254 246.262 243.511 245.982L244.209 245.843C245.745 245.424 247.281 245.982 248.397 247.099C248.956 247.658 249.654 248.216 250.213 248.635L251.609 249.752C252.167 250.171 252.307 250.171 252.726 249.892C254.261 248.635 255.797 247.518 257.473 246.401C258.031 245.982 258.171 245.563 257.752 244.726C257.333 243.888 257.054 243.05 256.635 242.213L256.216 241.235C255.518 239.7 255.658 238.024 256.495 236.488C258.45 232.439 261.382 230.624 265.291 231.043H265.71H266.129C266.967 231.043 267.246 230.624 267.386 230.066C267.665 228.111 267.944 226.017 268.084 223.923C267.944 223.643 267.804 223.364 267.525 223.085C266.408 222.526 265.291 221.968 264.035 221.549C262.359 221.13 260.963 219.734 260.544 218.059L260.265 217.081C259.986 215.964 259.707 214.987 259.427 214.01C259.288 213.172 259.567 212.334 259.986 211.636C261.103 210.1 262.22 208.704 263.476 207.308L263.616 207.168C263.895 206.889 263.895 206.47 263.755 206.191C263.755 206.191 263.755 206.191 263.616 206.051L262.639 204.655C261.94 203.678 261.103 202.701 260.405 201.723C259.427 200.606 259.427 200.606 257.892 201.165L257.333 201.444C252.726 203.678 252.307 203.678 247.979 200.886L247.141 200.327C246.024 199.769 245.326 198.512 245.326 197.255C245.326 196.418 245.186 195.44 245.047 194.463C244.907 193.765 244.907 193.067 244.767 192.369C244.767 191.95 244.628 191.81 244.069 191.671C243.511 191.531 242.952 191.392 242.534 191.392C242.115 191.392 241.137 191.112 240.579 190.973L239.602 190.833C237.088 190.414 236.949 190.275 235.971 193.765C235.413 196.278 233.458 198.093 230.945 198.512L229.828 198.791L228.432 199.071C226.896 199.35 225.36 198.931 224.104 197.954L222.568 196.557C221.87 195.999 221.172 195.44 220.474 194.882C220.474 194.882 220.334 194.742 220.195 194.742C220.195 194.742 220.055 194.742 220.055 194.882C219.496 195.301 219.078 195.58 218.519 195.999C217.961 196.418 217.263 196.837 216.564 197.395C214.749 198.791 214.47 200.327 215.308 202.003C216.983 204.655 216.704 208.006 214.749 210.38C213.493 212.614 211.119 213.87 208.606 213.87C207.629 213.87 206.791 214.01 205.814 214.149C205.674 214.289 205.395 214.429 205.395 214.568C205.116 216.244 204.836 218.059 204.557 219.874L204.418 221.13C204.418 221.409 204.418 221.549 204.837 221.828L205.953 222.247C206.791 222.526 207.629 222.945 208.467 223.364C209.723 224.062 210.84 224.9 211.678 226.157C213.632 229.368 213.074 233.417 210.282 235.93C209.863 236.488 209.444 237.047 209.025 237.605C208.885 237.745 208.885 237.884 208.885 238.164V238.303C209.863 240.677 211.399 242.632 213.353 244.167C213.353 244.167 213.632 244.167 213.772 244.028C214.47 243.748 215.029 243.469 215.727 243.05C216.146 242.911 216.425 242.632 216.844 242.492C217.542 242.073 218.379 241.933 219.217 241.933L219.357 242.213ZM236.67 237.047C228.711 237.186 222.01 230.904 221.87 222.945C221.73 218.896 223.266 215.127 226.198 212.195C228.99 209.402 232.621 207.866 236.53 207.727C244.628 207.866 251.19 214.429 251.19 222.526C250.911 230.624 244.628 237.047 236.67 237.047ZM236.67 234.813C243.371 234.673 248.677 229.368 248.677 222.666C248.677 215.825 243.092 210.24 236.251 210.1H236.111C229.27 209.961 223.685 215.546 223.545 222.387C223.406 229.228 228.99 234.813 235.832 234.952C236.111 234.952 236.39 234.952 236.67 234.813Z" fill="#D1D3D4"/>
<path d="M121.065 177.849C122.461 175.894 124.556 174.637 126.929 174.079C129.023 173.8 131.955 174.358 132.653 176.173C132.653 176.313 132.793 176.313 132.933 176.313L133.072 176.173C135.865 170.309 141.31 167.377 147.732 166.121C154.434 164.725 161.415 165.702 168.117 167.098C174.818 168.494 181.52 170.309 188.361 170.589C188.64 180.781 184.871 190.694 177.89 198.233C174.539 201.584 171.049 204.516 167.139 207.169L159.181 213.033C151.083 219.036 139.495 225.04 129.023 221.968C119.809 219.315 115.62 204.516 115.341 196.278C114.922 189.577 117.016 183.015 121.065 177.849Z" fill="#241F20"/>
<path d="M96.0735 327.241L68.2894 320.26C69.4064 318.305 86.1606 267.763 101.658 257.85C114.922 246.82 141.589 245.703 171.747 244.587C181.38 244.028 191.154 245.005 200.508 247.379C235.692 257.152 260.405 306.996 260.405 306.996L219.357 314.535C227.594 351.953 233.179 389.929 236.111 428.185C236.111 428.185 180.822 440.611 94.5377 435.724C94.3981 435.864 96.7716 336.176 96.0735 327.241Z" fill="#F89923"/>
<path d="M179.286 267.065L207.908 422.46L159.321 434.328L139.495 260.224L179.286 267.065Z" fill="#241F20"/>
<path d="M168.954 267.623L165.464 278.653L192.41 384.484L183.475 400.54L164.905 387.556L157.506 282.144L144.661 264.691L168.954 267.623Z" fill="white"/>
<path d="M183.893 402.076L163.928 388.254V387.695L156.528 282.563L142.427 263.295L170.35 266.646L166.441 278.653L193.388 384.484L183.893 402.076ZM165.883 386.997L183.195 399.004L191.293 384.344L164.347 278.653L167.558 268.461L146.895 265.948L158.483 281.725V282.004L165.883 386.997Z" fill="#231F20"/>
<path d="M176.494 236.907L181.799 259.386C181.799 259.386 177.192 274.604 161.973 273.348C152.898 272.51 144.521 267.763 139.355 260.224L132.793 218.757C132.793 218.757 142.706 211.218 135.725 188.041C148.57 191.252 162.113 190.973 174.818 187.203C174.818 187.203 185.709 211.776 185.709 223.364C185.709 234.953 176.633 236.907 176.494 236.907Z" fill="white"/>
<path d="M163.649 274.465C163.09 274.465 162.532 274.465 161.973 274.465C152.479 273.627 143.823 268.601 138.517 260.782L138.378 260.643L131.676 218.338L132.235 217.919C132.374 217.78 141.449 210.38 134.748 188.32L134.189 186.365L136.004 186.924C148.71 189.996 161.973 189.716 174.399 186.086L175.237 185.807L175.656 186.645C176.075 187.622 186.546 211.497 186.686 223.225C186.825 233.277 180.263 236.628 177.75 237.466L182.916 259.246L182.777 259.526C182.916 259.805 178.169 274.465 163.649 274.465ZM140.472 259.805C145.498 266.925 153.457 271.533 162.113 272.37C175.377 273.348 180.124 261.341 180.822 259.386L174.958 234.953L176.633 235.79C178.169 235.372 184.592 232.858 184.592 223.364C184.592 213.312 176.075 192.788 174.12 188.46C162.113 191.811 149.408 192.229 137.261 189.577C142.706 209.123 135.865 217.361 133.91 219.176L140.472 259.805Z" fill="#231F20"/>
<path d="M141.31 216.663C138.518 209.821 125.673 206.889 123.578 215.685C122.601 225.319 133.91 233.696 142.287 227.692" fill="white"/>
<path d="M136.144 230.764C133.77 230.764 131.537 230.066 129.582 228.949C124.835 226.296 122.043 220.991 122.461 215.546V215.406C123.159 211.916 126.231 209.263 129.861 209.263C134.887 208.844 140.472 212.055 142.148 216.383L140.193 217.221C138.797 213.731 134.189 211.078 130.001 211.497C127.348 211.497 124.975 213.452 124.416 215.965C124.137 220.572 126.51 224.9 130.559 227.134C133.91 229.228 138.238 229.228 141.589 226.994L142.846 228.67C141.031 229.926 138.657 230.625 136.144 230.764Z" fill="#231F20"/>
<path d="M178.728 248.217C173.283 249.752 167.558 248.775 162.951 245.703C155.411 240.538 155.411 236.768 155.411 236.768C155.411 236.768 166.72 240.817 176.075 237.326L178.728 248.217Z" fill="white"/>
<path d="M179.705 256.873L177.89 249.473C172.445 250.73 166.86 249.613 162.253 246.541C154.574 241.236 154.294 237.187 154.294 236.768V235.372L155.691 235.93C155.83 235.93 166.86 239.839 175.656 236.489L176.773 236.07L179.426 246.96L179.705 246.82V256.873ZM156.947 238.443C158.623 241.096 160.717 243.33 163.37 244.866C167.558 247.518 172.584 248.496 177.331 247.379L175.237 238.722C168.256 240.956 160.577 239.421 156.947 238.443Z" fill="#231F20"/>
<path d="M177.611 247.518C172.724 248.635 167.558 247.658 163.37 245.005C159.181 242.073 157.506 239.7 156.668 238.303C160.158 239.281 168.117 240.956 175.237 238.583L177.611 247.518Z" fill="white"/>
<path d="M173.283 249.054C169.513 249.054 165.883 247.937 162.672 245.843C158.343 242.911 156.528 240.258 155.691 238.722L154.713 236.628L156.947 237.187C160.019 238.024 167.977 239.839 174.958 237.466L176.075 237.187L178.867 248.217L177.75 248.496C176.354 248.915 174.818 249.054 173.283 249.054ZM159.181 239.839C160.577 241.375 162.253 242.911 164.068 244.028C167.698 246.401 172.166 247.379 176.354 246.681L174.679 239.839C169.513 240.956 164.347 241.096 159.181 239.839Z" fill="#231F20"/>
<path d="M160.438 204.237C160.438 204.237 170.351 214.15 168.954 216.523C167.558 218.897 162.253 218.617 162.253 218.617" fill="white"/>
<path d="M162.811 219.595H162.113L162.253 217.5C164.068 217.64 167.279 217.221 168.116 215.965C168.396 214.848 164.486 209.682 159.739 205.074L161.136 203.538C165.045 207.448 171.467 214.429 169.792 217.081C168.396 219.455 164.486 219.595 162.811 219.595Z" fill="#231F20"/>
<path d="M151.391 207.989C152.463 207.869 153.201 206.592 153.038 205.136C152.875 203.68 151.873 202.597 150.8 202.717C149.727 202.837 148.99 204.115 149.153 205.571C149.316 207.027 150.318 208.11 151.391 207.989Z" fill="#241F20"/>
<path d="M170.006 204.301C170.996 203.87 171.324 202.432 170.739 201.088C170.154 199.745 168.878 199.005 167.888 199.436C166.898 199.867 166.57 201.306 167.155 202.649C167.74 203.992 169.016 204.732 170.006 204.301Z" fill="#241F20"/>
<path d="M146.196 264.133C146.196 264.133 153.736 256.873 155.83 247.937C157.924 239.002 157.087 237.047 158.483 236.768C159.879 236.488 162.253 237.326 163.928 240.398C165.603 243.469 165.185 254.08 162.392 258.409C159.6 262.737 146.196 263.993 146.196 264.133Z" fill="white"/>
<path d="M146.336 265.11H143.683L145.498 263.295C145.498 263.156 152.898 256.175 154.713 247.658C155.551 243.888 155.97 241.375 156.109 239.7C156.389 237.326 156.668 236.07 158.064 235.79C159.879 235.372 162.671 236.489 164.626 239.979C166.581 243.469 166.022 254.499 163.09 259.107C160.158 263.714 147.732 264.971 146.336 265.11ZM158.902 237.745H158.623C158.483 238.443 158.343 239.141 158.204 239.839C157.924 241.515 157.645 244.168 156.808 248.077C155.411 253.522 152.619 258.409 148.989 262.597C153.317 261.899 159.879 260.363 161.555 257.85C164.207 253.801 164.487 243.469 163.09 240.956C161.694 238.443 159.879 237.745 158.902 237.745Z" fill="#231F20"/>
<path d="M258.17 307.973C258.17 307.973 291.819 390.907 279.253 416.178C266.687 441.448 142.287 452.618 142.287 452.618C142.287 452.618 126.51 459.32 121.624 460.297C116.737 461.274 98.028 462.391 98.028 462.391C98.028 462.391 105.009 463.787 102.635 465.882C100.262 467.976 86.4397 467.976 85.0435 463.089C83.6473 458.203 87.5566 438.516 91.7452 435.305C95.9337 432.094 143.683 420.506 147.174 420.226C150.664 419.947 229.269 392.582 229.269 392.582L219.077 315.513" fill="white"/>
<path d="M95.9338 468.255C93.5603 468.255 91.3264 467.976 89.0926 467.417C86.3002 466.58 84.6247 465.184 84.0663 463.368C82.6701 458.342 86.4398 437.958 91.1868 434.467C95.9339 430.977 144.381 419.389 147.174 419.109C149.687 418.83 196.738 402.774 228.292 391.884L218.24 315.792L220.334 315.512L230.666 393.42L229.828 393.699C221.73 396.491 150.944 421.064 147.453 421.343C143.404 421.762 96.2131 433.49 92.4434 436.283C88.6737 439.075 84.7644 458.203 86.1606 462.95C86.4398 464.067 87.6964 464.904 89.7906 465.463C94.3981 466.859 100.821 466.301 102.077 465.184L102.217 465.044C100.96 464.206 99.5639 463.648 98.0281 463.508L90.0699 461.972L98.1678 461.553C98.3074 461.553 116.737 460.437 121.484 459.459C126.231 458.482 141.868 451.92 142.008 451.78L142.287 451.641C143.544 451.501 266.129 440.192 278.415 415.759C290.702 391.325 257.612 309.369 257.333 308.532L259.288 307.694C260.684 311.045 293.075 391.325 280.37 416.736C267.665 442.146 149.827 453.176 142.706 453.735C141.031 454.433 126.65 460.437 121.903 461.414C118.552 462.112 109.058 462.81 103.194 463.229C103.752 463.508 104.171 464.067 104.311 464.625C104.451 465.463 104.171 466.301 103.473 466.719C102.077 467.697 99.1451 468.255 95.9338 468.255Z" fill="#231F20"/>
<path d="M115.62 332.127C115.62 332.127 138.238 274.186 144.661 264.691C151.083 255.197 178.867 231.881 182.358 234.115C185.848 236.349 184.871 239.002 183.335 240.817C181.799 242.632 173.841 248.216 173.841 248.216C173.841 248.216 182.916 244.028 183.195 249.473C183.475 254.918 176.494 258.269 176.494 258.269C176.494 258.269 184.173 252.684 184.452 258.688C184.731 262.597 179.146 267.065 179.146 267.065C179.146 267.065 187.244 260.084 186.546 267.344C185.29 279.212 161.415 293.313 161.415 293.313L151.362 391.884C151.362 391.884 147.732 449.128 111.292 447.313C64.5196 445.079 50.4182 378.201 73.8741 320.958" fill="white"/>
<path d="M112.828 448.569C112.269 448.569 111.711 448.569 111.152 448.569C95.7942 447.871 82.9493 440.192 74.1533 426.23C57.9576 400.82 57.3991 358.375 72.8967 320.818L74.8514 321.656C59.633 358.655 60.1914 400.261 75.9683 425.113C84.3454 438.377 96.6319 445.777 111.292 446.475C146.336 448.15 150.245 392.582 150.245 392.024L160.438 292.894L160.856 292.615C161.136 292.476 184.312 278.653 185.569 267.344C185.708 265.948 185.569 265.39 185.29 265.25C184.592 264.831 182.078 266.227 180.263 267.763C180.124 267.903 180.124 267.903 179.984 268.042L178.728 266.506L179.007 266.227C180.682 264.831 183.893 261.48 183.754 258.967C183.754 257.99 183.475 257.431 183.056 257.292C181.799 257.152 180.543 257.431 179.565 258.129C178.867 258.688 178.029 259.107 177.331 259.526L176.214 257.711C176.913 257.152 177.611 256.733 178.448 256.314C180.263 255.058 182.637 252.684 182.497 249.752C182.497 249.194 182.218 248.635 181.799 248.216C180.263 247.239 176.633 248.356 174.679 249.333L173.701 247.518C176.913 245.284 180.124 242.911 183.056 240.398C183.754 239.7 184.173 238.583 184.173 237.605C183.893 236.628 183.195 235.79 182.358 235.232C179.007 234.255 152.898 255.337 146.057 265.39C139.774 274.744 117.435 332.127 117.156 332.686L115.201 331.988C116.178 329.614 137.959 273.767 144.242 264.273C149.687 256.035 178.728 230.345 183.475 233.417C185.988 234.673 186.965 237.605 185.848 240.119C185.569 240.677 185.15 241.236 184.731 241.654C183.195 243.19 181.52 244.586 179.705 245.843C180.822 245.703 182.078 245.983 183.056 246.401C184.173 247.099 184.871 248.356 184.731 249.613C184.871 251.567 184.173 253.522 182.916 255.058C183.335 255.058 183.754 255.197 184.173 255.337C185.429 256.035 186.127 257.431 186.127 258.827C186.127 260.363 185.708 262.039 184.731 263.295C185.429 263.156 186.127 263.295 186.686 263.574C187.803 264.133 188.361 265.529 188.082 267.763C186.825 279.212 166.302 292.196 162.811 294.291L152.759 392.303C152.34 392.582 148.291 448.569 112.828 448.569Z" fill="#231F20"/>
<path d="M116.877 329.893C116.877 329.893 98.5867 379.458 93.9792 395.933L116.877 329.893Z" fill="white"/>
<path d="M94.9565 396.212L93.0018 395.654C97.6092 379.458 115.76 330.033 115.899 329.614L117.854 330.312C117.575 330.731 99.5639 380.017 94.9565 396.212Z" fill="#231F20"/>
<path d="M216.285 282.144C216.285 283.54 219.496 316.49 219.496 316.49L216.285 282.144Z" fill="white"/>
<path d="M218.519 316.63C218.24 313.279 215.308 283.68 215.308 282.144H217.402C217.402 283.121 219.357 303.226 220.613 316.35L218.519 316.63Z" fill="#231F20"/>
<path d="M198.972 345.81L197.018 345.112L207.768 316.35L190.874 298.2L204.836 284.936C203.719 283.54 190.456 267.204 189.478 264.971L191.433 264.133C191.991 265.389 199.81 275.302 206.651 283.679C207.349 284.517 207.21 285.634 206.512 286.332L193.946 298.2L209.444 314.954C210.002 315.512 210.142 316.35 209.863 317.048L198.972 345.81Z" fill="#231F20"/>
<path d="M127.208 294.43L118.971 287.31C118.273 286.751 118.133 285.634 118.552 284.797L129.582 265.11L131.397 266.088L120.367 285.634L128.465 292.755L127.208 294.43Z" fill="#231F20"/>
<path d="M162.113 301.272L160.857 312.581C160.857 312.581 127.627 302.389 127.767 301.97C127.907 301.551 130.14 290.521 130.14 290.521L162.113 301.272Z" fill="white"/>
<path d="M161.834 313.977L160.577 313.558C127.348 303.366 127.069 302.807 126.929 302.388L126.789 301.97L126.929 301.551C127.069 300.992 128.465 294.291 129.163 290.242L129.442 288.985L163.369 300.573L161.834 313.977ZM129.023 301.411C132.514 302.807 148.849 307.834 160.019 311.324L160.996 302.109L130.978 291.917C130.28 295.547 129.442 299.456 129.023 301.411Z" fill="#231F20"/>
<path d="M136.423 307.973C142.284 307.973 147.034 303.222 147.034 297.362C147.034 291.502 142.284 286.751 136.423 286.751C130.563 286.751 125.812 291.502 125.812 297.362C125.812 303.222 130.563 307.973 136.423 307.973Z" fill="white"/>
<path d="M136.423 308.951C130.001 308.951 124.835 303.785 124.835 297.362C124.835 290.94 130.001 285.774 136.423 285.774C142.846 285.774 148.012 290.94 148.012 297.362C148.012 303.785 142.846 308.951 136.423 308.951ZM136.423 287.868C131.118 287.868 126.929 292.057 126.929 297.362C126.929 302.668 131.118 306.856 136.423 306.856C141.729 306.856 145.917 302.668 145.917 297.362C145.917 292.057 141.729 287.868 136.423 287.868Z" fill="#231F20"/>
<path d="M132.095 292.615L136.423 295.687L138.099 304.622" fill="white"/>
<path d="M137.121 304.902L135.585 296.385L131.536 293.453L132.793 291.778L137.4 295.268L139.216 304.483L137.121 304.902Z" fill="#231F20"/>
<path d="M175.796 222.945C170.071 228.111 161.834 229.228 154.992 225.738L175.796 222.945Z" fill="white"/>
<path d="M163.509 228.809C160.438 228.809 157.366 228.111 154.574 226.715L155.411 224.76C161.834 228.111 169.652 226.994 175.098 222.108L176.633 223.504C173.003 226.855 168.256 228.67 163.509 228.809Z" fill="#231F20"/>
</svg>
