<svg width="27" height="24" viewBox="0 0 27 24" fill="none" xmlns="http://www.w3.org/2000/svg">
<g id="bxs:phone-call">
<path id="Vector" d="M22.5 10.999H24.75C24.75 5.869 20.3929 2 14.6137 2V4C19.1835 4 22.5 6.943 22.5 10.999Z" fill="white"/>
<path id="Vector_2" d="M14.625 8.00024C16.9909 8.00024 18 8.89724 18 11.0002H20.25C20.25 7.77524 18.2531 6.00024 14.625 6.00024V8.00024ZM18.4748 13.4432C18.2586 13.2686 17.9745 13.1754 17.6825 13.1835C17.3906 13.1915 17.1135 13.3001 16.9099 13.4862L14.2178 15.9472C13.5698 15.8372 12.267 15.4762 10.926 14.2872C9.58501 13.0942 9.17889 11.9332 9.05851 11.3612L11.8249 8.96724C12.0346 8.78637 12.1569 8.54006 12.1659 8.28045C12.175 8.02083 12.07 7.76828 11.8733 7.57624L7.71639 3.51324C7.51956 3.3206 7.246 3.20374 6.95381 3.1875C6.66162 3.17125 6.37381 3.2569 6.15151 3.42624L3.71026 5.28724C3.51576 5.46075 3.39967 5.69169 3.38401 5.93624C3.36714 6.18624 3.04539 12.1082 8.21139 16.7022C12.7181 20.7072 18.3634 21.0002 19.9181 21.0002C20.1454 21.0002 20.2849 20.9942 20.322 20.9922C20.5971 20.9786 20.8568 20.8749 21.051 20.7012L23.1435 18.5302C23.3342 18.3328 23.4307 18.077 23.4126 17.8173C23.3946 17.5576 23.2633 17.3143 23.0468 17.1392L18.4748 13.4432Z" fill="white"/>
</g>
</svg>
