<svg width="27" height="24" viewBox="0 0 27 24" fill="none" xmlns="http://www.w3.org/2000/svg">
<g id="carbon:location-filled">
<path id="Vector" d="M13.5 1.5C11.0394 1.50258 8.68032 2.3726 6.94038 3.91922C5.20044 5.46584 4.22166 7.56276 4.21876 9.75C4.21581 11.5374 4.87265 13.2763 6.08851 14.7C6.08851 14.7 6.34163 14.9963 6.38298 15.039L13.5 22.5L20.6204 15.0353C20.6575 14.9955 20.9115 14.7 20.9115 14.7L20.9124 14.6978C22.1276 13.2747 22.7841 11.5366 22.7813 9.75C22.7784 7.56276 21.7996 5.46584 20.0596 3.91922C18.3197 2.3726 15.9607 1.50258 13.5 1.5ZM13.5 12.75C12.8325 12.75 12.18 12.5741 11.625 12.2444C11.0699 11.9148 10.6374 11.4462 10.3819 10.8981C10.1265 10.3499 10.0596 9.74667 10.1899 9.16473C10.3201 8.58279 10.6415 8.04824 11.1135 7.62868C11.5855 7.20912 12.1869 6.9234 12.8416 6.80764C13.4963 6.69189 14.1749 6.7513 14.7916 6.97836C15.4083 7.20542 15.9354 7.58994 16.3062 8.08329C16.6771 8.57664 16.875 9.15666 16.875 9.75C16.8739 10.5453 16.518 11.3078 15.8853 11.8702C15.2526 12.4326 14.3948 12.749 13.5 12.75Z" fill="white"/>
</g>
</svg>
