<svg width="88" height="58" viewBox="0 0 88 58" fill="none" xmlns="http://www.w3.org/2000/svg">
<g id="OBJECTS" clip-path="url(#clip0_767_976)">
<path id="Vector" d="M38.8695 57.233C35.6158 57.3044 32.5447 54.5507 31.9733 51.1859C31.6876 49.4718 32.14 48.0116 32.8462 46.5673C35.2429 41.6312 37.6871 36.7269 40.1075 31.7988C42.9882 25.9263 45.8609 20.0538 48.7337 14.1813C50.8684 9.81661 52.9952 5.43605 55.1141 1.07137C55.4077 0.468248 55.7093 -0.0713861 56.5425 0.0159076C57.2885 0.0873297 57.7488 0.603156 57.5821 1.31738C56.7012 5.16624 55.8124 9.00716 54.9236 12.856C53.5031 19.0301 52.0905 25.1962 50.6621 31.3702C49.4797 36.4967 48.2972 41.6233 47.0989 46.7498C46.7101 48.4163 46.226 50.0669 45.9006 51.7493C45.2896 54.8998 41.9803 57.3361 38.8695 57.2409V57.233ZM39.2028 46.5752C37.2982 46.5752 35.7349 48.1147 35.7507 49.9876C35.7666 51.7176 37.5284 53.5825 39.2187 53.4873C40.9804 53.3841 42.6866 52.2017 42.6946 49.9638C42.7025 48.0274 41.2899 46.48 39.2028 46.5752Z" fill="black"/>
<path id="Vector_2" d="M68.97 39.9805C67.3193 34.481 64.3355 29.7195 60.193 25.6247C61.9151 23.5455 63.5895 21.506 65.2719 19.4824C66.1925 18.3714 67.1368 17.2921 68.0177 16.1573C68.4938 15.5462 69.0017 15.5065 69.5175 15.9589C71.2872 17.5143 73.1204 19.0142 74.7393 20.7124C76.3106 22.3631 77.7946 24.1407 79.0564 26.0373C80.6515 28.4498 81.9847 31.0369 83.4369 33.5525C83.8734 34.3064 83.2068 34.4096 82.7941 34.5763C80.7388 35.4254 78.6675 36.2428 76.5963 37.0681C74.1838 38.0363 71.7793 39.0044 69.3668 39.9726C69.2874 40.0043 69.1922 39.9726 68.97 39.9726V39.9805Z" fill="#C9DA2B"/>
<path id="Vector_3" d="M69.4302 57.6456C69.6445 56.1934 69.9223 54.8522 70.0334 53.4952C70.1683 51.8525 70.2556 50.2019 70.2 48.5592C70.1365 46.845 69.8984 45.1309 69.7001 43.4247C69.6366 42.9009 69.9064 42.766 70.3111 42.647C72.7791 41.9486 75.2472 41.2344 77.7073 40.5281C79.9214 39.8933 82.1275 39.2425 84.3416 38.6315C84.667 38.5442 85.032 38.5918 85.4129 38.568C86.3573 41.4646 87.0398 44.3611 87.4842 47.337C87.9524 50.4717 87.9921 53.5984 87.9921 56.7489C87.9921 57.3917 87.8175 57.7329 87.0953 57.7329C81.4133 57.7171 75.7313 57.725 70.0492 57.7171C69.8746 57.7171 69.7001 57.6774 69.4223 57.6456H69.4302Z" fill="#C9DA2A"/>
<path id="Vector_4" d="M36.6554 16.8953C32.0923 17.062 27.7356 18.0778 23.6328 20.1093C23.0535 20.395 22.4583 20.6569 21.9028 20.9823C21.3631 21.2918 20.9822 21.1807 20.641 20.6807C19.5538 19.0618 18.4666 17.4429 17.3556 15.8478C17.0302 15.3796 17.0778 15.0701 17.546 14.7606C18.9824 13.8242 20.3553 12.7846 21.8472 11.9513C25.4739 9.91184 29.3307 8.44372 33.4097 7.58665C34.7429 7.3089 36.1078 7.15812 37.4569 6.95179C38.0442 6.8645 38.2267 7.13431 38.2505 7.69775C38.3457 10.0467 38.4727 12.3878 38.5997 14.7368C38.6156 14.9907 38.6949 15.2447 38.7505 15.5066C38.9489 16.5065 38.6552 16.8795 37.6394 16.9033C37.3141 16.9112 36.9887 16.9033 36.6633 16.9033L36.6554 16.8953Z" fill="#EC9F06"/>
<path id="Vector_5" d="M5.95183 37.8458C4.69798 37.3379 3.54729 36.9015 2.42041 36.3857C2.29343 36.3222 2.25376 35.8222 2.34105 35.5762C3.71394 31.3861 5.69789 27.4817 8.37225 23.982C9.84831 22.0536 11.5545 20.3077 13.1575 18.4746C13.5226 18.0619 13.9829 17.9191 14.3717 18.3714C15.578 19.7681 16.7445 21.1965 17.9349 22.6091C18.292 23.0376 18.2761 23.2837 17.7841 23.6646C13.5226 27.0055 9.95941 30.9496 7.46757 35.7984C7.21363 36.2904 6.95968 36.7904 6.65018 37.2507C6.4994 37.4808 6.22165 37.6316 5.95977 37.8538L5.95183 37.8458Z" fill="#EC9F06"/>
<path id="Vector_6" d="M58.0741 9.396C59.7962 10.2054 61.3834 10.9514 62.9626 11.7053C63.4387 11.9354 63.8831 12.2211 64.3513 12.4592C64.9545 12.7528 64.9941 13.1099 64.6291 13.6575C63.288 15.6494 61.9706 17.6572 60.6453 19.6649C59.9152 20.768 59.1772 21.8711 58.4789 22.99C58.1535 23.5058 57.8281 23.6328 57.344 23.236C57.0504 22.9979 56.733 22.7837 56.4235 22.5615C55.2172 21.6885 55.249 21.6965 55.5982 20.1807C56.4235 16.6731 57.2091 13.1576 58.0741 9.396Z" fill="#C9DA2C"/>
<path id="Vector_7" d="M4.93607 41.1471C4.57102 42.5041 4.11868 43.7976 3.88061 45.1229C3.47588 47.3529 3.15845 49.5987 2.89657 51.8445C2.74579 53.1222 2.75372 54.4237 2.69817 55.7172C2.69024 55.9235 2.67437 56.1378 2.70611 56.3362C2.92038 57.6059 2.29345 58.1932 1.11101 57.717C0.849133 57.6139 0.618995 57.1298 0.587252 56.8044C0.372986 54.4475 0.174591 52.0826 0.0396823 49.7177C-0.126969 46.8371 0.26982 44.004 0.745968 41.1709C0.91262 40.1789 1.12689 40.0599 2.08712 40.3376C2.9918 40.5995 3.91235 40.8535 4.93607 41.1392V41.1471Z" fill="#EC9F06"/>
<path id="Vector_8" d="M49.5749 7.20569C49.0988 8.15005 48.6464 8.99918 48.2258 9.86418C47.1069 12.1656 45.9879 14.459 44.9007 16.7763C44.623 17.3635 44.2976 17.6016 43.6786 17.3238C43.5516 17.2683 43.3929 17.2603 43.2501 17.2445C41.8772 17.1016 41.8375 16.9429 41.9407 15.5541C42.0914 13.5305 42.0835 11.491 42.1549 9.46739C42.1867 8.68175 42.2264 7.88817 42.3613 7.11046C42.393 6.90413 42.7977 6.61051 43.0199 6.61844C44.861 6.72161 46.6942 6.88826 48.5353 7.04698C48.821 7.07078 49.1146 7.13427 49.5828 7.21363L49.5749 7.20569Z" fill="#C9DA2B"/>
<path id="Vector_9" d="M39.2028 46.5673C41.282 46.4721 42.7025 48.0195 42.6945 49.9559C42.6787 52.1938 40.9725 53.3762 39.2187 53.4794C37.5283 53.5746 35.7666 51.7097 35.7507 49.9797C35.7349 48.1148 37.2982 46.5673 39.2028 46.5673Z" fill="#FEFFFF"/>
</g>
<defs>
<clipPath id="clip0_767_976">
<rect width="88" height="57.8837" fill="white"/>
</clipPath>
</defs>
</svg>
