<svg width="88" height="58" viewBox="0 0 88 58" fill="none" xmlns="http://www.w3.org/2000/svg">
<g id="OBJECTS" clip-path="url(#clip0_18_1693)">
<path id="Vector" d="M38.8693 57.233C35.6156 57.3044 32.5444 54.5507 31.9731 51.1859C31.6874 49.4718 32.1397 48.0116 32.846 46.5673C35.2426 41.6312 37.6868 36.7269 40.1073 31.7988C42.9879 25.9263 45.8607 20.0538 48.7335 14.1813C50.8682 9.81661 52.995 5.43605 55.1138 1.07137C55.4075 0.468248 55.709 -0.0713861 56.5423 0.0159076C57.2882 0.0873297 57.7485 0.603156 57.5819 1.31738C56.701 5.16624 55.8122 9.00716 54.9234 12.856C53.5029 19.0301 52.0903 25.1962 50.6619 31.3702C49.4794 36.4967 48.297 41.6233 47.0987 46.7498C46.7098 48.4163 46.2257 50.0669 45.9004 51.7493C45.2893 54.8998 41.9801 57.3361 38.8693 57.2409V57.233ZM39.2026 46.5752C37.298 46.5752 35.7346 48.1147 35.7505 49.9876C35.7664 51.7176 37.5281 53.5825 39.2184 53.4873C40.9802 53.3841 42.6864 52.2017 42.6943 49.9638C42.7023 48.0274 41.2897 46.48 39.2026 46.5752Z" fill="white"/>
<path id="Vector_2" d="M68.9699 39.9805C67.3192 34.481 64.3354 29.7195 60.1929 25.6247C61.9149 23.5455 63.5894 21.506 65.2718 19.4824C66.1923 18.3714 67.1367 17.2921 68.0176 16.1573C68.4937 15.5462 69.0016 15.5065 69.5174 15.9589C71.2871 17.5143 73.1203 19.0142 74.7392 20.7124C76.3105 22.3631 77.7945 24.1407 79.0563 26.0373C80.6513 28.4498 81.9846 31.0369 83.4368 33.5525C83.8733 34.3064 83.2067 34.4096 82.794 34.5763C80.7386 35.4254 78.6674 36.2428 76.5962 37.0681C74.1837 38.0363 71.7791 39.0044 69.3667 39.9726C69.2873 40.0043 69.1921 39.9726 68.9699 39.9726V39.9805Z" fill="white"/>
<path id="Vector_3" d="M69.4303 57.6456C69.6446 56.1934 69.9223 54.8522 70.0334 53.4952C70.1683 51.8525 70.2556 50.2019 70.2001 48.5592C70.1366 46.845 69.8985 45.1309 69.7001 43.4247C69.6366 42.9009 69.9064 42.766 70.3112 42.647C72.7792 41.9486 75.2472 41.2344 77.7073 40.5281C79.9214 39.8933 82.1276 39.2425 84.3417 38.6315C84.667 38.5442 85.0321 38.5918 85.413 38.568C86.3573 41.4646 87.0398 44.3611 87.4842 47.337C87.9524 50.4717 87.9921 53.5984 87.9921 56.7489C87.9921 57.3917 87.8175 57.7329 87.0954 57.7329C81.4133 57.7171 75.7313 57.725 70.0493 57.7171C69.8747 57.7171 69.7001 57.6774 69.4224 57.6456H69.4303Z" fill="white"/>
<path id="Vector_4" d="M36.6554 16.8953C32.0923 17.062 27.7356 18.0778 23.6328 20.1093C23.0535 20.395 22.4583 20.6569 21.9028 20.9823C21.3631 21.2918 20.9822 21.1807 20.641 20.6807C19.5538 19.0618 18.4666 17.4429 17.3556 15.8478C17.0302 15.3796 17.0778 15.0701 17.546 14.7606C18.9824 13.8242 20.3553 12.7846 21.8472 11.9513C25.4739 9.91184 29.3307 8.44372 33.4097 7.58665C34.7429 7.3089 36.1078 7.15812 37.4569 6.95179C38.0442 6.8645 38.2267 7.13431 38.2505 7.69775C38.3457 10.0467 38.4727 12.3878 38.5997 14.7368C38.6156 14.9907 38.6949 15.2447 38.7505 15.5066C38.9489 16.5065 38.6552 16.8795 37.6394 16.9033C37.3141 16.9112 36.9887 16.9033 36.6633 16.9033L36.6554 16.8953Z" fill="white"/>
<path id="Vector_5" d="M5.95199 37.8458C4.69813 37.3379 3.54744 36.9015 2.42056 36.3857C2.29359 36.3222 2.25391 35.8222 2.3412 35.5762C3.71409 31.3861 5.69804 27.4817 8.3724 23.982C9.84846 22.0536 11.5547 20.3077 13.1577 18.4746C13.5227 18.0619 13.983 17.9191 14.3719 18.3714C15.5781 19.7681 16.7447 21.1965 17.935 22.6091C18.2921 23.0376 18.2763 23.2837 17.7843 23.6646C13.5227 27.0055 9.95956 30.9496 7.46772 35.7984C7.21378 36.2904 6.95983 36.7904 6.65034 37.2507C6.49956 37.4808 6.2218 37.6316 5.95992 37.8538L5.95199 37.8458Z" fill="white"/>
<path id="Vector_6" d="M58.0739 9.396C59.796 10.2054 61.3831 10.9514 62.9624 11.7053C63.4385 11.9354 63.8829 12.2211 64.3511 12.4592C64.9542 12.7528 64.9939 13.1099 64.6289 13.6575C63.2877 15.6494 61.9704 17.6572 60.6451 19.6649C59.915 20.768 59.177 21.8711 58.4786 22.99C58.1533 23.5058 57.8279 23.6328 57.3438 23.236C57.0502 22.9979 56.7328 22.7837 56.4233 22.5615C55.217 21.6885 55.2488 21.6965 55.598 20.1807C56.4233 16.6731 57.2089 13.1576 58.0739 9.396Z" fill="white"/>
<path id="Vector_7" d="M4.93607 41.1471C4.57102 42.5041 4.11868 43.7976 3.88061 45.1229C3.47588 47.3529 3.15845 49.5987 2.89657 51.8445C2.74579 53.1222 2.75372 54.4237 2.69817 55.7172C2.69024 55.9235 2.67437 56.1378 2.70611 56.3362C2.92038 57.6059 2.29345 58.1932 1.11101 57.717C0.849133 57.6139 0.618995 57.1298 0.587252 56.8044C0.372986 54.4475 0.174591 52.0826 0.0396823 49.7177C-0.126969 46.8371 0.26982 44.004 0.745968 41.1709C0.91262 40.1789 1.12689 40.0599 2.08712 40.3376C2.9918 40.5995 3.91235 40.8535 4.93607 41.1392V41.1471Z" fill="white"/>
<path id="Vector_8" d="M49.5747 7.20569C49.0986 8.15005 48.6463 8.99918 48.2257 9.86418C47.1067 12.1656 45.9878 14.459 44.9006 16.7763C44.6228 17.3635 44.2974 17.6016 43.6785 17.3238C43.5515 17.2683 43.3928 17.2603 43.2499 17.2445C41.877 17.1016 41.8373 16.9429 41.9405 15.5541C42.0913 13.5305 42.0834 11.491 42.1548 9.46739C42.1865 8.68175 42.2262 7.88817 42.3611 7.11046C42.3929 6.90413 42.7976 6.61051 43.0198 6.61844C44.8609 6.72161 46.6941 6.88826 48.5352 7.04698C48.8208 7.07078 49.1145 7.13427 49.5827 7.21363L49.5747 7.20569Z" fill="white"/>
<path id="Vector_9" d="M39.2027 46.5673C41.2819 46.4721 42.7024 48.0195 42.6944 49.9559C42.6786 52.1938 40.9724 53.3762 39.2185 53.4794C37.5282 53.5746 35.7665 51.7097 35.7506 49.9797C35.7347 48.1148 37.2981 46.5673 39.2027 46.5673Z" fill="#FEFFFF"/>
</g>
<defs>
<clipPath id="clip0_18_1693">
<rect width="88" height="57.8837" fill="white"/>
</clipPath>
</defs>
</svg>
