<svg width="69" height="88" viewBox="0 0 69 88" fill="none" xmlns="http://www.w3.org/2000/svg">
<g id="OBJECTS" clip-path="url(#clip0_18_1749)">
<path id="Vector" d="M42.5469 19.227C50.046 19.227 57.5555 19.2166 65.0546 19.227C66.669 19.227 67.8564 20.154 68.1167 21.6017C68.5021 23.7369 67.4606 25.3096 65.1483 25.5388C64.9921 25.5596 64.8255 25.5388 64.6692 25.5388C47.8379 25.5388 31.017 25.5388 14.1856 25.5388C14.0086 25.5388 13.8315 25.5388 13.6336 25.5388C13.7898 25.9866 14.1127 26.0074 14.4877 26.0074C28.184 26.0074 41.8907 26.0074 55.587 26.0074C57.6492 26.0074 58.8053 27.2885 58.9095 29.0488C59.0137 30.809 57.6492 32.3296 55.6911 32.3296C50.473 32.3296 45.2549 32.3296 40.0471 32.3296C39.1723 32.3296 38.3078 32.3296 37.4016 32.3296V35.9646H37.9849C42.4531 35.9646 46.9213 35.9646 51.3791 35.9646C53.1914 35.9646 54.7433 36.5375 55.9515 37.9331C56.691 38.7872 57.0035 39.8183 57.2118 40.8911C57.4201 41.9847 57.5867 43.0888 57.7742 44.1824C58.045 45.7239 58.3262 47.2654 58.597 48.8172C58.7949 49.89 58.9928 50.9732 59.1803 52.046C59.4511 53.5875 59.7115 55.129 59.9927 56.6705C60.2531 58.1078 60.5447 59.5347 60.7947 60.9721C61.0759 62.5344 61.3155 64.0967 61.5967 65.6486C61.8571 67.0963 62.1487 68.5441 62.4195 69.9918C62.5862 70.8771 62.732 71.7625 62.8882 72.6478C63.0861 73.7206 63.3048 74.7933 63.461 75.8765C63.6485 77.1785 63.8881 78.4804 63.9193 79.7823C63.9402 80.9801 63.4194 82.0425 62.5757 82.9486C61.8675 83.709 61.0551 84.2506 60.0656 84.5318C59.9823 84.5734 59.899 84.6047 59.8261 84.6463C59.4823 84.6463 59.1491 84.6463 58.8053 84.6463C41.5261 84.6463 24.2469 84.6463 6.96773 84.6463C6.89482 84.6151 6.81149 84.5734 6.73859 84.5422C4.83256 84.0631 3.21817 82.2508 2.84321 80.3344C2.61407 79.1678 2.89529 78.0742 3.08277 76.9598C3.31191 75.637 3.56188 74.3246 3.82227 73.0123C4.06182 71.752 4.33262 70.5022 4.58259 69.2419C4.90547 67.5755 5.22835 65.909 5.54081 64.2529C5.9366 62.1594 6.31155 60.0555 6.72817 57.962C7.13437 55.8685 7.59265 53.7854 7.99885 51.6919C8.47796 49.2651 8.93624 46.8279 9.40494 44.4011C9.68616 42.9325 9.89446 41.4535 10.2694 40.0162C10.7589 38.1414 12.0505 36.9228 13.8315 36.2354C14.2585 36.0688 14.7585 36.0063 15.2168 36.0063C20.2578 35.9854 25.2885 35.9958 30.3295 35.9854C30.517 35.9854 30.7149 35.9854 30.9232 35.9854V32.3504C30.7358 32.3504 30.5483 32.3504 30.3608 32.3504C24.5177 32.3504 18.6851 32.3296 12.842 32.3609C11.5922 32.3609 10.6652 31.913 9.86322 30.9756C8.3634 29.2258 6.8115 27.5281 5.27001 25.82C5.15544 25.695 4.9263 25.6117 4.74924 25.5908C4.00974 25.5283 3.24942 25.5908 2.53075 25.4554C1.36422 25.2471 0.624727 24.4555 0.187279 23.3828C-0.552217 21.6121 0.82262 19.8103 2.37452 19.2791C2.64532 19.1853 2.97862 19.227 3.28066 19.227C11.3943 19.227 19.4975 19.227 27.6111 19.227L27.7465 19.2478C27.8194 19.2478 27.8819 19.227 27.9548 19.227C32.7772 19.227 37.5891 19.227 42.4115 19.227C42.4531 19.227 42.4948 19.227 42.5469 19.227ZM35.8289 35.85C35.8289 34.7877 35.8289 33.7253 35.8289 32.6733C35.8289 32.6213 35.8289 32.5796 35.8289 32.5275C35.8185 32.4963 35.8081 32.465 35.7976 32.4234C34.9436 32.3921 34.0999 32.3504 33.2459 32.34C33.0167 32.34 32.7772 32.4025 32.548 32.4338C32.548 33.5378 32.5272 34.6314 32.5272 35.7355C32.5272 35.8084 32.6209 35.8917 32.6626 35.9646C33.6625 35.9646 34.6624 35.9646 35.6623 35.9646H35.7143H35.7664C35.7872 35.9229 35.8081 35.8917 35.8289 35.85ZM52.0978 38.1831C51.9103 38.1623 51.7124 38.1206 51.525 38.1206C39.6305 38.1206 27.7361 38.1206 15.8417 38.1206C15.6542 38.1206 15.4563 38.1623 15.2688 38.1727C15.1751 38.1935 15.0814 38.2039 14.9876 38.2248C13.6024 38.4018 12.4671 39.6204 12.1963 41.1411C11.8838 42.9117 11.5609 44.6823 11.2276 46.4529C10.8214 48.5777 10.3632 50.692 9.95696 52.8272C9.48826 55.2332 9.06123 57.6495 8.60295 60.0555C8.32173 61.4928 7.98844 62.9302 7.71764 64.3675C7.44684 65.7632 7.23853 67.1692 6.96773 68.5649C6.69693 69.971 6.37405 71.3771 6.11366 72.7832C5.73871 74.7204 5.43666 76.6785 5.02004 78.6054C4.85339 79.3761 4.96796 80.0531 5.29084 80.7093C5.85328 81.8238 6.72817 82.5424 8.0301 82.5945C8.20716 82.5945 8.38423 82.6153 8.56129 82.6153C25.1427 82.6153 41.7136 82.6153 58.295 82.6153C58.4721 82.6153 58.6491 82.5945 58.8262 82.5945C60.2323 82.5737 61.8571 81.3238 61.805 79.5011C61.7633 78.1888 61.4821 76.8868 61.2634 75.5849C60.8364 73.106 60.3781 70.6272 59.9198 68.1483C59.6073 66.4193 59.2532 64.7008 58.9512 62.9718C58.5866 60.9408 58.2637 58.8994 57.8992 56.8684C57.618 55.3165 57.2951 53.7646 57.0139 52.2127C56.6598 50.2025 56.3369 48.1923 55.9828 46.1821C55.6599 44.4011 55.2953 42.6201 54.9829 40.839C54.7537 39.5059 53.7539 38.4747 52.3999 38.2352C52.3061 38.2143 52.2124 38.2039 52.1082 38.1831H52.0978ZM12.2484 30.7569C12.4358 30.7777 12.6337 30.8298 12.8212 30.8298C27.0487 30.8298 41.2762 30.8298 55.4932 30.8298C55.6807 30.8298 55.8786 30.7881 56.0661 30.7569C56.1182 30.7465 56.1807 30.7256 56.2327 30.7152C57.1076 30.4236 57.4097 29.8924 57.3264 28.8196C57.2847 28.2572 56.7327 27.7468 56.0244 27.6218C55.8474 27.6114 55.6703 27.5802 55.4932 27.5802C41.422 27.5802 27.3403 27.5802 13.2691 27.5802C11.4568 25.5179 9.63408 23.4661 7.83221 21.3934C7.2177 20.6852 6.11366 20.581 5.45749 21.1747C4.72841 21.8413 4.68675 22.7266 5.38458 23.5286C7.33227 25.7575 9.29037 27.976 11.2589 30.184C11.4672 30.4236 11.8005 30.5486 12.0817 30.7256C12.1338 30.7361 12.1963 30.7569 12.2484 30.7673V30.7569ZM65.1379 20.7685C64.9817 20.7685 64.8151 20.7477 64.6588 20.7477C46.5464 20.7477 28.4235 20.7477 10.3111 20.7477C10.1549 20.7477 9.9882 20.7581 9.83197 20.7685C9.75906 20.7685 9.68616 20.7685 9.62366 20.7685C9.56117 20.7685 9.48826 20.7685 9.30079 20.7477C10.3111 21.8621 11.2589 22.9036 12.1963 23.9452C12.3942 23.9556 12.5816 23.9869 12.7795 23.9869C30.0587 23.9869 47.338 23.9869 64.6067 23.9869C64.815 23.9869 65.0338 23.966 65.2421 23.9556C66.0337 23.841 66.5961 23.3307 66.6378 22.6641C66.7107 21.633 66.367 21.0809 65.4921 20.831C65.3775 20.8101 65.2525 20.7789 65.1379 20.7581V20.7685ZM3.7806 20.7477C3.54105 20.7477 3.34316 20.7477 3.14526 20.7477C2.18704 20.7893 1.48921 21.7788 1.56212 22.487C1.64544 23.2474 2.53075 24.1014 3.31191 24.0493C3.44731 24.0493 3.68686 23.7785 3.66603 23.7369C3.16609 22.7474 3.34316 21.7788 3.7806 20.7477Z" fill="#010100"/>
<path id="Vector_2" d="M42.4119 19.2269C37.5895 19.2269 32.7776 19.2269 27.9552 19.2269C27.8927 19.2061 27.8303 19.1852 27.7782 19.1644C27.7573 19.1644 27.7365 19.154 27.7157 19.154C26.6429 17.925 25.9034 16.498 25.5284 14.9253C25.2681 13.8109 25.1847 12.6652 25.3514 11.4986C25.768 8.60314 27.1532 6.32216 29.528 4.66611C30.2883 4.13492 31.1944 3.80163 32.0381 3.38501C32.2776 3.54124 32.5068 3.69747 32.7568 3.84329C33.3504 4.19741 34.0066 4.35365 34.694 4.25991C35.2356 4.17658 35.7668 4.02035 36.3084 3.93703C36.4646 3.9162 36.7042 3.95786 36.7979 4.07243C38.079 5.44727 39.5997 5.77014 41.3495 5.14522C43.068 6.64504 44.2554 8.47816 44.672 10.7383C45.2553 13.8734 44.5262 16.6959 42.4743 19.154C42.4535 19.1852 42.4327 19.2165 42.4119 19.2477V19.2269Z" fill="white"/>
<path id="Vector_3" d="M60.6594 84.667H65.6172V87.9999H0.885254V84.667C2.69754 84.667 4.49941 84.667 6.29086 84.667C6.50959 84.6878 6.72831 84.7191 6.94704 84.7399C7.14493 84.7816 7.35324 84.8441 7.55113 84.8441C24.8199 84.8441 42.0991 84.8441 59.3679 84.8441C59.5762 84.8441 59.7845 84.792 59.9824 84.7607C60.2012 84.7295 60.4199 84.6982 60.649 84.667H60.6594Z" fill="#FFF9F1"/>
<path id="Vector_4" d="M41.3494 5.13471C39.5996 5.74922 38.0789 5.43675 36.7978 4.06192C36.6937 3.95776 36.4646 3.90568 36.3083 3.92652C35.7667 4.00984 35.2355 4.16607 34.6939 4.24939C34.0065 4.35355 33.3608 4.1869 32.7567 3.83278C32.5171 3.68696 32.2775 3.53073 32.038 3.3745C31.7776 3.16619 31.5172 2.95788 31.2568 2.74957C32.7567 1.99966 34.1211 1.77052 35.4647 2.74957C35.6834 2.91622 35.9438 3.02037 36.1833 3.15577C36.3812 3.35367 36.3604 3.86402 36.8603 3.61405C37.2145 3.52031 37.5686 3.41616 37.9227 3.32242C39.5788 3.03079 40.8078 3.73904 41.8806 4.99931C41.6827 5.05138 41.516 5.08263 41.3494 5.12429V5.13471Z" fill="#288F22"/>
<path id="Vector_5" d="M36.8709 3.62457C36.3709 3.87454 36.3917 3.36419 36.1938 3.16629C36.3084 2.77051 36.4542 2.38513 36.5167 1.98935C36.6209 1.34359 36.673 0.687419 36.7459 0H37.2875C37.1833 1.04154 37.0687 2.06226 36.9646 3.07255C36.9333 3.24962 36.8917 3.43709 36.8604 3.61416L36.8709 3.62457Z" fill="#6B4742"/>
<path id="Vector_6" d="M36.8708 3.62461C36.902 3.44755 36.9437 3.26007 36.9749 3.08301C37.2874 3.16633 37.6103 3.24965 37.9227 3.33298C37.5686 3.42672 37.2145 3.53087 36.8604 3.62461H36.8708Z" fill="white"/>
<path id="Vector_7" d="M60.6597 84.667C60.441 84.6982 60.2223 84.7295 59.9931 84.7607C59.9411 84.7295 59.889 84.6982 59.8369 84.6566C59.9202 84.6149 60.0036 84.5837 60.0765 84.542C60.2639 84.5837 60.4618 84.6149 60.6493 84.6566L60.6597 84.667Z" fill="white"/>
<path id="Vector_8" d="M6.94719 84.74C6.72846 84.7191 6.50974 84.6879 6.29102 84.6671C6.44725 84.6254 6.59306 84.5942 6.74929 84.5525C6.8222 84.5837 6.90553 84.6254 6.97843 84.6566C6.9576 84.6775 6.94719 84.6983 6.94719 84.7296V84.74Z" fill="white"/>
<path id="Vector_9" d="M42.4116 19.2268C42.4116 19.2268 42.4533 19.1643 42.4741 19.1331C42.4949 19.1643 42.5158 19.1955 42.547 19.2268C42.5054 19.2268 42.4637 19.2268 42.4116 19.2268Z" fill="white"/>
<path id="Vector_10" d="M27.757 19.2477L27.6216 19.2269C27.6216 19.2269 27.6841 19.1748 27.7153 19.1436C27.7362 19.1436 27.757 19.1436 27.7778 19.154C27.7778 19.1852 27.757 19.206 27.757 19.2373V19.2477Z" fill="white"/>
<path id="Vector_11" d="M8.01973 82.5944C6.70739 82.5423 5.83249 81.834 5.28048 80.7092C4.9576 80.0634 4.84303 79.376 5.00967 78.6052C5.42629 76.6784 5.72834 74.7203 6.10329 72.783C6.3741 71.3769 6.69697 69.9709 6.95736 68.5648C7.22816 67.1691 7.43647 65.763 7.70727 64.3673C7.98849 62.93 8.32178 61.4927 8.59258 60.0554C9.06128 57.6494 9.48831 55.233 9.94659 52.827C10.3528 50.7023 10.8111 48.588 11.2173 46.4528C11.561 44.6822 11.8839 42.9116 12.1859 41.1409C12.4567 39.6203 13.592 38.4121 14.9772 38.2246C15.1647 38.2559 15.3522 38.3288 15.5293 38.3288C27.6216 38.3288 39.7243 38.3288 51.8166 38.3288C52.0041 38.3288 52.1916 38.2663 52.3791 38.235C53.7435 38.4746 54.733 39.5057 54.9621 40.8389C55.2746 42.6199 55.6495 44.401 55.962 46.182C56.3161 48.1922 56.639 50.2024 56.9931 52.2125C57.2743 53.7644 57.5972 55.3163 57.8784 56.8682C58.243 58.8992 58.5658 60.9407 58.9304 62.9717C59.2428 64.7006 59.5866 66.4192 59.899 68.1481C60.3573 70.627 60.8156 73.1059 61.2426 75.5848C61.4613 76.8867 61.7425 78.1886 61.7842 79.501C61.8363 81.3237 60.2115 82.5631 58.8054 82.5944C58.6179 82.5631 58.4304 82.5006 58.243 82.5006C41.6824 82.5006 25.1219 82.5006 8.56134 82.5006C8.37386 82.5006 8.18638 82.5631 7.9989 82.5944H8.01973ZM33.9438 43.6719C27.8299 43.6302 23.57 45.5675 20.1954 49.3379C16.8208 53.1083 15.3522 57.5765 15.8521 62.628C16.5916 70.0333 22.9867 77.9803 33.048 77.9803C37.7766 77.9803 41.8491 76.2409 45.1716 72.8872C49.0357 68.9918 50.5564 64.2319 50.046 58.8055C49.3586 51.4939 42.8281 43.4948 33.9438 43.6719Z" fill="white"/>
<path id="Vector_12" d="M9.84271 20.7789C9.99894 20.7789 10.1656 20.7581 10.3218 20.7581C28.4343 20.7581 46.5571 20.7581 64.6696 20.7581C64.8258 20.7581 64.9924 20.7685 65.1487 20.7789C65.2632 20.7997 65.3882 20.831 65.5028 20.8518C66.3673 21.1018 66.711 21.6538 66.6485 22.6849C66.6068 23.3411 66.0444 23.8619 65.2528 23.9764C65.0445 23.9452 64.8466 23.8827 64.6383 23.8827C47.3695 23.8827 30.0903 23.8827 12.8215 23.8827C12.6132 23.8827 12.4049 23.9348 12.207 23.966C11.2696 22.9245 10.3218 21.8933 9.31152 20.7685C9.499 20.7789 9.57191 20.7789 9.6344 20.7893C9.70731 20.7893 9.78022 20.7893 9.84271 20.7893V20.7789Z" fill="#FF9900"/>
<path id="Vector_13" d="M12.0923 30.7151C11.8111 30.5381 11.4778 30.4131 11.2695 30.1735C9.30097 27.9655 7.34287 25.747 5.39518 23.5181C4.69735 22.7161 4.74942 21.8308 5.46809 21.1642C6.12426 20.5705 7.2283 20.6747 7.84281 21.3829C9.63426 23.4556 11.4674 25.5074 13.2797 27.5697C13.4671 27.6217 13.665 27.7155 13.8525 27.7155C27.7259 27.7155 41.5992 27.7155 55.4726 27.7155C55.6601 27.7155 55.8475 27.653 56.0246 27.6113C56.7329 27.7363 57.2849 28.2467 57.3265 28.8091C57.4099 29.8819 57.1078 30.4131 56.2329 30.7047C56.0454 30.6735 55.858 30.611 55.6705 30.611C41.3284 30.611 26.976 30.611 12.6339 30.611C12.4464 30.611 12.259 30.6735 12.0715 30.7047L12.0923 30.7151Z" fill="white"/>
<path id="Vector_14" d="M6.94727 84.7399C6.94727 84.7399 6.9681 84.6878 6.97851 84.667C24.2577 84.667 41.5369 84.667 58.8161 84.667C59.1598 84.667 59.4931 84.667 59.8368 84.667C59.8889 84.6982 59.941 84.7295 59.9931 84.7711C59.7848 84.8024 59.5764 84.8545 59.3786 84.8545C42.1098 84.8545 24.8306 84.8545 7.56178 84.8545C7.36388 84.8545 7.15557 84.7816 6.95768 84.7503L6.94727 84.7399Z" fill="#EF3100"/>
<path id="Vector_15" d="M35.673 35.9646C34.6731 35.9646 33.6732 35.9646 32.6733 35.9646C32.6733 34.9855 32.6942 34.0065 32.6733 33.0274C32.6733 32.642 32.7983 32.5379 33.1629 32.5483C33.8399 32.5691 34.5169 32.5691 35.1939 32.5483C35.5584 32.5379 35.6938 32.6525 35.6834 33.0274C35.6626 34.0065 35.6834 34.9855 35.6834 35.9646H35.673Z" fill="white"/>
<path id="Vector_16" d="M12.207 23.9554C12.4153 23.9241 12.6236 23.8721 12.8215 23.8721C30.0903 23.8721 47.3695 23.8721 64.6383 23.8721C64.8466 23.8721 65.0445 23.9346 65.2528 23.9658C65.0445 23.9658 64.8258 23.9971 64.6175 23.9971C47.3383 23.9971 30.0591 23.9971 12.7903 23.9971C12.5924 23.9971 12.4049 23.9658 12.207 23.9554Z" fill="white"/>
<path id="Vector_17" d="M8.02002 82.5945C8.2075 82.5632 8.39498 82.5007 8.58245 82.5007C25.143 82.5007 41.7035 82.5007 58.2641 82.5007C58.4516 82.5007 58.639 82.5632 58.8265 82.5945C58.6494 82.5945 58.4724 82.6153 58.2953 82.6153C41.714 82.6153 25.143 82.6153 8.56162 82.6153C8.38456 82.6153 8.2075 82.5945 8.03044 82.5945H8.02002Z" fill="white"/>
<path id="Vector_18" d="M3.7911 20.7581C3.35365 21.7892 3.187 22.7578 3.67653 23.7473C3.69736 23.7889 3.4578 24.0493 3.3224 24.0597C2.54125 24.1118 1.65593 23.2578 1.57261 22.4974C1.4997 21.7788 2.19754 20.7893 3.15576 20.7581C3.35365 20.7581 3.54113 20.7581 3.7911 20.7581Z" fill="white"/>
<path id="Vector_19" d="M12.0923 30.7151C12.2798 30.6838 12.4672 30.6213 12.6547 30.6213C26.9968 30.6213 41.3492 30.6213 55.6913 30.6213C55.8788 30.6213 56.0662 30.6838 56.2537 30.7151C56.2016 30.7255 56.1392 30.7463 56.0871 30.7567C55.8579 30.7463 55.6288 30.7255 55.3892 30.7255C41.2451 30.7255 27.1009 30.7255 12.9568 30.7255C12.7276 30.7255 12.4985 30.7463 12.2589 30.7567C12.2069 30.7463 12.1444 30.7255 12.0923 30.7151Z" fill="white"/>
<path id="Vector_20" d="M12.2588 30.7568C12.4879 30.7464 12.7171 30.7256 12.9566 30.7256C27.1008 30.7256 41.2449 30.7256 55.3891 30.7256C55.6182 30.7256 55.8474 30.7464 56.0869 30.7568C55.8995 30.7777 55.7016 30.8297 55.5141 30.8297C41.2866 30.8297 27.0591 30.8297 12.8421 30.8297C12.6546 30.8297 12.4567 30.7881 12.2692 30.7568H12.2588Z" fill="white"/>
<path id="Vector_21" d="M56.035 27.6217C55.8475 27.653 55.66 27.7259 55.483 27.7259C41.6096 27.7259 27.7362 27.7259 13.8629 27.7259C13.6754 27.7259 13.4775 27.6322 13.29 27.5801C27.3613 27.5801 41.443 27.5801 55.5142 27.5801C55.6913 27.5801 55.8683 27.6113 56.0454 27.6217H56.035Z" fill="white"/>
<path id="Vector_22" d="M52.3896 38.2351C52.2021 38.2663 52.0147 38.3288 51.8272 38.3288C39.7349 38.3288 27.6321 38.3288 15.5398 38.3288C15.3523 38.3288 15.1649 38.2663 14.9878 38.2247C15.0815 38.2039 15.1753 38.1934 15.269 38.1726C15.4981 38.1934 15.7273 38.2143 15.9564 38.2143C27.7884 38.2143 39.6307 38.2143 51.4626 38.2143C51.671 38.2143 51.8897 38.183 52.098 38.1726C52.1917 38.1934 52.2855 38.2039 52.3896 38.2247V38.2351Z" fill="white"/>
<path id="Vector_23" d="M52.1083 38.1829C51.9 38.1934 51.6812 38.2246 51.4729 38.2246C39.641 38.2246 27.7986 38.2246 15.9667 38.2246C15.7376 38.2246 15.5084 38.1934 15.2793 38.1829C15.4668 38.1621 15.6647 38.1309 15.8521 38.1309C27.7466 38.1309 39.641 38.1309 51.5354 38.1309C51.7229 38.1309 51.9208 38.1725 52.1083 38.1933V38.1829Z" fill="#AB7912"/>
<path id="Vector_24" d="M35.6728 35.9644C35.6728 34.9854 35.652 34.0063 35.6728 33.0273C35.6728 32.6419 35.5478 32.5377 35.1833 32.5482C34.5063 32.569 33.8293 32.569 33.1523 32.5482C32.7877 32.5377 32.6523 32.6523 32.6627 33.0273C32.6836 34.0063 32.6627 34.9854 32.6627 35.9644C32.6107 35.8915 32.5273 35.8082 32.5273 35.7353C32.5273 34.6313 32.5273 33.5376 32.5482 32.4336C33.6314 32.4336 34.7146 32.4336 35.7978 32.4336C35.8082 32.4648 35.8186 32.4961 35.829 32.5377C35.829 32.5898 35.829 32.6315 35.829 32.6836C35.829 33.7459 35.829 34.8083 35.829 35.8603C35.8082 35.9019 35.7874 35.9332 35.7665 35.9748H35.7145H35.6624L35.6728 35.9644Z" fill="white"/>
<path id="Vector_25" d="M35.798 32.4233C34.7147 32.4233 33.6315 32.4233 32.5483 32.4233C32.7775 32.3921 33.017 32.3296 33.2462 32.3296C34.1002 32.3504 34.9439 32.3817 35.798 32.4129V32.4233Z" fill="white"/>
<path id="Vector_26" d="M27.757 19.2476C27.757 19.2476 27.7674 19.1956 27.7778 19.1643C27.8403 19.1851 27.9028 19.206 27.9549 19.2268C27.882 19.2268 27.8195 19.2476 27.7466 19.2476H27.757Z" fill="#A4381D"/>
<path id="Vector_27" d="M35.7666 35.9644C35.7666 35.9644 35.8083 35.8915 35.8291 35.8499C35.8083 35.8915 35.7874 35.9228 35.7666 35.9644Z" fill="white"/>
<path id="Vector_28" d="M33.9439 43.6718C42.8283 43.4948 49.3588 51.4938 50.0462 58.8055C50.5565 64.2319 49.0359 68.9918 45.1717 72.8871C41.8492 76.2409 37.7768 77.9803 33.0482 77.9803C22.9869 77.9803 16.5918 70.0333 15.8523 62.6279C15.3419 57.5764 16.8209 53.1082 20.1955 49.3378C23.5701 45.5674 27.8301 43.6302 33.9439 43.6718ZM46.2862 60.8052C46.4737 53.7331 40.5577 47.1089 32.267 47.4526C25.3928 47.7339 19.956 53.4103 19.6019 60.0241C19.1644 68.3356 26.1011 74.0536 32.5274 74.1682C40.3077 74.314 46.4528 68.0439 46.2862 60.8052Z" fill="#010101"/>
<path id="Vector_29" d="M46.286 60.8053C46.4527 68.0441 40.3076 74.3037 32.5273 74.1683C26.1009 74.0538 19.1643 68.3253 19.6017 60.0242C19.9558 53.4208 25.3823 47.7444 32.2669 47.4527C40.5576 47.109 46.4735 53.7437 46.286 60.8053ZM43.1822 53.2541C42.2761 52.348 41.3908 51.4627 40.4951 50.5565C38.9328 52.1189 37.3496 53.7124 35.7665 55.306C35.5686 55.5039 35.4332 55.5872 35.0999 55.4726C33.8188 55.0352 32.5377 54.9206 31.1733 55.3372C28.184 56.2434 26.0176 60.2325 27.9757 63.5758C29.1943 65.6485 31.7461 67.0442 34.3395 66.3151C36.4226 65.7318 37.8079 64.4611 38.4536 62.4093C38.8911 61.024 38.7453 59.6596 38.1308 58.264C39.7972 56.6079 41.4845 54.9206 43.1822 53.2333V53.2541Z" fill="#FBFDFE"/>
<path id="Vector_30" d="M43.1824 53.2542C41.4847 54.9415 39.7974 56.6288 38.1309 58.2848C38.7454 59.6701 38.8912 61.0449 38.4538 62.4302C37.808 64.4716 36.4332 65.7423 34.3397 66.3359C31.7462 67.065 29.1945 65.6694 27.9759 63.5967C26.0073 60.2533 28.1842 56.2538 31.1734 55.3581C32.5378 54.9415 33.8189 55.056 35.1 55.4935C35.4333 55.608 35.5687 55.5247 35.7666 55.3268C37.3497 53.7333 38.9433 52.1397 40.4952 50.5774C41.4013 51.4835 42.2762 52.3584 43.1824 53.275V53.2542ZM34.8188 60.7741C34.8188 59.618 34.1105 58.8993 32.9753 58.9097C31.9129 58.9097 31.0692 59.743 31.0692 60.7949C31.0692 61.8261 31.9441 62.6593 32.9857 62.6905C33.8397 62.7218 35.0063 61.9094 34.8188 60.7741Z" fill="#010000"/>
<path id="Vector_31" d="M34.8189 60.7845C35.0064 61.9198 33.8398 62.7218 32.9858 62.701C31.9442 62.6697 31.0693 61.8261 31.0693 60.8054C31.0693 59.7638 31.913 58.9306 32.9754 58.9202C34.1211 58.9202 34.8293 59.6284 34.8189 60.7845Z" fill="#FD5123"/>
</g>
<defs>
<clipPath id="clip0_18_1749">
<rect width="68.1898" height="88" fill="white"/>
</clipPath>
</defs>
</svg>
