<svg width="88" height="88" viewBox="0 0 88 88" fill="none" xmlns="http://www.w3.org/2000/svg">
<g id="OBJECTS" clip-path="url(#clip0_767_1092)">
<path id="Vector" d="M70.7197 18.0076C72.106 19.3864 73.356 20.8864 74.5076 22.4697C77.803 26.9849 80.1136 31.9621 81.3636 37.4167C81.6894 38.8485 81.9091 40.3182 82.1364 41.7728C82.2197 42.3106 82.1818 42.8712 82.2576 43.4167C82.4697 44.8864 82.4545 46.3561 82.4167 47.8334C82.3939 48.7879 82.3333 49.7349 82.2424 50.6894C81.9318 54.1137 81.197 57.4546 80.0303 60.6894C78.3182 65.447 75.8257 69.7424 72.5379 73.5834C68.6136 78.1591 63.9167 81.7197 58.447 84.25C55.4242 85.6515 52.2651 86.644 48.9924 87.2803C45.8864 87.8788 42.75 88.0909 39.5985 87.9849C38.5985 87.9546 37.6061 87.8334 36.6136 87.75C35.9621 87.6894 35.303 87.6515 34.6667 87.5379C33.5985 87.3409 32.5379 87.1137 31.4773 86.8561C25.4621 85.394 20.053 82.7046 15.25 78.8106C11.0758 75.4243 7.69696 71.3712 5.09848 66.6743C2.93939 62.7652 1.46969 58.6061 0.659085 54.2197C0.333328 52.4546 0.121206 50.6667 0.0606003 48.8712C0.0378731 48.2728 -0.0151572 47.6743 -5.70901e-06 47.0758C0.0302973 45.8182 0.0606003 44.5531 0.159085 43.2955C0.5606 38.0985 1.96212 33.1743 4.26515 28.5152C6.10605 24.7955 8.46211 21.4243 11.3333 18.4243C16.3106 13.2121 22.2424 9.52275 29.1288 7.39396C30.9091 6.84093 32.7121 6.41669 34.553 6.12881C35.3788 6.00002 36.2197 5.95457 37.0454 5.84093C38.8182 5.58336 40.5985 5.56063 42.3788 5.59851C43.2045 5.61366 44.0379 5.68184 44.8636 5.7576C47.3333 5.99245 49.7803 6.38639 52.1742 7.06063C57.6061 8.57578 62.5379 11.0758 66.9318 14.6061C68 15.4621 68.9848 16.4167 70.0076 17.3182C69.9394 17.4015 69.8864 17.4924 69.8106 17.5682C67.4697 19.9091 65.1288 22.25 62.7879 24.5909C62.697 24.6818 62.5682 24.7273 62.4545 24.7879C62.3712 24.7197 62.2879 24.644 62.2121 24.5758C60.1591 22.644 57.9015 21.0076 55.4015 19.7121C52.7576 18.3409 49.9848 17.3409 47.0379 16.8031C45.7954 16.5758 44.553 16.394 43.3106 16.3106C40.9015 16.1515 38.4924 16.2424 36.0985 16.6515C33.2803 17.1364 30.5757 17.9849 28 19.2273C23.8712 21.2121 20.3561 23.9849 17.4773 27.5455C12.9924 33.0909 10.7348 39.4546 10.6439 46.5758C10.6288 47.8637 10.7424 49.1591 10.8712 50.4394C11.1136 52.9318 11.7197 55.3409 12.6288 57.6743C15.3561 64.6894 20.0227 70.0228 26.5985 73.6667C29.9773 75.5379 33.5909 76.7197 37.4318 77.144C38.5 77.2652 39.5757 77.3561 40.6515 77.3864C42.5985 77.4318 44.5454 77.2955 46.4621 76.947C47.8257 76.7046 49.1667 76.3864 50.4848 75.9621C56.1364 74.144 60.8788 70.9622 64.6818 66.4091C69.197 61 71.5227 54.7349 71.7879 47.7046C71.8636 45.7046 71.697 43.7121 71.3712 41.7349C70.6742 37.5303 69.1364 33.6591 66.8257 30.0909C65.7651 28.4621 64.5303 26.9697 63.2121 25.5455C63.303 25.4394 63.3864 25.3334 63.4848 25.2349C65.803 22.9167 68.1212 20.5909 70.447 18.2728C70.5303 18.1894 70.6288 18.1137 70.7273 18.0379L70.7197 18.0076Z" fill="#FF9900"/>
<path id="Vector_2" d="M78.919 9.41146L78.6016 9.0941L78.919 9.41146ZM78.919 9.41146L78.9773 9.46973M78.919 9.41146L78.9773 9.46973M78.9773 9.46973L78.9924 9.48489M78.9773 9.46973L78.9924 9.48489M78.9924 9.48489L78.9965 9.48896L78.9924 9.48489Z" fill="#504F4F" stroke="#241E20" stroke-width="4"/>
<path id="Vector_3" d="M76.3409 16.6212C76.8939 16.6212 77.4546 16.6212 78.0076 16.6212C77.4546 16.7803 76.9015 16.7727 76.3409 16.6212Z" fill="#82ABAB"/>
<path id="Vector_4" d="M62.4621 24.7651C62.4091 24.856 62.3788 24.9621 62.3106 25.0303C59.9091 27.4318 57.5076 29.8333 55.106 32.2348C55.0606 32.2803 55.0076 32.3106 54.9621 32.3485C51.6742 29.2348 47.7727 27.447 43.2727 26.9621C41.3636 26.7576 39.4697 26.8257 37.5833 27.1818C33.3257 27.9848 29.697 29.9621 26.7273 33.1136C23.4848 36.553 21.697 40.6515 21.3409 45.3561C21.1591 47.7651 21.3864 50.1515 22.1136 52.4697C23.9621 58.3561 27.7121 62.5682 33.3333 65.0833C35.5606 66.0833 37.9091 66.6288 40.3712 66.6818C41.447 66.7045 42.5151 66.697 43.5833 66.5682C44.7424 66.4318 45.8864 66.2121 47 65.856C52.8712 63.9773 57.0606 60.2121 59.5682 54.5833C60.447 52.6136 60.9394 50.5379 61.0909 48.3939C61.1894 46.9924 61.1591 45.5833 60.9545 44.1818C60.8409 43.4091 60.7424 42.6288 60.5454 41.8712C59.6818 38.5076 58.0682 35.5606 55.6667 33.0606C55.7651 32.947 55.856 32.8257 55.9621 32.7121C58.2651 30.4091 60.5682 28.1061 62.8712 25.803C62.9773 25.697 63.0985 25.606 63.2197 25.5076C64.5454 26.9318 65.7803 28.4167 66.8333 30.053C69.1439 33.6212 70.6818 37.4924 71.3788 41.697C71.7045 43.6742 71.8712 45.6667 71.7954 47.6667C71.5303 54.697 69.2045 60.9545 64.6894 66.3712C60.8864 70.9242 56.1439 74.1061 50.4924 75.9242C49.1742 76.3485 47.8333 76.6667 46.4697 76.9091C44.5454 77.2576 42.606 77.3939 40.6591 77.3485C39.5833 77.3257 38.5076 77.2273 37.4394 77.106C33.5909 76.6818 29.9773 75.5 26.6061 73.6288C20.0303 69.9848 15.3636 64.6515 12.6364 57.6364C11.7273 55.303 11.1212 52.8939 10.8788 50.4015C10.75 49.1212 10.6364 47.8257 10.6515 46.5379C10.7424 39.4167 13 33.053 17.4848 27.5076C20.3636 23.947 23.8788 21.1742 28.0076 19.1894C30.5833 17.947 33.2879 17.0985 36.1061 16.6136C38.4924 16.2045 40.9015 16.1136 43.3182 16.2727C44.5682 16.3561 45.8106 16.5379 47.0454 16.7651C49.9924 17.3106 52.7651 18.303 55.4091 19.6742C57.9091 20.9697 60.1742 22.6061 62.2197 24.5379C62.2954 24.6136 62.3788 24.6818 62.4621 24.75V24.7651Z" fill="white"/>
<path id="Vector_5" d="M55.6667 33.0607C58.0757 35.5682 59.6894 38.5152 60.5454 41.8713C60.7424 42.6288 60.8409 43.4016 60.9545 44.1819C61.1591 45.591 61.1894 46.9925 61.0909 48.394C60.9394 50.5379 60.447 52.6213 59.5682 54.5834C57.0606 60.2122 52.8712 63.9773 47 65.8561C45.8864 66.2122 44.7424 66.4319 43.5833 66.5682C42.5151 66.697 41.447 66.7046 40.3712 66.6819C37.9167 66.6288 35.5606 66.0758 33.3333 65.0834C27.7121 62.5682 23.9621 58.3485 22.1136 52.4697C21.3863 50.1516 21.1591 47.7652 21.3409 45.3561C21.6894 40.6516 23.4848 36.5531 26.7273 33.1137C29.697 29.9622 33.3333 27.9849 37.5833 27.1819C39.4621 26.8258 41.3636 26.7576 43.2727 26.9622C47.7727 27.447 51.6742 29.2349 54.9621 32.3485C54.8636 32.4622 54.7727 32.591 54.6667 32.697C52.3864 34.9773 50.106 37.2652 47.8257 39.5379C47.7045 39.6591 47.5682 39.7576 47.4394 39.8637C46.0606 38.7122 44.5379 37.9016 42.7197 37.6364C41.6212 37.4773 40.553 37.4697 39.4773 37.6591C34.7045 38.5152 30.9394 43.3182 32.1667 48.8561C33.1439 53.2879 37.6363 56.9773 43.1363 55.8637C48.5151 54.7728 52.0379 49.0228 49.8712 43.3485C49.4773 42.3182 48.8636 41.4167 48.1667 40.5682C48.2424 40.4773 48.3106 40.3713 48.4015 40.2879C50.7424 37.947 53.0833 35.5985 55.4318 33.2576C55.5076 33.1819 55.5909 33.1213 55.6742 33.0531L55.6667 33.0607Z" fill="#FF9A00"/>
<path id="Vector_6" d="M48.1591 40.5757C48.856 41.4242 49.4697 42.3182 49.8636 43.356C52.0303 49.0303 48.5076 54.7803 43.1288 55.8712C37.6288 56.9848 33.1364 53.2954 32.1591 48.8636C30.9318 43.3257 34.697 38.5151 39.4697 37.6666C40.5454 37.4773 41.6136 37.4848 42.7121 37.6439C44.5379 37.9091 46.053 38.7197 47.4318 39.8712C47.3182 40 47.2121 40.1288 47.0985 40.25C45.1288 42.2197 43.1591 44.1894 41.1894 46.1591C41.1364 46.2121 41.0833 46.2651 41.0227 46.3257C40.5682 46.7879 40.5682 46.8106 41.0076 47.2651C41.4242 47.2576 41.6818 46.9924 41.9545 46.7197C43.8864 44.7803 45.8257 42.8409 47.7651 40.9091C47.8864 40.7879 48.0227 40.6894 48.1515 40.5833L48.1591 40.5757Z" fill="#FFFEFE"/>
<path id="Vector_7" d="M76.5227 15.697C75.6364 15.5455 74.8636 15.1667 74.197 14.5C74.3182 14.3712 74.4242 14.2424 74.5455 14.1288C76.0758 12.5909 77.6136 11.0606 79.1439 9.53032C79.2879 9.38639 79.4167 9.2576 79.4015 9.02275C79.3864 8.85608 79.3864 8.68942 79.2197 8.63638C79.0682 8.59093 78.8864 8.59093 78.7424 8.63638C78.6212 8.67426 78.5303 8.81063 78.4318 8.90911C76.9091 10.4318 75.3864 11.9546 73.8636 13.4773C73.7576 13.5834 73.6439 13.6818 73.5152 13.8106C72.8258 13.1212 72.4091 12.3258 72.2955 11.3788C72.1364 10.0379 72.5152 8.86366 73.4773 7.90154C75.5379 5.83336 77.6061 3.76517 79.6742 1.70457C79.7349 1.64396 79.8106 1.59093 79.9318 1.47729C80.0379 2.2576 80.1212 2.96972 80.2349 3.68184C80.3561 4.43184 80.5152 5.17426 80.6515 5.91669C80.7045 6.21214 80.7349 6.51517 80.7955 6.81063C80.8409 7.04548 80.9924 7.18184 81.2349 7.21972C81.9242 7.33335 82.6061 7.44699 83.2955 7.5682C83.7727 7.65154 84.2424 7.7576 84.7197 7.83336C85.2121 7.90911 85.7121 7.96972 86.2046 8.03032C86.2879 8.04548 86.3788 8.05305 86.5227 8.07578C86.4242 8.19699 86.3712 8.28032 86.303 8.34851C84.25 10.4091 82.1894 12.4621 80.1364 14.5152C79.5 15.1515 78.7273 15.5455 77.8409 15.697C77.4091 15.697 76.9697 15.697 76.5379 15.697H76.5227Z" fill="#FDFDFD"/>
<path id="Vector_8" d="M76.5227 15.697C76.9546 15.697 77.3939 15.697 77.8258 15.697C77.3939 15.841 76.9546 15.841 76.5227 15.697Z" fill="#B98D8D"/>
</g>
<defs>
<clipPath id="clip0_767_1092">
<rect width="88" height="88" fill="white"/>
</clipPath>
</defs>
</svg>
