<svg width="87" height="88" viewBox="0 0 87 88" fill="none" xmlns="http://www.w3.org/2000/svg">
<g id="Isolation_Mode" clip-path="url(#clip0_1085_494)">
<path id="Vector" d="M-7.77747e-06 43.8406C-0.585816 20.3871 18.9712 1.74574 38.5882 0.182171C69.8914 -2.30739 85.0473 21.7533 86.7146 38.3605C88.1265 52.4934 84.2512 64.8349 74.2925 74.9602C65.6706 83.7344 54.9308 88.1974 42.8541 88C19.8273 87.6205 -0.270381 68.4782 -7.77747e-06 43.8406ZM69.2004 43.8103C70.1017 29.8748 58.1452 18.5655 45.4226 17.7306C28.0587 16.5769 18.0399 30.7704 17.379 42.2315C16.4627 58.1556 30.0865 70.2998 43.4249 70.2087C56.0723 70.1177 69.9214 59.6129 69.2004 43.8103Z" fill="#714C68"/>
</g>
<defs>
<clipPath id="clip0_1085_494">
<rect width="87" height="88" fill="white"/>
</clipPath>
</defs>
</svg>
