<svg width="186" height="45" viewBox="0 0 186 45" fill="none" xmlns="http://www.w3.org/2000/svg">
<g id="Logo" clip-path="url(#clip0_767_315)">
<path id="Vector" d="M55.9177 32.0672H68.9513V28.1414H60.5501V13.3544H55.9177V32.0672Z" fill="#686868"/>
<path id="Vector_2" d="M76.6731 29.4501C74.8149 29.4501 73.8466 27.8274 73.8466 25.3935C73.8466 22.9595 74.8149 21.3107 76.6731 21.3107C78.5313 21.3107 79.5259 22.9595 79.5259 25.3935C79.5259 27.8274 78.5313 29.4501 76.6731 29.4501ZM76.6993 32.486C81.0177 32.486 83.8442 29.4239 83.8442 25.3935C83.8442 21.363 81.0177 18.3009 76.6993 18.3009C72.4071 18.3009 69.5282 21.363 69.5282 25.3935C69.5282 29.4239 72.4071 32.486 76.6993 32.486Z" fill="#686868"/>
<path id="Vector_3" d="M91.319 36.6997C93.3081 36.6997 95.0616 36.2548 96.2393 35.2079C97.3124 34.2395 98.019 32.7739 98.019 30.7587V18.6673H93.9362V20.1067H93.8838C93.0987 18.9814 91.8948 18.2747 90.1151 18.2747C86.7913 18.2747 84.4882 21.0489 84.4882 24.9747C84.4882 29.0837 87.2885 31.3345 90.2983 31.3345C91.921 31.3345 92.9417 30.6802 93.7268 29.7903H93.8315V31.1251C93.8315 32.7477 93.0725 33.6899 91.2667 33.6899C89.8534 33.6899 89.1467 33.088 88.9112 32.3813H84.776C85.1948 35.1817 87.6288 36.6997 91.319 36.6997ZM91.2928 28.1677C89.6964 28.1677 88.6495 26.8591 88.6495 24.8438C88.6495 22.8024 89.6964 21.4939 91.2928 21.4939C93.0725 21.4939 94.0147 23.0118 94.0147 24.8177C94.0147 26.702 93.151 28.1677 91.2928 28.1677Z" fill="#686868"/>
<path id="Vector_4" d="M106.414 29.4501C104.556 29.4501 103.587 27.8274 103.587 25.3935C103.587 22.9595 104.556 21.3107 106.414 21.3107C108.272 21.3107 109.266 22.9595 109.266 25.3935C109.266 27.8274 108.272 29.4501 106.414 29.4501ZM106.44 32.486C110.758 32.486 113.585 29.4239 113.585 25.3935C113.585 21.363 110.758 18.3009 106.44 18.3009C102.148 18.3009 99.269 21.363 99.269 25.3935C99.269 29.4239 102.148 32.486 106.44 32.486Z" fill="#686868"/>
<path id="Vector_5" d="M114.831 32.0672H119.097V18.6672H114.831V32.0672ZM114.831 16.809H119.097V13.3544H114.831V16.809Z" fill="#686868"/>
<path id="Vector_6" d="M120.948 36.4903H125.214V30.6802H125.266C126.103 31.8056 127.334 32.486 129.061 32.486C132.568 32.486 134.897 29.7118 134.897 25.3673C134.897 21.3368 132.725 18.2747 129.166 18.2747C127.334 18.2747 126.025 19.086 125.109 20.2899H125.03V18.6673H120.948V36.4903ZM127.962 29.1884C126.13 29.1884 125.083 27.6966 125.083 25.5243C125.083 23.3521 126.025 21.7032 127.883 21.7032C129.715 21.7032 130.579 23.2212 130.579 25.5243C130.579 27.8013 129.584 29.1884 127.962 29.1884Z" fill="#686868"/>
<path id="Vector_7" d="M141.843 32.486C145.35 32.486 147.941 30.9681 147.941 28.0368C147.941 24.6083 145.166 24.0063 142.811 23.6138C141.11 23.2997 139.592 23.1689 139.592 22.2267C139.592 21.3892 140.403 20.9966 141.45 20.9966C142.628 20.9966 143.439 21.363 143.596 22.5669H147.522C147.312 19.9235 145.271 18.2747 141.476 18.2747C138.309 18.2747 135.692 19.7403 135.692 22.5669C135.692 25.7075 138.178 26.3356 140.508 26.7282C142.287 27.0423 143.91 27.1731 143.91 28.377C143.91 29.2407 143.099 29.7118 141.816 29.7118C140.403 29.7118 139.513 29.0575 139.356 27.7227H135.326C135.457 30.6802 137.917 32.486 141.843 32.486Z" fill="#686868"/>
<path id="Vector_8" d="M153.735 32.4598C155.594 32.4598 156.771 31.727 157.74 30.4184H157.818V32.0673H161.901V18.6673H157.635V26.1524C157.635 27.7489 156.745 28.8481 155.28 28.8481C153.919 28.8481 153.264 28.0368 153.264 26.5712V18.6673H149.024V27.461C149.024 30.4446 150.647 32.4598 153.735 32.4598Z" fill="#686868"/>
<path id="Vector_9" d="M163.757 32.0673H168.023V24.556C168.023 22.9595 168.808 21.8341 170.143 21.8341C171.425 21.8341 172.027 22.6716 172.027 24.111V32.0673H176.293V24.556C176.293 22.9595 177.052 21.8341 178.413 21.8341C179.696 21.8341 180.298 22.6716 180.298 24.111V32.0673H184.564V23.3521C184.564 20.3423 183.046 18.2747 180.01 18.2747C178.282 18.2747 176.843 19.0075 175.796 20.6302H175.744C175.063 19.1907 173.729 18.2747 171.975 18.2747C170.038 18.2747 168.756 19.1907 167.918 20.5778H167.84V18.6673H163.757V32.0673Z" fill="#686868"/>
<path id="Vector_10" fill-rule="evenodd" clip-rule="evenodd" d="M21.9204 44.0627C33.9658 44.0627 43.7303 34.2981 43.7303 22.2528C43.7303 10.2076 33.9658 0.442993 21.9204 0.442993C9.87521 0.442993 0.110626 10.2076 0.110626 22.2528C0.110626 34.2981 9.87521 44.0627 21.9204 44.0627ZM25.2868 17.2939C27.1459 15.4347 27.1459 12.4205 25.2868 10.5613C23.4276 8.70214 20.4134 8.70214 18.5542 10.5613C16.6951 12.4205 16.6951 15.4347 18.5542 17.2939L21.9204 20.6601L25.2868 17.2939ZM26.8794 25.6192C28.7386 27.4783 31.7529 27.4783 33.612 25.6192C35.4711 23.76 35.4711 20.7457 33.612 18.8866C31.7529 17.0275 28.7386 17.0275 26.8794 18.8866L23.5132 22.2529L26.8794 25.6192ZM25.2868 33.9444C27.1459 32.0852 27.1459 29.071 25.2868 27.2118L21.9204 23.8456L18.5542 27.2118C16.6951 29.071 16.6951 32.0852 18.5542 33.9444C20.4134 35.8036 23.4276 35.8036 25.2868 33.9444ZM10.2289 25.6192C8.36979 23.76 8.36979 20.7457 10.2289 18.8866C12.0881 17.0275 15.1023 17.0275 16.9615 18.8866L20.3278 22.2529L16.9615 25.6192C15.1023 27.4783 12.0881 27.4783 10.2289 25.6192Z" fill="#686868"/>
</g>
<defs>
<clipPath id="clip0_767_315">
<rect width="185.384" height="44.7102" fill="white" transform="translate(0 0.0905151)"/>
</clipPath>
</defs>
</svg>
