<svg width="221" height="44" viewBox="0 0 221 44" fill="none" xmlns="http://www.w3.org/2000/svg">
<g id="Logo" clip-path="url(#clip0_767_259)">
<path id="Vector" fill-rule="evenodd" clip-rule="evenodd" d="M27.8683 12.8332C26.075 11.635 23.9666 10.9954 21.8099 10.9954V0.0905151C26.1234 0.0905151 30.3401 1.36964 33.9268 3.76614C37.5134 6.16263 40.3088 9.56887 41.9595 13.5541C43.6102 17.5393 44.0422 21.9246 43.2006 26.1553C42.3591 30.3859 40.2819 34.2721 37.2317 37.3222C34.1816 40.3724 30.2954 42.4496 26.0647 43.2911C21.8341 44.1327 17.4488 43.7007 13.4635 42.0501C9.47834 40.3993 6.07211 37.6039 3.67563 34.0173C1.27913 30.4306 0 26.2139 0 21.9004H10.9049C10.9049 24.0571 11.5445 26.1655 12.7427 27.9588C13.941 29.7521 15.6441 31.1498 17.6368 31.9752C19.6293 32.8006 21.822 33.0165 23.9373 32.5957C26.0526 32.175 27.9957 31.1364 29.5208 29.6113C31.0459 28.0862 32.0845 26.1431 32.5052 24.0278C32.926 21.9125 32.7101 19.7198 31.8847 17.7273C31.0593 15.7346 29.6616 14.0315 27.8683 12.8332Z" fill="#686868"/>
<path id="Vector_2" fill-rule="evenodd" clip-rule="evenodd" d="M10.9049 0.0905209C10.9049 1.52258 10.6229 2.94061 10.0748 4.26366C9.52681 5.5867 8.72356 6.78885 7.71094 7.80147C6.69833 8.81409 5.49619 9.61734 4.17313 10.1654C2.85008 10.7134 1.43205 10.9954 4.76665e-07 10.9954L0 21.9004C2.86411 21.9004 5.70017 21.3363 8.34628 20.2402C10.9924 19.1442 13.3967 17.5376 15.4218 15.5124C17.4471 13.4872 19.0536 11.0829 20.1497 8.43679C21.2457 5.79069 21.8098 2.95462 21.8098 0.0905151L10.9049 0.0905209Z" fill="#686868"/>
<path id="Vector_3" d="M136.987 15.8508H131.695V32.6578H136.987V15.8508Z" fill="#686868"/>
<path id="Vector_4" d="M132.284 12.7038C132.837 13.2571 133.529 13.5338 134.359 13.5338C135.188 13.5338 135.869 13.2571 136.399 12.7038C136.93 12.1275 137.195 11.4358 137.195 10.6288C137.195 9.79889 136.93 9.10722 136.399 8.55392C135.869 8.00058 135.188 7.72394 134.359 7.72394C133.529 7.72394 132.837 8.00058 132.284 8.55392C131.753 9.10722 131.488 9.79889 131.488 10.6288C131.488 11.4358 131.753 12.1275 132.284 12.7038Z" fill="#686868"/>
<path id="Vector_5" d="M55.7855 32.6578V8.24268H61.215V27.8855H72.0393V32.6578H55.7855Z" fill="#686868"/>
<path id="Vector_6" fill-rule="evenodd" clip-rule="evenodd" d="M81.8168 33.0382C80.0878 33.0382 78.5201 32.6579 77.1137 31.897C75.7304 31.1132 74.6353 30.0527 73.8283 28.7154C73.0215 27.3783 72.618 25.8797 72.618 24.2197C72.618 22.5598 73.0215 21.0728 73.8283 19.7587C74.6353 18.4445 75.7304 17.407 77.1137 16.6463C78.4969 15.8623 80.0647 15.4704 81.8168 15.4704C83.569 15.4704 85.1367 15.8509 86.52 16.6116C87.9033 17.3724 88.9985 18.4215 89.8054 19.7587C90.6123 21.0728 91.0158 22.5598 91.0158 24.2197C91.0158 25.8797 90.6123 27.3783 89.8054 28.7154C88.9985 30.0527 87.9033 31.1132 86.52 31.897C85.1367 32.6579 83.569 33.0382 81.8168 33.0382ZM81.8168 28.2313C82.5777 28.2313 83.2463 28.07 83.8227 27.7472C84.399 27.4014 84.8371 26.9287 85.1367 26.3293C85.4595 25.7069 85.6209 25.0036 85.6209 24.2197C85.6209 23.4359 85.4595 22.7558 85.1367 22.1794C84.814 21.58 84.3645 21.1189 83.788 20.7961C83.2347 20.4502 82.5777 20.2774 81.8168 20.2774C81.0791 20.2774 80.4221 20.4502 79.8457 20.7961C79.2693 21.1189 78.8197 21.58 78.4969 22.1794C78.1742 22.7789 78.0129 23.4705 78.0129 24.2543C78.0129 25.0152 78.1742 25.7069 78.4969 26.3293C78.8197 26.9287 79.2693 27.4014 79.8457 27.7472C80.4221 28.07 81.0791 28.2313 81.8168 28.2313Z" fill="#686868"/>
<path id="Vector_7" fill-rule="evenodd" clip-rule="evenodd" d="M95.2062 39.2285C96.6125 39.874 98.2379 40.1967 100.082 40.1967C101.881 40.1967 103.483 39.8394 104.889 39.1247C106.296 38.41 107.402 37.4187 108.209 36.1507C109.016 34.8827 109.42 33.3841 109.42 31.6549V15.8508H104.232V16.9801C103.846 16.6553 103.408 16.3827 102.918 16.1621C102.019 15.724 100.993 15.5049 99.8403 15.5049C98.2956 15.5049 96.9238 15.8739 95.725 16.6116C94.526 17.3263 93.5809 18.3177 92.8892 19.5857C92.1975 20.8307 91.8518 22.237 91.8518 23.8048C91.8518 25.3495 92.1975 26.7558 92.8892 28.0238C93.5809 29.2918 94.526 30.2948 95.725 31.0325C96.9238 31.7702 98.2956 32.1391 99.8403 32.1391C100.97 32.1391 101.996 31.9201 102.918 31.4821C103.365 31.2699 103.768 31.0198 104.128 30.7318V31.7933C104.128 32.9691 103.748 33.8797 102.987 34.5253C102.25 35.1709 101.224 35.4936 99.9094 35.4936C98.8489 35.4936 97.9382 35.3092 97.1774 34.9402C96.4397 34.5714 95.771 34.0296 95.1716 33.3149L91.9209 36.5656C92.7278 37.7184 93.8229 38.6061 95.2062 39.2285ZM102.745 26.9517C102.215 27.2745 101.581 27.4359 100.843 27.4359C100.105 27.4359 99.4598 27.2745 98.9065 26.9517C98.3762 26.629 97.9613 26.1909 97.6616 25.6376C97.3618 25.0613 97.212 24.4503 97.212 23.8048C97.212 23.1131 97.3618 22.4906 97.6616 21.9373C97.9613 21.384 98.3877 20.946 98.9411 20.6232C99.4944 20.3004 100.128 20.139 100.843 20.139C101.581 20.139 102.215 20.3004 102.745 20.6232C103.298 20.946 103.713 21.384 103.99 21.9373C104.29 22.4906 104.44 23.1131 104.44 23.8048C104.44 24.4964 104.29 25.1188 103.99 25.6722C103.713 26.2025 103.298 26.629 102.745 26.9517Z" fill="#686868"/>
<path id="Vector_8" fill-rule="evenodd" clip-rule="evenodd" d="M120.555 33.0382C118.826 33.0382 117.257 32.6579 115.852 31.897C114.468 31.1132 113.373 30.0527 112.566 28.7154C111.759 27.3783 111.356 25.8797 111.356 24.2197C111.356 22.5598 111.759 21.0728 112.566 19.7587C113.373 18.4445 114.468 17.407 115.852 16.6463C117.234 15.8623 118.803 15.4704 120.555 15.4704C122.306 15.4704 123.875 15.8509 125.257 16.6116C126.641 17.3724 127.736 18.4215 128.543 19.7587C129.35 21.0728 129.753 22.5598 129.753 24.2197C129.753 25.8797 129.35 27.3783 128.543 28.7154C127.736 30.0527 126.641 31.1132 125.257 31.897C123.875 32.6579 122.306 33.0382 120.555 33.0382ZM120.555 28.2313C121.315 28.2313 121.984 28.07 122.56 27.7472C123.136 27.4014 123.575 26.9287 123.875 26.3293C124.197 25.7069 124.359 25.0036 124.359 24.2197C124.359 23.4359 124.197 22.7558 123.875 22.1794C123.552 21.58 123.102 21.1189 122.526 20.7961C121.973 20.4502 121.315 20.2774 120.555 20.2774C119.817 20.2774 119.159 20.4502 118.583 20.7961C118.007 21.1189 117.557 21.58 117.234 22.1794C116.912 22.7789 116.75 23.4705 116.75 24.2543C116.75 25.0152 116.912 25.7069 117.234 26.3293C117.557 26.9287 118.007 27.4014 118.583 27.7472C119.159 28.07 119.817 28.2313 120.555 28.2313Z" fill="#686868"/>
<path id="Vector_9" fill-rule="evenodd" clip-rule="evenodd" d="M149.704 33.0036C148.575 33.0036 147.537 32.7847 146.592 32.3466C146.094 32.1161 145.645 31.8409 145.244 31.5209V39.7472H140.021V15.8508H145.312V17.0108C145.696 16.6969 146.123 16.4254 146.592 16.1966C147.537 15.7355 148.575 15.5049 149.704 15.5049C151.295 15.5049 152.702 15.8854 153.923 16.6463C155.168 17.407 156.137 18.4445 156.828 19.7586C157.543 21.0728 157.9 22.5713 157.9 24.2543C157.9 25.9374 157.543 27.4359 156.828 28.7501C156.137 30.0642 155.168 31.1016 153.923 31.8624C152.702 32.6233 151.295 33.0036 149.704 33.0036ZM148.737 28.2313C149.497 28.2313 150.154 28.0584 150.707 27.7126C151.284 27.3668 151.733 26.894 152.056 26.2947C152.379 25.6953 152.54 25.0151 152.54 24.2543C152.54 23.4704 152.379 22.7789 152.056 22.1794C151.733 21.58 151.284 21.1189 150.707 20.7961C150.154 20.4502 149.509 20.2774 148.77 20.2774C148.033 20.2774 147.376 20.4502 146.8 20.7961C146.246 21.1189 145.809 21.58 145.486 22.1794C145.163 22.7789 145.002 23.4704 145.002 24.2543C145.002 25.0151 145.151 25.6953 145.451 26.2947C145.774 26.894 146.223 27.3668 146.8 27.7126C147.376 28.0584 148.021 28.2313 148.737 28.2313Z" fill="#686868"/>
<path id="Vector_10" d="M163.079 32.6924C164.047 32.9461 165.026 33.0728 166.018 33.0728C168.116 33.0728 169.776 32.5887 170.998 31.6204C172.242 30.6521 172.865 29.3495 172.865 27.7126C172.865 26.6521 172.67 25.799 172.277 25.1535C171.886 24.485 171.379 23.9547 170.756 23.5627C170.133 23.1708 169.476 22.8595 168.784 22.6289C168.093 22.3984 167.435 22.2025 166.814 22.0411C166.191 21.8797 165.684 21.6953 165.291 21.4877C164.9 21.2802 164.704 21.0036 164.704 20.6578C164.704 20.335 164.854 20.0929 165.153 19.9315C165.453 19.7471 165.902 19.655 166.502 19.655C167.125 19.655 167.758 19.7817 168.404 20.0353C169.072 20.2889 169.672 20.727 170.202 21.3495L173.211 18.3062C172.451 17.3379 171.459 16.6116 170.237 16.1275C169.038 15.6203 167.724 15.3667 166.295 15.3667C164.935 15.3667 163.747 15.5972 162.733 16.0583C161.718 16.5195 160.934 17.1535 160.381 17.9603C159.828 18.7442 159.551 19.678 159.551 20.7616C159.551 21.776 159.747 22.6175 160.139 23.2861C160.53 23.9315 161.039 24.4388 161.66 24.8076C162.283 25.1766 162.94 25.4648 163.632 25.6722C164.323 25.8797 164.981 26.0757 165.603 26.2602C166.225 26.4216 166.733 26.6175 167.125 26.8481C167.54 27.0556 167.747 27.3668 167.747 27.7817C167.747 28.1045 167.574 28.3581 167.228 28.5426C166.905 28.727 166.433 28.8192 165.811 28.8192C164.911 28.8192 164.081 28.6578 163.321 28.3351C162.56 27.9893 161.902 27.5166 161.349 26.9172L158.341 29.9604C158.918 30.5829 159.609 31.1363 160.416 31.6204C161.246 32.0814 162.133 32.4388 163.079 32.6924Z" fill="#686868"/>
<path id="Vector_11" d="M182.513 33.0382C180.969 33.0382 179.598 32.727 178.399 32.1045C177.222 31.4589 176.301 30.5828 175.632 29.4762C174.963 28.3466 174.629 27.0555 174.629 25.603V15.8508H179.92V25.5339C179.92 26.1102 180.012 26.6059 180.197 27.0209C180.404 27.4359 180.704 27.7587 181.096 27.9892C181.488 28.2197 181.961 28.335 182.513 28.335C183.298 28.335 183.92 28.0929 184.382 27.6087C184.843 27.1016 185.073 26.41 185.073 25.5339V15.8508H190.364V25.5684C190.364 27.044 190.03 28.3466 189.361 29.4762C188.692 30.5828 187.771 31.4589 186.594 32.1045C185.419 32.727 184.059 33.0382 182.513 33.0382Z" fill="#686868"/>
<path id="Vector_12" d="M198.285 15.8508H192.994V32.6578H198.285V22.8364C198.285 22.2601 198.401 21.7759 198.631 21.384C198.885 20.9921 199.22 20.6923 199.634 20.4849C200.05 20.2543 200.522 20.139 201.052 20.139C201.813 20.139 202.447 20.3811 202.954 20.8653C203.485 21.3263 203.75 21.9835 203.75 22.8364V32.6578H209.041V22.8364C209.041 22.2601 209.156 21.7759 209.387 21.384C209.641 20.9921 209.974 20.6923 210.39 20.4849C210.804 20.2543 211.277 20.139 211.807 20.139C212.569 20.139 213.202 20.3811 213.709 20.8653C214.239 21.3263 214.504 21.9835 214.504 22.8364V32.6578H219.796V22.2485C219.796 20.8423 219.497 19.6434 218.897 18.652C218.32 17.6375 217.525 16.8652 216.511 16.335C215.52 15.7816 214.378 15.5049 213.087 15.5049C211.773 15.5049 210.585 15.7932 209.525 16.3696C208.836 16.7368 208.234 17.2107 207.718 17.7913C207.237 17.184 206.653 16.687 205.962 16.3003C205.041 15.7702 203.992 15.5049 202.816 15.5049C201.571 15.5049 200.453 15.7702 199.462 16.3003C199.03 16.521 198.639 16.7852 198.285 17.093V15.8508Z" fill="#686868"/>
</g>
<defs>
<clipPath id="clip0_767_259">
<rect width="220.28" height="43.6197" fill="white" transform="translate(0 0.0905151)"/>
</clipPath>
</defs>
</svg>
