<?xml version="1.0" encoding="UTF-8"?>
<svg version="1.1" xmlns="http://www.w3.org/2000/svg" width="275" height="183">
<path d="M0 0 C90.75 0 181.5 0 275 0 C275 60.39 275 120.78 275 183 C184.25 183 93.5 183 0 183 C0 122.61 0 62.22 0 0 Z " fill="#DE2810" transform="translate(0,0)"/>
<path d="M0 0 C1.99775873 2.99663809 2.98997415 5.53662626 4.125 8.9375 C4.47820313 9.97777344 4.83140625 11.01804687 5.1953125 12.08984375 C6 15 6 15 6 19 C12.27 19 18.54 19 25 19 C21.82270675 22.17729325 19.21605594 24.74084058 15.6875 27.3125 C14.99011719 27.82425781 14.29273438 28.33601563 13.57421875 28.86328125 C13.05472656 29.23839844 12.53523438 29.61351563 12 30 C13.35253464 36.45054982 15.03060233 42.71105679 17 49 C16.27554688 48.52949219 15.55109375 48.05898437 14.8046875 47.57421875 C12.81597985 46.29349102 10.81543263 45.0309996 8.8046875 43.78515625 C6 42 6 42 3 39.625 C-1.00665877 38.79027942 -2.14721039 39.9785064 -5.5625 42.125 C-7.38036321 43.40910763 -9.19300321 44.70064569 -11 46 C-12.65673304 47.01637268 -14.32034497 48.02197302 -16 49 C-14.78194527 43.84669153 -13.34391442 38.87825188 -11.5859375 33.8828125 C-10.90095106 32.01036919 -10.90095106 32.01036919 -11 30 C-13.13481721 28.23760282 -15.27254058 26.57452059 -17.5 24.9375 C-19.68846608 23.3154872 -21.85039153 21.67421429 -24 20 C-24 19.67 -24 19.34 -24 19 C-18.06 19 -12.12 19 -6 19 C-5.3503125 16.2465625 -5.3503125 16.2465625 -4.6875 13.4375 C-3.50752402 8.6895014 -2.10397292 4.40832421 0 0 Z " fill="#FDDB06" transform="translate(42,18)"/>
<path d="M0 0 C0.53625 0.515625 1.0725 1.03125 1.625 1.5625 C4.00496499 3.32605545 4.00496499 3.32605545 7.25 2.6875 C8.1575 2.460625 9.065 2.23375 10 2 C9.773125 2.928125 9.54625 3.85625 9.3125 4.8125 C8.63680017 7.96826848 8.63680017 7.96826848 10.4375 9.875 C10.953125 10.24625 11.46875 10.6175 12 11 C10.02 11 8.04 11 6 11 C5.34 12.65 4.68 14.3 4 16 C3.67 16 3.34 16 3 16 C2.67 14.35 2.34 12.7 2 11 C-0.97 10.505 -0.97 10.505 -4 10 C-2.625 8.5 -2.625 8.5 -1 7 C-0.34 7 0.32 7 1 7 C0.67 4.69 0.34 2.38 0 0 Z " fill="#FAD60B" transform="translate(98,28)"/>
<path d="M0 0 C2 3 2 3 3 5 C5.52733235 5.65555119 5.52733235 5.65555119 8 6 C7.505 6.37125 7.01 6.7425 6.5 7.125 C4.40244486 9.74694393 4.78256165 11.73842472 5 15 C3.63875 14.690625 3.63875 14.690625 2.25 14.375 C-1.11027897 13.9872755 -2.24075815 14.19588033 -5 16 C-4.6596875 14.3603125 -4.6596875 14.3603125 -4.3125 12.6875 C-3.59853617 9.09468727 -3.59853617 9.09468727 -5.4375 7.0625 C-5.953125 6.711875 -6.46875 6.36125 -7 6 C-6.21625 5.938125 -5.4325 5.87625 -4.625 5.8125 C-3.75875 5.544375 -2.8925 5.27625 -2 5 C-0.62533375 2.52363988 -0.62533375 2.52363988 0 0 Z " fill="#FAD80B" transform="translate(102,55)"/>
<path d="M0 0 C0.33 0 0.66 0 1 0 C1.12375 1.175625 1.12375 1.175625 1.25 2.375 C1.72806339 5.14749104 1.72806339 5.14749104 4.0625 6.3125 C4.701875 6.539375 5.34125 6.76625 6 7 C5.360625 7.20625 4.72125 7.4125 4.0625 7.625 C1.65074923 8.89538209 1.65074923 8.89538209 1.25 12.125 C1.1675 13.07375 1.085 14.0225 1 15 C0.01 14.34 -0.98 13.68 -2 13 C-2 12.34 -2 11.68 -2 11 C-3.98 11 -5.96 11 -8 11 C-7.814375 10.071875 -7.62875 9.14375 -7.4375 8.1875 C-6.75876119 4.98656229 -6.75876119 4.98656229 -8 2 C-7.05125 2.04125 -6.1025 2.0825 -5.125 2.125 C-1.89755144 2.34973818 -1.89755144 2.34973818 0 0 Z " fill="#FAD70E" transform="translate(87,75)"/>
<path d="M0 0 C0.33 0 0.66 0 1 0 C1 1.65 1 3.3 1 5 C2.65 5.33 4.3 5.66 6 6 C5.67 6.66 5.34 7.32 5 8 C4.01 8.33 3.02 8.66 2 9 C1.67 10.65 1.34 12.3 1 14 C0.01 13.34 -0.98 12.68 -2 12 C-4.33199388 11.92094936 -6.66832622 11.91201231 -9 12 C-8.46375 11.46375 -7.9275 10.9275 -7.375 10.375 C-5.60932055 7.96052929 -5.60932055 7.96052929 -6.8125 4.75 C-7.204375 3.8425 -7.59625 2.935 -8 2 C-7.05125 2.04125 -6.1025 2.0825 -5.125 2.125 C-1.89755144 2.34973818 -1.89755144 2.34973818 0 0 Z " fill="#FAD90B" transform="translate(86,11)"/>
</svg>
