<svg width="16" height="16" viewBox="0 0 16 16" fill="none" xmlns="http://www.w3.org/2000/svg">
<rect width="16" height="16" rx="8" fill="#231F20"/>
<path d="M1.24272 7.57277C1.24272 7.09657 1.34906 6.67123 1.56173 6.29674C1.77903 5.91763 2.0726 5.62405 2.44247 5.416C2.81696 5.20333 3.23536 5.097 3.69769 5.097C4.23862 5.097 4.71251 5.23569 5.11936 5.51309C5.52621 5.79049 5.81054 6.17422 5.97235 6.66429H4.85583C4.74487 6.43313 4.58768 6.25975 4.38425 6.14417C4.18545 6.02859 3.95429 5.9708 3.69076 5.9708C3.40874 5.9708 3.15677 6.03784 2.93485 6.17191C2.71755 6.30136 2.54649 6.4863 2.42166 6.72671C2.30146 6.96712 2.24135 7.24914 2.24135 7.57277C2.24135 7.89178 2.30146 8.1738 2.42166 8.41883C2.54649 8.65924 2.71755 8.84649 2.93485 8.98056C3.15677 9.11002 3.40874 9.17474 3.69076 9.17474C3.95429 9.17474 4.18545 9.11695 4.38425 9.00137C4.58768 8.88116 4.74487 8.70548 4.85583 8.47431H5.97235C5.81054 8.96901 5.52621 9.35505 5.11936 9.63245C4.71713 9.90522 4.24324 10.0416 3.69769 10.0416C3.23536 10.0416 2.81696 9.93759 2.44247 9.72954C2.0726 9.51687 1.77903 9.22329 1.56173 8.8488C1.34906 8.47431 1.24272 8.04897 1.24272 7.57277Z" fill="white"/>
<path d="M13.2719 5.15941L11.9196 10H10.7753L9.86687 6.55333L8.91678 10L7.77945 10.0069L6.47568 5.15941H7.51592L8.36892 8.91815L9.35368 5.15941H10.4355L11.3648 8.89734L12.2247 5.15941H13.2719Z" fill="#F89923"/>
</svg>
