<svg width="30" height="29" viewBox="0 0 30 29" fill="none" xmlns="http://www.w3.org/2000/svg">
<g id="Social Icons" clip-path="url(#clip0_217_1901)">
<path id="Vector" d="M15.0401 0C7.26448 0 0.960938 6.30354 0.960938 14.0792C0.960938 20.6818 5.50683 26.2222 11.6392 27.7439V18.3818H8.73604V14.0792H11.6392V12.2253C11.6392 7.43326 13.8079 5.21212 18.5126 5.21212C19.4047 5.21212 20.9438 5.38727 21.5735 5.56185V9.46179C21.2412 9.42687 20.6639 9.40942 19.947 9.40942C17.6386 9.40942 16.7465 10.284 16.7465 12.5575V14.0792H21.3454L20.5553 18.3818H16.7465V28.0554C23.718 27.2134 29.1199 21.2776 29.1199 14.0792C29.1194 6.30354 22.8158 0 15.0401 0Z" fill="white"/>
</g>
<defs>
<clipPath id="clip0_217_1901">
<rect width="28.1584" height="28.1584" fill="white" transform="translate(0.960938)"/>
</clipPath>
</defs>
</svg>
