<svg width="30" height="30" viewBox="0 0 30 30" fill="none" xmlns="http://www.w3.org/2000/svg">
<g id="clarity:cursor-hand-click-line" clip-path="url(#clip0_767_845)">
<path id="Vector" d="M22.8825 12.4951C21.3832 11.6026 19.6078 11.2038 17.9133 11.3363C17.1532 11.3433 16.4112 11.4145 15.6874 11.5498C16.8853 8.92503 15.6579 5.80804 13.0331 4.61015C10.4083 3.41226 7.29129 4.6397 6.09341 7.26448C4.89552 9.88927 6.12295 13.0063 8.74774 14.2041C9.22333 14.4161 9.68078 14.5639 10.102 14.5834L10.5009 15.9948L9.20245 15.3226C8.05044 14.6784 6.57492 15.0954 5.86649 16.2656C5.22221 17.4176 5.55699 18.8471 6.709 19.4914L10.6392 22.1215C11.0214 22.9834 11.5779 23.7267 12.2446 24.3696C12.7286 24.8563 13.3408 25.3068 13.9168 25.6289L14.2614 26.8478C14.3702 27.2327 14.6993 27.4168 15.0842 27.308L23.8091 24.8419C24.1298 24.7512 24.3599 24.3398 24.2693 24.019L23.7978 22.351C24.5996 20.531 24.7153 18.4892 24.1894 16.6287L23.1377 12.9079C23.1293 12.6331 23.0289 12.5229 22.8825 12.4951ZM7.06423 10.454C6.46583 8.33695 7.72649 6.17937 9.86168 5.64512C11.9787 5.04672 14.1363 6.30739 14.6706 8.44258C14.997 9.59733 14.7739 10.7688 14.0752 11.7284L13.1685 8.52075C12.9786 7.97404 12.5868 7.52068 12.0733 7.25361C11.5599 6.98654 10.9637 6.92599 10.4071 7.08438C9.23417 7.34663 8.47972 8.59906 8.80612 9.75381L9.74905 13.0898C8.47711 12.7565 7.49105 11.7189 7.06423 10.454ZM22.9524 16.9091C23.488 18.559 23.364 20.326 22.636 21.9173C22.544 22.0819 22.4519 22.2465 22.5063 22.4389L22.8871 23.7862L15.4454 25.8896L15.1915 24.9915C15.1371 24.799 14.9544 24.6428 14.7898 24.5508C14.232 24.2928 13.7201 23.9525 13.2361 23.4658C12.6699 22.9331 12.1957 22.2358 11.8498 21.5022C11.8135 21.3739 11.7131 21.2637 11.6127 21.1536L7.49972 18.3672C7.25286 18.2292 7.05202 18.0088 6.96135 17.6881C6.88882 17.4315 6.92646 17.0744 7.06452 16.8276C7.40479 16.3157 8.04632 16.1344 8.60419 16.3924L10.9905 17.7269L11.5345 19.6515L12.5721 18.6655L9.96087 9.42741C9.89809 8.96021 10.1742 8.46649 10.7056 8.38558C11.1546 8.25864 11.6944 8.45247 11.8213 8.90155L13.9067 16.2792L15.2622 16.1731L14.4281 13.2221C14.4741 13.1398 14.5383 13.1216 14.5843 13.0394C15.0334 12.9124 15.5006 12.8496 15.9678 12.7869L16.8926 16.0587L17.9734 15.961L17.0305 12.625L17.8547 12.5999C18.1936 12.5734 18.5507 12.611 18.9077 12.6487L19.8144 15.8563L20.8952 15.7586L20.0611 12.8076C20.711 12.901 21.333 13.1409 21.909 13.463L22.9524 16.9091Z" fill="white"/>
</g>
<defs>
<clipPath id="clip0_767_845">
<rect width="24" height="24" fill="white" transform="translate(0.188416 6.71655) rotate(-15.7833)"/>
</clipPath>
</defs>
</svg>
