<svg width="106" height="27" viewBox="0 0 106 27" fill="none" xmlns="http://www.w3.org/2000/svg">
<g id="Logo" clip-path="url(#clip0_95_824)">
<path id="Vector" d="M17.311 13.1205C18.1721 12.3994 18.7197 11.3163 18.7197 10.1053C18.7197 8.89434 18.1721 7.81124 17.311 7.09013C17.4097 7.04234 17.5047 6.99048 17.5952 6.93427C18.1663 6.57913 18.8405 6.37402 19.5626 6.37402C21.6233 6.37402 23.2939 8.04462 23.2939 10.1053C23.2939 12.1661 21.6233 13.8366 19.5626 13.8366C18.8405 13.8366 18.1663 13.6315 17.5952 13.2764C17.5047 13.2202 17.4097 13.1683 17.311 13.1205Z" fill="#858585"/>
<path id="Vector_2" d="M16.275 10.6935C16.6602 9.6385 16.5929 8.4267 15.9874 7.37794C15.3818 6.32919 14.366 5.66499 13.2598 5.47105C13.3214 5.38034 13.3776 5.28793 13.4278 5.19402C13.7449 4.60088 14.2262 4.08617 14.8516 3.72513C16.6362 2.69476 18.9183 3.30623 19.9487 5.09088C20.979 6.87555 20.3676 9.1576 18.5829 10.1879C17.9576 10.549 17.2711 10.7084 16.5989 10.6865C16.4925 10.683 16.3843 10.6856 16.275 10.6935Z" fill="#858585"/>
<path id="Vector_3" d="M14.1639 9.10834C13.97 8.00207 13.3057 6.98627 12.257 6.38077C11.2082 5.77527 9.99644 5.70796 8.94141 6.09314C8.94941 5.9838 8.95196 5.87561 8.94844 5.76919C8.92651 5.09696 9.08596 4.41056 9.44699 3.78522C10.4774 2.00057 12.7594 1.3891 14.5441 2.41947C16.3287 3.44984 16.9402 5.73187 15.9098 7.51655C15.5488 8.14186 15.0341 8.62317 14.4409 8.94027C14.3471 8.99048 14.2546 9.04676 14.1639 9.10834Z" fill="#6C6C6C"/>
<path id="Vector_4" d="M11.5424 8.79242C10.8213 7.93131 9.73824 7.38373 8.52721 7.38373C7.31617 7.38373 6.2331 7.93131 5.512 8.79242C5.46424 8.69373 5.41236 8.59876 5.35613 8.50828C5.001 7.93711 4.7959 7.26297 4.7959 6.54089C4.7959 4.48014 6.46646 2.80957 8.52721 2.80957C10.588 2.80957 12.2585 4.48014 12.2585 6.54089C12.2585 7.26297 12.0534 7.93711 11.6983 8.50828C11.642 8.59876 11.5902 8.69373 11.5424 8.79242Z" fill="#858585"/>
<path id="Vector_5" d="M9.11398 9.82852C8.05895 9.44335 6.84713 9.51066 5.79837 10.1161C4.7496 10.7216 4.0854 11.7374 3.89147 12.8437C3.80076 12.7821 3.70835 12.7258 3.61443 12.6756C3.02129 12.3585 2.50658 11.8772 2.14555 11.2519C1.11517 9.46721 1.72664 7.18521 3.5113 6.15482C5.29596 5.12445 7.57798 5.73591 8.60839 7.52059C8.96943 8.1459 9.12888 8.83231 9.10688 9.50452C9.10343 9.61093 9.10598 9.71914 9.11398 9.82852Z" fill="#858585"/>
<path id="Vector_6" d="M7.5288 11.9408C6.4225 12.1347 5.40671 12.7989 4.80121 13.8477C4.19571 14.8965 4.1284 16.1083 4.51358 17.1633C4.40423 17.1553 4.29603 17.1527 4.18959 17.1562C3.51737 17.1782 2.83097 17.0187 2.20564 16.6577C0.420975 15.6273 -0.190494 13.3453 0.839879 11.5606C1.87025 9.77598 4.15229 9.16446 5.93695 10.1949C6.56228 10.5559 7.04357 11.0706 7.36066 11.6637C7.41087 11.7576 7.46722 11.85 7.5288 11.9408Z" fill="#858585"/>
<path id="Vector_7" d="M7.21233 14.5618C6.35122 15.2829 5.80362 16.366 5.80362 17.577C5.80362 18.788 6.35122 19.8711 7.21233 20.5923C7.11364 20.64 7.01866 20.6919 6.92822 20.7481C6.35704 21.1032 5.68288 21.3083 4.9608 21.3083C2.90006 21.3083 1.22949 19.6378 1.22949 17.577C1.22949 15.5163 2.90006 13.8457 4.9608 13.8457C5.68288 13.8457 6.35704 14.0508 6.92822 14.406C7.01866 14.4622 7.11364 14.514 7.21233 14.5618Z" fill="#858585"/>
<path id="Vector_8" d="M8.24797 16.9902C7.86273 18.0453 7.93004 19.2571 8.53555 20.3058C9.14107 21.3546 10.1569 22.0188 11.2631 22.2127C11.2016 22.3035 11.1453 22.3959 11.0951 22.4898C10.778 23.0829 10.2967 23.5976 9.67134 23.9586C7.88666 24.9891 5.60463 24.3775 4.57426 22.5929C3.54388 20.8082 4.15535 18.5262 5.94001 17.4958C6.56535 17.1348 7.25176 16.9753 7.92397 16.9973C8.03038 17.0008 8.13859 16.9982 8.24797 16.9902Z" fill="#858585"/>
<path id="Vector_9" d="M10.3597 18.5752C10.5536 19.6815 11.2178 20.6973 12.2666 21.3027C13.3154 21.9082 14.5272 21.9755 15.5822 21.5904C15.5742 21.6997 15.5717 21.8079 15.5751 21.9144C15.5971 22.5866 15.4377 23.273 15.0767 23.8983C14.0462 25.683 11.7643 26.2944 9.97956 25.264C8.19487 24.2337 7.58342 21.9517 8.61384 20.167C8.97487 19.5417 9.48956 19.0604 10.0827 18.7433C10.1766 18.6931 10.269 18.6367 10.3597 18.5752Z" fill="#858585"/>
<path id="Vector_10" d="M12.9812 18.8926C13.7023 19.7537 14.7854 20.3013 15.9964 20.3013C17.2075 20.3013 18.2906 19.7537 19.0117 18.8926C19.0594 18.9913 19.1113 19.0862 19.1675 19.1766C19.5227 19.7478 19.7278 20.422 19.7278 21.1441C19.7278 23.2049 18.0572 24.8754 15.9964 24.8754C13.9357 24.8754 12.2651 23.2049 12.2651 21.1441C12.2651 20.422 12.4702 19.7478 12.8253 19.1766C12.8816 19.0862 12.9335 18.9913 12.9812 18.8926Z" fill="#858585"/>
<path id="Vector_11" d="M15.4092 17.856C16.4642 18.2412 17.676 18.1739 18.7248 17.5684C19.7735 16.9629 20.4377 15.9471 20.6317 14.8408C20.7224 14.9023 20.8148 14.9587 20.9087 15.0089C21.5019 15.326 22.0166 15.8073 22.3776 16.4326C23.408 18.2173 22.7965 20.4993 21.0119 21.5297C19.2272 22.5601 16.9452 21.9486 15.9148 20.1639C15.5537 19.5386 15.3943 18.8522 15.4162 18.18C15.4197 18.0736 15.4172 17.9654 15.4092 17.856Z" fill="#858585"/>
<path id="Vector_12" d="M19.7244 13.8337C19.7237 13.835 19.7229 13.8363 19.7221 13.8376C19.1167 14.8864 18.1009 15.5506 16.9946 15.7445C17.0561 15.8353 17.1125 15.9277 17.1627 16.0216C17.4798 16.6147 17.9611 17.1294 18.5864 17.4905C20.3711 18.5209 22.6531 17.9093 23.6835 16.1247C24.5668 14.5947 24.2435 12.6991 23.0086 11.54C22.4661 12.8419 21.2073 13.7705 19.7244 13.8337Z" fill="#858585"/>
<path id="Vector_13" d="M32.9327 6.7866V17.9307H30.4629V6.7866H32.9327ZM30.8544 17.9307L30.8996 15.7471H37.2999V17.9307H30.8544ZM37.6865 14.1507C37.6865 13.3576 37.8521 12.6649 38.1834 12.0725C38.5148 11.4701 38.9816 11.0033 39.584 10.672C40.1863 10.3407 40.8891 10.175 41.6923 10.175C42.4955 10.175 43.1932 10.3407 43.7856 10.672C44.388 11.0033 44.8548 11.4701 45.1861 12.0725C45.5174 12.6649 45.6831 13.3576 45.6831 14.1507C45.6831 14.9439 45.5174 15.6367 45.1861 16.229C44.8548 16.8213 44.388 17.2831 43.7856 17.6145C43.1932 17.9458 42.4955 18.1114 41.6923 18.1114C40.8891 18.1114 40.1863 17.9458 39.584 17.6145C38.9816 17.2831 38.5148 16.8213 38.1834 16.229C37.8521 15.6367 37.6865 14.9439 37.6865 14.1507ZM40.0207 14.1357C40.0207 14.5172 40.091 14.8536 40.2315 15.1447C40.3721 15.4258 40.5679 15.6467 40.8188 15.8073C41.0699 15.9579 41.361 16.0332 41.6923 16.0332C42.0236 16.0332 42.3148 15.9579 42.5658 15.8073C42.8168 15.6467 43.0075 15.4258 43.1381 15.1447C43.2786 14.8536 43.3489 14.5172 43.3489 14.1357C43.3489 13.7542 43.2786 13.4229 43.1381 13.1418C43.0075 12.8607 42.8168 12.6448 42.5658 12.4942C42.3148 12.3336 42.0236 12.2532 41.6923 12.2532C41.361 12.2532 41.0699 12.3336 40.8188 12.4942C40.5679 12.6448 40.3721 12.8607 40.2315 13.1418C40.091 13.4229 40.0207 13.7542 40.0207 14.1357ZM46.2068 14.0303C46.2068 13.2572 46.3624 12.5796 46.6736 11.9972C46.9849 11.4149 47.4116 10.9631 47.9537 10.6418C48.4959 10.3105 49.1183 10.1449 49.8211 10.1449C50.4134 10.1449 50.9355 10.2654 51.3873 10.5063C51.8492 10.7473 52.1603 11.0636 52.321 11.4551L52.0951 11.6057L52.2759 10.4009H54.3691V17.4488C54.3691 18.3323 54.1984 19.0953 53.8571 19.7379C53.5157 20.3905 53.0288 20.8925 52.3963 21.2438C51.7738 21.5952 51.0309 21.7709 50.1674 21.7709C49.4446 21.7709 48.7921 21.6253 48.2097 21.3342C47.6374 21.0531 47.1706 20.6515 46.8092 20.1294C46.4578 19.6073 46.247 19.005 46.1767 18.3222H48.526C48.5461 18.754 48.7167 19.0853 49.038 19.3162C49.3693 19.5471 49.791 19.6626 50.303 19.6626C50.8753 19.6626 51.317 19.502 51.6283 19.1807C51.9395 18.8694 52.0951 18.4528 52.0951 17.9307V16.3344L52.3059 16.5302C52.1453 16.9218 51.8341 17.238 51.3723 17.4789C50.9104 17.7199 50.3783 17.8404 49.7759 17.8404C49.0832 17.8404 48.4657 17.6798 47.9236 17.3585C47.3915 17.0372 46.9698 16.5905 46.6585 16.0182C46.3574 15.4459 46.2068 14.7833 46.2068 14.0303ZM48.5561 13.97C48.5561 14.3315 48.6314 14.6527 48.782 14.9338C48.9326 15.215 49.1334 15.4358 49.3844 15.5965C49.6354 15.7471 49.9114 15.8224 50.2127 15.8224C50.5741 15.8224 50.8903 15.7471 51.1614 15.5965C51.4425 15.4358 51.6584 15.215 51.809 14.9338C51.9696 14.6527 52.0499 14.3315 52.0499 13.97C52.0499 13.5986 51.9696 13.2823 51.809 13.0213C51.6483 12.7502 51.4274 12.5393 51.1463 12.3888C50.8753 12.2382 50.559 12.1629 50.1976 12.1629C49.8964 12.1629 49.6203 12.2382 49.3693 12.3888C49.1183 12.5393 48.9175 12.7502 48.767 13.0213C48.6263 13.2924 48.5561 13.6086 48.5561 13.97ZM55.1956 14.1507C55.1956 13.3576 55.3613 12.6649 55.6926 12.0725C56.0239 11.4701 56.4907 11.0033 57.0932 10.672C57.6955 10.3407 58.3983 10.175 59.2015 10.175C60.0047 10.175 60.7024 10.3407 61.2948 10.672C61.8972 11.0033 62.364 11.4701 62.6953 12.0725C63.0266 12.6649 63.1923 13.3576 63.1923 14.1507C63.1923 14.9439 63.0266 15.6367 62.6953 16.229C62.364 16.8213 61.8972 17.2831 61.2948 17.6145C60.7024 17.9458 60.0047 18.1114 59.2015 18.1114C58.3983 18.1114 57.6955 17.9458 57.0932 17.6145C56.4907 17.2831 56.0239 16.8213 55.6926 16.229C55.3613 15.6367 55.1956 14.9439 55.1956 14.1507ZM57.5299 14.1357C57.5299 14.5172 57.6001 14.8536 57.7407 15.1447C57.8812 15.4258 58.077 15.6467 58.3281 15.8073C58.579 15.9579 58.8702 16.0332 59.2015 16.0332C59.5328 16.0332 59.824 15.9579 60.075 15.8073C60.3259 15.6467 60.5167 15.4258 60.6472 15.1447C60.7878 14.8536 60.8581 14.5172 60.8581 14.1357C60.8581 13.7542 60.7878 13.4229 60.6472 13.1418C60.5167 12.8607 60.3259 12.6448 60.075 12.4942C59.824 12.3336 59.5328 12.2532 59.2015 12.2532C58.8702 12.2532 58.579 12.3336 58.3281 12.4942C58.077 12.6448 57.8812 12.8607 57.7407 13.1418C57.6001 13.4229 57.5299 13.7542 57.5299 14.1357ZM64.1678 17.9307V10.4009H66.502V17.9307H64.1678ZM65.3424 9.22625C64.971 9.22625 64.6547 9.10073 64.3936 8.84976C64.1427 8.58873 64.0172 8.27245 64.0172 7.90101C64.0172 7.52956 64.1427 7.21832 64.3936 6.96728C64.6547 6.71632 64.971 6.59082 65.3424 6.59082C65.7038 6.59082 66.0101 6.71632 66.261 6.96728C66.5221 7.21832 66.6526 7.52956 66.6526 7.90101C66.6526 8.27245 66.5221 8.58873 66.261 8.84976C66.0101 9.10073 65.7038 9.22625 65.3424 9.22625ZM68.0114 21.5451V10.4009H70.1351L70.2551 11.3196C70.4661 10.9682 70.8027 10.6871 71.2641 10.4762C71.7261 10.2654 72.2234 10.16 72.7551 10.16C73.4578 10.16 74.0703 10.3156 74.5923 10.6268C75.1144 10.938 75.5261 11.3848 75.8275 11.9671C76.1282 12.5393 76.2889 13.2321 76.3096 14.0453C76.3296 14.8385 76.1985 15.5463 75.9178 16.1687C75.6365 16.7811 75.2303 17.2631 74.6978 17.6145C74.1654 17.9659 73.5234 18.1416 72.7703 18.1416C72.2482 18.1416 71.7613 18.0512 71.3096 17.8705C70.8578 17.6898 70.5213 17.4589 70.3006 17.1778V21.5451H68.0114ZM70.3454 14.1658C70.3454 14.5373 70.4206 14.8686 70.5716 15.1598C70.7323 15.4409 70.9482 15.6618 71.2192 15.8224C71.4999 15.973 71.8213 16.0482 72.1827 16.0482C72.5544 16.0482 72.871 15.968 73.1316 15.8073C73.4027 15.6467 73.6089 15.4258 73.7489 15.1447C73.8999 14.8636 73.9751 14.5373 73.9751 14.1658C73.9751 13.7943 73.8999 13.468 73.7489 13.1869C73.6089 12.9058 73.4027 12.6849 73.1316 12.5243C72.871 12.3637 72.5544 12.2833 72.1827 12.2833C71.8213 12.2833 71.4999 12.3637 71.2192 12.5243C70.9482 12.6749 70.7323 12.8908 70.5716 13.1719C70.4206 13.453 70.3454 13.7843 70.3454 14.1658ZM76.7068 15.5513H78.8006C78.8006 15.8123 78.8854 16.0182 79.0565 16.1687C79.2372 16.3193 79.4978 16.3947 79.8392 16.3947C80.0399 16.3947 80.2061 16.3696 80.3365 16.3193C80.4772 16.2691 80.5827 16.1989 80.6523 16.1085C80.733 16.0081 80.773 15.8977 80.773 15.7772C80.773 15.6467 80.7282 15.5362 80.6378 15.4459C80.5572 15.3556 80.4165 15.2853 80.2158 15.2351L78.8909 14.8887C78.1475 14.6879 77.6206 14.3917 77.3096 14.0002C76.9978 13.6086 76.8427 13.1618 76.8427 12.6598C76.8427 12.1578 76.9682 11.7211 77.2192 11.3497C77.4799 10.9682 77.8316 10.677 78.273 10.4762C78.7151 10.2654 79.2116 10.16 79.7641 10.16C80.5972 10.16 81.2799 10.3909 81.8123 10.8527C82.3544 11.3045 82.6406 11.9219 82.6709 12.705H80.5772C80.5875 12.444 80.5123 12.2382 80.3516 12.0876C80.1909 11.9269 79.9799 11.8467 79.7192 11.8467C79.4882 11.8467 79.2972 11.9069 79.1468 12.0273C79.0061 12.1378 78.9358 12.2934 78.9358 12.4942C78.9358 12.6849 79.0061 12.8255 79.1468 12.9159C79.2875 12.9962 79.4778 13.0665 79.7192 13.1267L81.0592 13.458C81.682 13.6086 82.1537 13.8647 82.4751 14.226C82.7965 14.5875 82.9565 15.0493 82.9565 15.6116C82.9565 16.3846 82.6709 16.997 82.0985 17.4488C81.5261 17.9006 80.7834 18.1265 79.8696 18.1265C78.9261 18.1265 78.1675 17.8906 77.5958 17.4187C77.033 16.9368 76.7372 16.3143 76.7068 15.5513ZM86.6572 18.1265C85.7737 18.1265 85.091 17.8504 84.6089 17.2982C84.1275 16.746 83.8861 16.0231 83.8861 15.1296V10.4009H86.2054V14.2863C86.2054 14.9891 86.3309 15.4609 86.582 15.7019C86.833 15.9429 87.164 16.0633 87.5758 16.0633C88.1082 16.0633 88.4744 15.9127 88.6751 15.6116C88.8758 15.3104 88.9765 14.8787 88.9765 14.3164V10.4009H91.2958V17.9307H89.1123L88.9613 17.0874C88.7303 17.3986 88.404 17.6496 87.9827 17.8404C87.5606 18.0311 87.1192 18.1265 86.6572 18.1265ZM95.1241 17.9307H92.7896V10.4009H94.9585L95.1241 11.696L94.8682 11.4249C95.0689 11.0434 95.3703 10.7372 95.7716 10.5063C96.1834 10.2654 96.6247 10.1449 97.0971 10.1449C97.8399 10.1449 98.422 10.3105 98.844 10.6418C99.2758 10.9731 99.5868 11.4099 99.7771 11.952H99.4158C99.5365 11.4099 99.8275 10.9731 100.29 10.6418C100.752 10.3105 101.303 10.1449 101.946 10.1449C102.92 10.1449 103.638 10.4059 104.1 10.928C104.561 11.45 104.792 12.1428 104.792 13.0062V17.9307H102.534V13.5785C102.534 13.1066 102.418 12.7552 102.187 12.5243C101.966 12.2934 101.67 12.178 101.299 12.178C101.078 12.178 100.867 12.2282 100.666 12.3285C100.465 12.4189 100.299 12.5845 100.169 12.8255C100.039 13.0565 99.973 13.3878 99.973 13.8194V17.9307H97.684V13.5785C97.684 13.1066 97.5737 12.7602 97.353 12.5394C97.1316 12.3085 96.8358 12.193 96.464 12.193C96.2434 12.193 96.0275 12.2432 95.8165 12.3436C95.6158 12.434 95.4503 12.5996 95.3199 12.8406C95.1896 13.0715 95.1241 13.3978 95.1241 13.8194V17.9307Z" fill="#858585"/>
</g>
<defs>
<clipPath id="clip0_95_824">
<rect width="105.517" height="26.2069" fill="white" transform="translate(0.339355)"/>
</clipPath>
</defs>
</svg>
