<svg width="111" height="21" viewBox="0 0 111 21" fill="none" xmlns="http://www.w3.org/2000/svg">
<g id="Logo" clip-path="url(#clip0_95_892)">
<path id="Vector" d="M26.5972 0.878906H29.3521V15.9058H33.8852V18.4104H26.5972V0.878906Z" fill="#858585"/>
<path id="Vector_2" d="M39.0907 18.6612C37.7383 18.6612 36.7031 18.2772 35.9851 17.5092C35.2672 16.7411 34.9082 15.6559 34.9082 14.2533V5.03682C34.9082 3.6343 35.2672 2.54902 35.9851 1.78098C36.7031 1.01293 37.7383 0.628906 39.0907 0.628906C40.4431 0.628906 41.4783 1.01293 42.1963 1.78098C42.9142 2.54902 43.2732 3.6343 43.2732 5.03682V14.2533C43.2732 15.6559 42.9142 16.7411 42.1963 17.5092C41.4783 18.2772 40.4431 18.6612 39.0907 18.6612ZM39.0907 16.1568C40.0424 16.1568 40.5183 15.5807 40.5183 14.4286V4.8615C40.5183 3.70943 40.0424 3.1334 39.0907 3.1334C38.139 3.1334 37.6631 3.70943 37.6631 4.8615V14.4286C37.6631 15.5807 38.139 16.1568 39.0907 16.1568Z" fill="#858585"/>
<path id="Vector_3" d="M49.0429 18.6612C47.7072 18.6612 46.6887 18.2856 45.9874 17.5342C45.2862 16.7662 44.9355 15.6726 44.9355 14.2533V5.03682C44.9355 3.6176 45.2862 2.53232 45.9874 1.78098C46.6887 1.01293 47.7072 0.628906 49.0429 0.628906C50.3787 0.628906 51.3971 1.01293 52.0984 1.78098C52.7997 2.53232 53.1503 3.6176 53.1503 5.03682V6.53951H50.5456V4.8615C50.5456 3.70943 50.0698 3.1334 49.118 3.1334C48.1664 3.1334 47.6905 3.70943 47.6905 4.8615V14.4537C47.6905 15.5891 48.1664 16.1568 49.118 16.1568C50.0698 16.1568 50.5456 15.5891 50.5456 14.4537V11.0226H49.1682V8.51808H53.1503V14.2533C53.1503 15.6726 52.7997 16.7662 52.0984 17.5342C51.3971 18.2856 50.3787 18.6612 49.0429 18.6612Z" fill="#858585"/>
<path id="Vector_4" d="M58.9012 18.6612C57.5488 18.6612 56.5136 18.2772 55.7957 17.5092C55.0777 16.7411 54.7188 15.6559 54.7188 14.2533V5.03682C54.7188 3.6343 55.0777 2.54902 55.7957 1.78098C56.5136 1.01293 57.5488 0.628906 58.9012 0.628906C60.2537 0.628906 61.2889 1.01293 62.0068 1.78098C62.7248 2.54902 63.0838 3.6343 63.0838 5.03682V14.2533C63.0838 15.6559 62.7248 16.7411 62.0068 17.5092C61.2889 18.2772 60.2537 18.6612 58.9012 18.6612ZM58.9012 16.1568C59.853 16.1568 60.3288 15.5807 60.3288 14.4286V4.8615C60.3288 3.70943 59.853 3.1334 58.9012 3.1334C57.9496 3.1334 57.4737 3.70943 57.4737 4.8615V14.4286C57.4737 15.5807 57.9496 16.1568 58.9012 16.1568Z" fill="#858585"/>
<path id="Vector_5" d="M64.9526 0.878906H67.7076V18.4104H64.9526V0.878906Z" fill="#858585"/>
<path id="Vector_6" d="M69.7705 0.878906H73.8278C75.1967 0.878906 76.2236 1.24623 76.9084 1.98089C77.5933 2.71553 77.9353 3.79246 77.9353 5.21168V6.93977C77.9353 8.35901 77.5933 9.4359 76.9084 10.1706C76.2236 10.9052 75.1967 11.2725 73.8278 11.2725H72.5257V18.4104H69.7705V0.878906ZM73.8278 8.76804C74.2788 8.76804 74.6126 8.6428 74.8298 8.39239C75.0636 8.1419 75.1802 7.71618 75.1802 7.11508V5.03637C75.1802 4.43528 75.0636 4.00952 74.8298 3.75907C74.6126 3.50862 74.2788 3.3834 73.8278 3.3834H72.5257V8.76804H73.8278Z" fill="#858585"/>
<path id="Vector_7" d="M83.1105 18.6612C81.7753 18.6612 80.7649 18.2856 80.0801 17.5342C79.396 16.7662 79.0532 15.6726 79.0532 14.2533V13.2515H81.658V14.4537C81.658 15.5891 82.1339 16.1568 83.0856 16.1568C83.5532 16.1568 83.9036 16.0232 84.1374 15.7561C84.3877 15.4722 84.5132 15.0214 84.5132 14.4036C84.5132 13.669 84.3463 13.0261 84.0125 12.4752C83.6787 11.9075 83.0608 11.2312 82.1587 10.4465C81.0236 9.4447 80.2305 8.54311 79.7794 7.74166C79.3291 6.92353 79.1036 6.00522 79.1036 4.98673C79.1036 3.60091 79.4539 2.53232 80.1553 1.78098C80.8567 1.01293 81.8753 0.628906 83.2112 0.628906C84.5298 0.628906 85.5236 1.01293 86.1912 1.78098C86.876 2.53232 87.2181 3.6176 87.2181 5.03682V5.76312H84.6132V4.8615C84.6132 4.26042 84.4967 3.82631 84.2629 3.55916C84.0291 3.27532 83.687 3.1334 83.236 3.1334C82.3174 3.1334 81.8587 3.69273 81.8587 4.81141C81.8587 5.44588 82.0256 6.03861 82.3594 6.58959C82.7098 7.14056 83.336 7.80842 84.238 8.59318C85.3898 9.59497 86.1829 10.505 86.6174 11.3231C87.0512 12.1412 87.2684 13.1012 87.2684 14.2032C87.2684 15.6392 86.9091 16.7411 86.1912 17.5092C85.4898 18.2772 84.4629 18.6612 83.1105 18.6612Z" fill="#858585"/>
<path id="Vector_8" d="M92.8551 18.6608C91.5193 18.6608 90.5007 18.2851 89.7993 17.5338C89.0979 16.7658 88.7476 15.6721 88.7476 14.2529V0.878906H91.5027V14.4533C91.5027 15.0543 91.6193 15.4885 91.8531 15.7556C92.1034 16.0227 92.4545 16.1563 92.9048 16.1563C93.3558 16.1563 93.6979 16.0227 93.9317 15.7556C94.182 15.4885 94.3076 15.0543 94.3076 14.4533V0.878906H96.962V14.2529C96.962 15.6721 96.6117 16.7658 95.9103 17.5338C95.2089 18.2851 94.1903 18.6608 92.8551 18.6608Z" fill="#858585"/>
<path id="Vector_9" d="M98.9243 0.878906H102.857L104.61 13.4264H104.659L106.413 0.878906H110.345V18.4104H107.74V5.13655H107.691L105.686 18.4104H103.382L101.379 5.13655H101.329V18.4104H98.9243V0.878906Z" fill="#858585"/>
<path id="Vector_10" d="M0 18.4104C3.3893 18.4104 6.13683 15.6628 6.13683 12.2736C6.13683 8.88428 3.3893 6.13672 0 6.13672V10.4325C1.01678 10.4325 1.84104 11.2568 1.84104 12.2736C1.84104 13.2903 1.01678 14.1146 0 14.1146V18.4104Z" fill="#858585"/>
<path id="Vector_11" d="M20.4565 8.18235C19.4078 7.85014 18.291 7.6709 17.1323 7.6709C11.0599 7.6709 6.13721 12.5937 6.13721 18.6661C6.13721 19.2756 6.18681 19.8735 6.28216 20.456H13.1138C12.8699 19.9092 12.7344 19.3035 12.7344 18.6661C12.7344 16.2371 14.7034 14.268 17.1323 14.268C18.4599 14.268 19.6501 14.8562 20.4565 15.7862V8.18235Z" fill="#858585"/>
<path id="Vector_12" d="M1.0791 0C1.58789 4.60258 5.48999 8.18248 10.2282 8.18248C14.9663 8.18248 18.8685 4.60258 19.3772 0H12.7941C12.3877 1.01883 11.392 1.73877 10.2282 1.73877C9.06433 1.73877 8.06868 1.01883 7.6622 0H1.0791Z" fill="#858585"/>
</g>
<defs>
<clipPath id="clip0_95_892">
<rect width="110.345" height="20.6896" fill="white"/>
</clipPath>
</defs>
</svg>
